<svg width="235" height="235" viewBox="0 0 235 235" fill="none" xmlns="http://www.w3.org/2000/svg">
<g filter="url(#filter0_d_103_63)">
<rect x="4" width="227" height="227" rx="31" fill="#2D9CDB"/>
<path d="M154.212 120.916C153.914 120.773 142.76 115.28 140.778 114.567C139.969 114.276 139.102 113.993 138.18 113.993C136.674 113.993 135.408 114.743 134.423 116.218C133.309 117.874 129.936 121.817 128.894 122.994C128.757 123.15 128.572 123.336 128.46 123.336C128.361 123.336 126.634 122.625 126.112 122.398C114.146 117.2 105.064 104.701 103.819 102.594C103.641 102.291 103.634 102.153 103.632 102.153C103.676 101.993 104.078 101.589 104.286 101.381C104.893 100.78 105.552 99.9877 106.188 99.2212C106.49 98.8581 106.792 98.4945 107.089 98.1517C108.013 97.0767 108.424 96.2422 108.901 95.2755L109.151 94.7733C110.315 92.4599 109.32 90.5077 108.999 89.8773C108.735 89.3497 104.026 77.983 103.525 76.7888C102.321 73.9072 100.73 72.5654 98.5186 72.5654C98.3134 72.5654 98.5186 72.5654 97.6582 72.6017C96.6105 72.6459 90.9053 73.397 88.3828 74.9871C85.7078 76.6736 81.1824 82.0494 81.1824 91.5037C81.1824 100.013 86.5821 108.047 88.9004 111.102C88.9581 111.179 89.0639 111.336 89.2174 111.56C98.0958 124.526 109.164 134.136 120.384 138.618C131.186 142.933 136.301 143.431 139.209 143.431C139.21 143.431 139.21 143.431 139.21 143.431C140.432 143.431 141.41 143.335 142.273 143.25L142.82 143.198C146.552 142.867 154.752 138.618 156.617 133.435C158.087 129.352 158.474 124.891 157.497 123.272C156.827 122.171 155.673 121.617 154.212 120.916Z" fill="white"/>
<path d="M118.858 33C77.4211 33 43.7094 66.4583 43.7094 107.584C43.7094 120.886 47.2691 133.906 54.0126 145.302L41.1054 183.375C40.865 184.085 41.0438 184.87 41.5689 185.404C41.9479 185.791 42.4621 186 42.9871 186C43.1883 186 43.391 185.97 43.5887 185.907L83.2892 173.291C94.1532 179.096 106.432 182.16 118.859 182.16C160.292 182.16 194 148.705 194 107.584C194 66.4583 160.292 33 118.858 33ZM118.858 166.624C107.165 166.624 95.8397 163.247 86.1043 156.859C85.777 156.644 85.3969 156.534 85.0144 156.534C84.8123 156.534 84.6096 156.564 84.4124 156.627L64.5249 162.949L70.9449 144.008C71.1525 143.395 71.0487 142.719 70.6662 142.196C63.2527 132.067 59.3338 120.098 59.3338 107.584C59.3338 75.0253 86.0363 48.5365 118.858 48.5365C151.675 48.5365 178.375 75.0253 178.375 107.584C178.375 140.139 151.676 166.624 118.858 166.624Z" fill="white"/>
</g>
<defs>
<filter id="filter0_d_103_63" x="0" y="0" width="235" height="235" filterUnits="userSpaceOnUse" color-interpolation-filters="sRGB">
<feFlood flood-opacity="0" result="BackgroundImageFix"/>
<feColorMatrix in="SourceAlpha" type="matrix" values="0 0 0 0 0 0 0 0 0 0 0 0 0 0 0 0 0 0 127 0" result="hardAlpha"/>
<feOffset dy="4"/>
<feGaussianBlur stdDeviation="2"/>
<feComposite in2="hardAlpha" operator="out"/>
<feColorMatrix type="matrix" values="0 0 0 0 0 0 0 0 0 0 0 0 0 0 0 0 0 0 0.25 0"/>
<feBlend mode="normal" in2="BackgroundImageFix" result="effect1_dropShadow_103_63"/>
<feBlend mode="normal" in="SourceGraphic" in2="effect1_dropShadow_103_63" result="shape"/>
</filter>
</defs>
</svg>
