<svg width="227" height="227" viewBox="0 0 227 227" fill="none" xmlns="http://www.w3.org/2000/svg">
<rect width="227" height="227" rx="31" fill="#2D9CDB"/>
<path d="M48.0862 47.9667L76.5237 41.1698C79.6136 40.4335 82.7854 42.1044 84.0432 45.1063L97.1682 76.8251C98.3167 79.6005 97.5511 82.8573 95.2815 84.7548L78.7112 98.8016C88.555 120.523 105.754 138.592 127.164 148.985L140.727 131.823C142.586 129.473 145.703 128.68 148.383 129.869L179.008 143.463C181.934 144.794 183.547 148.079 182.836 151.279L176.274 180.732C175.59 183.791 172.965 186 169.875 186C99.8479 186 43.0003 127.235 43.0003 54.5936C43.0003 51.4218 45.1057 48.6747 48.0862 47.9667Z" fill="white"/>
</svg>
