<svg width="436" height="382" viewBox="0 0 436 382" fill="none" xmlns="http://www.w3.org/2000/svg">
<path d="M368.651 188.54C368.651 214.215 362.132 238.317 350.8 259.171C342.476 274.419 331.495 287.937 318.558 298.993C311.037 305.438 302.813 311.097 294.038 315.76C282.405 321.943 269.769 326.502 256.531 329.017C248.609 330.536 240.385 331.322 232.062 331.322C169.834 331.322 117.285 287.833 100.838 228.309C99.0826 222.022 97.7789 215.577 96.8763 209.027C95.9738 202.373 95.4723 195.509 95.4723 188.592C95.4723 172.716 97.9293 157.468 102.492 143.216C104.949 135.514 108.008 128.126 111.618 121.105C121.196 102.504 134.584 86.4179 150.68 73.8949C154.641 70.8035 158.803 67.9741 163.065 65.3018C178.308 55.9751 195.357 49.6874 213.609 47.12C219.626 46.2816 225.794 45.8101 232.012 45.8101C233.967 45.8101 235.873 45.8625 237.828 45.9149C298.702 48.5871 349.296 92.8627 364.188 152.281C365.993 159.512 367.297 167.005 367.999 174.655C368.45 179.213 368.651 183.824 368.651 188.54Z" fill="url(#paint0_radial_101_5)"/>
<path d="M350.8 259.119C342.476 274.367 331.495 287.885 318.558 298.941C305.722 267.45 265.306 203.421 150.68 73.7902C154.641 70.6987 158.803 67.8693 163.065 65.197C187.886 91.71 234.97 141.54 286.366 194.356C307.627 215.577 329.239 237.427 350.8 259.119Z" fill="#2289BF"/>
<path d="M284.762 285.475C280.5 286.208 272.076 278.401 268.867 276.253C256.983 268.184 245.4 259.538 233.917 250.84C201.124 226.056 169.032 200.12 137.843 173.188C126.16 163.075 114.126 153.329 102.492 143.216C104.949 135.514 108.008 128.126 111.618 121.105C134.534 152.334 189.39 209.342 284.762 285.475Z" fill="#1B7FBA"/>
<path d="M368.049 174.655C344.031 154.115 287.369 105.91 229.454 59.119C223.588 54.9796 218.272 50.8926 213.659 47.0153C219.676 46.1769 225.844 45.7053 232.062 45.7053C234.017 45.7053 235.923 45.7577 237.878 45.8101C251.317 57.3375 312.09 109.42 364.238 152.176C366.044 159.512 367.347 167.005 368.049 174.655Z" fill="#1F88BB"/>
<path d="M96.8262 208.975C141.002 234.23 218.323 277.772 279.647 308.687C284.611 311.097 289.425 313.455 294.038 315.76C282.405 321.943 269.769 326.502 256.531 329.017C237.527 312.774 203.982 289.667 145.916 256.761C128.466 245.705 113.574 236.326 100.787 228.309" fill="#1A7DB7"/>
<path d="M364.74 255.504C340.822 231.453 316.653 206.984 293.036 183.405C232.513 121.21 178.409 63.4156 164.218 48.168C179.161 40.5704 195.106 35.6975 211.353 33.6016C168.982 6.14551 137.141 -6.5346 129.469 3.31606C123.653 10.7565 132.678 29.7766 152.234 54.9797C366.946 295.011 324.776 309.158 324.776 309.158C324.525 309.368 324.224 309.63 323.924 309.84C374.819 343.112 412.275 358.883 420.8 347.985C429.424 336.981 408.565 299.517 364.74 255.504Z" fill="url(#paint1_linear_101_5)"/>
<path d="M146.969 58.333C146.969 58.333 126.661 74.6809 118.087 90.9764C114.176 101.613 164.168 166.69 291.531 268.446C287.52 269.127 279.647 261.844 276.689 259.8C265.557 252.255 254.776 244.186 244.046 236.064C213.408 212.905 183.473 188.697 154.34 163.494C132.979 144.998 110.415 127.864 91.511 106.486C79.2761 92.6532 45.4798 48.6919 65.6874 29.7766C69.4982 26.2135 74.9137 25.0084 79.9781 25.3228C93.8176 26.2659 108.008 34.1255 119.942 40.8847C122.048 42.1423 146.067 59.0666 146.969 58.333Z" fill="url(#paint2_linear_101_5)"/>
<path d="M246.403 356.368C239.683 350.185 231.861 344.998 224.992 339.444C159.003 286.156 94.7703 230.929 85.4437 222.86C83.2374 208.451 82.9366 193.623 84.7417 178.847C54.7562 170.411 34.4483 169.52 30.2865 178.113C25.8739 187.23 40.6159 205.359 68.0441 227.366C68.0943 227.419 68.1444 227.471 68.1945 227.471C68.9968 228.1 69.7991 228.781 70.6515 229.41C128.316 275.257 219.075 353.434 219.626 353.958C142.105 340.859 110.214 303.447 97.6786 280.235C88.4021 278.925 82.2847 279.816 80.5799 283.326C80.1286 284.27 80.0283 285.318 80.1787 286.523C80.1787 286.523 80.1787 286.575 80.1787 286.628C80.1787 286.89 80.2289 287.623 80.5799 288.828C81.0813 290.4 82.1343 292.863 84.4409 296.164C98.0296 315.918 113.273 332.213 133.23 345.208C154.591 359.093 178.258 368.996 202.628 375.179C214.963 378.27 227.499 380.471 240.135 381.571C247.255 382.2 264.153 381.571 257.083 369.258C254.275 364.385 250.514 360.193 246.403 356.368Z" fill="url(#paint3_linear_101_5)"/>
<path d="M396.731 169.048C396.681 168.996 396.631 168.944 396.581 168.944C395.778 168.315 394.976 167.686 394.174 167.005C336.359 121 245.149 42.4568 245.149 42.4568C245.149 42.4568 243.444 40.9373 240.887 38.9986C238.229 36.0643 236.274 33.5493 235.271 31.6106C303.866 44.1335 343.83 86.6276 363.737 115.656C369.102 116.651 379.231 119.533 383.293 114.031C391.065 103.499 368.25 79.3444 361.882 72.2184C350.198 59.0143 336.108 48.2205 321.166 39.4178C294.79 23.9082 263.2 10.5993 233.065 6.30273C220.88 4.57363 200.622 5.93596 206.288 24.013C206.338 24.1178 206.338 24.2226 206.388 24.3274C206.589 24.8513 206.689 25.1657 206.79 25.3229C208.495 29.3051 212.556 34.2828 218.523 39.8893C224.089 45.129 231.36 50.9451 239.884 57.0232C305.822 110.259 370.055 165.485 379.382 173.554C393.221 196.504 380.084 217.568 380.084 217.568C410.069 226.004 430.377 226.895 434.539 218.302C438.851 209.132 424.109 191.003 396.731 169.048Z" fill="url(#paint4_linear_101_5)"/>
<path d="M303.164 298.207C297.949 295.535 292.434 292.81 286.717 290.086C201.374 247.12 82.9867 177.956 82.9366 177.956C86.0454 151.967 101.289 125.14 101.289 125.14L100.938 125.297C101.088 125.192 101.189 125.14 101.289 125.14C44.8279 112.197 5.81674 110.678 1.35401 123.725C-2.15599 133.995 16.2465 151.338 49.1904 171.616C53.8537 174.498 58.8178 177.432 64.0828 180.366C78.4237 189.116 106.554 206.617 161.811 241.566C322.67 332.737 282.255 343.636 282.255 343.636C328.637 354.01 361.18 354.482 365.191 342.797C367.548 335.986 342.928 318.537 303.164 298.207Z" fill="url(#paint5_linear_101_5)"/>
<defs>
<radialGradient id="paint0_radial_101_5" cx="0" cy="0" r="1" gradientUnits="userSpaceOnUse" gradientTransform="translate(319.64 90.3969) scale(286.496 299.376)">
<stop stop-color="#1597C4"/>
<stop offset="0.4929" stop-color="#1BA0D2"/>
<stop offset="1" stop-color="#2578BC"/>
</radialGradient>
<linearGradient id="paint1_linear_101_5" x1="424.252" y1="335.882" x2="170.57" y2="92.3329" gradientUnits="userSpaceOnUse">
<stop stop-color="#92D5DE"/>
<stop offset="1" stop-color="#CDEAE7"/>
</linearGradient>
<linearGradient id="paint2_linear_101_5" x1="59.2965" y1="146.903" x2="291.494" y2="146.903" gradientUnits="userSpaceOnUse">
<stop stop-color="#92D5DE"/>
<stop offset="1" stop-color="#48B9D4"/>
</linearGradient>
<linearGradient id="paint3_linear_101_5" x1="265.891" y1="416.746" x2="54.5052" y2="228.459" gradientUnits="userSpaceOnUse">
<stop stop-color="#67CAE1"/>
<stop offset="1" stop-color="#1597C4"/>
</linearGradient>
<linearGradient id="paint4_linear_101_5" x1="259.109" y1="16.8907" x2="405.513" y2="186.905" gradientUnits="userSpaceOnUse">
<stop stop-color="#67CAE1"/>
<stop offset="1" stop-color="#1597C4"/>
</linearGradient>
<linearGradient id="paint5_linear_101_5" x1="33.6651" y1="99.0558" x2="443.23" y2="443.657" gradientUnits="userSpaceOnUse">
<stop stop-color="#67CAE1"/>
<stop offset="1" stop-color="#1597C4"/>
</linearGradient>
</defs>
</svg>
