<svg width="828" height="528" viewBox="0 0 828 528" fill="none" xmlns="http://www.w3.org/2000/svg">
<path d="M563.651 188.54C563.651 214.215 557.132 238.317 545.8 259.171C537.476 274.419 526.495 287.937 513.558 298.993C506.037 305.438 497.813 311.097 489.038 315.76C477.405 321.943 464.769 326.502 451.531 329.017C443.609 330.536 435.385 331.322 427.062 331.322C364.834 331.322 312.285 287.833 295.838 228.309C294.083 222.022 292.779 215.577 291.876 209.027C290.974 202.373 290.472 195.509 290.472 188.592C290.472 172.716 292.929 157.468 297.492 143.216C299.949 135.514 303.008 128.126 306.618 121.105C316.196 102.504 329.584 86.4179 345.68 73.8949C349.641 70.8035 353.803 67.9741 358.065 65.3018C373.308 55.9751 390.357 49.6874 408.609 47.12C414.626 46.2816 420.794 45.8101 427.012 45.8101C428.967 45.8101 430.873 45.8625 432.828 45.9149C493.702 48.5871 544.296 92.8627 559.188 152.281C560.993 159.512 562.297 167.005 562.999 174.655C563.45 179.213 563.651 183.824 563.651 188.54Z" fill="url(#paint0_radial_102_35)"/>
<path d="M545.8 259.119C537.476 274.367 526.495 287.885 513.558 298.941C500.722 267.45 460.306 203.421 345.68 73.7902C349.641 70.6987 353.803 67.8693 358.065 65.197C382.886 91.71 429.97 141.54 481.366 194.356C502.627 215.577 524.239 237.427 545.8 259.119Z" fill="#2289BF"/>
<path d="M479.762 285.475C475.5 286.208 467.076 278.401 463.867 276.253C451.983 268.184 440.4 259.538 428.917 250.84C396.124 226.056 364.032 200.12 332.843 173.188C321.16 163.075 309.126 153.329 297.492 143.216C299.949 135.514 303.008 128.126 306.618 121.105C329.534 152.334 384.39 209.342 479.762 285.475Z" fill="#1B7FBA"/>
<path d="M563.049 174.655C539.031 154.115 482.369 105.91 424.454 59.119C418.588 54.9796 413.272 50.8926 408.659 47.0153C414.676 46.1769 420.844 45.7053 427.062 45.7053C429.017 45.7053 430.923 45.7577 432.878 45.8101C446.317 57.3375 507.09 109.42 559.238 152.176C561.044 159.512 562.347 167.005 563.049 174.655Z" fill="#1F88BB"/>
<path d="M291.826 208.975C336.002 234.23 413.323 277.772 474.647 308.687C479.611 311.097 484.425 313.455 489.038 315.76C477.405 321.943 464.769 326.502 451.531 329.017C432.527 312.774 398.982 289.667 340.916 256.761C323.466 245.705 308.574 236.326 295.787 228.309" fill="#1A7DB7"/>
<path d="M559.74 255.504C535.822 231.453 511.653 206.984 488.036 183.405C427.513 121.21 373.409 63.4156 359.218 48.168C374.161 40.5704 390.106 35.6975 406.353 33.6016C363.982 6.14551 332.141 -6.5346 324.469 3.31606C318.653 10.7565 327.678 29.7766 347.234 54.9797C561.946 295.011 519.776 309.158 519.776 309.158C519.525 309.368 519.224 309.63 518.924 309.84C569.819 343.112 607.275 358.883 615.8 347.985C624.424 336.981 603.565 299.517 559.74 255.504Z" fill="url(#paint1_linear_102_35)"/>
<path d="M341.969 58.333C341.969 58.333 321.661 74.6809 313.087 90.9764C309.176 101.613 359.168 166.69 486.531 268.446C482.52 269.127 474.647 261.844 471.689 259.8C460.557 252.255 449.776 244.186 439.046 236.064C408.408 212.905 378.473 188.697 349.34 163.494C327.979 144.998 305.415 127.864 286.511 106.486C274.276 92.6532 240.48 48.6919 260.687 29.7766C264.498 26.2135 269.914 25.0084 274.978 25.3228C288.818 26.2659 303.008 34.1255 314.942 40.8847C317.048 42.1423 341.067 59.0666 341.969 58.333Z" fill="url(#paint2_linear_102_35)"/>
<path d="M441.403 356.368C434.683 350.185 426.861 344.998 419.992 339.444C354.003 286.156 289.77 230.929 280.444 222.86C278.237 208.451 277.937 193.623 279.742 178.847C249.756 170.411 229.448 169.52 225.286 178.113C220.874 187.23 235.616 205.359 263.044 227.366C263.094 227.419 263.144 227.471 263.195 227.471C263.997 228.1 264.799 228.781 265.652 229.41C323.316 275.257 414.075 353.434 414.626 353.958C337.105 340.859 305.214 303.447 292.679 280.235C283.402 278.925 277.285 279.816 275.58 283.326C275.129 284.27 275.028 285.318 275.179 286.523C275.179 286.523 275.179 286.575 275.179 286.628C275.179 286.89 275.229 287.623 275.58 288.828C276.081 290.4 277.134 292.863 279.441 296.164C293.03 315.918 308.273 332.213 328.23 345.208C349.591 359.093 373.258 368.996 397.628 375.179C409.963 378.27 422.499 380.471 435.135 381.571C442.255 382.2 459.153 381.571 452.083 369.258C449.275 364.385 445.514 360.193 441.403 356.368Z" fill="url(#paint3_linear_102_35)"/>
<path d="M591.731 169.048C591.681 168.996 591.631 168.944 591.581 168.944C590.778 168.315 589.976 167.686 589.174 167.005C531.359 121 440.149 42.4568 440.149 42.4568C440.149 42.4568 438.444 40.9373 435.887 38.9986C433.229 36.0643 431.274 33.5493 430.271 31.6106C498.866 44.1335 538.83 86.6276 558.737 115.656C564.102 116.651 574.231 119.533 578.293 114.031C586.065 103.499 563.25 79.3444 556.882 72.2184C545.198 59.0143 531.108 48.2205 516.166 39.4178C489.79 23.9082 458.2 10.5993 428.065 6.30273C415.88 4.57363 395.622 5.93596 401.288 24.013C401.338 24.1178 401.338 24.2226 401.388 24.3274C401.589 24.8513 401.689 25.1657 401.79 25.3229C403.495 29.3051 407.556 34.2828 413.523 39.8893C419.089 45.129 426.36 50.9451 434.884 57.0232C500.822 110.259 565.055 165.485 574.382 173.554C588.221 196.504 575.084 217.568 575.084 217.568C605.069 226.004 625.377 226.895 629.539 218.302C633.851 209.132 619.109 191.003 591.731 169.048Z" fill="url(#paint4_linear_102_35)"/>
<path d="M498.164 298.207C492.949 295.535 487.434 292.81 481.717 290.086C396.374 247.12 277.987 177.956 277.937 177.956C281.045 151.967 296.289 125.14 296.289 125.14L295.938 125.297C296.088 125.192 296.189 125.14 296.289 125.14C239.828 112.197 200.817 110.678 196.354 123.725C192.844 133.995 211.246 151.338 244.19 171.616C248.854 174.498 253.818 177.432 259.083 180.366C273.424 189.116 301.554 206.617 356.811 241.566C517.67 332.737 477.255 343.636 477.255 343.636C523.637 354.01 556.18 354.482 560.191 342.797C562.548 335.986 537.928 318.537 498.164 298.207Z" fill="url(#paint5_linear_102_35)"/>
<path d="M47.2415 517.298C51.8384 512.495 54.405 504.979 54.9411 494.752L56.7548 459.494H64.9164L63.1027 495.128C62.6806 503.459 61.2776 510.093 58.8936 515.027C56.4981 519.95 52.5514 524.182 47.0533 527.722C42.2168 524.122 38.8631 519.682 36.9924 514.402C35.1217 509.133 33.673 501.981 32.6464 492.946H32.27C31.7909 502.363 30.6274 509.372 28.7795 513.973C26.943 518.585 23.3042 523.169 17.8631 527.722C12.3536 524.182 8.40685 519.95 6.02282 515.027C3.63879 510.093 2.23574 503.459 1.81369 495.128L0 459.494H8.14449L9.95818 494.752C10.5057 504.979 13.078 512.495 17.6749 517.298C20.6407 514.64 22.8479 510.677 24.2966 505.408C25.7453 500.128 27.1027 491.772 28.3688 480.341H36.5304C38.2301 490.199 39.7757 497.845 41.1673 503.281C42.559 508.704 43.6312 512.143 44.3841 513.597C45.1369 515.051 46.0894 516.285 47.2415 517.298ZM139.74 492.946C139.671 489.406 139.169 486.057 138.234 482.898C137.299 479.739 135.941 476.974 134.162 474.602C132.382 472.242 130.221 470.364 127.677 468.97C125.133 467.575 122.259 466.878 119.053 466.878C115.848 466.878 112.979 467.575 110.447 468.97C107.903 470.364 105.742 472.242 103.962 474.602C102.183 476.974 100.819 479.739 99.8727 482.898C98.9373 486.057 98.4411 489.406 98.3841 492.946C98.4411 496.546 98.9373 499.895 99.8727 502.995C100.819 506.082 102.183 508.764 103.962 511.04C105.742 513.317 107.903 515.117 110.447 516.44C112.979 517.775 115.848 518.442 119.053 518.442C122.259 518.442 125.133 517.775 127.677 516.44C130.221 515.117 132.382 513.317 134.162 511.04C135.941 508.764 137.299 506.082 138.234 502.995C139.169 499.895 139.671 496.546 139.74 492.946ZM89.2301 492.946C89.2871 487.702 90.04 482.964 91.4886 478.732C92.9373 474.501 94.962 470.883 97.5628 467.879C100.164 464.875 103.278 462.569 106.905 460.96C110.532 459.351 114.582 458.546 119.053 458.546C123.468 458.546 127.506 459.351 131.167 460.96C134.829 462.569 137.954 464.875 140.544 467.879C143.145 470.883 145.175 474.501 146.635 478.732C148.084 482.964 148.837 487.702 148.894 492.946C148.837 498.191 148.095 502.899 146.669 507.071C145.255 511.231 143.247 514.765 140.646 517.674C138.046 520.582 134.915 522.829 131.253 524.414C127.603 525.988 123.536 526.774 119.053 526.774C114.582 526.774 110.521 525.988 106.871 524.414C103.209 522.829 100.078 520.582 97.4772 517.674C94.8765 514.765 92.8689 511.231 91.4544 507.071C90.0286 502.899 89.2871 498.191 89.2301 492.946ZM182.635 525.827H174.097V482.719C174.097 475.067 175.899 469.125 179.504 464.893C183.097 460.662 188.219 458.546 194.869 458.546C201.588 458.546 206.743 460.251 210.337 463.66C213.93 467.069 215.726 471.872 215.726 478.071C215.726 482.052 214.82 485.306 213.006 487.833C211.192 490.36 208.112 492.35 203.766 493.804V494.18C208.295 496.016 211.329 498.62 212.869 501.993C214.409 505.378 215.179 510.951 215.179 518.711V525.827H206.658V513.704C206.658 508.901 205.358 505.158 202.757 502.476C200.156 499.782 196.409 498.435 191.515 498.435H186.622V490.103H191.789C197.595 490.103 201.616 488.87 203.852 486.402C206.088 483.947 207.205 481.009 207.205 477.588C207.205 474.369 206.105 471.783 203.903 469.828C201.69 467.861 198.77 466.878 195.143 466.878C190.968 466.878 187.842 468.112 185.766 470.579C183.679 473.046 182.635 477.093 182.635 482.719V525.827ZM260.076 517.495H275.578V525.827H262.335C259.859 525.827 257.915 525.779 256.5 525.684C255.074 525.588 253.306 525.207 251.196 524.539C249.074 523.884 247.289 522.894 245.84 521.571C243.605 519.414 242.15 516.839 241.477 513.847C240.816 510.844 240.485 507.321 240.485 503.281V459.494H249.006V503.084C249.006 506.743 249.399 509.616 250.186 511.702C251.761 515.564 255.057 517.495 260.076 517.495ZM341.692 492.66C341.635 503.209 338.841 511.374 333.308 517.155C327.776 522.936 320.139 525.827 310.398 525.827H298.078V459.494H310.398C320.139 459.494 327.776 462.384 333.308 468.165C338.841 473.946 341.635 482.111 341.692 492.66ZM306.599 517.495H311.493C318.2 517.495 323.356 515.17 326.96 510.522C330.553 505.873 332.413 499.919 332.538 492.66C332.413 485.401 330.553 479.447 326.96 474.799C323.356 470.15 318.2 467.826 311.493 467.826H306.599V517.495ZM451.968 492.946C451.899 489.406 451.398 486.057 450.462 482.898C449.527 479.739 448.169 476.974 446.39 474.602C444.599 472.242 442.437 470.364 439.905 468.97C437.361 467.575 434.487 466.878 431.282 466.878C428.076 466.878 425.207 467.575 422.675 468.97C420.131 470.364 417.97 472.242 416.19 474.602C414.411 476.974 413.048 479.739 412.101 482.898C411.166 486.057 410.669 489.406 410.612 492.946C410.669 496.546 411.166 499.895 412.101 502.995C413.048 506.082 414.411 508.764 416.19 511.04C417.97 513.317 420.131 515.117 422.675 516.44C425.207 517.775 428.076 518.442 431.282 518.442C434.487 518.442 437.361 517.775 439.905 516.44C442.437 515.117 444.599 513.317 446.39 511.04C448.169 508.764 449.527 506.082 450.462 502.995C451.398 499.895 451.899 496.546 451.968 492.946ZM401.458 492.946C401.515 487.702 402.268 482.964 403.717 478.732C405.166 474.501 407.19 470.883 409.791 467.879C412.392 464.875 415.506 462.569 419.133 460.96C422.761 459.351 426.81 458.546 431.282 458.546C435.696 458.546 439.734 459.351 443.396 460.96C447.057 462.569 450.183 464.875 452.772 467.879C455.373 470.883 457.403 474.501 458.863 478.732C460.312 482.964 461.065 487.702 461.122 492.946C461.065 498.191 460.323 502.899 458.898 507.071C457.483 511.231 455.476 514.765 452.875 517.674C450.274 520.582 447.143 522.829 443.481 524.414C439.831 525.988 435.765 526.774 431.282 526.774C426.81 526.774 422.744 525.988 419.082 524.414C415.432 522.829 412.306 520.582 409.706 517.674C407.105 514.765 405.091 511.231 403.666 507.071C402.251 502.899 401.515 498.191 401.458 492.946ZM494.863 476.551V489.245H511.717V497.595H494.863V525.827H486.325V475.317C486.325 470.645 487.746 466.884 490.586 464.035C492.525 462.14 494.704 460.912 497.122 460.352C499.54 459.78 502.506 459.494 506.019 459.494H515.618V467.826H504.839C498.188 467.826 494.863 470.734 494.863 476.551ZM581.185 467.826V525.827H572.664V459.494H595.061C602.555 459.494 608.151 461.246 611.846 464.75C615.531 468.255 617.373 473.768 617.373 481.289V525.827H608.852V480.055C608.852 475.764 607.597 472.653 605.088 470.722C602.578 468.791 599.265 467.826 595.147 467.826H581.185ZM679.124 517.495V525.827H643.038V475.317C643.038 470.645 644.459 466.884 647.299 464.035C649.227 462.14 651.4 460.912 653.818 460.352C656.236 459.78 659.202 459.494 662.715 459.494H679.124V467.826H661.535C654.884 467.826 651.559 470.734 651.559 476.551V487.35H672.502V495.7H651.559V517.495H679.124ZM749.31 517.298C753.907 512.495 756.479 504.979 757.027 494.752L758.841 459.494H767.002L765.189 495.128C764.767 503.459 763.358 510.093 760.962 515.027C758.578 519.95 754.637 524.182 749.139 527.722C744.303 524.122 740.943 519.682 739.061 514.402C737.19 509.133 735.742 501.981 734.715 492.946H734.356C733.865 502.363 732.702 509.372 730.865 513.973C729.018 518.585 725.373 523.169 719.932 527.722C714.434 524.182 710.493 519.95 708.109 515.027C705.713 510.093 704.305 503.459 703.882 495.128L702.069 459.494H710.23L712.044 494.752C712.592 504.979 715.164 512.495 719.761 517.298C722.715 514.64 724.917 510.677 726.365 505.408C727.826 500.128 729.189 491.772 730.455 480.341H738.616C740.305 490.199 741.844 497.845 743.236 503.281C744.628 508.704 745.7 512.143 746.453 513.597C747.217 515.051 748.17 516.285 749.31 517.298ZM807.622 459.494H824.219V467.826H808.17C802.067 467.826 799.016 470.418 799.016 475.603C799.016 478.38 800.362 480.735 803.054 482.666C805.734 484.597 809.373 486.444 813.97 488.208C816.023 489.031 817.78 489.865 819.24 490.711C820.689 491.57 822.137 492.696 823.586 494.091C825.035 495.473 826.124 497.255 826.854 499.437C827.573 501.618 827.932 504.127 827.932 506.964C827.932 510.123 827.299 512.953 826.033 515.457C824.767 517.948 823.135 519.903 821.139 521.321C819.143 522.751 817.101 523.824 815.014 524.539C812.926 525.266 810.885 525.666 808.888 525.737C808.044 525.797 806.835 525.827 805.261 525.827H791.128V517.495H805.004C809.111 517.495 812.464 516.595 815.065 514.795C817.666 512.995 818.966 510.355 818.966 506.874C818.966 505.17 818.601 503.668 817.871 502.369C817.153 501.081 816.109 499.961 814.74 499.007C813.383 498.066 811.997 497.243 810.582 496.54C809.156 495.849 807.445 495.122 805.449 494.359C804.902 494.18 804.48 494.025 804.183 493.894C794.692 490.103 789.947 483.911 789.947 475.317C789.947 470.013 791.578 466.05 794.841 463.427C798.103 460.805 802.364 459.494 807.622 459.494Z" fill="#199CCC"/>
<defs>
<radialGradient id="paint0_radial_102_35" cx="0" cy="0" r="1" gradientUnits="userSpaceOnUse" gradientTransform="translate(514.64 90.3969) scale(286.496 299.376)">
<stop stop-color="#1597C4"/>
<stop offset="0.4929" stop-color="#1BA0D2"/>
<stop offset="1" stop-color="#2578BC"/>
</radialGradient>
<linearGradient id="paint1_linear_102_35" x1="619.252" y1="335.882" x2="365.57" y2="92.3329" gradientUnits="userSpaceOnUse">
<stop stop-color="#92D5DE"/>
<stop offset="1" stop-color="#CDEAE7"/>
</linearGradient>
<linearGradient id="paint2_linear_102_35" x1="254.296" y1="146.903" x2="486.494" y2="146.903" gradientUnits="userSpaceOnUse">
<stop stop-color="#92D5DE"/>
<stop offset="1" stop-color="#48B9D4"/>
</linearGradient>
<linearGradient id="paint3_linear_102_35" x1="460.891" y1="416.746" x2="249.505" y2="228.459" gradientUnits="userSpaceOnUse">
<stop stop-color="#67CAE1"/>
<stop offset="1" stop-color="#1597C4"/>
</linearGradient>
<linearGradient id="paint4_linear_102_35" x1="454.109" y1="16.8907" x2="600.513" y2="186.905" gradientUnits="userSpaceOnUse">
<stop stop-color="#67CAE1"/>
<stop offset="1" stop-color="#1597C4"/>
</linearGradient>
<linearGradient id="paint5_linear_102_35" x1="228.665" y1="99.0558" x2="638.23" y2="443.657" gradientUnits="userSpaceOnUse">
<stop stop-color="#67CAE1"/>
<stop offset="1" stop-color="#1597C4"/>
</linearGradient>
</defs>
</svg>
