<svg width="227" height="227" viewBox="0 0 227 227" fill="none" xmlns="http://www.w3.org/2000/svg">
<rect width="227" height="227" rx="31" fill="#2D9CDB"/>
<path d="M113.5 49.9642C134.193 49.9642 136.644 50.043 144.816 50.4159C152.373 50.7607 156.476 52.0233 159.207 53.0843C162.824 54.4902 165.406 56.1699 168.118 58.8817C170.83 61.5935 172.51 64.1755 173.915 67.7927C174.977 70.5239 176.239 74.6275 176.584 82.1833C176.957 90.3557 177.036 92.8067 177.036 113.5C177.036 134.194 176.957 136.645 176.584 144.817C176.239 152.373 174.977 156.476 173.915 159.208C172.51 162.825 170.83 165.407 168.118 168.119C165.406 170.83 162.824 172.51 159.207 173.916C156.476 174.977 152.373 176.24 144.816 176.584C136.646 176.957 134.195 177.036 113.5 177.036C92.8051 177.036 90.3542 176.957 82.1833 176.584C74.6272 176.24 70.5236 174.977 67.7927 173.916C64.1752 172.51 61.5932 170.83 58.8814 168.119C56.1696 165.407 54.4899 162.825 53.0843 159.208C52.023 156.476 50.7604 152.373 50.4156 144.817C50.0427 136.645 49.9639 134.194 49.9639 113.5C49.9639 92.8067 50.0427 90.3557 50.4156 82.1837C50.7604 74.6275 52.023 70.5239 53.0843 67.7927C54.4899 64.1755 56.1696 61.5935 58.8814 58.8817C61.5932 56.1699 64.1752 54.4902 67.7927 53.0843C70.5236 52.0233 74.6272 50.7607 82.183 50.4159C90.3554 50.043 92.8064 49.9642 113.5 49.9642ZM113.5 36C92.452 36 89.813 36.0892 81.5468 36.4664C73.2976 36.8429 67.6641 38.1528 62.7342 40.0688C57.6379 42.0494 53.3159 44.6994 49.0075 49.0078C44.699 53.3163 42.0491 57.6382 40.0685 62.7346C38.1525 67.6644 36.8426 73.2979 36.4661 81.5472C36.0889 89.813 36 92.4523 36 113.5C36 134.548 36.0889 137.187 36.4661 145.453C36.8426 153.702 38.1525 159.336 40.0685 164.266C42.0491 169.362 44.699 173.684 49.0075 177.993C53.3159 182.301 57.6379 184.951 62.7342 186.932C67.6641 188.847 73.2976 190.157 81.5468 190.534C89.813 190.911 92.452 191 113.5 191C134.548 191 137.187 190.911 145.453 190.534C153.702 190.157 159.336 188.847 164.265 186.932C169.362 184.951 173.684 182.301 177.992 177.993C182.301 173.684 184.951 169.362 186.931 164.266C188.847 159.336 190.157 153.702 190.534 145.453C190.911 137.187 191 134.548 191 113.5C191 92.4523 190.911 89.813 190.534 81.5472C190.157 73.2979 188.847 67.6644 186.931 62.7346C184.951 57.6382 182.301 53.3163 177.992 49.0078C173.684 44.6994 169.362 42.0494 164.265 40.0688C159.336 38.1528 153.702 36.8429 145.453 36.4664C137.187 36.0892 134.548 36 113.5 36ZM113.5 73.7027C91.5204 73.7027 73.7024 91.5207 73.7024 113.5C73.7024 135.48 91.5204 153.298 113.5 153.298C135.479 153.298 153.297 135.48 153.297 113.5C153.297 91.5207 135.479 73.7027 113.5 73.7027ZM113.5 139.334C99.2326 139.334 87.6664 127.767 87.6664 113.5C87.6664 99.2329 99.2326 87.6667 113.5 87.6667C127.767 87.6667 139.333 99.2329 139.333 113.5C139.333 127.767 127.767 139.334 113.5 139.334ZM164.169 72.1304C164.169 77.2667 160.006 81.4306 154.87 81.4306C149.733 81.4306 145.569 77.2667 145.569 72.1304C145.569 66.9941 149.733 62.8305 154.87 62.8305C160.006 62.8305 164.169 66.9941 164.169 72.1304Z" fill="white"/>
</svg>
