<svg width="190" height="14" viewBox="0 0 190 14" fill="none" xmlns="http://www.w3.org/2000/svg">
<mask id="path-1-outside-1_26_39" maskUnits="userSpaceOnUse" x="0.0325928" y="-0.30114" width="31" height="14" fill="black">
<rect fill="white" x="0.0325928" y="-0.30114" width="31" height="14"/>
<path d="M1.03259 13V1.36363H5.69168C6.54774 1.36363 7.26176 1.49053 7.83373 1.74432C8.4057 1.9981 8.83562 2.35038 9.1235 2.80113C9.41138 3.2481 9.55532 3.76325 9.55532 4.34659C9.55532 4.80113 9.46441 5.20075 9.28259 5.54545C9.10077 5.88636 8.85078 6.16666 8.53259 6.38636C8.2182 6.60227 7.85835 6.75568 7.45305 6.84659V6.96022C7.89623 6.97916 8.311 7.10416 8.69737 7.33522C9.08752 7.56628 9.4038 7.89015 9.64623 8.30682C9.88865 8.71969 10.0099 9.21212 10.0099 9.78409C10.0099 10.4015 9.85646 10.9526 9.54964 11.4375C9.24661 11.9186 8.79774 12.2992 8.20305 12.5795C7.60835 12.8598 6.8754 13 6.00418 13H1.03259ZM3.49282 10.9886H5.4985C6.18411 10.9886 6.68411 10.858 6.9985 10.5966C7.3129 10.3314 7.47009 9.97916 7.47009 9.53977C7.47009 9.2178 7.39244 8.93371 7.23714 8.6875C7.08184 8.44128 6.86024 8.2481 6.57237 8.10795C6.28827 7.9678 5.94926 7.89772 5.55532 7.89772H3.49282V10.9886ZM3.49282 6.23295H5.31668C5.65381 6.23295 5.95305 6.17424 6.21441 6.05682C6.47956 5.9356 6.6879 5.76515 6.83941 5.54545C6.99471 5.32575 7.07237 5.0625 7.07237 4.75568C7.07237 4.33522 6.92274 3.99621 6.6235 3.73863C6.32805 3.48106 5.90759 3.35227 5.36214 3.35227H3.49282V6.23295Z"/>
<path d="M13.8939 13.1648C13.3371 13.1648 12.8409 13.0682 12.4053 12.875C11.9697 12.678 11.625 12.3883 11.3712 12.0057C11.1212 11.6193 10.9962 11.1383 10.9962 10.5625C10.9962 10.0776 11.0852 9.67045 11.2632 9.34091C11.4412 9.01136 11.6837 8.74621 11.9905 8.54545C12.2973 8.34469 12.6458 8.19318 13.0359 8.09091C13.4299 7.98863 13.8428 7.91666 14.2746 7.875C14.7822 7.82197 15.1912 7.77272 15.5019 7.72727C15.8125 7.67803 16.0378 7.60606 16.178 7.51136C16.3181 7.41666 16.3882 7.27651 16.3882 7.09091V7.05682C16.3882 6.69697 16.2746 6.41856 16.0473 6.22159C15.8238 6.02462 15.5056 5.92613 15.0928 5.92613C14.6572 5.92613 14.3106 6.02272 14.053 6.21591C13.7954 6.4053 13.625 6.64394 13.5416 6.93182L11.303 6.75C11.4166 6.21969 11.6401 5.76136 11.9734 5.375C12.3068 4.98485 12.7367 4.6856 13.2632 4.47727C13.7935 4.26515 14.4072 4.15909 15.1041 4.15909C15.589 4.15909 16.053 4.21591 16.4962 4.32954C16.9431 4.44318 17.339 4.61932 17.6837 4.85795C18.0322 5.09659 18.3068 5.40341 18.5075 5.77841C18.7083 6.14962 18.8087 6.59469 18.8087 7.11363V13H16.5132V11.7898H16.445C16.3049 12.0625 16.1174 12.303 15.8825 12.5114C15.6477 12.7159 15.3655 12.8769 15.0359 12.9943C14.7064 13.108 14.3257 13.1648 13.8939 13.1648ZM14.5871 11.4943C14.9431 11.4943 15.2575 11.4242 15.5303 11.2841C15.803 11.1401 16.017 10.947 16.1723 10.7045C16.3276 10.4621 16.4053 10.1875 16.4053 9.88068V8.95454C16.3295 9.00378 16.2253 9.04924 16.0928 9.09091C15.964 9.12878 15.8181 9.16477 15.6553 9.19886C15.4924 9.22916 15.3295 9.25757 15.1666 9.28409C15.0037 9.30682 14.856 9.32765 14.7234 9.34659C14.4394 9.38825 14.1912 9.45454 13.9791 9.54545C13.767 9.63636 13.6022 9.75947 13.4848 9.91477C13.3674 10.0663 13.3087 10.2557 13.3087 10.483C13.3087 10.8125 13.428 11.0644 13.6666 11.2386C13.9091 11.4091 14.2159 11.4943 14.5871 11.4943Z"/>
<path d="M20.5265 13V4.27272H22.947V13H20.5265ZM21.7424 3.14772C21.3826 3.14772 21.0739 3.02841 20.8163 2.78977C20.5625 2.54735 20.4356 2.25757 20.4356 1.92045C20.4356 1.58712 20.5625 1.30113 20.8163 1.0625C21.0739 0.820072 21.3826 0.69886 21.7424 0.69886C22.1023 0.69886 22.4091 0.820072 22.6629 1.0625C22.9205 1.30113 23.0492 1.58712 23.0492 1.92045C23.0492 2.25757 22.9205 2.54735 22.6629 2.78977C22.4091 3.02841 22.1023 3.14772 21.7424 3.14772Z"/>
<path d="M29.3679 4.27272V6.09091H24.1123V4.27272H29.3679ZM25.3054 2.18182H27.7259V10.3182C27.7259 10.5417 27.76 10.7159 27.8282 10.8409C27.8963 10.9621 27.991 11.0473 28.1123 11.0966C28.2373 11.1458 28.3812 11.1705 28.5441 11.1705C28.6577 11.1705 28.7713 11.161 28.885 11.142C28.9986 11.1193 29.0857 11.1023 29.1463 11.0909L29.527 12.892C29.4058 12.9299 29.2354 12.9735 29.0157 13.0227C28.796 13.0758 28.5289 13.108 28.2145 13.1193C27.6312 13.142 27.1198 13.0644 26.6804 12.8864C26.2448 12.7083 25.9058 12.4318 25.6634 12.0568C25.421 11.6818 25.3016 11.2083 25.3054 10.6364V2.18182Z"/>
</mask>
<path d="M1.03259 13V1.36363H5.69168C6.54774 1.36363 7.26176 1.49053 7.83373 1.74432C8.4057 1.9981 8.83562 2.35038 9.1235 2.80113C9.41138 3.2481 9.55532 3.76325 9.55532 4.34659C9.55532 4.80113 9.46441 5.20075 9.28259 5.54545C9.10077 5.88636 8.85078 6.16666 8.53259 6.38636C8.2182 6.60227 7.85835 6.75568 7.45305 6.84659V6.96022C7.89623 6.97916 8.311 7.10416 8.69737 7.33522C9.08752 7.56628 9.4038 7.89015 9.64623 8.30682C9.88865 8.71969 10.0099 9.21212 10.0099 9.78409C10.0099 10.4015 9.85646 10.9526 9.54964 11.4375C9.24661 11.9186 8.79774 12.2992 8.20305 12.5795C7.60835 12.8598 6.8754 13 6.00418 13H1.03259ZM3.49282 10.9886H5.4985C6.18411 10.9886 6.68411 10.858 6.9985 10.5966C7.3129 10.3314 7.47009 9.97916 7.47009 9.53977C7.47009 9.2178 7.39244 8.93371 7.23714 8.6875C7.08184 8.44128 6.86024 8.2481 6.57237 8.10795C6.28827 7.9678 5.94926 7.89772 5.55532 7.89772H3.49282V10.9886ZM3.49282 6.23295H5.31668C5.65381 6.23295 5.95305 6.17424 6.21441 6.05682C6.47956 5.9356 6.6879 5.76515 6.83941 5.54545C6.99471 5.32575 7.07237 5.0625 7.07237 4.75568C7.07237 4.33522 6.92274 3.99621 6.6235 3.73863C6.32805 3.48106 5.90759 3.35227 5.36214 3.35227H3.49282V6.23295Z" fill="black"/>
<path d="M13.8939 13.1648C13.3371 13.1648 12.8409 13.0682 12.4053 12.875C11.9697 12.678 11.625 12.3883 11.3712 12.0057C11.1212 11.6193 10.9962 11.1383 10.9962 10.5625C10.9962 10.0776 11.0852 9.67045 11.2632 9.34091C11.4412 9.01136 11.6837 8.74621 11.9905 8.54545C12.2973 8.34469 12.6458 8.19318 13.0359 8.09091C13.4299 7.98863 13.8428 7.91666 14.2746 7.875C14.7822 7.82197 15.1912 7.77272 15.5019 7.72727C15.8125 7.67803 16.0378 7.60606 16.178 7.51136C16.3181 7.41666 16.3882 7.27651 16.3882 7.09091V7.05682C16.3882 6.69697 16.2746 6.41856 16.0473 6.22159C15.8238 6.02462 15.5056 5.92613 15.0928 5.92613C14.6572 5.92613 14.3106 6.02272 14.053 6.21591C13.7954 6.4053 13.625 6.64394 13.5416 6.93182L11.303 6.75C11.4166 6.21969 11.6401 5.76136 11.9734 5.375C12.3068 4.98485 12.7367 4.6856 13.2632 4.47727C13.7935 4.26515 14.4072 4.15909 15.1041 4.15909C15.589 4.15909 16.053 4.21591 16.4962 4.32954C16.9431 4.44318 17.339 4.61932 17.6837 4.85795C18.0322 5.09659 18.3068 5.40341 18.5075 5.77841C18.7083 6.14962 18.8087 6.59469 18.8087 7.11363V13H16.5132V11.7898H16.445C16.3049 12.0625 16.1174 12.303 15.8825 12.5114C15.6477 12.7159 15.3655 12.8769 15.0359 12.9943C14.7064 13.108 14.3257 13.1648 13.8939 13.1648ZM14.5871 11.4943C14.9431 11.4943 15.2575 11.4242 15.5303 11.2841C15.803 11.1401 16.017 10.947 16.1723 10.7045C16.3276 10.4621 16.4053 10.1875 16.4053 9.88068V8.95454C16.3295 9.00378 16.2253 9.04924 16.0928 9.09091C15.964 9.12878 15.8181 9.16477 15.6553 9.19886C15.4924 9.22916 15.3295 9.25757 15.1666 9.28409C15.0037 9.30682 14.856 9.32765 14.7234 9.34659C14.4394 9.38825 14.1912 9.45454 13.9791 9.54545C13.767 9.63636 13.6022 9.75947 13.4848 9.91477C13.3674 10.0663 13.3087 10.2557 13.3087 10.483C13.3087 10.8125 13.428 11.0644 13.6666 11.2386C13.9091 11.4091 14.2159 11.4943 14.5871 11.4943Z" fill="black"/>
<path d="M20.5265 13V4.27272H22.947V13H20.5265ZM21.7424 3.14772C21.3826 3.14772 21.0739 3.02841 20.8163 2.78977C20.5625 2.54735 20.4356 2.25757 20.4356 1.92045C20.4356 1.58712 20.5625 1.30113 20.8163 1.0625C21.0739 0.820072 21.3826 0.69886 21.7424 0.69886C22.1023 0.69886 22.4091 0.820072 22.6629 1.0625C22.9205 1.30113 23.0492 1.58712 23.0492 1.92045C23.0492 2.25757 22.9205 2.54735 22.6629 2.78977C22.4091 3.02841 22.1023 3.14772 21.7424 3.14772Z" fill="black"/>
<path d="M29.3679 4.27272V6.09091H24.1123V4.27272H29.3679ZM25.3054 2.18182H27.7259V10.3182C27.7259 10.5417 27.76 10.7159 27.8282 10.8409C27.8963 10.9621 27.991 11.0473 28.1123 11.0966C28.2373 11.1458 28.3812 11.1705 28.5441 11.1705C28.6577 11.1705 28.7713 11.161 28.885 11.142C28.9986 11.1193 29.0857 11.1023 29.1463 11.0909L29.527 12.892C29.4058 12.9299 29.2354 12.9735 29.0157 13.0227C28.796 13.0758 28.5289 13.108 28.2145 13.1193C27.6312 13.142 27.1198 13.0644 26.6804 12.8864C26.2448 12.7083 25.9058 12.4318 25.6634 12.0568C25.421 11.6818 25.3016 11.2083 25.3054 10.6364V2.18182Z" fill="black"/>
<path d="M1.03259 13V1.36363H5.69168C6.54774 1.36363 7.26176 1.49053 7.83373 1.74432C8.4057 1.9981 8.83562 2.35038 9.1235 2.80113C9.41138 3.2481 9.55532 3.76325 9.55532 4.34659C9.55532 4.80113 9.46441 5.20075 9.28259 5.54545C9.10077 5.88636 8.85078 6.16666 8.53259 6.38636C8.2182 6.60227 7.85835 6.75568 7.45305 6.84659V6.96022C7.89623 6.97916 8.311 7.10416 8.69737 7.33522C9.08752 7.56628 9.4038 7.89015 9.64623 8.30682C9.88865 8.71969 10.0099 9.21212 10.0099 9.78409C10.0099 10.4015 9.85646 10.9526 9.54964 11.4375C9.24661 11.9186 8.79774 12.2992 8.20305 12.5795C7.60835 12.8598 6.8754 13 6.00418 13H1.03259ZM3.49282 10.9886H5.4985C6.18411 10.9886 6.68411 10.858 6.9985 10.5966C7.3129 10.3314 7.47009 9.97916 7.47009 9.53977C7.47009 9.2178 7.39244 8.93371 7.23714 8.6875C7.08184 8.44128 6.86024 8.2481 6.57237 8.10795C6.28827 7.9678 5.94926 7.89772 5.55532 7.89772H3.49282V10.9886ZM3.49282 6.23295H5.31668C5.65381 6.23295 5.95305 6.17424 6.21441 6.05682C6.47956 5.9356 6.6879 5.76515 6.83941 5.54545C6.99471 5.32575 7.07237 5.0625 7.07237 4.75568C7.07237 4.33522 6.92274 3.99621 6.6235 3.73863C6.32805 3.48106 5.90759 3.35227 5.36214 3.35227H3.49282V6.23295Z" stroke="#6B6969" mask="url(#path-1-outside-1_26_39)"/>
<path d="M13.8939 13.1648C13.3371 13.1648 12.8409 13.0682 12.4053 12.875C11.9697 12.678 11.625 12.3883 11.3712 12.0057C11.1212 11.6193 10.9962 11.1383 10.9962 10.5625C10.9962 10.0776 11.0852 9.67045 11.2632 9.34091C11.4412 9.01136 11.6837 8.74621 11.9905 8.54545C12.2973 8.34469 12.6458 8.19318 13.0359 8.09091C13.4299 7.98863 13.8428 7.91666 14.2746 7.875C14.7822 7.82197 15.1912 7.77272 15.5019 7.72727C15.8125 7.67803 16.0378 7.60606 16.178 7.51136C16.3181 7.41666 16.3882 7.27651 16.3882 7.09091V7.05682C16.3882 6.69697 16.2746 6.41856 16.0473 6.22159C15.8238 6.02462 15.5056 5.92613 15.0928 5.92613C14.6572 5.92613 14.3106 6.02272 14.053 6.21591C13.7954 6.4053 13.625 6.64394 13.5416 6.93182L11.303 6.75C11.4166 6.21969 11.6401 5.76136 11.9734 5.375C12.3068 4.98485 12.7367 4.6856 13.2632 4.47727C13.7935 4.26515 14.4072 4.15909 15.1041 4.15909C15.589 4.15909 16.053 4.21591 16.4962 4.32954C16.9431 4.44318 17.339 4.61932 17.6837 4.85795C18.0322 5.09659 18.3068 5.40341 18.5075 5.77841C18.7083 6.14962 18.8087 6.59469 18.8087 7.11363V13H16.5132V11.7898H16.445C16.3049 12.0625 16.1174 12.303 15.8825 12.5114C15.6477 12.7159 15.3655 12.8769 15.0359 12.9943C14.7064 13.108 14.3257 13.1648 13.8939 13.1648ZM14.5871 11.4943C14.9431 11.4943 15.2575 11.4242 15.5303 11.2841C15.803 11.1401 16.017 10.947 16.1723 10.7045C16.3276 10.4621 16.4053 10.1875 16.4053 9.88068V8.95454C16.3295 9.00378 16.2253 9.04924 16.0928 9.09091C15.964 9.12878 15.8181 9.16477 15.6553 9.19886C15.4924 9.22916 15.3295 9.25757 15.1666 9.28409C15.0037 9.30682 14.856 9.32765 14.7234 9.34659C14.4394 9.38825 14.1912 9.45454 13.9791 9.54545C13.767 9.63636 13.6022 9.75947 13.4848 9.91477C13.3674 10.0663 13.3087 10.2557 13.3087 10.483C13.3087 10.8125 13.428 11.0644 13.6666 11.2386C13.9091 11.4091 14.2159 11.4943 14.5871 11.4943Z" stroke="#6B6969" mask="url(#path-1-outside-1_26_39)"/>
<path d="M20.5265 13V4.27272H22.947V13H20.5265ZM21.7424 3.14772C21.3826 3.14772 21.0739 3.02841 20.8163 2.78977C20.5625 2.54735 20.4356 2.25757 20.4356 1.92045C20.4356 1.58712 20.5625 1.30113 20.8163 1.0625C21.0739 0.820072 21.3826 0.69886 21.7424 0.69886C22.1023 0.69886 22.4091 0.820072 22.6629 1.0625C22.9205 1.30113 23.0492 1.58712 23.0492 1.92045C23.0492 2.25757 22.9205 2.54735 22.6629 2.78977C22.4091 3.02841 22.1023 3.14772 21.7424 3.14772Z" stroke="#6B6969" mask="url(#path-1-outside-1_26_39)"/>
<path d="M29.3679 4.27272V6.09091H24.1123V4.27272H29.3679ZM25.3054 2.18182H27.7259V10.3182C27.7259 10.5417 27.76 10.7159 27.8282 10.8409C27.8963 10.9621 27.991 11.0473 28.1123 11.0966C28.2373 11.1458 28.3812 11.1705 28.5441 11.1705C28.6577 11.1705 28.7713 11.161 28.885 11.142C28.9986 11.1193 29.0857 11.1023 29.1463 11.0909L29.527 12.892C29.4058 12.9299 29.2354 12.9735 29.0157 13.0227C28.796 13.0758 28.5289 13.108 28.2145 13.1193C27.6312 13.142 27.1198 13.0644 26.6804 12.8864C26.2448 12.7083 25.9058 12.4318 25.6634 12.0568C25.421 11.6818 25.3016 11.2083 25.3054 10.6364V2.18182Z" stroke="#6B6969" mask="url(#path-1-outside-1_26_39)"/>
<rect x="39" y="2" width="150" height="11" rx="3" fill="#D0D0D0" fill-opacity="0.47" stroke="black" stroke-width="2"/>
<path d="M39 5C39 3.34315 40.3431 2 42 2H150V13H42C40.3431 13 39 11.6569 39 10V5Z" fill="#3C3C3C" fill-opacity="0.47" stroke="black" stroke-width="2"/>
</svg>
