<svg width="173" height="16" viewBox="0 0 173 16" fill="none" xmlns="http://www.w3.org/2000/svg">
<path d="M0.503906 1.40625H9.75195V3.10547H2.45703V7.10938H8.0918V8.75H2.45703V15H0.503906V1.40625ZM14.2688 1.99219C14.2688 2.36328 14.1451 2.64974 13.8977 2.85156C13.6568 3.04688 13.354 3.14453 12.9895 3.14453C12.6249 3.14453 12.3221 3.04688 12.0813 2.85156C11.8469 2.64974 11.7297 2.36328 11.7297 1.99219C11.7297 1.61458 11.8469 1.32812 12.0813 1.13281C12.3221 0.9375 12.6249 0.839844 12.9895 0.839844C13.354 0.839844 13.6568 0.9375 13.8977 1.13281C14.1451 1.32812 14.2688 1.61458 14.2688 1.99219ZM11.9836 4.92188H13.9367V15H11.9836V4.92188ZM19.2836 15.1562C18.4698 15.1562 17.6462 15.0977 16.8129 14.9805V13.252C17.6592 13.4538 18.5186 13.5547 19.391 13.5547C21.1358 13.5547 22.0082 13.1868 22.0082 12.4512C22.0082 12.1712 21.9398 11.9629 21.8031 11.8262C21.6013 11.6113 21.2823 11.3965 20.8461 11.1816L19.4203 10.5273C18.4958 10.0651 17.8969 9.69401 17.6234 9.41406C17.1091 8.89323 16.852 8.27474 16.852 7.55859C16.852 6.7513 17.2263 6.09375 17.975 5.58594C18.7823 5.03906 19.9151 4.76562 21.3734 4.76562C22.1091 4.76562 22.8513 4.81771 23.6 4.92188V6.5918C22.7797 6.44206 22.0635 6.36719 21.4516 6.36719C20.8461 6.36719 20.3741 6.40625 20.0355 6.48438C19.7035 6.5625 19.4529 6.66016 19.2836 6.77734C19.0167 6.95964 18.8832 7.19727 18.8832 7.49023C18.8832 7.77669 18.9743 8.01107 19.1566 8.19336C19.3454 8.36914 19.6384 8.5612 20.0355 8.76953L21.4711 9.46289C22.4086 9.95117 23.0108 10.3255 23.2777 10.5859C23.7855 11.0807 24.0395 11.7025 24.0395 12.4512C24.0395 13.252 23.6358 13.8965 22.8285 14.3848C21.9822 14.8991 20.8005 15.1562 19.2836 15.1562ZM31.1441 6.44531C30.1806 6.44531 29.3212 6.77409 28.566 7.43164V15H26.6129V0.46875H28.566V6.00586C29.6207 5.17904 30.7112 4.76562 31.8375 4.76562C33.0419 4.76562 33.9241 5.1237 34.484 5.83984C35.0699 6.59505 35.3629 7.8125 35.3629 9.49219V15H33.4098V9.49219C33.4098 7.8776 32.9703 6.91406 32.0914 6.60156C31.8115 6.4974 31.4957 6.44531 31.1441 6.44531ZM51.584 13.877C51.0241 14.3132 50.3893 14.6354 49.6797 14.8438C48.9766 15.0456 48.2148 15.1465 47.3945 15.1465C46.5807 15.1465 45.6693 15.0977 44.6602 15V0.46875H46.6133V5.92773C47.043 5.43945 47.6387 5.09115 48.4004 4.88281C48.6868 4.80469 48.9798 4.76562 49.2793 4.76562C49.5853 4.76562 49.8945 4.79818 50.207 4.86328C50.5195 4.92188 50.8288 5.02604 51.1348 5.17578C51.4473 5.32552 51.7435 5.52409 52.0234 5.77148C52.3034 6.01888 52.5508 6.32812 52.7656 6.69922C53.2409 7.49349 53.4785 8.4375 53.4785 9.53125C53.4785 10.6185 53.3027 11.5039 52.9512 12.1875C52.6061 12.8711 52.1504 13.4342 51.584 13.877ZM46.623 13.5645C46.8053 13.6165 47.1634 13.6426 47.6973 13.6426C48.2311 13.6426 48.7324 13.5677 49.2012 13.418C49.6699 13.2682 50.0703 13.0339 50.4023 12.7148C51.099 12.0443 51.4473 11.0449 51.4473 9.7168C51.4473 8.0957 50.9753 7.03451 50.0312 6.5332C49.6927 6.35742 49.3477 6.26953 48.9961 6.26953C48.6445 6.26953 48.3385 6.3151 48.0781 6.40625C47.8177 6.4974 47.5898 6.60807 47.3945 6.73828C47.0234 6.99219 46.7663 7.26562 46.623 7.55859V13.5645ZM62.5461 12.5293V4.92188H64.4992V15H62.7414L62.5656 13.9355C61.6021 14.7493 60.5376 15.1562 59.3723 15.1562C58.1353 15.1562 57.2596 14.8145 56.7453 14.1309C56.2115 13.4342 55.9445 12.2331 55.9445 10.5273V4.92188H57.8977V10.4297C57.8977 11.6341 58.0702 12.4544 58.4152 12.8906C58.7212 13.2812 59.3039 13.4766 60.1633 13.4766C61.0292 13.4766 61.8234 13.1608 62.5461 12.5293ZM74.6898 14.9707C74.2992 15.0944 73.6221 15.1562 72.6586 15.1562C71.6951 15.1562 70.8747 15.0391 70.1977 14.8047C69.5271 14.5703 68.9542 14.2253 68.4789 13.7695C67.4958 12.8255 67.0043 11.5169 67.0043 9.84375C67.0043 8.22266 67.5935 6.94661 68.7719 6.01562C69.8266 5.18229 71.1221 4.76562 72.6586 4.76562C73.6091 4.76562 74.2602 4.79818 74.6117 4.86328V6.60156C74.0648 6.42578 73.4398 6.33789 72.7367 6.33789C72.0401 6.33789 71.4607 6.43555 70.9984 6.63086C70.5362 6.81966 70.1586 7.07682 69.8656 7.40234C69.3122 8.02083 69.0355 8.83464 69.0355 9.84375C69.0355 11.5495 69.6508 12.6855 70.8812 13.252C71.3174 13.4538 71.7439 13.5547 72.1605 13.5547C72.5772 13.5547 72.8962 13.5449 73.1176 13.5254C73.3454 13.5059 73.5603 13.4798 73.7621 13.4473C74.1918 13.3757 74.501 13.3008 74.6898 13.2227V14.9707ZM77.3805 0.478516H79.3336V9.43359L83.4156 4.92188H85.7398L81.3941 9.49219L85.9645 15H83.5816L79.3336 9.86328V15H77.3805V0.478516ZM91.741 15.1562C88.0561 15.1562 86.2137 13.3561 86.2137 9.75586C86.2137 8.20638 86.7247 6.96615 87.7469 6.03516C88.6648 5.1888 89.713 4.76562 90.8914 4.76562C92.174 4.76562 93.1766 5.19531 93.8992 6.05469C94.5698 6.85547 94.9051 7.92643 94.9051 9.26758V10.0293H88.2449C88.2449 11.8717 88.9969 12.998 90.5008 13.4082C90.8589 13.5059 91.409 13.5547 92.1512 13.5547C92.8999 13.5547 93.6323 13.4538 94.3484 13.252V14.9023C93.6323 15.0716 92.7631 15.1562 91.741 15.1562ZM92.952 8.59375C92.952 7.96875 92.7794 7.44141 92.4344 7.01172C92.0307 6.51693 91.4741 6.26953 90.7645 6.26953C90.0158 6.26953 89.407 6.50716 88.9383 6.98242C88.5086 7.42513 88.2937 7.96224 88.2937 8.59375H92.952ZM100.477 13.457C100.691 13.5352 101.017 13.5742 101.453 13.5742C101.889 13.5742 102.254 13.5221 102.547 13.418V14.9805C102.41 15.013 102.212 15.0326 101.951 15.0391L101.336 15.0586C101.199 15.0586 101.095 15.0586 101.023 15.0586C99.7669 15.0586 98.8392 14.6484 98.2402 13.8281C97.7585 13.1641 97.5176 12.2852 97.5176 11.1914V6.41602H96.0723V5.49805L97.5176 4.92188L97.9863 2.42188H99.4707V4.92188H102.596V6.41602H99.4707V11.1816C99.4707 12.4577 99.806 13.2161 100.477 13.457ZM105.14 8.4375H111.78V9.94141H105.14V8.4375ZM114.764 1.40625H116.717V13.2812H122.537V15H114.764V1.40625ZM129.3 15.1562C125.615 15.1562 123.773 13.3561 123.773 9.75586C123.773 8.20638 124.284 6.96615 125.306 6.03516C126.224 5.1888 127.272 4.76562 128.451 4.76562C129.733 4.76562 130.736 5.19531 131.459 6.05469C132.129 6.85547 132.464 7.92643 132.464 9.26758V10.0293H125.804C125.804 11.8717 126.556 12.998 128.06 13.4082C128.418 13.5059 128.968 13.5547 129.711 13.5547C130.459 13.5547 131.192 13.4538 131.908 13.252V14.9023C131.192 15.0716 130.323 15.1562 129.3 15.1562ZM130.511 8.59375C130.511 7.96875 130.339 7.44141 129.994 7.01172C129.59 6.51693 129.033 6.26953 128.324 6.26953C127.575 6.26953 126.966 6.50716 126.498 6.98242C126.068 7.42513 125.853 7.96224 125.853 8.59375H130.511ZM133.036 4.92188H135.136L137.88 13.0957L140.634 4.92188H142.723L138.866 15H136.903L133.036 4.92188ZM148.9 15.1562C145.215 15.1562 143.373 13.3561 143.373 9.75586C143.373 8.20638 143.884 6.96615 144.906 6.03516C145.824 5.1888 146.872 4.76562 148.051 4.76562C149.333 4.76562 150.336 5.19531 151.059 6.05469C151.729 6.85547 152.064 7.92643 152.064 9.26758V10.0293H145.404C145.404 11.8717 146.156 12.998 147.66 13.4082C148.018 13.5059 148.568 13.5547 149.311 13.5547C150.059 13.5547 150.792 13.4538 151.508 13.252V14.9023C150.792 15.0716 149.923 15.1562 148.9 15.1562ZM150.111 8.59375C150.111 7.96875 149.939 7.44141 149.594 7.01172C149.19 6.51693 148.633 6.26953 147.924 6.26953C147.175 6.26953 146.566 6.50716 146.098 6.98242C145.668 7.42513 145.453 7.96224 145.453 8.59375H150.111ZM154.433 0.46875H156.386V11.1816C156.386 12.4707 156.679 13.2292 157.265 13.457C157.46 13.5352 157.668 13.5742 157.89 13.5742C158.111 13.5742 158.31 13.5482 158.486 13.4961V15L158.124 15.0391C158.007 15.0521 157.893 15.0586 157.782 15.0586C156.532 15.0586 155.631 14.6484 155.077 13.8281C154.648 13.1836 154.433 12.3047 154.433 11.1914V0.46875ZM170.195 4.4043L166.689 6.79688V4.82422L171.054 1.71875H172.138V15H170.195V4.4043Z" fill="#082831"/>
<path d="M0.503906 1.40625V0.90625H0.00390625V1.40625H0.503906ZM9.75195 1.40625H10.252V0.90625H9.75195V1.40625ZM9.75195 3.10547V3.60547H10.252V3.10547H9.75195ZM2.45703 3.10547V2.60547H1.95703V3.10547H2.45703ZM2.45703 7.10938H1.95703V7.60938H2.45703V7.10938ZM8.0918 7.10938H8.5918V6.60938H8.0918V7.10938ZM8.0918 8.75V9.25H8.5918V8.75H8.0918ZM2.45703 8.75V8.25H1.95703V8.75H2.45703ZM2.45703 15V15.5H2.95703V15H2.45703ZM0.503906 15H0.00390625V15.5H0.503906V15ZM0.503906 1.90625H9.75195V0.90625H0.503906V1.90625ZM9.25195 1.40625V3.10547H10.252V1.40625H9.25195ZM9.75195 2.60547H2.45703V3.60547H9.75195V2.60547ZM1.95703 3.10547V7.10938H2.95703V3.10547H1.95703ZM2.45703 7.60938H8.0918V6.60938H2.45703V7.60938ZM7.5918 7.10938V8.75H8.5918V7.10938H7.5918ZM8.0918 8.25H2.45703V9.25H8.0918V8.25ZM1.95703 8.75V15H2.95703V8.75H1.95703ZM2.45703 14.5H0.503906V15.5H2.45703V14.5ZM1.00391 15V1.40625H0.00390625V15H1.00391ZM13.8977 2.85156L14.2126 3.23994L14.2137 3.239L13.8977 2.85156ZM12.0813 2.85156L11.755 3.23045L11.7606 3.23528L11.7663 3.23994L12.0813 2.85156ZM12.0813 1.13281L11.7663 0.7444L11.7612 0.748702L12.0813 1.13281ZM13.8977 1.13281L13.5827 1.52122L13.5878 1.52525L13.8977 1.13281ZM11.9836 4.92188V4.42188H11.4836V4.92188H11.9836ZM13.9367 4.92188H14.4367V4.42188H13.9367V4.92188ZM13.9367 15V15.5H14.4367V15H13.9367ZM11.9836 15H11.4836V15.5H11.9836V15ZM13.7688 1.99219C13.7688 2.24033 13.693 2.37325 13.5816 2.46413L14.2137 3.239C14.5971 2.92623 14.7688 2.48623 14.7688 1.99219H13.7688ZM13.5828 2.46318C13.446 2.57406 13.2604 2.64453 12.9895 2.64453V3.64453C13.4476 3.64453 13.8675 3.51969 14.2126 3.23994L13.5828 2.46318ZM12.9895 2.64453C12.7185 2.64453 12.5329 2.57406 12.3962 2.46318L11.7663 3.23994C12.1114 3.51969 12.5313 3.64453 12.9895 3.64453V2.64453ZM12.4075 2.47268C12.3055 2.38485 12.2297 2.24962 12.2297 1.99219H11.2297C11.2297 2.47694 11.3882 2.91463 11.755 3.23045L12.4075 2.47268ZM12.2297 1.99219C12.2297 1.72445 12.3076 1.59506 12.4013 1.51692L11.7612 0.748702C11.3862 1.06119 11.2297 1.50471 11.2297 1.99219H12.2297ZM12.3962 1.52119C12.5329 1.41032 12.7185 1.33984 12.9895 1.33984V0.339844C12.5313 0.339844 12.1114 0.464681 11.7663 0.744435L12.3962 1.52119ZM12.9895 1.33984C13.2604 1.33984 13.446 1.41032 13.5828 1.52119L14.2126 0.744435C13.8675 0.464681 13.4476 0.339844 12.9895 0.339844V1.33984ZM13.5878 1.52525C13.6909 1.60663 13.7688 1.73385 13.7688 1.99219H14.7688C14.7688 1.49532 14.5992 1.04962 14.2075 0.740371L13.5878 1.52525ZM11.9836 5.42188H13.9367V4.42188H11.9836V5.42188ZM13.4367 4.92188V15H14.4367V4.92188H13.4367ZM13.9367 14.5H11.9836V15.5H13.9367V14.5ZM12.4836 15V4.92188H11.4836V15H12.4836ZM16.8129 14.9805H16.3129V15.4151L16.7433 15.4756L16.8129 14.9805ZM16.8129 13.252L16.9289 12.7656L16.3129 12.6187V13.252H16.8129ZM21.8031 11.8262L21.4387 12.1685L21.444 12.1742L21.4496 12.1797L21.8031 11.8262ZM20.8461 11.1816L21.0671 10.7329L21.0546 10.7272L20.8461 11.1816ZM19.4203 10.5273L19.1967 10.9746L19.2042 10.9783L19.2118 10.9818L19.4203 10.5273ZM17.6234 9.41406L17.9811 9.06469L17.9792 9.06274L17.6234 9.41406ZM17.975 5.58594L17.6946 5.17198L17.6943 5.17214L17.975 5.58594ZM23.6 4.92188H24.1V4.48662L23.6689 4.42665L23.6 4.92188ZM23.6 6.5918L23.5102 7.08367L24.1 7.19133V6.5918H23.6ZM20.0355 6.48438L19.9231 5.99718L19.921 5.99767L20.0355 6.48438ZM19.2836 6.77734L19.5656 7.19025L19.5682 7.18844L19.2836 6.77734ZM19.1566 8.19336L18.8031 8.54691L18.8094 8.55322L18.8159 8.55931L19.1566 8.19336ZM20.0355 8.76953L19.8033 9.21231L19.8106 9.21616L19.8181 9.21977L20.0355 8.76953ZM21.4711 9.46289L21.7021 9.01943L21.6954 9.01594L21.6886 9.01266L21.4711 9.46289ZM23.2777 10.5859L22.9286 10.9438L22.9288 10.9441L23.2777 10.5859ZM22.8285 14.3848L22.5697 13.9569L22.5689 13.9575L22.8285 14.3848ZM19.2836 14.6562C18.4939 14.6562 17.6936 14.5994 16.8825 14.4853L16.7433 15.4756C17.5989 15.5959 18.4457 15.6562 19.2836 15.6562V14.6562ZM17.3129 14.9805V13.252H16.3129V14.9805H17.3129ZM16.6969 13.7383C17.5814 13.9492 18.4797 14.0547 19.391 14.0547V13.0547C18.5576 13.0547 17.7371 12.9583 16.9289 12.7656L16.6969 13.7383ZM19.391 14.0547C20.2834 14.0547 21.0185 13.9628 21.5482 13.7395C21.8181 13.6257 22.0606 13.467 22.2369 13.244C22.4191 13.0135 22.5082 12.7421 22.5082 12.4512H21.5082C21.5082 12.5281 21.4883 12.5785 21.4524 12.6239C21.4106 12.6768 21.3259 12.748 21.1596 12.8181C20.8169 12.9626 20.2434 13.0547 19.391 13.0547V14.0547ZM22.5082 12.4512C22.5082 12.0981 22.4222 11.7381 22.1567 11.4726L21.4496 12.1797C21.4575 12.1876 21.5082 12.2443 21.5082 12.4512H22.5082ZM22.1675 11.4838C21.9066 11.206 21.5267 10.9595 21.067 10.7331L20.6252 11.6302C21.0379 11.8335 21.296 12.0166 21.4387 12.1685L22.1675 11.4838ZM21.0546 10.7272L19.6289 10.0729L19.2118 10.9818L20.6376 11.6361L21.0546 10.7272ZM19.6439 10.0801C18.7132 9.61479 18.1879 9.27643 17.9811 9.06469L17.2657 9.76343C17.6058 10.1116 18.2784 10.5154 19.1967 10.9746L19.6439 10.0801ZM17.9792 9.06274C17.555 8.63317 17.352 8.14 17.352 7.55859H16.352C16.352 8.40948 16.6632 9.15329 17.2677 9.76539L17.9792 9.06274ZM17.352 7.55859C17.352 6.93916 17.6248 6.42763 18.2557 5.99973L17.6943 5.17214C16.8278 5.75987 16.352 6.56345 16.352 7.55859H17.352ZM18.2554 5.9999C18.9483 5.53052 19.9685 5.26562 21.3734 5.26562V4.26562C19.8617 4.26562 18.6163 4.54761 17.6946 5.17198L18.2554 5.9999ZM21.3734 5.26562C22.0854 5.26562 22.8046 5.31603 23.5311 5.4171L23.6689 4.42665C22.898 4.31939 22.1328 4.26562 21.3734 4.26562V5.26562ZM23.1 4.92188V6.5918H24.1V4.92188H23.1ZM23.6898 6.09992C22.8497 5.94658 22.1022 5.86719 21.4516 5.86719V6.86719C22.0248 6.86719 22.7097 6.93754 23.5102 7.08367L23.6898 6.09992ZM21.4516 5.86719C20.8317 5.86719 20.316 5.90652 19.9231 5.99718L20.148 6.97157C20.4322 6.90598 20.8605 6.86719 21.4516 6.86719V5.86719ZM19.921 5.99767C19.5628 6.08196 19.2426 6.1976 18.999 6.36625L19.5682 7.18844C19.6631 7.12272 19.8442 7.04304 20.1501 6.97108L19.921 5.99767ZM19.0016 6.36444C18.6148 6.62861 18.3832 7.013 18.3832 7.49023H19.3832C19.3832 7.38153 19.4185 7.29066 19.5656 7.19024L19.0016 6.36444ZM18.3832 7.49023C18.3832 7.89315 18.5162 8.26002 18.8031 8.54691L19.5102 7.83981C19.4325 7.76212 19.3832 7.66023 19.3832 7.49023H18.3832ZM18.8159 8.55931C19.0527 8.77974 19.3912 8.99611 19.8033 9.21231L20.2678 8.32676C19.8857 8.12628 19.6382 7.95854 19.4974 7.82741L18.8159 8.55931ZM19.8181 9.21977L21.2536 9.91313L21.6886 9.01266L20.253 8.3193L19.8181 9.21977ZM21.2401 9.90635C22.1864 10.3992 22.7225 10.7428 22.9286 10.9438L23.6269 10.228C23.2991 9.90827 22.6308 9.50316 21.7021 9.01943L21.2401 9.90635ZM22.9288 10.9441C23.3342 11.339 23.5395 11.8289 23.5395 12.4512H24.5395C24.5395 11.576 24.2369 10.8224 23.6267 10.2278L22.9288 10.9441ZM23.5395 12.4512C23.5395 13.0431 23.2587 13.5402 22.5697 13.9569L23.0873 14.8126C24.0129 14.2527 24.5395 13.4608 24.5395 12.4512H23.5395ZM22.5689 13.9575C21.8319 14.4053 20.7538 14.6562 19.2836 14.6562V15.6562C20.8472 15.6562 22.1325 15.3928 23.0882 14.8121L22.5689 13.9575ZM28.566 7.43164L28.2377 7.05455L28.066 7.20402V7.43164H28.566ZM28.566 15V15.5H29.066V15H28.566ZM26.6129 15H26.1129V15.5H26.6129V15ZM26.6129 0.46875V-0.03125H26.1129V0.46875H26.6129ZM28.566 0.46875H29.066V-0.03125H28.566V0.46875ZM28.566 6.00586H28.066V7.03316L28.8745 6.39936L28.566 6.00586ZM34.484 5.83984L34.879 5.53334L34.8779 5.53188L34.484 5.83984ZM35.3629 15V15.5H35.8629V15H35.3629ZM33.4098 15H32.9098V15.5H33.4098V15ZM32.0914 6.60156L31.917 7.07022L31.9239 7.07267L32.0914 6.60156ZM31.1441 5.94531C30.0548 5.94531 29.08 6.32114 28.2377 7.05455L28.8943 7.80873C29.5624 7.22703 30.3064 6.94531 31.1441 6.94531V5.94531ZM28.066 7.43164V15H29.066V7.43164H28.066ZM28.566 14.5H26.6129V15.5H28.566V14.5ZM27.1129 15V0.46875H26.1129V15H27.1129ZM26.6129 0.96875H28.566V-0.03125H26.6129V0.96875ZM28.066 0.46875V6.00586H29.066V0.46875H28.066ZM28.8745 6.39936C29.8585 5.62795 30.8432 5.26562 31.8375 5.26562V4.26562C30.5792 4.26562 29.3829 4.73012 28.2575 5.61236L28.8745 6.39936ZM31.8375 5.26562C32.942 5.26562 33.6538 5.58982 34.0901 6.1478L34.8779 5.53188C34.1943 4.65758 33.1418 4.26562 31.8375 4.26562V5.26562ZM34.0889 6.14634C34.5719 6.76888 34.8629 7.84846 34.8629 9.49219H35.8629C35.8629 7.77654 35.5679 6.42123 34.879 5.53335L34.0889 6.14634ZM34.8629 9.49219V15H35.8629V9.49219H34.8629ZM35.3629 14.5H33.4098V15.5H35.3629V14.5ZM33.9098 15V9.49219H32.9098V15H33.9098ZM33.9098 9.49219C33.9098 7.83758 33.4609 6.55784 32.2589 6.13046L31.9239 7.07267C32.4797 7.27029 32.9098 7.91763 32.9098 9.49219H33.9098ZM32.2658 6.13295C31.9211 6.00471 31.5449 5.94531 31.1441 5.94531V6.94531C31.4465 6.94531 31.7018 6.99008 31.917 7.07017L32.2658 6.13295ZM51.584 13.877L51.8913 14.2714L51.8919 14.2709L51.584 13.877ZM49.6797 14.8438L49.8176 15.3244L49.8205 15.3235L49.6797 14.8438ZM44.6602 15H44.1602V15.4539L44.612 15.4977L44.6602 15ZM44.6602 0.46875V-0.03125H44.1602V0.46875H44.6602ZM46.6133 0.46875H47.1133V-0.03125H46.6133V0.46875ZM46.6133 5.92773H46.1133V7.25277L46.9886 6.25805L46.6133 5.92773ZM48.4004 4.88281L48.2688 4.40043L48.2685 4.40053L48.4004 4.88281ZM50.207 4.86328L50.105 5.35287L50.1149 5.35472L50.207 4.86328ZM51.1348 5.17578L50.915 5.6249L50.9187 5.62669L51.1348 5.17578ZM52.7656 6.69922L52.3329 6.94976L52.3366 6.95595L52.7656 6.69922ZM52.9512 12.1875L52.5065 11.9588L52.5048 11.9622L52.9512 12.1875ZM46.623 13.5645H46.123V13.9416L46.4857 14.0452L46.623 13.5645ZM50.4023 12.7148L50.7488 13.0754L50.7491 13.0751L50.4023 12.7148ZM50.0312 6.5332L50.2658 6.09159L50.2617 6.08945L50.0312 6.5332ZM48.0781 6.40625L48.2433 6.87818L48.0781 6.40625ZM47.3945 6.73828L47.1172 6.32223L47.1122 6.32563L47.3945 6.73828ZM46.623 7.55859L46.1739 7.33899L46.123 7.44291V7.55859H46.623ZM51.2767 13.4825C50.7685 13.8784 50.1907 14.1726 49.5388 14.364L49.8205 15.3235C50.5879 15.0982 51.2797 14.7479 51.8913 14.2714L51.2767 13.4825ZM49.5417 14.3632C48.8885 14.5507 48.1738 14.6465 47.3945 14.6465V15.6465C48.2559 15.6465 49.0646 15.5405 49.8176 15.3243L49.5417 14.3632ZM47.3945 14.6465C46.6001 14.6465 45.7051 14.5988 44.7083 14.5023L44.612 15.4977C45.6334 15.5965 46.5613 15.6465 47.3945 15.6465V14.6465ZM45.1602 15V0.46875H44.1602V15H45.1602ZM44.6602 0.96875H46.6133V-0.03125H44.6602V0.96875ZM46.1133 0.46875V5.92773H47.1133V0.46875H46.1133ZM46.9886 6.25805C47.3411 5.85752 47.8445 5.55323 48.5323 5.3651L48.2685 4.40053C47.4329 4.62906 46.7448 5.02138 46.2379 5.59742L46.9886 6.25805ZM48.5319 5.36519C48.7752 5.29886 49.0239 5.26562 49.2793 5.26562V4.26562C48.9358 4.26562 48.5985 4.31051 48.2688 4.40043L48.5319 5.36519ZM49.2793 5.26562C49.5496 5.26562 49.8246 5.29435 50.1051 5.35277L50.309 4.37379C49.9644 4.302 49.621 4.26562 49.2793 4.26562V5.26562ZM50.1149 5.35472C50.3801 5.40444 50.6466 5.49353 50.915 5.62489L51.3545 4.72667C51.011 4.55855 50.659 4.43931 50.2992 4.37185L50.1149 5.35472ZM50.9187 5.62669C51.1864 5.75496 51.4443 5.92698 51.6923 6.14615L52.3545 5.39682C52.0426 5.12119 51.7081 4.89608 51.3508 4.72487L50.9187 5.62669ZM51.6923 6.14615C51.9265 6.35307 52.1411 6.61846 52.3329 6.94974L53.1983 6.4487C52.9604 6.03779 52.6803 5.68469 52.3545 5.39682L51.6923 6.14615ZM52.3366 6.95595C52.7576 7.65955 52.9785 8.51134 52.9785 9.53125H53.9785C53.9785 8.36366 53.7242 7.32743 53.1947 6.44249L52.3366 6.95595ZM52.9785 9.53125C52.9785 10.5699 52.8098 11.3691 52.5065 11.9588L53.3958 12.4162C53.7957 11.6387 53.9785 10.6671 53.9785 9.53125H52.9785ZM52.5048 11.9622C52.1907 12.5844 51.7807 13.0886 51.2761 13.483L51.8919 14.2709C52.52 13.7799 53.0215 13.1577 53.3975 12.4128L52.5048 11.9622ZM46.4857 14.0452C46.7455 14.1194 47.1724 14.1426 47.6973 14.1426V13.1426C47.1545 13.1426 46.8652 13.1136 46.7604 13.0837L46.4857 14.0452ZM47.6973 14.1426C48.2784 14.1426 48.8314 14.061 49.3533 13.8943L49.049 12.9417C48.6335 13.0744 48.1839 13.1426 47.6973 13.1426V14.1426ZM49.3533 13.8943C49.8897 13.7229 50.3579 13.4509 50.7488 13.0754L50.0559 12.3543C49.7827 12.6168 49.4501 12.8135 49.049 12.9417L49.3533 13.8943ZM50.7491 13.0751C51.5758 12.2793 51.9473 11.1286 51.9473 9.7168H50.9473C50.9473 10.9612 50.6222 11.8092 50.0556 12.3546L50.7491 13.0751ZM51.9473 9.7168C51.9473 8.01576 51.4487 6.71978 50.2658 6.09161L49.7967 6.9748C50.5018 7.34923 50.9473 8.17565 50.9473 9.7168H51.9473ZM50.2617 6.08945C49.8581 5.87993 49.4346 5.76953 48.9961 5.76953V6.76953C49.2608 6.76953 49.5273 6.83492 49.8008 6.97695L50.2617 6.08945ZM48.9961 5.76953C48.603 5.76953 48.2387 5.82029 47.9129 5.93432L48.2433 6.87818C48.4383 6.80991 48.6861 6.76953 48.9961 6.76953V5.76953ZM47.9129 5.93432C47.6197 6.03697 47.3529 6.16514 47.1172 6.32226L47.6719 7.15431C47.8268 7.05101 48.0158 6.95782 48.2433 6.87818L47.9129 5.93432ZM47.1122 6.32563C46.6955 6.61072 46.3668 6.94438 46.1739 7.33899L47.0722 7.7782C47.1658 7.58687 47.3514 7.37365 47.6769 7.15094L47.1122 6.32563ZM46.123 7.55859V13.5645H47.123V7.55859H46.123ZM62.5461 12.5293L62.8751 12.9058L63.0461 12.7564V12.5293H62.5461ZM62.5461 4.92188V4.42188H62.0461V4.92188H62.5461ZM64.4992 4.92188H64.9992V4.42188H64.4992V4.92188ZM64.4992 15V15.5H64.9992V15H64.4992ZM62.7414 15L62.2481 15.0815L62.3172 15.5H62.7414V15ZM62.5656 13.9355L63.0589 13.8541L62.9155 12.9856L62.243 13.5536L62.5656 13.9355ZM56.7453 14.1309L57.1449 13.8302L57.1422 13.8267L56.7453 14.1309ZM55.9445 4.92188V4.42188H55.4445V4.92188H55.9445ZM57.8977 4.92188H58.3977V4.42188H57.8977V4.92188ZM58.4152 12.8906L58.8089 12.5823L58.8074 12.5804L58.4152 12.8906ZM63.0461 12.5293V4.92188H62.0461V12.5293H63.0461ZM62.5461 5.42188H64.4992V4.42188H62.5461V5.42188ZM63.9992 4.92188V15H64.9992V4.92188H63.9992ZM64.4992 14.5H62.7414V15.5H64.4992V14.5ZM63.2347 14.9185L63.0589 13.8541L62.0723 14.017L62.2481 15.0815L63.2347 14.9185ZM62.243 13.5536C61.3617 14.2979 60.4095 14.6562 59.3723 14.6562V15.6562C60.6658 15.6562 61.8425 15.2008 62.8882 14.3175L62.243 13.5536ZM59.3723 14.6562C58.2187 14.6562 57.5278 14.3393 57.1449 13.8303L56.3458 14.4315C56.9914 15.2896 58.0518 15.6562 59.3723 15.6562V14.6562ZM57.1422 13.8267C56.7141 13.2681 56.4445 12.2113 56.4445 10.5273H55.4445C55.4445 12.2548 55.7088 13.6004 56.3484 14.435L57.1422 13.8267ZM56.4445 10.5273V4.92188H55.4445V10.5273H56.4445ZM55.9445 5.42188H57.8977V4.42188H55.9445V5.42188ZM57.3977 4.92188V10.4297H58.3977V4.92188H57.3977ZM57.3977 10.4297C57.3977 11.0529 57.442 11.596 57.5378 12.0511C57.6326 12.5019 57.7844 12.8991 58.0231 13.2008L58.8074 12.5804C58.701 12.4459 58.5941 12.2149 58.5163 11.8453C58.4395 11.4802 58.3977 11.0109 58.3977 10.4297H57.3977ZM58.0216 13.199C58.4736 13.776 59.2589 13.9766 60.1633 13.9766V12.9766C59.3489 12.9766 58.9688 12.7865 58.8088 12.5823L58.0216 13.199ZM60.1633 13.9766C61.1635 13.9766 62.0719 13.6077 62.8751 12.9058L62.2171 12.1528C61.5749 12.714 60.8948 12.9766 60.1633 12.9766V13.9766ZM74.6898 14.9707L74.8408 15.4474L75.1898 15.3368V14.9707H74.6898ZM70.1977 14.8047L70.0327 15.2767L70.0341 15.2772L70.1977 14.8047ZM68.4789 13.7695L68.1326 14.1302L68.1328 14.1304L68.4789 13.7695ZM68.7719 6.01562L69.0818 6.40796L69.0819 6.40794L68.7719 6.01562ZM74.6117 4.86328H75.1117V4.44737L74.7028 4.37164L74.6117 4.86328ZM74.6117 6.60156L74.4587 7.07758L75.1117 7.28747V6.60156H74.6117ZM70.9984 6.63086L71.1875 7.09377L71.193 7.09143L70.9984 6.63086ZM69.8656 7.40234L69.494 7.06786L69.493 7.06895L69.8656 7.40234ZM70.8812 13.252L71.0912 12.7982L71.0903 12.7978L70.8812 13.252ZM73.1176 13.5254L73.0749 13.0272L73.0736 13.0273L73.1176 13.5254ZM73.7621 13.4473L73.8417 13.9409L73.8443 13.9405L73.7621 13.4473ZM74.6898 13.2227H75.1898V12.4746L74.4987 12.7606L74.6898 13.2227ZM74.5389 14.494C74.229 14.5922 73.6213 14.6562 72.6586 14.6562V15.6562C73.6229 15.6562 74.3694 15.5966 74.8408 15.4474L74.5389 14.494ZM72.6586 14.6562C71.7328 14.6562 70.9711 14.5433 70.3612 14.3322L70.0341 15.2772C70.7784 15.5348 71.6573 15.6562 72.6586 15.6562V14.6562ZM70.3626 14.3327C69.7543 14.1201 69.2445 13.811 68.825 13.4086L68.1328 14.1304C68.6638 14.6396 69.2999 15.0206 70.0327 15.2767L70.3626 14.3327ZM68.8252 13.4089C67.9619 12.5799 67.5043 11.4139 67.5043 9.84375H66.5043C66.5043 11.6199 67.0298 13.0712 68.1326 14.1302L68.8252 13.4089ZM67.5043 9.84375C67.5043 8.36165 68.034 7.23579 69.0818 6.40796L68.4619 5.62329C67.153 6.65744 66.5043 8.08366 66.5043 9.84375H67.5043ZM69.0819 6.40794C70.0359 5.65416 71.2177 5.26562 72.6586 5.26562V4.26562C71.0265 4.26562 69.6173 4.71043 68.4619 5.62331L69.0819 6.40794ZM72.6586 5.26562C73.6127 5.26562 74.2203 5.2993 74.5207 5.35492L74.7028 4.37164C74.3 4.29705 73.6055 4.26562 72.6586 4.26562V5.26562ZM74.1117 4.86328V6.60156H75.1117V4.86328H74.1117ZM74.7647 6.12555C74.1588 5.93078 73.4806 5.83789 72.7367 5.83789V6.83789C73.3991 6.83789 73.9709 6.92078 74.4587 7.07758L74.7647 6.12555ZM72.7367 5.83789C71.9975 5.83789 71.3466 5.94095 70.8038 6.17029L71.193 7.09143C71.5748 6.93015 72.0827 6.83789 72.7367 6.83789V5.83789ZM70.8094 6.16798C70.2872 6.38127 69.844 6.67896 69.494 7.06786L70.2373 7.73683C70.4732 7.47469 70.7852 7.25805 71.1875 7.09374L70.8094 6.16798ZM69.493 7.06895C68.8408 7.79794 68.5355 8.73946 68.5355 9.84375H69.5355C69.5355 8.92981 69.7837 8.24373 70.2382 7.73574L69.493 7.06895ZM68.5355 9.84375C68.5355 10.7541 68.6994 11.5524 69.0573 12.2132C69.419 12.8811 69.9638 13.3801 70.6722 13.7061L71.0903 12.7978C70.5682 12.5574 70.1902 12.2052 69.9366 11.737C69.6793 11.2618 69.5355 10.6392 69.5355 9.84375H68.5355ZM70.6713 13.7057C71.1632 13.9333 71.661 14.0547 72.1605 14.0547V13.0547C71.8267 13.0547 71.4717 12.9742 71.0912 12.7982L70.6713 13.7057ZM72.1605 14.0547C72.5816 14.0547 72.918 14.0449 73.1615 14.0235L73.0736 13.0273C72.8744 13.0449 72.5728 13.0547 72.1605 13.0547V14.0547ZM73.1603 14.0236C73.3991 14.0031 73.6263 13.9756 73.8417 13.9409L73.6825 12.9536C73.4942 12.984 73.2918 13.0086 73.0749 13.0272L73.1603 14.0236ZM73.8443 13.9405C74.2792 13.868 74.6363 13.7859 74.881 13.6847L74.4987 12.7606C74.3658 12.8156 74.1044 12.8833 73.6799 12.9541L73.8443 13.9405ZM74.1898 13.2227V14.9707H75.1898V13.2227H74.1898ZM77.3805 0.478516V-0.0214844H76.8805V0.478516H77.3805ZM79.3336 0.478516H79.8336V-0.0214844H79.3336V0.478516ZM79.3336 9.43359H78.8336V10.7315L79.7044 9.76905L79.3336 9.43359ZM83.4156 4.92188V4.42188H83.1937L83.0449 4.58642L83.4156 4.92188ZM85.7398 4.92188L86.1022 5.26641L86.9052 4.42188H85.7398V4.92188ZM81.3941 9.49219L81.0318 9.14765L80.7257 9.46959L81.0094 9.81147L81.3941 9.49219ZM85.9645 15V15.5H87.0291L86.3492 14.6807L85.9645 15ZM83.5816 15L83.1963 15.3186L83.3463 15.5H83.5816V15ZM79.3336 9.86328L79.7189 9.54463L78.8336 8.47412V9.86328H79.3336ZM79.3336 15V15.5H79.8336V15H79.3336ZM77.3805 15H76.8805V15.5H77.3805V15ZM77.3805 0.978516H79.3336V-0.0214844H77.3805V0.978516ZM78.8336 0.478516V9.43359H79.8336V0.478516H78.8336ZM79.7044 9.76905L83.7864 5.25733L83.0449 4.58642L78.9628 9.09814L79.7044 9.76905ZM83.4156 5.42188H85.7398V4.42188H83.4156V5.42188ZM85.3775 4.57734L81.0318 9.14765L81.7565 9.83673L86.1022 5.26641L85.3775 4.57734ZM81.0094 9.81147L85.5797 15.3193L86.3492 14.6807L81.7789 9.1729L81.0094 9.81147ZM85.9645 14.5H83.5816V15.5H85.9645V14.5ZM83.9669 14.6814L79.7189 9.54463L78.9483 10.1819L83.1963 15.3186L83.9669 14.6814ZM78.8336 9.86328V15H79.8336V9.86328H78.8336ZM79.3336 14.5H77.3805V15.5H79.3336V14.5ZM77.8805 15V0.478516H76.8805V15H77.8805ZM87.7469 6.03516L88.0836 6.40481L88.0858 6.40276L87.7469 6.03516ZM93.8992 6.05469L94.2826 5.73368L94.2819 5.73289L93.8992 6.05469ZM94.9051 10.0293V10.5293H95.4051V10.0293H94.9051ZM88.2449 10.0293V9.5293H87.7449V10.0293H88.2449ZM94.3484 13.252H94.8484V12.5916L94.2128 12.7707L94.3484 13.252ZM94.3484 14.9023L94.4634 15.3889L94.8484 15.2979V14.9023H94.3484ZM92.952 8.59375V9.09375H93.452V8.59375H92.952ZM92.4344 7.01172L92.8242 6.69864L92.8218 6.69566L92.4344 7.01172ZM88.9383 6.98242L88.5823 6.6313L88.5795 6.63418L88.9383 6.98242ZM88.2937 8.59375H87.7937V9.09375H88.2937V8.59375ZM91.741 14.6562C89.9728 14.6562 88.739 14.2243 87.9449 13.4485C87.1531 12.6748 86.7137 11.4759 86.7137 9.75586H85.7137C85.7137 11.636 86.1955 13.1373 87.2461 14.1638C88.2945 15.1881 89.8244 15.6562 91.741 15.6562V14.6562ZM86.7137 9.75586C86.7137 8.32824 87.1786 7.22906 88.0836 6.40481L87.4102 5.66551C86.2709 6.70323 85.7137 8.08452 85.7137 9.75586H86.7137ZM88.0858 6.40276C88.9175 5.63597 89.8466 5.26562 90.8914 5.26562V4.26562C89.5795 4.26562 88.4122 4.74163 87.408 5.66755L88.0858 6.40276ZM90.8914 5.26562C92.0498 5.26562 92.903 5.64691 93.5165 6.37649L94.2819 5.73289C93.4501 4.74372 92.2981 4.26562 90.8914 4.26562V5.26562ZM93.5159 6.3757C94.0918 7.06346 94.4051 8.0098 94.4051 9.26758H95.4051C95.4051 7.84307 95.0478 6.64748 94.2826 5.73368L93.5159 6.3757ZM94.4051 9.26758V10.0293H95.4051V9.26758H94.4051ZM94.9051 9.5293H88.2449V10.5293H94.9051V9.5293ZM87.7449 10.0293C87.7449 11.0147 87.9457 11.8634 88.393 12.5335C88.846 13.2119 89.5196 13.6589 90.3692 13.8906L90.6323 12.9258C89.9781 12.7474 89.5237 12.4261 89.2247 11.9782C88.9201 11.522 88.7449 10.8864 88.7449 10.0293H87.7449ZM90.3692 13.8906C90.7943 14.0065 91.3995 14.0547 92.1512 14.0547V13.0547C91.4184 13.0547 90.9234 13.0052 90.6323 12.9258L90.3692 13.8906ZM92.1512 14.0547C92.9454 14.0547 93.7235 13.9475 94.4841 13.7332L94.2128 12.7707C93.5411 12.96 92.8543 13.0547 92.1512 13.0547V14.0547ZM93.8484 13.252V14.9023H94.8484V13.252H93.8484ZM94.2334 14.4158C93.5664 14.5734 92.7382 14.6562 91.741 14.6562V15.6562C92.7881 15.6562 93.6982 15.5698 94.4634 15.3889L94.2334 14.4158ZM93.452 8.59375C93.452 7.87101 93.25 7.22891 92.8242 6.69865L92.0445 7.32479C92.3088 7.6539 92.452 8.06649 92.452 8.59375H93.452ZM92.8218 6.69566C92.3118 6.07053 91.6053 5.76953 90.7645 5.76953V6.76953C91.3428 6.76953 91.7496 6.96332 92.0469 7.32778L92.8218 6.69566ZM90.7645 5.76953C89.8998 5.76953 89.1568 6.04881 88.5823 6.63132L89.2943 7.33353C89.6572 6.96551 90.1317 6.76953 90.7645 6.76953V5.76953ZM88.5795 6.63418C88.0569 7.17262 87.7937 7.83564 87.7937 8.59375H88.7937C88.7937 8.08884 88.9603 7.67764 89.2971 7.33066L88.5795 6.63418ZM88.2937 9.09375H92.952V8.09375H88.2937V9.09375ZM100.477 13.457L100.647 12.9871L100.646 12.9865L100.477 13.457ZM102.547 13.418H103.047V12.7095L102.379 12.9469L102.547 13.418ZM102.547 14.9805L102.663 15.4669L103.047 15.3754V14.9805H102.547ZM101.951 15.0391L101.939 14.5392L101.935 14.5393L101.951 15.0391ZM101.336 15.0586V15.5586H101.344L101.352 15.5583L101.336 15.0586ZM98.2402 13.8281L97.8355 14.1217L97.8364 14.123L98.2402 13.8281ZM97.5176 6.41602H98.0176V5.91602H97.5176V6.41602ZM96.0723 6.41602H95.5723V6.91602H96.0723V6.41602ZM96.0723 5.49805L95.8871 5.03359L95.5723 5.15911V5.49805H96.0723ZM97.5176 4.92188L97.7027 5.38633L97.9583 5.28444L98.009 5.01402L97.5176 4.92188ZM97.9863 2.42188V1.92188H97.5714L97.4949 2.32973L97.9863 2.42188ZM99.4707 2.42188H99.9707V1.92188H99.4707V2.42188ZM99.4707 4.92188H98.9707V5.42188H99.4707V4.92188ZM102.596 4.92188H103.096V4.42188H102.596V4.92188ZM102.596 6.41602V6.91602H103.096V6.41602H102.596ZM99.4707 6.41602V5.91602H98.9707V6.41602H99.4707ZM100.306 13.9269C100.605 14.0357 101.002 14.0742 101.453 14.0742V13.0742C101.032 13.0742 100.778 13.0346 100.647 12.9871L100.306 13.9269ZM101.453 14.0742C101.925 14.0742 102.351 14.0184 102.714 13.8891L102.379 12.9469C102.157 13.0259 101.853 13.0742 101.453 13.0742V14.0742ZM102.047 13.418V14.9805H103.047V13.418H102.047ZM102.431 14.4941C102.346 14.5144 102.188 14.533 101.939 14.5392L101.964 15.5389C102.235 15.5321 102.475 15.5116 102.663 15.4669L102.431 14.4941ZM101.935 14.5393L101.32 14.5588L101.352 15.5583L101.967 15.5388L101.935 14.5393ZM101.336 14.5586C101.336 14.5586 101.335 14.5586 101.335 14.5586C101.335 14.5586 101.335 14.5586 101.334 14.5586C101.334 14.5586 101.334 14.5586 101.334 14.5586C101.333 14.5586 101.333 14.5586 101.333 14.5586C101.332 14.5586 101.332 14.5586 101.332 14.5586C101.332 14.5586 101.331 14.5586 101.331 14.5586C101.331 14.5586 101.331 14.5586 101.33 14.5586C101.33 14.5586 101.33 14.5586 101.33 14.5586C101.329 14.5586 101.329 14.5586 101.329 14.5586C101.328 14.5586 101.328 14.5586 101.328 14.5586C101.328 14.5586 101.327 14.5586 101.327 14.5586C101.327 14.5586 101.327 14.5586 101.326 14.5586C101.326 14.5586 101.326 14.5586 101.326 14.5586C101.325 14.5586 101.325 14.5586 101.325 14.5586C101.325 14.5586 101.324 14.5586 101.324 14.5586C101.324 14.5586 101.323 14.5586 101.323 14.5586C101.323 14.5586 101.323 14.5586 101.322 14.5586C101.322 14.5586 101.322 14.5586 101.322 14.5586C101.321 14.5586 101.321 14.5586 101.321 14.5586C101.321 14.5586 101.32 14.5586 101.32 14.5586C101.32 14.5586 101.32 14.5586 101.319 14.5586C101.319 14.5586 101.319 14.5586 101.318 14.5586C101.318 14.5586 101.318 14.5586 101.318 14.5586C101.317 14.5586 101.317 14.5586 101.317 14.5586C101.317 14.5586 101.316 14.5586 101.316 14.5586C101.316 14.5586 101.316 14.5586 101.315 14.5586C101.315 14.5586 101.315 14.5586 101.315 14.5586C101.314 14.5586 101.314 14.5586 101.314 14.5586C101.314 14.5586 101.313 14.5586 101.313 14.5586C101.313 14.5586 101.312 14.5586 101.312 14.5586C101.312 14.5586 101.312 14.5586 101.311 14.5586C101.311 14.5586 101.311 14.5586 101.311 14.5586C101.31 14.5586 101.31 14.5586 101.31 14.5586C101.31 14.5586 101.309 14.5586 101.309 14.5586C101.309 14.5586 101.309 14.5586 101.308 14.5586C101.308 14.5586 101.308 14.5586 101.308 14.5586C101.307 14.5586 101.307 14.5586 101.307 14.5586C101.307 14.5586 101.306 14.5586 101.306 14.5586C101.306 14.5586 101.306 14.5586 101.305 14.5586C101.305 14.5586 101.305 14.5586 101.304 14.5586C101.304 14.5586 101.304 14.5586 101.304 14.5586C101.303 14.5586 101.303 14.5586 101.303 14.5586C101.303 14.5586 101.302 14.5586 101.302 14.5586C101.302 14.5586 101.302 14.5586 101.301 14.5586C101.301 14.5586 101.301 14.5586 101.301 14.5586C101.3 14.5586 101.3 14.5586 101.3 14.5586C101.3 14.5586 101.299 14.5586 101.299 14.5586C101.299 14.5586 101.299 14.5586 101.298 14.5586C101.298 14.5586 101.298 14.5586 101.298 14.5586C101.297 14.5586 101.297 14.5586 101.297 14.5586C101.297 14.5586 101.296 14.5586 101.296 14.5586C101.296 14.5586 101.296 14.5586 101.295 14.5586C101.295 14.5586 101.295 14.5586 101.295 14.5586C101.294 14.5586 101.294 14.5586 101.294 14.5586C101.294 14.5586 101.293 14.5586 101.293 14.5586C101.293 14.5586 101.292 14.5586 101.292 14.5586C101.292 14.5586 101.292 14.5586 101.291 14.5586C101.291 14.5586 101.291 14.5586 101.291 14.5586C101.29 14.5586 101.29 14.5586 101.29 14.5586C101.29 14.5586 101.289 14.5586 101.289 14.5586C101.289 14.5586 101.289 14.5586 101.288 14.5586C101.288 14.5586 101.288 14.5586 101.288 14.5586C101.287 14.5586 101.287 14.5586 101.287 14.5586C101.287 14.5586 101.286 14.5586 101.286 14.5586C101.286 14.5586 101.286 14.5586 101.285 14.5586C101.285 14.5586 101.285 14.5586 101.285 14.5586C101.284 14.5586 101.284 14.5586 101.284 14.5586C101.284 14.5586 101.283 14.5586 101.283 14.5586C101.283 14.5586 101.283 14.5586 101.282 14.5586C101.282 14.5586 101.282 14.5586 101.282 14.5586C101.281 14.5586 101.281 14.5586 101.281 14.5586C101.281 14.5586 101.28 14.5586 101.28 14.5586C101.28 14.5586 101.28 14.5586 101.279 14.5586C101.279 14.5586 101.279 14.5586 101.279 14.5586C101.278 14.5586 101.278 14.5586 101.278 14.5586C101.278 14.5586 101.277 14.5586 101.277 14.5586C101.277 14.5586 101.277 14.5586 101.276 14.5586C101.276 14.5586 101.276 14.5586 101.276 14.5586C101.275 14.5586 101.275 14.5586 101.275 14.5586C101.275 14.5586 101.274 14.5586 101.274 14.5586C101.274 14.5586 101.274 14.5586 101.273 14.5586C101.273 14.5586 101.273 14.5586 101.273 14.5586C101.273 14.5586 101.272 14.5586 101.272 14.5586C101.272 14.5586 101.272 14.5586 101.271 14.5586C101.271 14.5586 101.271 14.5586 101.271 14.5586C101.27 14.5586 101.27 14.5586 101.27 14.5586C101.27 14.5586 101.269 14.5586 101.269 14.5586C101.269 14.5586 101.269 14.5586 101.268 14.5586C101.268 14.5586 101.268 14.5586 101.268 14.5586C101.267 14.5586 101.267 14.5586 101.267 14.5586C101.267 14.5586 101.266 14.5586 101.266 14.5586C101.266 14.5586 101.266 14.5586 101.265 14.5586C101.265 14.5586 101.265 14.5586 101.265 14.5586C101.264 14.5586 101.264 14.5586 101.264 14.5586C101.264 14.5586 101.263 14.5586 101.263 14.5586C101.263 14.5586 101.263 14.5586 101.262 14.5586C101.262 14.5586 101.262 14.5586 101.262 14.5586C101.261 14.5586 101.261 14.5586 101.261 14.5586C101.261 14.5586 101.261 14.5586 101.26 14.5586C101.26 14.5586 101.26 14.5586 101.26 14.5586C101.259 14.5586 101.259 14.5586 101.259 14.5586C101.259 14.5586 101.258 14.5586 101.258 14.5586C101.258 14.5586 101.258 14.5586 101.257 14.5586C101.257 14.5586 101.257 14.5586 101.257 14.5586C101.256 14.5586 101.256 14.5586 101.256 14.5586C101.256 14.5586 101.255 14.5586 101.255 14.5586C101.255 14.5586 101.255 14.5586 101.254 14.5586C101.254 14.5586 101.254 14.5586 101.254 14.5586C101.254 14.5586 101.253 14.5586 101.253 14.5586C101.253 14.5586 101.253 14.5586 101.252 14.5586C101.252 14.5586 101.252 14.5586 101.252 14.5586C101.251 14.5586 101.251 14.5586 101.251 14.5586C101.251 14.5586 101.25 14.5586 101.25 14.5586C101.25 14.5586 101.25 14.5586 101.249 14.5586C101.249 14.5586 101.249 14.5586 101.249 14.5586C101.248 14.5586 101.248 14.5586 101.248 14.5586C101.248 14.5586 101.248 14.5586 101.247 14.5586C101.247 14.5586 101.247 14.5586 101.247 14.5586C101.246 14.5586 101.246 14.5586 101.246 14.5586C101.246 14.5586 101.245 14.5586 101.245 14.5586C101.245 14.5586 101.245 14.5586 101.244 14.5586C101.244 14.5586 101.244 14.5586 101.244 14.5586C101.244 14.5586 101.243 14.5586 101.243 14.5586C101.243 14.5586 101.243 14.5586 101.242 14.5586C101.242 14.5586 101.242 14.5586 101.242 14.5586C101.241 14.5586 101.241 14.5586 101.241 14.5586C101.241 14.5586 101.24 14.5586 101.24 14.5586C101.24 14.5586 101.24 14.5586 101.24 14.5586C101.239 14.5586 101.239 14.5586 101.239 14.5586C101.239 14.5586 101.238 14.5586 101.238 14.5586C101.238 14.5586 101.238 14.5586 101.237 14.5586C101.237 14.5586 101.237 14.5586 101.237 14.5586C101.236 14.5586 101.236 14.5586 101.236 14.5586C101.236 14.5586 101.236 14.5586 101.235 14.5586C101.235 14.5586 101.235 14.5586 101.235 14.5586C101.234 14.5586 101.234 14.5586 101.234 14.5586C101.234 14.5586 101.233 14.5586 101.233 14.5586C101.233 14.5586 101.233 14.5586 101.232 14.5586C101.232 14.5586 101.232 14.5586 101.232 14.5586C101.232 14.5586 101.231 14.5586 101.231 14.5586C101.231 14.5586 101.231 14.5586 101.23 14.5586C101.23 14.5586 101.23 14.5586 101.23 14.5586C101.229 14.5586 101.229 14.5586 101.229 14.5586C101.229 14.5586 101.229 14.5586 101.228 14.5586C101.228 14.5586 101.228 14.5586 101.228 14.5586C101.227 14.5586 101.227 14.5586 101.227 14.5586C101.227 14.5586 101.226 14.5586 101.226 14.5586C101.226 14.5586 101.226 14.5586 101.226 14.5586C101.225 14.5586 101.225 14.5586 101.225 14.5586C101.225 14.5586 101.224 14.5586 101.224 14.5586C101.224 14.5586 101.224 14.5586 101.223 14.5586C101.223 14.5586 101.223 14.5586 101.223 14.5586C101.223 14.5586 101.222 14.5586 101.222 14.5586C101.222 14.5586 101.222 14.5586 101.221 14.5586C101.221 14.5586 101.221 14.5586 101.221 14.5586C101.22 14.5586 101.22 14.5586 101.22 14.5586C101.22 14.5586 101.22 14.5586 101.219 14.5586C101.219 14.5586 101.219 14.5586 101.219 14.5586C101.218 14.5586 101.218 14.5586 101.218 14.5586C101.218 14.5586 101.218 14.5586 101.217 14.5586C101.217 14.5586 101.217 14.5586 101.217 14.5586C101.216 14.5586 101.216 14.5586 101.216 14.5586C101.216 14.5586 101.215 14.5586 101.215 14.5586C101.215 14.5586 101.215 14.5586 101.215 14.5586C101.214 14.5586 101.214 14.5586 101.214 14.5586C101.214 14.5586 101.213 14.5586 101.213 14.5586C101.213 14.5586 101.213 14.5586 101.213 14.5586C101.212 14.5586 101.212 14.5586 101.212 14.5586C101.212 14.5586 101.211 14.5586 101.211 14.5586C101.211 14.5586 101.211 14.5586 101.211 14.5586C101.21 14.5586 101.21 14.5586 101.21 14.5586C101.21 14.5586 101.209 14.5586 101.209 14.5586C101.209 14.5586 101.209 14.5586 101.208 14.5586C101.208 14.5586 101.208 14.5586 101.208 14.5586C101.208 14.5586 101.207 14.5586 101.207 14.5586C101.207 14.5586 101.207 14.5586 101.206 14.5586C101.206 14.5586 101.206 14.5586 101.206 14.5586C101.206 14.5586 101.205 14.5586 101.205 14.5586C101.205 14.5586 101.205 14.5586 101.204 14.5586C101.204 14.5586 101.204 14.5586 101.204 14.5586C101.204 14.5586 101.203 14.5586 101.203 14.5586C101.203 14.5586 101.203 14.5586 101.202 14.5586C101.202 14.5586 101.202 14.5586 101.202 14.5586C101.202 14.5586 101.201 14.5586 101.201 14.5586C101.201 14.5586 101.201 14.5586 101.2 14.5586C101.2 14.5586 101.2 14.5586 101.2 14.5586C101.2 14.5586 101.199 14.5586 101.199 14.5586C101.199 14.5586 101.199 14.5586 101.199 14.5586C101.198 14.5586 101.198 14.5586 101.198 14.5586C101.198 14.5586 101.197 14.5586 101.197 14.5586C101.197 14.5586 101.197 14.5586 101.197 14.5586C101.196 14.5586 101.196 14.5586 101.196 14.5586C101.196 14.5586 101.195 14.5586 101.195 14.5586C101.195 14.5586 101.195 14.5586 101.195 14.5586C101.194 14.5586 101.194 14.5586 101.194 14.5586C101.194 14.5586 101.193 14.5586 101.193 14.5586C101.193 14.5586 101.193 14.5586 101.193 14.5586C101.192 14.5586 101.192 14.5586 101.192 14.5586C101.192 14.5586 101.191 14.5586 101.191 14.5586C101.191 14.5586 101.191 14.5586 101.191 14.5586C101.19 14.5586 101.19 14.5586 101.19 14.5586C101.19 14.5586 101.19 14.5586 101.189 14.5586C101.189 14.5586 101.189 14.5586 101.189 14.5586C101.188 14.5586 101.188 14.5586 101.188 14.5586C101.188 14.5586 101.188 14.5586 101.187 14.5586C101.187 14.5586 101.187 14.5586 101.187 14.5586C101.187 14.5586 101.186 14.5586 101.186 14.5586C101.186 14.5586 101.186 14.5586 101.185 14.5586C101.185 14.5586 101.185 14.5586 101.185 14.5586C101.185 14.5586 101.184 14.5586 101.184 14.5586C101.184 14.5586 101.184 14.5586 101.183 14.5586C101.183 14.5586 101.183 14.5586 101.183 14.5586C101.183 14.5586 101.182 14.5586 101.182 14.5586C101.182 14.5586 101.182 14.5586 101.182 14.5586C101.181 14.5586 101.181 14.5586 101.181 14.5586C101.181 14.5586 101.18 14.5586 101.18 14.5586C101.18 14.5586 101.18 14.5586 101.18 14.5586C101.179 14.5586 101.179 14.5586 101.179 14.5586C101.179 14.5586 101.179 14.5586 101.178 14.5586C101.178 14.5586 101.178 14.5586 101.178 14.5586C101.178 14.5586 101.177 14.5586 101.177 14.5586C101.177 14.5586 101.177 14.5586 101.176 14.5586C101.176 14.5586 101.176 14.5586 101.176 14.5586C101.176 14.5586 101.175 14.5586 101.175 14.5586C101.175 14.5586 101.175 14.5586 101.175 14.5586C101.174 14.5586 101.174 14.5586 101.174 14.5586C101.174 14.5586 101.174 14.5586 101.173 14.5586C101.173 14.5586 101.173 14.5586 101.173 14.5586C101.172 14.5586 101.172 14.5586 101.172 14.5586C101.172 14.5586 101.172 14.5586 101.171 14.5586C101.171 14.5586 101.171 14.5586 101.171 14.5586C101.171 14.5586 101.17 14.5586 101.17 14.5586C101.17 14.5586 101.17 14.5586 101.17 14.5586C101.169 14.5586 101.169 14.5586 101.169 14.5586C101.169 14.5586 101.168 14.5586 101.168 14.5586C101.168 14.5586 101.168 14.5586 101.168 14.5586C101.167 14.5586 101.167 14.5586 101.167 14.5586C101.167 14.5586 101.167 14.5586 101.166 14.5586C101.166 14.5586 101.166 14.5586 101.166 14.5586C101.166 14.5586 101.165 14.5586 101.165 14.5586C101.165 14.5586 101.165 14.5586 101.165 14.5586C101.164 14.5586 101.164 14.5586 101.164 14.5586C101.164 14.5586 101.163 14.5586 101.163 14.5586C101.163 14.5586 101.163 14.5586 101.163 14.5586C101.162 14.5586 101.162 14.5586 101.162 14.5586C101.162 14.5586 101.162 14.5586 101.161 14.5586C101.161 14.5586 101.161 14.5586 101.161 14.5586C101.161 14.5586 101.16 14.5586 101.16 14.5586C101.16 14.5586 101.16 14.5586 101.16 14.5586C101.159 14.5586 101.159 14.5586 101.159 14.5586C101.159 14.5586 101.159 14.5586 101.158 14.5586C101.158 14.5586 101.158 14.5586 101.158 14.5586C101.158 14.5586 101.157 14.5586 101.157 14.5586C101.157 14.5586 101.157 14.5586 101.156 14.5586C101.156 14.5586 101.156 14.5586 101.156 14.5586C101.156 14.5586 101.155 14.5586 101.155 14.5586C101.155 14.5586 101.155 14.5586 101.155 14.5586C101.154 14.5586 101.154 14.5586 101.154 14.5586C101.154 14.5586 101.154 14.5586 101.153 14.5586C101.153 14.5586 101.153 14.5586 101.153 14.5586C101.153 14.5586 101.152 14.5586 101.152 14.5586C101.152 14.5586 101.152 14.5586 101.152 14.5586C101.151 14.5586 101.151 14.5586 101.151 14.5586C101.151 14.5586 101.151 14.5586 101.15 14.5586C101.15 14.5586 101.15 14.5586 101.15 14.5586C101.15 14.5586 101.149 14.5586 101.149 14.5586C101.149 14.5586 101.149 14.5586 101.149 14.5586C101.148 14.5586 101.148 14.5586 101.148 14.5586C101.148 14.5586 101.148 14.5586 101.147 14.5586C101.147 14.5586 101.147 14.5586 101.147 14.5586C101.147 14.5586 101.146 14.5586 101.146 14.5586C101.146 14.5586 101.146 14.5586 101.146 14.5586C101.145 14.5586 101.145 14.5586 101.145 14.5586C101.145 14.5586 101.145 14.5586 101.144 14.5586C101.144 14.5586 101.144 14.5586 101.144 14.5586C101.144 14.5586 101.143 14.5586 101.143 14.5586C101.143 14.5586 101.143 14.5586 101.143 14.5586C101.142 14.5586 101.142 14.5586 101.142 14.5586C101.142 14.5586 101.142 14.5586 101.141 14.5586C101.141 14.5586 101.141 14.5586 101.141 14.5586C101.141 14.5586 101.14 14.5586 101.14 14.5586C101.14 14.5586 101.14 14.5586 101.14 14.5586C101.139 14.5586 101.139 14.5586 101.139 14.5586C101.139 14.5586 101.139 14.5586 101.138 14.5586C101.138 14.5586 101.138 14.5586 101.138 14.5586C101.138 14.5586 101.137 14.5586 101.137 14.5586C101.137 14.5586 101.137 14.5586 101.137 14.5586C101.137 14.5586 101.136 14.5586 101.136 14.5586C101.136 14.5586 101.136 14.5586 101.136 14.5586C101.135 14.5586 101.135 14.5586 101.135 14.5586C101.135 14.5586 101.135 14.5586 101.134 14.5586C101.134 14.5586 101.134 14.5586 101.134 14.5586C101.134 14.5586 101.133 14.5586 101.133 14.5586C101.133 14.5586 101.133 14.5586 101.133 14.5586C101.132 14.5586 101.132 14.5586 101.132 14.5586C101.132 14.5586 101.132 14.5586 101.131 14.5586C101.131 14.5586 101.131 14.5586 101.131 14.5586C101.131 14.5586 101.13 14.5586 101.13 14.5586C101.13 14.5586 101.13 14.5586 101.13 14.5586C101.13 14.5586 101.129 14.5586 101.129 14.5586C101.129 14.5586 101.129 14.5586 101.129 14.5586C101.128 14.5586 101.128 14.5586 101.128 14.5586C101.128 14.5586 101.128 14.5586 101.127 14.5586C101.127 14.5586 101.127 14.5586 101.127 14.5586C101.127 14.5586 101.126 14.5586 101.126 14.5586C101.126 14.5586 101.126 14.5586 101.126 14.5586C101.125 14.5586 101.125 14.5586 101.125 14.5586C101.125 14.5586 101.125 14.5586 101.125 14.5586C101.124 14.5586 101.124 14.5586 101.124 14.5586C101.124 14.5586 101.124 14.5586 101.123 14.5586C101.123 14.5586 101.123 14.5586 101.123 14.5586C101.123 14.5586 101.122 14.5586 101.122 14.5586C101.122 14.5586 101.122 14.5586 101.122 14.5586C101.122 14.5586 101.121 14.5586 101.121 14.5586C101.121 14.5586 101.121 14.5586 101.121 14.5586C101.12 14.5586 101.12 14.5586 101.12 14.5586C101.12 14.5586 101.12 14.5586 101.119 14.5586C101.119 14.5586 101.119 14.5586 101.119 14.5586C101.119 14.5586 101.118 14.5586 101.118 14.5586C101.118 14.5586 101.118 14.5586 101.118 14.5586C101.118 14.5586 101.117 14.5586 101.117 14.5586C101.117 14.5586 101.117 14.5586 101.117 14.5586C101.116 14.5586 101.116 14.5586 101.116 14.5586C101.116 14.5586 101.116 14.5586 101.115 14.5586C101.115 14.5586 101.115 14.5586 101.115 14.5586C101.115 14.5586 101.115 14.5586 101.114 14.5586C101.114 14.5586 101.114 14.5586 101.114 14.5586C101.114 14.5586 101.113 14.5586 101.113 14.5586C101.113 14.5586 101.113 14.5586 101.113 14.5586C101.113 14.5586 101.112 14.5586 101.112 14.5586C101.112 14.5586 101.112 14.5586 101.112 14.5586C101.111 14.5586 101.111 14.5586 101.111 14.5586C101.111 14.5586 101.111 14.5586 101.11 14.5586C101.11 14.5586 101.11 14.5586 101.11 14.5586C101.11 14.5586 101.11 14.5586 101.109 14.5586C101.109 14.5586 101.109 14.5586 101.109 14.5586C101.109 14.5586 101.108 14.5586 101.108 14.5586C101.108 14.5586 101.108 14.5586 101.108 14.5586C101.108 14.5586 101.107 14.5586 101.107 14.5586C101.107 14.5586 101.107 14.5586 101.107 14.5586C101.106 14.5586 101.106 14.5586 101.106 14.5586C101.106 14.5586 101.106 14.5586 101.106 14.5586C101.105 14.5586 101.105 14.5586 101.105 14.5586C101.105 14.5586 101.105 14.5586 101.104 14.5586C101.104 14.5586 101.104 14.5586 101.104 14.5586C101.104 14.5586 101.104 14.5586 101.103 14.5586C101.103 14.5586 101.103 14.5586 101.103 14.5586C101.103 14.5586 101.102 14.5586 101.102 14.5586C101.102 14.5586 101.102 14.5586 101.102 14.5586C101.102 14.5586 101.101 14.5586 101.101 14.5586C101.101 14.5586 101.101 14.5586 101.101 14.5586C101.1 14.5586 101.1 14.5586 101.1 14.5586C101.1 14.5586 101.1 14.5586 101.1 14.5586C101.099 14.5586 101.099 14.5586 101.099 14.5586C101.099 14.5586 101.099 14.5586 101.099 14.5586C101.098 14.5586 101.098 14.5586 101.098 14.5586C101.098 14.5586 101.098 14.5586 101.097 14.5586C101.097 14.5586 101.097 14.5586 101.097 14.5586C101.097 14.5586 101.097 14.5586 101.096 14.5586C101.096 14.5586 101.096 14.5586 101.096 14.5586C101.096 14.5586 101.095 14.5586 101.095 14.5586C101.095 14.5586 101.095 14.5586 101.095 14.5586C101.095 14.5586 101.094 14.5586 101.094 14.5586C101.094 14.5586 101.094 14.5586 101.094 14.5586C101.094 14.5586 101.093 14.5586 101.093 14.5586C101.093 14.5586 101.093 14.5586 101.093 14.5586C101.092 14.5586 101.092 14.5586 101.092 14.5586C101.092 14.5586 101.092 14.5586 101.092 14.5586C101.091 14.5586 101.091 14.5586 101.091 14.5586C101.091 14.5586 101.091 14.5586 101.091 14.5586C101.09 14.5586 101.09 14.5586 101.09 14.5586C101.09 14.5586 101.09 14.5586 101.089 14.5586C101.089 14.5586 101.089 14.5586 101.089 14.5586C101.089 14.5586 101.089 14.5586 101.088 14.5586C101.088 14.5586 101.088 14.5586 101.088 14.5586C101.088 14.5586 101.088 14.5586 101.087 14.5586C101.087 14.5586 101.087 14.5586 101.087 14.5586C101.087 14.5586 101.087 14.5586 101.086 14.5586C101.086 14.5586 101.086 14.5586 101.086 14.5586C101.086 14.5586 101.085 14.5586 101.085 14.5586C101.085 14.5586 101.085 14.5586 101.085 14.5586C101.085 14.5586 101.084 14.5586 101.084 14.5586C101.084 14.5586 101.084 14.5586 101.084 14.5586C101.084 14.5586 101.083 14.5586 101.083 14.5586C101.083 14.5586 101.083 14.5586 101.083 14.5586C101.083 14.5586 101.082 14.5586 101.082 14.5586C101.082 14.5586 101.082 14.5586 101.082 14.5586C101.082 14.5586 101.081 14.5586 101.081 14.5586C101.081 14.5586 101.081 14.5586 101.081 14.5586C101.081 14.5586 101.08 14.5586 101.08 14.5586C101.08 14.5586 101.08 14.5586 101.08 14.5586C101.079 14.5586 101.079 14.5586 101.079 14.5586C101.079 14.5586 101.079 14.5586 101.079 14.5586C101.078 14.5586 101.078 14.5586 101.078 14.5586C101.078 14.5586 101.078 14.5586 101.078 14.5586C101.077 14.5586 101.077 14.5586 101.077 14.5586C101.077 14.5586 101.077 14.5586 101.077 14.5586C101.076 14.5586 101.076 14.5586 101.076 14.5586C101.076 14.5586 101.076 14.5586 101.076 14.5586C101.075 14.5586 101.075 14.5586 101.075 14.5586C101.075 14.5586 101.075 14.5586 101.075 14.5586C101.074 14.5586 101.074 14.5586 101.074 14.5586C101.074 14.5586 101.074 14.5586 101.074 14.5586C101.073 14.5586 101.073 14.5586 101.073 14.5586C101.073 14.5586 101.073 14.5586 101.073 14.5586C101.072 14.5586 101.072 14.5586 101.072 14.5586C101.072 14.5586 101.072 14.5586 101.072 14.5586C101.071 14.5586 101.071 14.5586 101.071 14.5586C101.071 14.5586 101.071 14.5586 101.071 14.5586C101.07 14.5586 101.07 14.5586 101.07 14.5586C101.07 14.5586 101.07 14.5586 101.07 14.5586C101.069 14.5586 101.069 14.5586 101.069 14.5586C101.069 14.5586 101.069 14.5586 101.069 14.5586C101.068 14.5586 101.068 14.5586 101.068 14.5586C101.068 14.5586 101.068 14.5586 101.068 14.5586C101.067 14.5586 101.067 14.5586 101.067 14.5586C101.067 14.5586 101.067 14.5586 101.067 14.5586C101.066 14.5586 101.066 14.5586 101.066 14.5586C101.066 14.5586 101.066 14.5586 101.066 14.5586C101.066 14.5586 101.065 14.5586 101.065 14.5586C101.065 14.5586 101.065 14.5586 101.065 14.5586C101.065 14.5586 101.064 14.5586 101.064 14.5586C101.064 14.5586 101.064 14.5586 101.064 14.5586C101.064 14.5586 101.063 14.5586 101.063 14.5586C101.063 14.5586 101.063 14.5586 101.063 14.5586C101.063 14.5586 101.062 14.5586 101.062 14.5586C101.062 14.5586 101.062 14.5586 101.062 14.5586C101.062 14.5586 101.061 14.5586 101.061 14.5586C101.061 14.5586 101.061 14.5586 101.061 14.5586C101.061 14.5586 101.061 14.5586 101.06 14.5586C101.06 14.5586 101.06 14.5586 101.06 14.5586C101.06 14.5586 101.06 14.5586 101.059 14.5586C101.059 14.5586 101.059 14.5586 101.059 14.5586C101.059 14.5586 101.059 14.5586 101.058 14.5586C101.058 14.5586 101.058 14.5586 101.058 14.5586C101.058 14.5586 101.058 14.5586 101.057 14.5586C101.057 14.5586 101.057 14.5586 101.057 14.5586C101.057 14.5586 101.057 14.5586 101.057 14.5586C101.056 14.5586 101.056 14.5586 101.056 14.5586C101.056 14.5586 101.056 14.5586 101.056 14.5586C101.055 14.5586 101.055 14.5586 101.055 14.5586C101.055 14.5586 101.055 14.5586 101.055 14.5586C101.054 14.5586 101.054 14.5586 101.054 14.5586C101.054 14.5586 101.054 14.5586 101.054 14.5586C101.054 14.5586 101.053 14.5586 101.053 14.5586C101.053 14.5586 101.053 14.5586 101.053 14.5586C101.053 14.5586 101.052 14.5586 101.052 14.5586C101.052 14.5586 101.052 14.5586 101.052 14.5586C101.052 14.5586 101.052 14.5586 101.051 14.5586C101.051 14.5586 101.051 14.5586 101.051 14.5586C101.051 14.5586 101.051 14.5586 101.05 14.5586C101.05 14.5586 101.05 14.5586 101.05 14.5586C101.05 14.5586 101.05 14.5586 101.049 14.5586C101.049 14.5586 101.049 14.5586 101.049 14.5586C101.049 14.5586 101.049 14.5586 101.049 14.5586C101.048 14.5586 101.048 14.5586 101.048 14.5586C101.048 14.5586 101.048 14.5586 101.048 14.5586C101.047 14.5586 101.047 14.5586 101.047 14.5586C101.047 14.5586 101.047 14.5586 101.047 14.5586C101.047 14.5586 101.046 14.5586 101.046 14.5586C101.046 14.5586 101.046 14.5586 101.046 14.5586C101.046 14.5586 101.046 14.5586 101.045 14.5586C101.045 14.5586 101.045 14.5586 101.045 14.5586C101.045 14.5586 101.045 14.5586 101.044 14.5586C101.044 14.5586 101.044 14.5586 101.044 14.5586C101.044 14.5586 101.044 14.5586 101.044 14.5586C101.043 14.5586 101.043 14.5586 101.043 14.5586C101.043 14.5586 101.043 14.5586 101.043 14.5586C101.042 14.5586 101.042 14.5586 101.042 14.5586C101.042 14.5586 101.042 14.5586 101.042 14.5586C101.042 14.5586 101.041 14.5586 101.041 14.5586C101.041 14.5586 101.041 14.5586 101.041 14.5586C101.041 14.5586 101.041 14.5586 101.04 14.5586C101.04 14.5586 101.04 14.5586 101.04 14.5586C101.04 14.5586 101.04 14.5586 101.039 14.5586C101.039 14.5586 101.039 14.5586 101.039 14.5586C101.039 14.5586 101.039 14.5586 101.039 14.5586C101.038 14.5586 101.038 14.5586 101.038 14.5586C101.038 14.5586 101.038 14.5586 101.038 14.5586C101.038 14.5586 101.037 14.5586 101.037 14.5586C101.037 14.5586 101.037 14.5586 101.037 14.5586C101.037 14.5586 101.037 14.5586 101.036 14.5586C101.036 14.5586 101.036 14.5586 101.036 14.5586C101.036 14.5586 101.036 14.5586 101.035 14.5586C101.035 14.5586 101.035 14.5586 101.035 14.5586C101.035 14.5586 101.035 14.5586 101.035 14.5586C101.034 14.5586 101.034 14.5586 101.034 14.5586C101.034 14.5586 101.034 14.5586 101.034 14.5586C101.034 14.5586 101.033 14.5586 101.033 14.5586C101.033 14.5586 101.033 14.5586 101.033 14.5586C101.033 14.5586 101.033 14.5586 101.032 14.5586C101.032 14.5586 101.032 14.5586 101.032 14.5586C101.032 14.5586 101.032 14.5586 101.032 14.5586C101.031 14.5586 101.031 14.5586 101.031 14.5586C101.031 14.5586 101.031 14.5586 101.031 14.5586C101.031 14.5586 101.03 14.5586 101.03 14.5586C101.03 14.5586 101.03 14.5586 101.03 14.5586C101.03 14.5586 101.03 14.5586 101.029 14.5586C101.029 14.5586 101.029 14.5586 101.029 14.5586C101.029 14.5586 101.029 14.5586 101.029 14.5586C101.028 14.5586 101.028 14.5586 101.028 14.5586C101.028 14.5586 101.028 14.5586 101.028 14.5586C101.028 14.5586 101.027 14.5586 101.027 14.5586C101.027 14.5586 101.027 14.5586 101.027 14.5586C101.027 14.5586 101.027 14.5586 101.026 14.5586C101.026 14.5586 101.026 14.5586 101.026 14.5586C101.026 14.5586 101.026 14.5586 101.026 14.5586C101.025 14.5586 101.025 14.5586 101.025 14.5586C101.025 14.5586 101.025 14.5586 101.025 14.5586C101.025 14.5586 101.024 14.5586 101.024 14.5586C101.024 14.5586 101.024 14.5586 101.024 14.5586C101.024 14.5586 101.024 14.5586 101.023 14.5586V15.5586C101.024 15.5586 101.024 15.5586 101.024 15.5586C101.024 15.5586 101.024 15.5586 101.024 15.5586C101.024 15.5586 101.025 15.5586 101.025 15.5586C101.025 15.5586 101.025 15.5586 101.025 15.5586C101.025 15.5586 101.025 15.5586 101.026 15.5586C101.026 15.5586 101.026 15.5586 101.026 15.5586C101.026 15.5586 101.026 15.5586 101.026 15.5586C101.027 15.5586 101.027 15.5586 101.027 15.5586C101.027 15.5586 101.027 15.5586 101.027 15.5586C101.027 15.5586 101.028 15.5586 101.028 15.5586C101.028 15.5586 101.028 15.5586 101.028 15.5586C101.028 15.5586 101.028 15.5586 101.029 15.5586C101.029 15.5586 101.029 15.5586 101.029 15.5586C101.029 15.5586 101.029 15.5586 101.029 15.5586C101.03 15.5586 101.03 15.5586 101.03 15.5586C101.03 15.5586 101.03 15.5586 101.03 15.5586C101.03 15.5586 101.031 15.5586 101.031 15.5586C101.031 15.5586 101.031 15.5586 101.031 15.5586C101.031 15.5586 101.031 15.5586 101.032 15.5586C101.032 15.5586 101.032 15.5586 101.032 15.5586C101.032 15.5586 101.032 15.5586 101.032 15.5586C101.033 15.5586 101.033 15.5586 101.033 15.5586C101.033 15.5586 101.033 15.5586 101.033 15.5586C101.033 15.5586 101.034 15.5586 101.034 15.5586C101.034 15.5586 101.034 15.5586 101.034 15.5586C101.034 15.5586 101.034 15.5586 101.035 15.5586C101.035 15.5586 101.035 15.5586 101.035 15.5586C101.035 15.5586 101.035 15.5586 101.035 15.5586C101.036 15.5586 101.036 15.5586 101.036 15.5586C101.036 15.5586 101.036 15.5586 101.036 15.5586C101.037 15.5586 101.037 15.5586 101.037 15.5586C101.037 15.5586 101.037 15.5586 101.037 15.5586C101.037 15.5586 101.038 15.5586 101.038 15.5586C101.038 15.5586 101.038 15.5586 101.038 15.5586C101.038 15.5586 101.038 15.5586 101.039 15.5586C101.039 15.5586 101.039 15.5586 101.039 15.5586C101.039 15.5586 101.039 15.5586 101.039 15.5586C101.04 15.5586 101.04 15.5586 101.04 15.5586C101.04 15.5586 101.04 15.5586 101.04 15.5586C101.041 15.5586 101.041 15.5586 101.041 15.5586C101.041 15.5586 101.041 15.5586 101.041 15.5586C101.041 15.5586 101.042 15.5586 101.042 15.5586C101.042 15.5586 101.042 15.5586 101.042 15.5586C101.042 15.5586 101.042 15.5586 101.043 15.5586C101.043 15.5586 101.043 15.5586 101.043 15.5586C101.043 15.5586 101.043 15.5586 101.044 15.5586C101.044 15.5586 101.044 15.5586 101.044 15.5586C101.044 15.5586 101.044 15.5586 101.044 15.5586C101.045 15.5586 101.045 15.5586 101.045 15.5586C101.045 15.5586 101.045 15.5586 101.045 15.5586C101.046 15.5586 101.046 15.5586 101.046 15.5586C101.046 15.5586 101.046 15.5586 101.046 15.5586C101.046 15.5586 101.047 15.5586 101.047 15.5586C101.047 15.5586 101.047 15.5586 101.047 15.5586C101.047 15.5586 101.047 15.5586 101.048 15.5586C101.048 15.5586 101.048 15.5586 101.048 15.5586C101.048 15.5586 101.048 15.5586 101.049 15.5586C101.049 15.5586 101.049 15.5586 101.049 15.5586C101.049 15.5586 101.049 15.5586 101.049 15.5586C101.05 15.5586 101.05 15.5586 101.05 15.5586C101.05 15.5586 101.05 15.5586 101.05 15.5586C101.051 15.5586 101.051 15.5586 101.051 15.5586C101.051 15.5586 101.051 15.5586 101.051 15.5586C101.052 15.5586 101.052 15.5586 101.052 15.5586C101.052 15.5586 101.052 15.5586 101.052 15.5586C101.052 15.5586 101.053 15.5586 101.053 15.5586C101.053 15.5586 101.053 15.5586 101.053 15.5586C101.053 15.5586 101.054 15.5586 101.054 15.5586C101.054 15.5586 101.054 15.5586 101.054 15.5586C101.054 15.5586 101.054 15.5586 101.055 15.5586C101.055 15.5586 101.055 15.5586 101.055 15.5586C101.055 15.5586 101.055 15.5586 101.056 15.5586C101.056 15.5586 101.056 15.5586 101.056 15.5586C101.056 15.5586 101.056 15.5586 101.057 15.5586C101.057 15.5586 101.057 15.5586 101.057 15.5586C101.057 15.5586 101.057 15.5586 101.057 15.5586C101.058 15.5586 101.058 15.5586 101.058 15.5586C101.058 15.5586 101.058 15.5586 101.058 15.5586C101.059 15.5586 101.059 15.5586 101.059 15.5586C101.059 15.5586 101.059 15.5586 101.059 15.5586C101.06 15.5586 101.06 15.5586 101.06 15.5586C101.06 15.5586 101.06 15.5586 101.06 15.5586C101.061 15.5586 101.061 15.5586 101.061 15.5586C101.061 15.5586 101.061 15.5586 101.061 15.5586C101.061 15.5586 101.062 15.5586 101.062 15.5586C101.062 15.5586 101.062 15.5586 101.062 15.5586C101.062 15.5586 101.063 15.5586 101.063 15.5586C101.063 15.5586 101.063 15.5586 101.063 15.5586C101.063 15.5586 101.064 15.5586 101.064 15.5586C101.064 15.5586 101.064 15.5586 101.064 15.5586C101.064 15.5586 101.065 15.5586 101.065 15.5586C101.065 15.5586 101.065 15.5586 101.065 15.5586C101.065 15.5586 101.066 15.5586 101.066 15.5586C101.066 15.5586 101.066 15.5586 101.066 15.5586C101.066 15.5586 101.066 15.5586 101.067 15.5586C101.067 15.5586 101.067 15.5586 101.067 15.5586C101.067 15.5586 101.067 15.5586 101.068 15.5586C101.068 15.5586 101.068 15.5586 101.068 15.5586C101.068 15.5586 101.068 15.5586 101.069 15.5586C101.069 15.5586 101.069 15.5586 101.069 15.5586C101.069 15.5586 101.069 15.5586 101.07 15.5586C101.07 15.5586 101.07 15.5586 101.07 15.5586C101.07 15.5586 101.07 15.5586 101.071 15.5586C101.071 15.5586 101.071 15.5586 101.071 15.5586C101.071 15.5586 101.071 15.5586 101.072 15.5586C101.072 15.5586 101.072 15.5586 101.072 15.5586C101.072 15.5586 101.072 15.5586 101.073 15.5586C101.073 15.5586 101.073 15.5586 101.073 15.5586C101.073 15.5586 101.073 15.5586 101.074 15.5586C101.074 15.5586 101.074 15.5586 101.074 15.5586C101.074 15.5586 101.074 15.5586 101.075 15.5586C101.075 15.5586 101.075 15.5586 101.075 15.5586C101.075 15.5586 101.075 15.5586 101.076 15.5586C101.076 15.5586 101.076 15.5586 101.076 15.5586C101.076 15.5586 101.076 15.5586 101.077 15.5586C101.077 15.5586 101.077 15.5586 101.077 15.5586C101.077 15.5586 101.077 15.5586 101.078 15.5586C101.078 15.5586 101.078 15.5586 101.078 15.5586C101.078 15.5586 101.078 15.5586 101.079 15.5586C101.079 15.5586 101.079 15.5586 101.079 15.5586C101.079 15.5586 101.079 15.5586 101.08 15.5586C101.08 15.5586 101.08 15.5586 101.08 15.5586C101.08 15.5586 101.081 15.5586 101.081 15.5586C101.081 15.5586 101.081 15.5586 101.081 15.5586C101.081 15.5586 101.082 15.5586 101.082 15.5586C101.082 15.5586 101.082 15.5586 101.082 15.5586C101.082 15.5586 101.083 15.5586 101.083 15.5586C101.083 15.5586 101.083 15.5586 101.083 15.5586C101.083 15.5586 101.084 15.5586 101.084 15.5586C101.084 15.5586 101.084 15.5586 101.084 15.5586C101.084 15.5586 101.085 15.5586 101.085 15.5586C101.085 15.5586 101.085 15.5586 101.085 15.5586C101.085 15.5586 101.086 15.5586 101.086 15.5586C101.086 15.5586 101.086 15.5586 101.086 15.5586C101.087 15.5586 101.087 15.5586 101.087 15.5586C101.087 15.5586 101.087 15.5586 101.087 15.5586C101.088 15.5586 101.088 15.5586 101.088 15.5586C101.088 15.5586 101.088 15.5586 101.088 15.5586C101.089 15.5586 101.089 15.5586 101.089 15.5586C101.089 15.5586 101.089 15.5586 101.089 15.5586C101.09 15.5586 101.09 15.5586 101.09 15.5586C101.09 15.5586 101.09 15.5586 101.091 15.5586C101.091 15.5586 101.091 15.5586 101.091 15.5586C101.091 15.5586 101.091 15.5586 101.092 15.5586C101.092 15.5586 101.092 15.5586 101.092 15.5586C101.092 15.5586 101.092 15.5586 101.093 15.5586C101.093 15.5586 101.093 15.5586 101.093 15.5586C101.093 15.5586 101.094 15.5586 101.094 15.5586C101.094 15.5586 101.094 15.5586 101.094 15.5586C101.094 15.5586 101.095 15.5586 101.095 15.5586C101.095 15.5586 101.095 15.5586 101.095 15.5586C101.095 15.5586 101.096 15.5586 101.096 15.5586C101.096 15.5586 101.096 15.5586 101.096 15.5586C101.097 15.5586 101.097 15.5586 101.097 15.5586C101.097 15.5586 101.097 15.5586 101.097 15.5586C101.098 15.5586 101.098 15.5586 101.098 15.5586C101.098 15.5586 101.098 15.5586 101.099 15.5586C101.099 15.5586 101.099 15.5586 101.099 15.5586C101.099 15.5586 101.099 15.5586 101.1 15.5586C101.1 15.5586 101.1 15.5586 101.1 15.5586C101.1 15.5586 101.1 15.5586 101.101 15.5586C101.101 15.5586 101.101 15.5586 101.101 15.5586C101.101 15.5586 101.102 15.5586 101.102 15.5586C101.102 15.5586 101.102 15.5586 101.102 15.5586C101.102 15.5586 101.103 15.5586 101.103 15.5586C101.103 15.5586 101.103 15.5586 101.103 15.5586C101.104 15.5586 101.104 15.5586 101.104 15.5586C101.104 15.5586 101.104 15.5586 101.104 15.5586C101.105 15.5586 101.105 15.5586 101.105 15.5586C101.105 15.5586 101.105 15.5586 101.106 15.5586C101.106 15.5586 101.106 15.5586 101.106 15.5586C101.106 15.5586 101.106 15.5586 101.107 15.5586C101.107 15.5586 101.107 15.5586 101.107 15.5586C101.107 15.5586 101.108 15.5586 101.108 15.5586C101.108 15.5586 101.108 15.5586 101.108 15.5586C101.108 15.5586 101.109 15.5586 101.109 15.5586C101.109 15.5586 101.109 15.5586 101.109 15.5586C101.11 15.5586 101.11 15.5586 101.11 15.5586C101.11 15.5586 101.11 15.5586 101.11 15.5586C101.111 15.5586 101.111 15.5586 101.111 15.5586C101.111 15.5586 101.111 15.5586 101.112 15.5586C101.112 15.5586 101.112 15.5586 101.112 15.5586C101.112 15.5586 101.113 15.5586 101.113 15.5586C101.113 15.5586 101.113 15.5586 101.113 15.5586C101.113 15.5586 101.114 15.5586 101.114 15.5586C101.114 15.5586 101.114 15.5586 101.114 15.5586C101.115 15.5586 101.115 15.5586 101.115 15.5586C101.115 15.5586 101.115 15.5586 101.115 15.5586C101.116 15.5586 101.116 15.5586 101.116 15.5586C101.116 15.5586 101.116 15.5586 101.117 15.5586C101.117 15.5586 101.117 15.5586 101.117 15.5586C101.117 15.5586 101.118 15.5586 101.118 15.5586C101.118 15.5586 101.118 15.5586 101.118 15.5586C101.118 15.5586 101.119 15.5586 101.119 15.5586C101.119 15.5586 101.119 15.5586 101.119 15.5586C101.12 15.5586 101.12 15.5586 101.12 15.5586C101.12 15.5586 101.12 15.5586 101.121 15.5586C101.121 15.5586 101.121 15.5586 101.121 15.5586C101.121 15.5586 101.122 15.5586 101.122 15.5586C101.122 15.5586 101.122 15.5586 101.122 15.5586C101.122 15.5586 101.123 15.5586 101.123 15.5586C101.123 15.5586 101.123 15.5586 101.123 15.5586C101.124 15.5586 101.124 15.5586 101.124 15.5586C101.124 15.5586 101.124 15.5586 101.125 15.5586C101.125 15.5586 101.125 15.5586 101.125 15.5586C101.125 15.5586 101.125 15.5586 101.126 15.5586C101.126 15.5586 101.126 15.5586 101.126 15.5586C101.126 15.5586 101.127 15.5586 101.127 15.5586C101.127 15.5586 101.127 15.5586 101.127 15.5586C101.128 15.5586 101.128 15.5586 101.128 15.5586C101.128 15.5586 101.128 15.5586 101.129 15.5586C101.129 15.5586 101.129 15.5586 101.129 15.5586C101.129 15.5586 101.13 15.5586 101.13 15.5586C101.13 15.5586 101.13 15.5586 101.13 15.5586C101.13 15.5586 101.131 15.5586 101.131 15.5586C101.131 15.5586 101.131 15.5586 101.131 15.5586C101.132 15.5586 101.132 15.5586 101.132 15.5586C101.132 15.5586 101.132 15.5586 101.133 15.5586C101.133 15.5586 101.133 15.5586 101.133 15.5586C101.133 15.5586 101.134 15.5586 101.134 15.5586C101.134 15.5586 101.134 15.5586 101.134 15.5586C101.135 15.5586 101.135 15.5586 101.135 15.5586C101.135 15.5586 101.135 15.5586 101.136 15.5586C101.136 15.5586 101.136 15.5586 101.136 15.5586C101.136 15.5586 101.137 15.5586 101.137 15.5586C101.137 15.5586 101.137 15.5586 101.137 15.5586C101.137 15.5586 101.138 15.5586 101.138 15.5586C101.138 15.5586 101.138 15.5586 101.138 15.5586C101.139 15.5586 101.139 15.5586 101.139 15.5586C101.139 15.5586 101.139 15.5586 101.14 15.5586C101.14 15.5586 101.14 15.5586 101.14 15.5586C101.14 15.5586 101.141 15.5586 101.141 15.5586C101.141 15.5586 101.141 15.5586 101.141 15.5586C101.142 15.5586 101.142 15.5586 101.142 15.5586C101.142 15.5586 101.142 15.5586 101.143 15.5586C101.143 15.5586 101.143 15.5586 101.143 15.5586C101.143 15.5586 101.144 15.5586 101.144 15.5586C101.144 15.5586 101.144 15.5586 101.144 15.5586C101.145 15.5586 101.145 15.5586 101.145 15.5586C101.145 15.5586 101.145 15.5586 101.146 15.5586C101.146 15.5586 101.146 15.5586 101.146 15.5586C101.146 15.5586 101.147 15.5586 101.147 15.5586C101.147 15.5586 101.147 15.5586 101.147 15.5586C101.148 15.5586 101.148 15.5586 101.148 15.5586C101.148 15.5586 101.148 15.5586 101.149 15.5586C101.149 15.5586 101.149 15.5586 101.149 15.5586C101.149 15.5586 101.15 15.5586 101.15 15.5586C101.15 15.5586 101.15 15.5586 101.15 15.5586C101.151 15.5586 101.151 15.5586 101.151 15.5586C101.151 15.5586 101.151 15.5586 101.152 15.5586C101.152 15.5586 101.152 15.5586 101.152 15.5586C101.152 15.5586 101.153 15.5586 101.153 15.5586C101.153 15.5586 101.153 15.5586 101.153 15.5586C101.154 15.5586 101.154 15.5586 101.154 15.5586C101.154 15.5586 101.154 15.5586 101.155 15.5586C101.155 15.5586 101.155 15.5586 101.155 15.5586C101.155 15.5586 101.156 15.5586 101.156 15.5586C101.156 15.5586 101.156 15.5586 101.156 15.5586C101.157 15.5586 101.157 15.5586 101.157 15.5586C101.157 15.5586 101.158 15.5586 101.158 15.5586C101.158 15.5586 101.158 15.5586 101.158 15.5586C101.159 15.5586 101.159 15.5586 101.159 15.5586C101.159 15.5586 101.159 15.5586 101.16 15.5586C101.16 15.5586 101.16 15.5586 101.16 15.5586C101.16 15.5586 101.161 15.5586 101.161 15.5586C101.161 15.5586 101.161 15.5586 101.161 15.5586C101.162 15.5586 101.162 15.5586 101.162 15.5586C101.162 15.5586 101.162 15.5586 101.163 15.5586C101.163 15.5586 101.163 15.5586 101.163 15.5586C101.163 15.5586 101.164 15.5586 101.164 15.5586C101.164 15.5586 101.164 15.5586 101.165 15.5586C101.165 15.5586 101.165 15.5586 101.165 15.5586C101.165 15.5586 101.166 15.5586 101.166 15.5586C101.166 15.5586 101.166 15.5586 101.166 15.5586C101.167 15.5586 101.167 15.5586 101.167 15.5586C101.167 15.5586 101.167 15.5586 101.168 15.5586C101.168 15.5586 101.168 15.5586 101.168 15.5586C101.168 15.5586 101.169 15.5586 101.169 15.5586C101.169 15.5586 101.169 15.5586 101.17 15.5586C101.17 15.5586 101.17 15.5586 101.17 15.5586C101.17 15.5586 101.171 15.5586 101.171 15.5586C101.171 15.5586 101.171 15.5586 101.171 15.5586C101.172 15.5586 101.172 15.5586 101.172 15.5586C101.172 15.5586 101.172 15.5586 101.173 15.5586C101.173 15.5586 101.173 15.5586 101.173 15.5586C101.174 15.5586 101.174 15.5586 101.174 15.5586C101.174 15.5586 101.174 15.5586 101.175 15.5586C101.175 15.5586 101.175 15.5586 101.175 15.5586C101.175 15.5586 101.176 15.5586 101.176 15.5586C101.176 15.5586 101.176 15.5586 101.176 15.5586C101.177 15.5586 101.177 15.5586 101.177 15.5586C101.177 15.5586 101.178 15.5586 101.178 15.5586C101.178 15.5586 101.178 15.5586 101.178 15.5586C101.179 15.5586 101.179 15.5586 101.179 15.5586C101.179 15.5586 101.179 15.5586 101.18 15.5586C101.18 15.5586 101.18 15.5586 101.18 15.5586C101.18 15.5586 101.181 15.5586 101.181 15.5586C101.181 15.5586 101.181 15.5586 101.182 15.5586C101.182 15.5586 101.182 15.5586 101.182 15.5586C101.182 15.5586 101.183 15.5586 101.183 15.5586C101.183 15.5586 101.183 15.5586 101.183 15.5586C101.184 15.5586 101.184 15.5586 101.184 15.5586C101.184 15.5586 101.185 15.5586 101.185 15.5586C101.185 15.5586 101.185 15.5586 101.185 15.5586C101.186 15.5586 101.186 15.5586 101.186 15.5586C101.186 15.5586 101.187 15.5586 101.187 15.5586C101.187 15.5586 101.187 15.5586 101.187 15.5586C101.188 15.5586 101.188 15.5586 101.188 15.5586C101.188 15.5586 101.188 15.5586 101.189 15.5586C101.189 15.5586 101.189 15.5586 101.189 15.5586C101.19 15.5586 101.19 15.5586 101.19 15.5586C101.19 15.5586 101.19 15.5586 101.191 15.5586C101.191 15.5586 101.191 15.5586 101.191 15.5586C101.191 15.5586 101.192 15.5586 101.192 15.5586C101.192 15.5586 101.192 15.5586 101.193 15.5586C101.193 15.5586 101.193 15.5586 101.193 15.5586C101.193 15.5586 101.194 15.5586 101.194 15.5586C101.194 15.5586 101.194 15.5586 101.195 15.5586C101.195 15.5586 101.195 15.5586 101.195 15.5586C101.195 15.5586 101.196 15.5586 101.196 15.5586C101.196 15.5586 101.196 15.5586 101.197 15.5586C101.197 15.5586 101.197 15.5586 101.197 15.5586C101.197 15.5586 101.198 15.5586 101.198 15.5586C101.198 15.5586 101.198 15.5586 101.199 15.5586C101.199 15.5586 101.199 15.5586 101.199 15.5586C101.199 15.5586 101.2 15.5586 101.2 15.5586C101.2 15.5586 101.2 15.5586 101.2 15.5586C101.201 15.5586 101.201 15.5586 101.201 15.5586C101.201 15.5586 101.202 15.5586 101.202 15.5586C101.202 15.5586 101.202 15.5586 101.202 15.5586C101.203 15.5586 101.203 15.5586 101.203 15.5586C101.203 15.5586 101.204 15.5586 101.204 15.5586C101.204 15.5586 101.204 15.5586 101.204 15.5586C101.205 15.5586 101.205 15.5586 101.205 15.5586C101.205 15.5586 101.206 15.5586 101.206 15.5586C101.206 15.5586 101.206 15.5586 101.206 15.5586C101.207 15.5586 101.207 15.5586 101.207 15.5586C101.207 15.5586 101.208 15.5586 101.208 15.5586C101.208 15.5586 101.208 15.5586 101.208 15.5586C101.209 15.5586 101.209 15.5586 101.209 15.5586C101.209 15.5586 101.21 15.5586 101.21 15.5586C101.21 15.5586 101.21 15.5586 101.211 15.5586C101.211 15.5586 101.211 15.5586 101.211 15.5586C101.211 15.5586 101.212 15.5586 101.212 15.5586C101.212 15.5586 101.212 15.5586 101.213 15.5586C101.213 15.5586 101.213 15.5586 101.213 15.5586C101.213 15.5586 101.214 15.5586 101.214 15.5586C101.214 15.5586 101.214 15.5586 101.215 15.5586C101.215 15.5586 101.215 15.5586 101.215 15.5586C101.215 15.5586 101.216 15.5586 101.216 15.5586C101.216 15.5586 101.216 15.5586 101.217 15.5586C101.217 15.5586 101.217 15.5586 101.217 15.5586C101.218 15.5586 101.218 15.5586 101.218 15.5586C101.218 15.5586 101.218 15.5586 101.219 15.5586C101.219 15.5586 101.219 15.5586 101.219 15.5586C101.22 15.5586 101.22 15.5586 101.22 15.5586C101.22 15.5586 101.22 15.5586 101.221 15.5586C101.221 15.5586 101.221 15.5586 101.221 15.5586C101.222 15.5586 101.222 15.5586 101.222 15.5586C101.222 15.5586 101.223 15.5586 101.223 15.5586C101.223 15.5586 101.223 15.5586 101.223 15.5586C101.224 15.5586 101.224 15.5586 101.224 15.5586C101.224 15.5586 101.225 15.5586 101.225 15.5586C101.225 15.5586 101.225 15.5586 101.226 15.5586C101.226 15.5586 101.226 15.5586 101.226 15.5586C101.226 15.5586 101.227 15.5586 101.227 15.5586C101.227 15.5586 101.227 15.5586 101.228 15.5586C101.228 15.5586 101.228 15.5586 101.228 15.5586C101.229 15.5586 101.229 15.5586 101.229 15.5586C101.229 15.5586 101.229 15.5586 101.23 15.5586C101.23 15.5586 101.23 15.5586 101.23 15.5586C101.231 15.5586 101.231 15.5586 101.231 15.5586C101.231 15.5586 101.232 15.5586 101.232 15.5586C101.232 15.5586 101.232 15.5586 101.232 15.5586C101.233 15.5586 101.233 15.5586 101.233 15.5586C101.233 15.5586 101.234 15.5586 101.234 15.5586C101.234 15.5586 101.234 15.5586 101.235 15.5586C101.235 15.5586 101.235 15.5586 101.235 15.5586C101.236 15.5586 101.236 15.5586 101.236 15.5586C101.236 15.5586 101.236 15.5586 101.237 15.5586C101.237 15.5586 101.237 15.5586 101.237 15.5586C101.238 15.5586 101.238 15.5586 101.238 15.5586C101.238 15.5586 101.239 15.5586 101.239 15.5586C101.239 15.5586 101.239 15.5586 101.24 15.5586C101.24 15.5586 101.24 15.5586 101.24 15.5586C101.24 15.5586 101.241 15.5586 101.241 15.5586C101.241 15.5586 101.241 15.5586 101.242 15.5586C101.242 15.5586 101.242 15.5586 101.242 15.5586C101.243 15.5586 101.243 15.5586 101.243 15.5586C101.243 15.5586 101.244 15.5586 101.244 15.5586C101.244 15.5586 101.244 15.5586 101.244 15.5586C101.245 15.5586 101.245 15.5586 101.245 15.5586C101.245 15.5586 101.246 15.5586 101.246 15.5586C101.246 15.5586 101.246 15.5586 101.247 15.5586C101.247 15.5586 101.247 15.5586 101.247 15.5586C101.248 15.5586 101.248 15.5586 101.248 15.5586C101.248 15.5586 101.248 15.5586 101.249 15.5586C101.249 15.5586 101.249 15.5586 101.249 15.5586C101.25 15.5586 101.25 15.5586 101.25 15.5586C101.25 15.5586 101.251 15.5586 101.251 15.5586C101.251 15.5586 101.251 15.5586 101.252 15.5586C101.252 15.5586 101.252 15.5586 101.252 15.5586C101.253 15.5586 101.253 15.5586 101.253 15.5586C101.253 15.5586 101.254 15.5586 101.254 15.5586C101.254 15.5586 101.254 15.5586 101.254 15.5586C101.255 15.5586 101.255 15.5586 101.255 15.5586C101.255 15.5586 101.256 15.5586 101.256 15.5586C101.256 15.5586 101.256 15.5586 101.257 15.5586C101.257 15.5586 101.257 15.5586 101.257 15.5586C101.258 15.5586 101.258 15.5586 101.258 15.5586C101.258 15.5586 101.259 15.5586 101.259 15.5586C101.259 15.5586 101.259 15.5586 101.26 15.5586C101.26 15.5586 101.26 15.5586 101.26 15.5586C101.261 15.5586 101.261 15.5586 101.261 15.5586C101.261 15.5586 101.261 15.5586 101.262 15.5586C101.262 15.5586 101.262 15.5586 101.262 15.5586C101.263 15.5586 101.263 15.5586 101.263 15.5586C101.263 15.5586 101.264 15.5586 101.264 15.5586C101.264 15.5586 101.264 15.5586 101.265 15.5586C101.265 15.5586 101.265 15.5586 101.265 15.5586C101.266 15.5586 101.266 15.5586 101.266 15.5586C101.266 15.5586 101.267 15.5586 101.267 15.5586C101.267 15.5586 101.267 15.5586 101.268 15.5586C101.268 15.5586 101.268 15.5586 101.268 15.5586C101.269 15.5586 101.269 15.5586 101.269 15.5586C101.269 15.5586 101.27 15.5586 101.27 15.5586C101.27 15.5586 101.27 15.5586 101.271 15.5586C101.271 15.5586 101.271 15.5586 101.271 15.5586C101.272 15.5586 101.272 15.5586 101.272 15.5586C101.272 15.5586 101.273 15.5586 101.273 15.5586C101.273 15.5586 101.273 15.5586 101.273 15.5586C101.274 15.5586 101.274 15.5586 101.274 15.5586C101.274 15.5586 101.275 15.5586 101.275 15.5586C101.275 15.5586 101.275 15.5586 101.276 15.5586C101.276 15.5586 101.276 15.5586 101.276 15.5586C101.277 15.5586 101.277 15.5586 101.277 15.5586C101.277 15.5586 101.278 15.5586 101.278 15.5586C101.278 15.5586 101.278 15.5586 101.279 15.5586C101.279 15.5586 101.279 15.5586 101.279 15.5586C101.28 15.5586 101.28 15.5586 101.28 15.5586C101.28 15.5586 101.281 15.5586 101.281 15.5586C101.281 15.5586 101.281 15.5586 101.282 15.5586C101.282 15.5586 101.282 15.5586 101.282 15.5586C101.283 15.5586 101.283 15.5586 101.283 15.5586C101.283 15.5586 101.284 15.5586 101.284 15.5586C101.284 15.5586 101.284 15.5586 101.285 15.5586C101.285 15.5586 101.285 15.5586 101.285 15.5586C101.286 15.5586 101.286 15.5586 101.286 15.5586C101.286 15.5586 101.287 15.5586 101.287 15.5586C101.287 15.5586 101.287 15.5586 101.288 15.5586C101.288 15.5586 101.288 15.5586 101.288 15.5586C101.289 15.5586 101.289 15.5586 101.289 15.5586C101.289 15.5586 101.29 15.5586 101.29 15.5586C101.29 15.5586 101.29 15.5586 101.291 15.5586C101.291 15.5586 101.291 15.5586 101.291 15.5586C101.292 15.5586 101.292 15.5586 101.292 15.5586C101.292 15.5586 101.293 15.5586 101.293 15.5586C101.293 15.5586 101.294 15.5586 101.294 15.5586C101.294 15.5586 101.294 15.5586 101.295 15.5586C101.295 15.5586 101.295 15.5586 101.295 15.5586C101.296 15.5586 101.296 15.5586 101.296 15.5586C101.296 15.5586 101.297 15.5586 101.297 15.5586C101.297 15.5586 101.297 15.5586 101.298 15.5586C101.298 15.5586 101.298 15.5586 101.298 15.5586C101.299 15.5586 101.299 15.5586 101.299 15.5586C101.299 15.5586 101.3 15.5586 101.3 15.5586C101.3 15.5586 101.3 15.5586 101.301 15.5586C101.301 15.5586 101.301 15.5586 101.301 15.5586C101.302 15.5586 101.302 15.5586 101.302 15.5586C101.302 15.5586 101.303 15.5586 101.303 15.5586C101.303 15.5586 101.303 15.5586 101.304 15.5586C101.304 15.5586 101.304 15.5586 101.304 15.5586C101.305 15.5586 101.305 15.5586 101.305 15.5586C101.306 15.5586 101.306 15.5586 101.306 15.5586C101.306 15.5586 101.307 15.5586 101.307 15.5586C101.307 15.5586 101.307 15.5586 101.308 15.5586C101.308 15.5586 101.308 15.5586 101.308 15.5586C101.309 15.5586 101.309 15.5586 101.309 15.5586C101.309 15.5586 101.31 15.5586 101.31 15.5586C101.31 15.5586 101.31 15.5586 101.311 15.5586C101.311 15.5586 101.311 15.5586 101.311 15.5586C101.312 15.5586 101.312 15.5586 101.312 15.5586C101.312 15.5586 101.313 15.5586 101.313 15.5586C101.313 15.5586 101.314 15.5586 101.314 15.5586C101.314 15.5586 101.314 15.5586 101.315 15.5586C101.315 15.5586 101.315 15.5586 101.315 15.5586C101.316 15.5586 101.316 15.5586 101.316 15.5586C101.316 15.5586 101.317 15.5586 101.317 15.5586C101.317 15.5586 101.317 15.5586 101.318 15.5586C101.318 15.5586 101.318 15.5586 101.318 15.5586C101.319 15.5586 101.319 15.5586 101.319 15.5586C101.32 15.5586 101.32 15.5586 101.32 15.5586C101.32 15.5586 101.321 15.5586 101.321 15.5586C101.321 15.5586 101.321 15.5586 101.322 15.5586C101.322 15.5586 101.322 15.5586 101.322 15.5586C101.323 15.5586 101.323 15.5586 101.323 15.5586C101.323 15.5586 101.324 15.5586 101.324 15.5586C101.324 15.5586 101.325 15.5586 101.325 15.5586C101.325 15.5586 101.325 15.5586 101.326 15.5586C101.326 15.5586 101.326 15.5586 101.326 15.5586C101.327 15.5586 101.327 15.5586 101.327 15.5586C101.327 15.5586 101.328 15.5586 101.328 15.5586C101.328 15.5586 101.328 15.5586 101.329 15.5586C101.329 15.5586 101.329 15.5586 101.33 15.5586C101.33 15.5586 101.33 15.5586 101.33 15.5586C101.331 15.5586 101.331 15.5586 101.331 15.5586C101.331 15.5586 101.332 15.5586 101.332 15.5586C101.332 15.5586 101.332 15.5586 101.333 15.5586C101.333 15.5586 101.333 15.5586 101.334 15.5586C101.334 15.5586 101.334 15.5586 101.334 15.5586C101.335 15.5586 101.335 15.5586 101.335 15.5586C101.335 15.5586 101.336 15.5586 101.336 15.5586V14.5586ZM101.023 14.5586C99.8842 14.5586 99.1264 14.1939 98.6441 13.5333L97.8364 14.123C98.552 15.103 99.6496 15.5586 101.023 15.5586V14.5586ZM98.6449 13.5345C98.2428 12.9802 98.0176 12.2144 98.0176 11.1914H97.0176C97.0176 12.3559 97.2741 13.3479 97.8355 14.1217L98.6449 13.5345ZM98.0176 11.1914V6.41602H97.0176V11.1914H98.0176ZM97.5176 5.91602H96.0723V6.91602H97.5176V5.91602ZM96.5723 6.41602V5.49805H95.5723V6.41602H96.5723ZM96.2574 5.9625L97.7027 5.38633L97.3324 4.45742L95.8871 5.03359L96.2574 5.9625ZM98.009 5.01402L98.4778 2.51402L97.4949 2.32973L97.0261 4.82973L98.009 5.01402ZM97.9863 2.92188H99.4707V1.92188H97.9863V2.92188ZM98.9707 2.42188V4.92188H99.9707V2.42188H98.9707ZM99.4707 5.42188H102.596V4.42188H99.4707V5.42188ZM102.096 4.92188V6.41602H103.096V4.92188H102.096ZM102.596 5.91602H99.4707V6.91602H102.596V5.91602ZM98.9707 6.41602V11.1816H99.9707V6.41602H98.9707ZM98.9707 11.1816C98.9707 12.487 99.3095 13.5691 100.308 13.9276L100.646 12.9865C100.302 12.8632 99.9707 12.4284 99.9707 11.1816H98.9707ZM105.14 8.4375V7.9375H104.64V8.4375H105.14ZM111.78 8.4375H112.28V7.9375H111.78V8.4375ZM111.78 9.94141V10.4414H112.28V9.94141H111.78ZM105.14 9.94141H104.64V10.4414H105.14V9.94141ZM105.14 8.9375H111.78V7.9375H105.14V8.9375ZM111.28 8.4375V9.94141H112.28V8.4375H111.28ZM111.78 9.44141H105.14V10.4414H111.78V9.44141ZM105.64 9.94141V8.4375H104.64V9.94141H105.64ZM114.764 1.40625V0.90625H114.264V1.40625H114.764ZM116.717 1.40625H117.217V0.90625H116.717V1.40625ZM116.717 13.2812H116.217V13.7812H116.717V13.2812ZM122.537 13.2812H123.037V12.7812H122.537V13.2812ZM122.537 15V15.5H123.037V15H122.537ZM114.764 15H114.264V15.5H114.764V15ZM114.764 1.90625H116.717V0.90625H114.764V1.90625ZM116.217 1.40625V13.2812H117.217V1.40625H116.217ZM116.717 13.7812H122.537V12.7812H116.717V13.7812ZM122.037 13.2812V15H123.037V13.2812H122.037ZM122.537 14.5H114.764V15.5H122.537V14.5ZM115.264 15V1.40625H114.264V15H115.264ZM125.306 6.03516L125.643 6.40481L125.645 6.40276L125.306 6.03516ZM131.459 6.05469L131.842 5.73368L131.841 5.73289L131.459 6.05469ZM132.464 10.0293V10.5293H132.964V10.0293H132.464ZM125.804 10.0293V9.5293H125.304V10.0293H125.804ZM131.908 13.252H132.408V12.5916L131.772 12.7707L131.908 13.252ZM131.908 14.9023L132.023 15.3889L132.408 15.2979V14.9023H131.908ZM130.511 8.59375V9.09375H131.011V8.59375H130.511ZM129.994 7.01172L130.384 6.69864L130.381 6.69566L129.994 7.01172ZM126.498 6.98242L126.142 6.6313L126.139 6.63418L126.498 6.98242ZM125.853 8.59375H125.353V9.09375H125.853V8.59375ZM129.3 14.6562C127.532 14.6562 126.298 14.2243 125.504 13.4485C124.712 12.6748 124.273 11.4759 124.273 9.75586H123.273C123.273 11.636 123.755 13.1373 124.805 14.1638C125.854 15.1881 127.384 15.6562 129.3 15.6562V14.6562ZM124.273 9.75586C124.273 8.32824 124.738 7.22906 125.643 6.40481L124.97 5.66551C123.83 6.70323 123.273 8.08452 123.273 9.75586H124.273ZM125.645 6.40276C126.477 5.63597 127.406 5.26562 128.451 5.26562V4.26562C127.139 4.26562 125.972 4.74163 124.967 5.66755L125.645 6.40276ZM128.451 5.26562C129.609 5.26562 130.462 5.64691 131.076 6.37649L131.841 5.73289C131.009 4.74372 129.857 4.26562 128.451 4.26562V5.26562ZM131.075 6.3757C131.651 7.06346 131.964 8.0098 131.964 9.26758H132.964C132.964 7.84307 132.607 6.64748 131.842 5.73368L131.075 6.3757ZM131.964 9.26758V10.0293H132.964V9.26758H131.964ZM132.464 9.5293H125.804V10.5293H132.464V9.5293ZM125.304 10.0293C125.304 11.0147 125.505 11.8634 125.952 12.5335C126.405 13.2119 127.079 13.6589 127.929 13.8906L128.192 12.9258C127.537 12.7474 127.083 12.4261 126.784 11.9782C126.48 11.522 126.304 10.8864 126.304 10.0293H125.304ZM127.929 13.8906C128.354 14.0065 128.959 14.0547 129.711 14.0547V13.0547C128.978 13.0547 128.483 13.0052 128.192 12.9258L127.929 13.8906ZM129.711 14.0547C130.505 14.0547 131.283 13.9475 132.043 13.7332L131.772 12.7707C131.1 12.96 130.414 13.0547 129.711 13.0547V14.0547ZM131.408 13.252V14.9023H132.408V13.252H131.408ZM131.793 14.4158C131.126 14.5734 130.298 14.6562 129.3 14.6562V15.6562C130.347 15.6562 131.258 15.5698 132.023 15.3889L131.793 14.4158ZM131.011 8.59375C131.011 7.87101 130.809 7.22891 130.384 6.69865L129.604 7.32479C129.868 7.6539 130.011 8.06649 130.011 8.59375H131.011ZM130.381 6.69566C129.871 6.07053 129.165 5.76953 128.324 5.76953V6.76953C128.902 6.76953 129.309 6.96332 129.606 7.32778L130.381 6.69566ZM128.324 5.76953C127.459 5.76953 126.716 6.04881 126.142 6.63132L126.854 7.33353C127.217 6.96551 127.691 6.76953 128.324 6.76953V5.76953ZM126.139 6.63418C125.616 7.17262 125.353 7.83564 125.353 8.59375H126.353C126.353 8.08884 126.52 7.67764 126.856 7.33066L126.139 6.63418ZM125.853 9.09375H130.511V8.09375H125.853V9.09375ZM133.036 4.92188V4.42188H132.309L132.569 5.101L133.036 4.92188ZM135.136 4.92188L135.61 4.76274L135.495 4.42188H135.136V4.92188ZM137.88 13.0957L137.406 13.2548L137.879 14.6642L138.354 13.2553L137.88 13.0957ZM140.634 4.92188V4.42188H140.274L140.16 4.76223L140.634 4.92188ZM142.723 4.92188L143.19 5.10061L143.45 4.42188H142.723V4.92188ZM138.866 15V15.5H139.21L139.333 15.1787L138.866 15ZM136.903 15L136.436 15.1791L136.559 15.5H136.903V15ZM133.036 5.42188H135.136V4.42188H133.036V5.42188ZM134.662 5.08101L137.406 13.2548L138.354 12.9366L135.61 4.76274L134.662 5.08101ZM138.354 13.2553L141.107 5.08152L140.16 4.76223L137.406 12.9361L138.354 13.2553ZM140.634 5.42188H142.723V4.42188H140.634V5.42188ZM142.256 4.74314L138.399 14.8213L139.333 15.1787L143.19 5.10061L142.256 4.74314ZM138.866 14.5H136.903V15.5H138.866V14.5ZM137.37 14.8209L133.503 4.74275L132.569 5.101L136.436 15.1791L137.37 14.8209ZM144.906 6.03516L145.243 6.40481L145.245 6.40276L144.906 6.03516ZM151.059 6.05469L151.442 5.73368L151.441 5.73289L151.059 6.05469ZM152.064 10.0293V10.5293H152.564V10.0293H152.064ZM145.404 10.0293V9.5293H144.904V10.0293H145.404ZM151.508 13.252H152.008V12.5916L151.372 12.7707L151.508 13.252ZM151.508 14.9023L151.623 15.3889L152.008 15.2979V14.9023H151.508ZM150.111 8.59375V9.09375H150.611V8.59375H150.111ZM149.594 7.01172L149.984 6.69864L149.981 6.69566L149.594 7.01172ZM146.098 6.98242L145.742 6.6313L145.739 6.63418L146.098 6.98242ZM145.453 8.59375H144.953V9.09375H145.453V8.59375ZM148.9 14.6562C147.132 14.6562 145.898 14.2243 145.104 13.4485C144.312 12.6748 143.873 11.4759 143.873 9.75586H142.873C142.873 11.636 143.355 13.1373 144.405 14.1638C145.454 15.1881 146.984 15.6562 148.9 15.6562V14.6562ZM143.873 9.75586C143.873 8.32824 144.338 7.22906 145.243 6.40481L144.57 5.66551C143.43 6.70323 142.873 8.08452 142.873 9.75586H143.873ZM145.245 6.40276C146.077 5.63597 147.006 5.26562 148.051 5.26562V4.26562C146.739 4.26562 145.572 4.74163 144.567 5.66755L145.245 6.40276ZM148.051 5.26562C149.209 5.26562 150.062 5.64691 150.676 6.37649L151.441 5.73289C150.609 4.74372 149.457 4.26562 148.051 4.26562V5.26562ZM150.675 6.3757C151.251 7.06346 151.564 8.0098 151.564 9.26758H152.564C152.564 7.84307 152.207 6.64748 151.442 5.73368L150.675 6.3757ZM151.564 9.26758V10.0293H152.564V9.26758H151.564ZM152.064 9.5293H145.404V10.5293H152.064V9.5293ZM144.904 10.0293C144.904 11.0147 145.105 11.8634 145.552 12.5335C146.005 13.2119 146.679 13.6589 147.529 13.8906L147.792 12.9258C147.137 12.7474 146.683 12.4261 146.384 11.9782C146.08 11.522 145.904 10.8864 145.904 10.0293H144.904ZM147.529 13.8906C147.954 14.0065 148.559 14.0547 149.311 14.0547V13.0547C148.578 13.0547 148.083 13.0052 147.792 12.9258L147.529 13.8906ZM149.311 14.0547C150.105 14.0547 150.883 13.9475 151.643 13.7332L151.372 12.7707C150.7 12.96 150.014 13.0547 149.311 13.0547V14.0547ZM151.008 13.252V14.9023H152.008V13.252H151.008ZM151.393 14.4158C150.726 14.5734 149.898 14.6562 148.9 14.6562V15.6562C149.947 15.6562 150.858 15.5698 151.623 15.3889L151.393 14.4158ZM150.611 8.59375C150.611 7.87101 150.409 7.22891 149.984 6.69865L149.204 7.32479C149.468 7.6539 149.611 8.06649 149.611 8.59375H150.611ZM149.981 6.69566C149.471 6.07053 148.765 5.76953 147.924 5.76953V6.76953C148.502 6.76953 148.909 6.96332 149.206 7.32778L149.981 6.69566ZM147.924 5.76953C147.059 5.76953 146.316 6.04881 145.742 6.63132L146.454 7.33353C146.817 6.96551 147.291 6.76953 147.924 6.76953V5.76953ZM145.739 6.63418C145.216 7.17262 144.953 7.83564 144.953 8.59375H145.953C145.953 8.08884 146.12 7.67764 146.456 7.33066L145.739 6.63418ZM145.453 9.09375H150.111V8.09375H145.453V9.09375ZM154.433 0.46875V-0.03125H153.933V0.46875H154.433ZM156.386 0.46875H156.886V-0.03125H156.386V0.46875ZM157.265 13.457L157.451 12.9928L157.446 12.991L157.265 13.457ZM158.486 13.4961H158.986V12.8265L158.344 13.0167L158.486 13.4961ZM158.486 15L158.539 15.4971L158.986 15.4489V15H158.486ZM158.124 15.0391L158.07 14.542L158.069 14.5421L158.124 15.0391ZM155.077 13.8281L154.661 14.1055L154.663 14.1077L155.077 13.8281ZM154.433 0.96875H156.386V-0.03125H154.433V0.96875ZM155.886 0.46875V11.1816H156.886V0.46875H155.886ZM155.886 11.1816C155.886 11.8559 155.961 12.4371 156.139 12.8974C156.321 13.3671 156.624 13.7442 157.084 13.923L157.446 12.991C157.32 12.942 157.184 12.826 157.072 12.5371C156.957 12.239 156.886 11.7964 156.886 11.1816H155.886ZM157.079 13.9213C157.337 14.0242 157.608 14.0742 157.89 14.0742V13.0742C157.729 13.0742 157.584 13.0461 157.451 12.9928L157.079 13.9213ZM157.89 14.0742C158.15 14.0742 158.397 14.0437 158.628 13.9755L158.344 13.0167C158.222 13.0526 158.073 13.0742 157.89 13.0742V14.0742ZM157.986 13.4961V15H158.986V13.4961H157.986ZM158.432 14.5029L158.07 14.542L158.178 15.5362L158.539 15.4971L158.432 14.5029ZM158.069 14.5421C157.969 14.5532 157.874 14.5586 157.782 14.5586V15.5586C157.913 15.5586 158.045 15.5509 158.179 15.536L158.069 14.5421ZM157.782 14.5586C156.649 14.5586 155.928 14.1946 155.492 13.5485L154.663 14.1077C155.334 15.1022 156.416 15.5586 157.782 15.5586V14.5586ZM155.493 13.5508C155.138 13.017 154.933 12.2471 154.933 11.1914H153.933C153.933 12.3622 154.158 13.3502 154.661 14.1055L155.493 13.5508ZM154.933 11.1914V0.46875H153.933V11.1914H154.933ZM170.195 4.4043H170.695V3.45773L169.913 3.9913L170.195 4.4043ZM166.689 6.79688H166.189V7.74344L166.971 7.20987L166.689 6.79688ZM166.689 4.82422L166.399 4.4168L166.189 4.56631V4.82422H166.689ZM171.054 1.71875V1.21875H170.895L170.764 1.31133L171.054 1.71875ZM172.138 1.71875H172.638V1.21875H172.138V1.71875ZM172.138 15V15.5H172.638V15H172.138ZM170.195 15H169.695V15.5H170.195V15ZM169.913 3.9913L166.407 6.38388L166.971 7.20987L170.477 4.81729L169.913 3.9913ZM167.189 6.79688V4.82422H166.189V6.79688H167.189ZM166.979 5.23164L171.344 2.12617L170.764 1.31133L166.399 4.4168L166.979 5.23164ZM171.054 2.21875H172.138V1.21875H171.054V2.21875ZM171.638 1.71875V15H172.638V1.71875H171.638ZM172.138 14.5H170.195V15.5H172.138V14.5ZM170.695 15V4.4043H169.695V15H170.695Z" fill="black"/>
</svg>
