<svg width="157" height="57" viewBox="0 0 157 57" fill="none" xmlns="http://www.w3.org/2000/svg">
<path d="M0 4C0 1.79086 1.79086 0 4 0H152.75C154.959 0 156.75 1.79086 156.75 4V53C156.75 55.2091 154.959 57 152.75 57H4C1.79086 57 0 55.2091 0 53V4Z" fill="#F2D997"/>
<path fill-rule="evenodd" clip-rule="evenodd" d="M156.75 53C156.75 53.5523 154.959 54 152.75 54H4C1.79086 54 0 53.5523 0 53C0 55.2091 1.79086 57 4 57H152.75C154.959 57 156.75 55.2091 156.75 53Z" fill="#C4A860"/>
<path d="M100.467 38.7972C99.532 39.3652 98.4186 39.7758 97.1368 40.0387C95.9664 40.2788 94.65 40.3968 93.1909 40.3968C91.5562 40.3968 89.903 40.2791 88.2314 40.0441L87.801 39.9835V39.5489V36.1279V35.4947L88.417 35.6415C90.0539 36.0319 91.7159 36.2271 93.4035 36.2271C94.72 36.2271 95.7504 36.1189 96.511 35.9161C97.1149 35.755 97.5119 35.5439 97.7522 35.3144C97.9778 35.0989 98.0834 34.8517 98.0834 34.543C98.0834 34.0621 97.9657 33.8014 97.8239 33.6596L97.8184 33.6541L97.8131 33.6484C97.4736 33.287 96.905 32.8945 96.0685 32.4819L93.253 31.1899L93.2454 31.1864L93.2379 31.1827C91.4153 30.2714 90.1566 29.5045 89.5484 28.8824C88.441 27.7605 87.8783 26.4114 87.8783 24.8598C87.8783 23.0742 88.7207 21.6267 90.3203 20.5418L90.3206 20.5416C92.0327 19.3818 94.3874 18.832 97.3271 18.832C98.8068 18.832 100.299 18.9368 101.803 19.1461L102.234 19.206V19.6413V22.9463V23.5459L101.644 23.4382C100.04 23.1455 98.6542 23.0018 97.4817 23.0018C96.2984 23.0018 95.4083 23.0788 94.7926 23.2207C94.1623 23.3691 93.736 23.5443 93.4755 23.7247L93.4729 23.7265C93.0645 24.0054 92.8985 24.3289 92.8985 24.7245C92.8985 25.1714 93.0348 25.5011 93.2871 25.7564C93.6124 26.0574 94.1423 26.4097 94.9041 26.8098L97.7378 28.1785L97.7446 28.1818L97.7513 28.1853C99.5978 29.147 100.856 29.9186 101.445 30.4933L100.467 38.7972ZM100.467 38.7972C102.182 37.7593 103.104 36.3364 103.104 34.543C103.104 32.9349 102.553 31.5726 101.445 30.4935L100.467 38.7972ZM55.7118 39.9249L56.1223 39.8502V39.433V35.722V35.0878L55.5056 35.2358C54.2697 35.5324 52.657 35.6859 50.6551 35.6859C47.2987 35.6859 44.7991 34.7371 43.0761 32.906C41.4823 31.2034 40.6601 28.876 40.6601 25.8648C40.6601 22.8808 41.4939 20.6408 43.0995 19.0711L43.0996 19.0711L43.1036 19.0671C43.9071 18.2636 44.9289 17.6368 46.1828 17.1943C47.4286 16.7546 48.9666 16.527 50.8097 16.527C52.6933 16.527 54.0279 16.6696 54.8539 16.9292L55.5038 17.1335V16.4522V12.7606V12.3433L55.0933 12.2687C54.059 12.0806 52.7046 11.99 51.0416 11.99C49.3835 11.99 47.9388 12.1074 46.7128 12.3472L46.7128 12.3472L46.7092 12.3479C42.7338 13.1563 39.7414 15.0515 37.7888 18.0544L37.7885 18.055C36.3499 20.2732 35.6399 22.8834 35.6399 25.8648C35.6399 30.4169 37.0164 34.0283 39.82 36.6297L40.1601 36.2632L39.82 36.6297C41.1246 37.8402 42.6746 38.7509 44.4625 39.3647L44.4635 39.3651C46.263 39.9782 48.2643 40.2809 50.4618 40.2809C52.6395 40.2809 54.3936 40.1646 55.7118 39.9249ZM63.305 36.2818L63.3049 36.2818L63.3103 36.2908C63.7702 37.0483 64.296 37.699 64.89 38.2378L64.89 38.2378L64.8948 38.2421C65.4793 38.7586 66.0961 39.1776 66.7456 39.4955L66.7494 39.4973C67.4011 39.8096 68.0578 40.036 68.7189 40.1737C69.3709 40.3095 70.03 40.3775 70.6957 40.3775C71.3905 40.3775 72.0665 40.2732 72.7216 40.0642C73.9101 39.6874 74.9045 39.1603 75.686 38.4728L75.7632 39.6211L75.7946 40.0876H76.2621H79.7411H80.2411V39.5876V19.6413V19.1902L79.7924 19.1439L78.3863 18.999L78.0347 18.9627L77.9469 18.9537L77.9249 18.9514L77.9194 18.9508L77.918 18.9507L77.9177 18.9507L77.9176 18.9507L77.8663 19.448L77.9176 18.9506L77.9116 18.9501C77.038 18.8706 75.7634 18.832 74.0974 18.832C70.8114 18.832 68.0248 19.6885 65.7707 21.4296L65.769 21.4309C64.599 22.3424 63.652 23.509 62.9258 24.921L62.925 24.9227C62.204 26.3374 61.8461 27.8848 61.8461 29.5565C61.8461 31.1747 61.9695 32.5143 62.2279 33.5611L62.2278 33.5611L62.2294 33.567C62.4961 34.5942 62.853 35.5011 63.305 36.2818ZM70.9384 23.2506L70.9384 23.2506L70.9445 23.2487C71.8325 22.965 72.6506 22.8279 73.4016 22.8279C74.0594 22.8279 74.7174 22.8615 75.3755 22.9288V34.2238C75.2815 34.3863 75.1395 34.5819 74.9396 34.8119C73.9939 35.8733 72.8047 36.401 71.3335 36.401C70.218 36.401 69.2761 36.0104 68.4806 35.2158C67.437 34.1479 66.8663 32.4512 66.8663 30.0203C66.8663 27.4596 67.5274 25.6503 68.7577 24.4894C69.3548 23.9274 70.0785 23.5133 70.9384 23.2506ZM117.809 36.0639L117.807 36.0632C116.808 35.7041 116.148 34.5266 116.148 32.0304V23.0984H121.832H122.332V22.5984V19.6413V19.1413H121.832H116.148V14.6934V14.1934H115.648H112.71H112.295L112.218 14.6012L111.341 19.2787L108.736 20.3172L108.421 20.4427V20.7816V22.5984V23.0984H108.921H111.282V32.0497C111.282 34.2852 111.774 36.1378 112.807 37.5619L112.808 37.5631C114.11 39.3463 116.116 40.2035 118.721 40.2035H118.721H118.722H118.723H118.724H118.725H118.726H118.726H118.727H118.728H118.729H118.73H118.731H118.732H118.732H118.733H118.734H118.735H118.736H118.737H118.738H118.738H118.739H118.74H118.741H118.742H118.743H118.744H118.744H118.745H118.746H118.747H118.748H118.749H118.75H118.751H118.751H118.752H118.753H118.754H118.755H118.756H118.757H118.758H118.759H118.759H118.76H118.761H118.762H118.763H118.764H118.765H118.766H118.767H118.768H118.769H118.769H118.77H118.771H118.772H118.773H118.774H118.775H118.776H118.777H118.778H118.779H118.78H118.781H118.781H118.782H118.783H118.784H118.785H118.786H118.787H118.788H118.789H118.79H118.791H118.792H118.793H118.794H118.795H118.796H118.797H118.798H118.798H118.799H118.8H118.801H118.802H118.803H118.804H118.805H118.806H118.807H118.808H118.809H118.81H118.811H118.812H118.813H118.814H118.815H118.816H118.817H118.818H118.819H118.82H118.821H118.822H118.823H118.824H118.825H118.826H118.827H118.828H118.829H118.83H118.831H118.832H118.833H118.834H118.835H118.836H118.837H118.838H118.839H118.84H118.841H118.842H118.843H118.844H118.845H118.846H118.847H118.848H118.849H118.85H118.851H118.852H118.853H118.854H118.856H118.857H118.858H118.859H118.86H118.861H118.862H118.863H118.864H118.865H118.866H118.867H118.868H118.869H118.87H118.871H118.872H118.873H118.875H118.876H118.877H118.878H118.879H118.88H118.881H118.882H118.883H118.884H118.885H118.886H118.887H118.889H118.89H118.891H118.892H118.893H118.894H118.895H118.896H118.897H118.898H118.899H118.901H118.902H118.903H118.904H118.905H118.906H118.907H118.908H118.909H118.911H118.912H118.913H118.914H118.915H118.916H118.917H118.918H118.92H118.921H118.922H118.923H118.924H118.925H118.926H118.928H118.929H118.93H118.931H118.932H118.933H118.934H118.936H118.937H118.938H118.939H118.94H118.941H118.942H118.944H118.945H118.946H118.947H118.948H118.949H118.951H118.952H118.953H118.954H118.955H118.957H118.958H118.959H118.96H118.961H118.962H118.964H118.965H118.966H118.967H118.968H118.97H118.971H118.972H118.973H118.974H118.976H118.977H118.978H118.979H118.98H118.982H118.983H118.984H118.985H118.986H118.988H118.989H118.99H118.991H118.992H118.994H118.995H118.996H118.997H118.999H119H119.001H119.002H119.004H119.005H119.006H119.007H119.008H119.01H119.011H119.012H119.013H119.015H119.016H119.017H119.018H119.02H119.021H119.022H119.023H119.025H119.026H119.027H119.029H119.03H119.031H119.032H119.034H119.035H119.036H119.037H119.039H119.04H119.041H119.043H119.044H119.045H119.046H119.048H119.049H119.05H119.052H119.053H119.054H119.055H119.057H119.058H119.059H119.061H119.062H119.063H119.064H119.066H119.067H119.068H119.07H119.071H119.072H119.074H119.075H119.076H119.078H119.079H119.08H119.082H119.083H119.084H119.086H119.087H119.088H119.09H119.091H119.092H119.094H119.095H119.096H119.098H119.099H119.1H119.102H119.103H119.104H119.106H119.107H119.108H119.11H119.111H119.112H119.114H119.115H119.117H119.118H119.119H119.121H119.122H119.123H119.125H119.126H119.127H119.129H119.13H119.132H119.133H119.134H119.136H119.137H119.139H119.14H119.141H119.143H119.144H119.145H119.147H119.148H119.15H119.151H119.152H119.154H119.155H119.157H119.158H119.159H119.161H119.162H119.164H119.165H119.167H119.168H119.169H119.171H119.172H119.174H119.175H119.176H119.178H119.179H119.181H119.182H119.184H119.185H119.187H119.188H119.189H119.191H119.192H119.194H119.195H119.197H119.198H119.199H119.201H119.202H119.204H119.205H119.207H119.208H119.21H119.211H119.213H119.214H119.216H119.217H119.218H119.22H119.221H119.223H119.224H119.226H119.227H119.229H119.23H119.232H119.233H119.235H119.236H119.238H119.239H119.241H119.242H119.244H119.245H119.247H119.248H119.25H119.251H119.253H119.254H119.256H119.257H119.259H119.26H119.262H119.263H119.265H119.266H119.268H119.269H119.271H119.272H119.274H119.275H119.277H119.278H119.28H119.281H119.283H119.285H119.286H119.288H119.289H119.291H119.292H119.294H119.295H119.297H119.298H119.3H119.301H119.303H119.305H119.306H119.308H119.309H119.311H119.312H119.314H119.315H119.317H119.319H119.32H119.322H119.323H119.325H119.326H119.328H119.33H119.331H119.333H119.334H119.336H119.338H119.339H119.347L119.355 40.2033L120.569 40.1647C120.57 40.1647 120.57 40.1647 120.571 40.1647C121.096 40.1515 121.53 40.1119 121.852 40.0353L122.236 39.9439V39.5489V36.4565V35.748L121.568 35.9854C121.059 36.1664 120.398 36.2657 119.571 36.2657C118.723 36.2657 118.15 36.1879 117.809 36.0639Z" fill="#BC7C58" stroke="#BC7C58"/>
</svg>
