<svg width="157" height="57" viewBox="0 0 157 57" fill="none" xmlns="http://www.w3.org/2000/svg">
<path d="M150.417 45.9167C153.371 45.9167 156.75 41.9583 156.75 39.5833V52.8438C156.75 55.0208 154.375 57 152 57H5.54173C4.75006 57 0.000145378 56.2083 5.87426e-05 52.25L6.90542e-06 39.5833C6.90542e-06 44.65 5.54173 45.9167 5.54173 45.9167H150.417Z" fill="#C3A860"/>
<path d="M0 4C0 1.79086 1.79086 0 4 0H152.75C154.959 0 156.75 1.79086 156.75 4V41.9167C156.75 44.1258 154.959 45.9167 152.75 45.9167H4C1.79086 45.9167 0 44.1258 0 41.9167V4Z" fill="#F2D997"/>
<path d="M100.327 34.3072C99.3921 34.8752 98.2787 35.2858 96.997 35.5487C95.8265 35.7888 94.5101 35.9068 93.051 35.9068C91.4163 35.9068 89.7631 35.7891 88.0915 35.554L87.6611 35.4935V35.0589V31.6379V31.0047L88.2771 31.1515C89.9141 31.5419 91.576 31.7371 93.2636 31.7371C94.5801 31.7371 95.6105 31.6289 96.3711 31.4261C96.975 31.265 97.372 31.0539 97.6123 30.8244C97.8379 30.6089 97.9435 30.3617 97.9435 30.053C97.9435 29.5721 97.8258 29.3114 97.684 29.1696L97.6785 29.1641L97.6732 29.1584C97.3337 28.797 96.7651 28.4045 95.9286 27.9919L93.1131 26.6999L93.1055 26.6964L93.098 26.6927C91.2754 25.7814 90.0167 25.0145 89.4085 24.3924C88.3011 23.2705 87.7384 21.9214 87.7384 20.3698C87.7384 18.5842 88.5808 17.1367 90.1804 16.0518L90.1807 16.0516C91.8928 14.8918 94.2475 14.342 97.1872 14.342C98.6669 14.342 100.159 14.4468 101.663 14.6561L102.094 14.716V15.1513V18.4563V19.0559L101.504 18.9482C99.9004 18.6555 98.5143 18.5118 97.3418 18.5118C96.1585 18.5118 95.2684 18.5888 94.6527 18.7307C94.0224 18.8791 93.5962 19.0543 93.3356 19.2347L93.333 19.2365C92.9246 19.5154 92.7586 19.8389 92.7586 20.2345C92.7586 20.6814 92.895 21.0111 93.1473 21.2664C93.4725 21.5674 94.0025 21.9197 94.7642 22.3198L97.5979 23.6885L97.6047 23.6918L97.6114 23.6953C99.4579 24.657 100.716 25.4286 101.305 26.0033L100.327 34.3072ZM100.327 34.3072C102.042 33.2693 102.964 31.8464 102.964 30.053C102.964 28.4449 102.413 27.0826 101.305 26.0035L100.327 34.3072ZM55.5719 35.4349L55.9824 35.3602V34.943V31.232V30.5978L55.3657 30.7458C54.1299 31.0424 52.5171 31.1959 50.5152 31.1959C47.1588 31.1959 44.6592 30.2471 42.9362 28.416C41.3424 26.7134 40.5202 24.386 40.5202 21.3748C40.5202 18.3908 41.354 16.1508 42.9596 14.5811L42.9597 14.5811L42.9637 14.5771C43.7672 13.7736 44.789 13.1468 46.0429 12.7043C47.2887 12.2646 48.8267 12.037 50.6698 12.037C52.5534 12.037 53.888 12.1796 54.714 12.4392L55.3639 12.6435V11.9622V8.27059V7.8533L54.9534 7.77865C53.9191 7.59061 52.5647 7.5 50.9017 7.5C49.2436 7.5 47.7989 7.61735 46.5729 7.8572L46.5729 7.85719L46.5693 7.85793C42.594 8.66625 39.6015 10.5615 37.6489 13.5644L37.6486 13.5649C36.21 15.7832 35.5 18.3934 35.5 21.3748C35.5 25.9269 36.8765 29.5383 39.6801 32.1397L40.0202 31.7732L39.6801 32.1397C40.9847 33.3502 42.5347 34.2609 44.3226 34.8747L44.3236 34.8751C46.1231 35.4882 48.1244 35.7909 50.3219 35.7909C52.4996 35.7909 54.2537 35.6746 55.5719 35.4349ZM63.1651 31.7918L63.165 31.7918L63.1704 31.8007C63.6303 32.5583 64.1561 33.209 64.7501 33.7478L64.7501 33.7478L64.7549 33.7521C65.3394 34.2686 65.9562 34.6876 66.6057 35.0055L66.6095 35.0073C67.2612 35.3196 67.9179 35.546 68.579 35.6837C69.231 35.8195 69.8901 35.8875 70.5558 35.8875C71.2506 35.8875 71.9266 35.7832 72.5817 35.5742C73.7702 35.1974 74.7646 34.6703 75.5461 33.9828L75.6233 35.1311L75.6547 35.5976H76.1222H79.6012H80.1012V35.0976V15.1513V14.7002L79.6525 14.6539L78.2464 14.509L77.8949 14.4727L77.807 14.4637L77.785 14.4614L77.7795 14.4608L77.7781 14.4607L77.7778 14.4607L77.7777 14.4606L77.7264 14.958L77.7777 14.4606L77.7717 14.4601C76.8981 14.3806 75.6235 14.342 73.9575 14.342C70.6715 14.342 67.8849 15.1985 65.6308 16.9396L65.6292 16.9409C64.4591 17.8524 63.5121 19.019 62.7859 20.431L62.7851 20.4327C62.0641 21.8474 61.7062 23.3948 61.7062 25.0664C61.7062 26.6847 61.8297 28.0243 62.088 29.0711L62.0879 29.0711L62.0895 29.077C62.3563 30.1042 62.7131 31.0111 63.1651 31.7918ZM70.7985 18.7606L70.7985 18.7606L70.8046 18.7587C71.6926 18.475 72.5107 18.3379 73.2617 18.3379C73.9195 18.3379 74.5775 18.3715 75.2356 18.4388V29.7338C75.1416 29.8963 74.9996 30.0919 74.7997 30.3219C73.854 31.3833 72.6648 31.911 71.1936 31.911C70.0781 31.911 69.1362 31.5204 68.3407 30.7258C67.2971 29.6579 66.7264 27.9612 66.7264 25.5303C66.7264 22.9696 67.3875 21.1603 68.6178 19.9994C69.2149 19.4374 69.9386 19.0233 70.7985 18.7606ZM117.669 31.5739L117.667 31.5732C116.668 31.2141 116.008 30.0366 116.008 27.5404V18.6084H121.693H122.193V18.1084V15.1513V14.6513H121.693H116.008V10.2034V9.70337H115.508H112.57H112.155L112.078 10.1112L111.201 14.7887L108.596 15.8272L108.282 15.9527V16.2916V18.1084V18.6084H108.782H111.142V27.5597C111.142 29.7952 111.634 31.6478 112.668 33.0719L112.668 33.0731C113.971 34.8563 115.977 35.7135 118.581 35.7135H118.582H118.582H118.583H118.584H118.585H118.586H118.587H118.587H118.588H118.589H118.59H118.591H118.592H118.593H118.593H118.594H118.595H118.596H118.597H118.598H118.599H118.599H118.6H118.601H118.602H118.603H118.604H118.605H118.605H118.606H118.607H118.608H118.609H118.61H118.611H118.612H118.612H118.613H118.614H118.615H118.616H118.617H118.618H118.619H118.62H118.62H118.621H118.622H118.623H118.624H118.625H118.626H118.627H118.628H118.629H118.63H118.63H118.631H118.632H118.633H118.634H118.635H118.636H118.637H118.638H118.639H118.64H118.641H118.642H118.642H118.643H118.644H118.645H118.646H118.647H118.648H118.649H118.65H118.651H118.652H118.653H118.654H118.655H118.656H118.657H118.658H118.659H118.66H118.66H118.661H118.662H118.663H118.664H118.665H118.666H118.667H118.668H118.669H118.67H118.671H118.672H118.673H118.674H118.675H118.676H118.677H118.678H118.679H118.68H118.681H118.682H118.683H118.684H118.685H118.686H118.687H118.688H118.689H118.69H118.691H118.692H118.693H118.694H118.695H118.696H118.697H118.698H118.699H118.7H118.701H118.702H118.703H118.704H118.705H118.706H118.707H118.708H118.709H118.71H118.711H118.712H118.714H118.715H118.716H118.717H118.718H118.719H118.72H118.721H118.722H118.723H118.724H118.725H118.726H118.727H118.728H118.729H118.73H118.731H118.732H118.734H118.735H118.736H118.737H118.738H118.739H118.74H118.741H118.742H118.743H118.744H118.745H118.746H118.748H118.749H118.75H118.751H118.752H118.753H118.754H118.755H118.756H118.757H118.759H118.76H118.761H118.762H118.763H118.764H118.765H118.766H118.767H118.768H118.77H118.771H118.772H118.773H118.774H118.775H118.776H118.777H118.779H118.78H118.781H118.782H118.783H118.784H118.785H118.787H118.788H118.789H118.79H118.791H118.792H118.793H118.795H118.796H118.797H118.798H118.799H118.8H118.801H118.803H118.804H118.805H118.806H118.807H118.808H118.81H118.811H118.812H118.813H118.814H118.815H118.817H118.818H118.819H118.82H118.821H118.823H118.824H118.825H118.826H118.827H118.828H118.83H118.831H118.832H118.833H118.834H118.836H118.837H118.838H118.839H118.84H118.842H118.843H118.844H118.845H118.847H118.848H118.849H118.85H118.851H118.853H118.854H118.855H118.856H118.857H118.859H118.86H118.861H118.862H118.864H118.865H118.866H118.867H118.869H118.87H118.871H118.872H118.874H118.875H118.876H118.877H118.879H118.88H118.881H118.882H118.884H118.885H118.886H118.887H118.889H118.89H118.891H118.892H118.894H118.895H118.896H118.898H118.899H118.9H118.901H118.903H118.904H118.905H118.906H118.908H118.909H118.91H118.912H118.913H118.914H118.915H118.917H118.918H118.919H118.921H118.922H118.923H118.925H118.926H118.927H118.929H118.93H118.931H118.932H118.934H118.935H118.936H118.938H118.939H118.94H118.942H118.943H118.944H118.946H118.947H118.948H118.95H118.951H118.952H118.954H118.955H118.956H118.958H118.959H118.96H118.962H118.963H118.964H118.966H118.967H118.968H118.97H118.971H118.973H118.974H118.975H118.977H118.978H118.979H118.981H118.982H118.983H118.985H118.986H118.988H118.989H118.99H118.992H118.993H118.994H118.996H118.997H118.999H119H119.001H119.003H119.004H119.006H119.007H119.008H119.01H119.011H119.013H119.014H119.015H119.017H119.018H119.02H119.021H119.022H119.024H119.025H119.027H119.028H119.029H119.031H119.032H119.034H119.035H119.037H119.038H119.039H119.041H119.042H119.044H119.045H119.047H119.048H119.049H119.051H119.052H119.054H119.055H119.057H119.058H119.06H119.061H119.062H119.064H119.065H119.067H119.068H119.07H119.071H119.073H119.074H119.076H119.077H119.079H119.08H119.082H119.083H119.084H119.086H119.087H119.089H119.09H119.092H119.093H119.095H119.096H119.098H119.099H119.101H119.102H119.104H119.105H119.107H119.108H119.11H119.111H119.113H119.114H119.116H119.117H119.119H119.12H119.122H119.123H119.125H119.126H119.128H119.129H119.131H119.132H119.134H119.135H119.137H119.139H119.14H119.142H119.143H119.145H119.146H119.148H119.149H119.151H119.152H119.154H119.155H119.157H119.158H119.16H119.162H119.163H119.165H119.166H119.168H119.169H119.171H119.172H119.174H119.176H119.177H119.179H119.18H119.182H119.183H119.185H119.187H119.188H119.19H119.191H119.193H119.194H119.196H119.198H119.199H119.207L119.215 35.7133L120.429 35.6747C120.43 35.6747 120.431 35.6747 120.431 35.6747C120.956 35.6615 121.39 35.6219 121.712 35.5453L122.096 35.4538V35.0589V31.9665V31.258L121.428 31.4954C120.919 31.6764 120.259 31.7757 119.431 31.7757C118.583 31.7757 118.01 31.6979 117.669 31.5739Z" fill="#BC7C58" stroke="#BC7C58"/>
</svg>
