<svg width="134" height="250" viewBox="0 0 134 250" fill="none" xmlns="http://www.w3.org/2000/svg">
<rect width="134" height="250" rx="4" fill="#D9D9D9" fill-opacity="0.1"/>
<rect x="1" y="1" width="132" height="248" rx="3" stroke="#DEDEDE" stroke-opacity="0.1" stroke-width="2"/>
<ellipse cx="20" cy="19" rx="10" ry="9" fill="#8D8787" fill-opacity="0.3"/>
<ellipse cx="49" cy="19" rx="10" ry="9" fill="#8D8787" fill-opacity="0.3"/>
<ellipse cx="80" cy="19" rx="10" ry="9" fill="#8D8787" fill-opacity="0.3"/>
<ellipse cx="109" cy="19" rx="10" ry="9" fill="#8D8787" fill-opacity="0.3"/>
<ellipse cx="20" cy="46" rx="10" ry="9" fill="#8D8787" fill-opacity="0.3"/>
<ellipse cx="49" cy="46" rx="10" ry="9" fill="#8D8787" fill-opacity="0.3"/>
<ellipse cx="80" cy="46" rx="10" ry="9" fill="#8D8787" fill-opacity="0.3"/>
<ellipse cx="109" cy="46" rx="10" ry="9" fill="#8D8787" fill-opacity="0.3"/>
<ellipse cx="20" cy="100" rx="10" ry="9" fill="#8D8787" fill-opacity="0.3"/>
<ellipse cx="49" cy="100" rx="10" ry="9" fill="#8D8787" fill-opacity="0.3"/>
<ellipse cx="80" cy="100" rx="10" ry="9" fill="#8D8787" fill-opacity="0.3"/>
<ellipse cx="109" cy="100" rx="10" ry="9" fill="#8D8787" fill-opacity="0.3"/>
<ellipse cx="20" cy="127" rx="10" ry="9" fill="#8D8787" fill-opacity="0.3"/>
<ellipse cx="49" cy="127" rx="10" ry="9" fill="#8D8787" fill-opacity="0.3"/>
<ellipse cx="80" cy="127" rx="10" ry="9" fill="#8D8787" fill-opacity="0.3"/>
<ellipse cx="109" cy="127" rx="10" ry="9" fill="#8D8787" fill-opacity="0.3"/>
<ellipse cx="20" cy="154" rx="10" ry="9" fill="#8D8787" fill-opacity="0.3"/>
<ellipse cx="49" cy="154" rx="10" ry="9" fill="#8D8787" fill-opacity="0.3"/>
<ellipse cx="80" cy="154" rx="10" ry="9" fill="#8D8787" fill-opacity="0.3"/>
<ellipse cx="109" cy="154" rx="10" ry="9" fill="#8D8787" fill-opacity="0.3"/>
<ellipse cx="20" cy="181" rx="10" ry="9" fill="#8D8787" fill-opacity="0.3"/>
<ellipse cx="49" cy="181" rx="10" ry="9" fill="#8D8787" fill-opacity="0.3"/>
<ellipse cx="80" cy="181" rx="10" ry="9" fill="#8D8787" fill-opacity="0.3"/>
<ellipse cx="109" cy="181" rx="10" ry="9" fill="#8D8787" fill-opacity="0.3"/>
<ellipse cx="20" cy="208" rx="10" ry="9" fill="#8D8787" fill-opacity="0.3"/>
<ellipse cx="49" cy="208" rx="10" ry="9" fill="#8D8787" fill-opacity="0.3"/>
<ellipse cx="80" cy="208" rx="10" ry="9" fill="#8D8787" fill-opacity="0.3"/>
<ellipse cx="109" cy="208" rx="10" ry="9" fill="#8D8787" fill-opacity="0.3"/>
<ellipse cx="20" cy="235" rx="10" ry="9" fill="#8D8787" fill-opacity="0.3"/>
<ellipse cx="49" cy="235" rx="10" ry="9" fill="#8D8787" fill-opacity="0.3"/>
<ellipse cx="80" cy="235" rx="10" ry="9" fill="#8D8787" fill-opacity="0.3"/>
<ellipse cx="109" cy="235" rx="10" ry="9" fill="#8D8787" fill-opacity="0.3"/>
<ellipse cx="20" cy="73" rx="10" ry="9" fill="#8D8787" fill-opacity="0.3"/>
<ellipse cx="49" cy="73" rx="10" ry="9" fill="#8D8787" fill-opacity="0.3"/>
<ellipse cx="80" cy="73" rx="10" ry="9" fill="#8D8787" fill-opacity="0.3"/>
<ellipse cx="109" cy="73" rx="10" ry="9" fill="#8D8787" fill-opacity="0.3"/>
<rect x="125" y="8" width="3" height="236" rx="1.5" fill="#D9D9D9" fill-opacity="0.2"/>
<rect x="125" y="8" width="3" height="130" rx="1.5" fill="#D9D9D9" fill-opacity="0.5"/>
</svg>
