<svg width="141" height="124" viewBox="0 0 141 124" fill="none" xmlns="http://www.w3.org/2000/svg">
<g filter="url(#filter0_f_113_109)">
<rect x="30" y="30" width="81" height="64" rx="1" fill="#F5F5F5"/>
</g>
<path d="M98.1465 88.1091H44.9847C44.2966 88.1091 43.7388 87.5857 43.7388 86.94V37.0598C43.7388 36.4141 44.2966 35.8907 44.9847 35.8907H98.1465C98.8347 35.8907 99.3925 36.4141 99.3925 37.0598V86.94C99.3925 87.5857 98.8347 88.1091 98.1465 88.1091Z" fill="#F8DA7F"/>
<path d="M104.913 81.6203C104.494 81.6203 104.155 81.3024 104.155 80.9092V31.4222H80.8226C80.4035 31.4222 80.0647 31.1036 80.0647 30.7111C80.0647 30.3186 80.4035 30 80.8226 30H104.913C105.332 30 105.671 30.3186 105.671 30.7111V80.9092C105.671 81.3024 105.332 81.6203 104.913 81.6203Z" fill="black"/>
<path d="M91.8055 94H38.2186C37.8002 94 37.4607 93.6821 37.4607 93.2889V30.7111C37.4607 30.3186 37.8002 30 38.2186 30H54.7308C55.1492 30 55.4887 30.3186 55.4887 30.7111C55.4887 31.1036 55.1492 31.4222 54.7308 31.4222H38.9765V92.5778H91.8055C92.2247 92.5778 92.5634 92.8956 92.5634 93.2889C92.5634 93.6821 92.2247 94 91.8055 94Z" fill="black"/>
<path d="M80.823 48.7925C80.6631 48.7925 80.5047 48.7456 80.3713 48.6524L71.5661 42.5184L62.7616 48.6524C62.532 48.8139 62.225 48.838 61.9696 48.7172C61.7134 48.5963 61.552 48.3502 61.552 48.0814V30.7111C61.552 30.3186 61.8915 30 62.3099 30H71.5661C71.9844 30 72.324 30.3186 72.324 30.7111C72.324 31.1036 71.9844 31.4222 71.5661 31.4222H63.0678V46.6677L71.1144 41.062C71.3827 40.875 71.7495 40.875 72.0178 41.062L80.0651 46.6677V30.7111C80.0651 30.3186 80.4039 30 80.823 30C81.2421 30 81.5809 30.3186 81.5809 30.7111V48.0814C81.5809 48.3502 81.4195 48.5963 81.1633 48.7172C81.0557 48.7676 80.9389 48.7925 80.823 48.7925Z" fill="black"/>
<path d="M60.6367 78.7502H48.0572C47.6389 78.7502 47.2993 78.4324 47.2993 78.0391C47.2993 77.6459 47.6389 77.328 48.0572 77.328H60.6367C61.0551 77.328 61.3946 77.6459 61.3946 78.0391C61.3946 78.4324 61.0551 78.7502 60.6367 78.7502Z" fill="black"/>
<path d="M60.6367 85.1986H48.0572C47.6389 85.1986 47.2993 84.8807 47.2993 84.4875C47.2993 84.0942 47.6389 83.7764 48.0572 83.7764H60.6367C61.0551 83.7764 61.3946 84.0942 61.3946 84.4875C61.3946 84.8807 61.0551 85.1986 60.6367 85.1986Z" fill="black"/>
<path d="M81.5526 78.8739C81.1524 78.8739 80.8175 78.5795 80.7962 78.1997C80.775 77.8072 81.0964 77.473 81.514 77.4524C83.5171 77.3557 85.43 76.5955 86.9018 75.3126C88.5798 73.8499 89.5499 71.8623 89.6333 69.7155C89.7174 67.5679 88.9057 65.5192 87.3467 63.9448C85.7877 62.3711 83.6687 61.4602 81.3813 61.3813C79.0879 61.3137 76.909 62.0646 75.231 63.5267C71.7682 66.5453 71.5681 71.6454 74.7854 74.8945C75.0703 75.1818 75.0529 75.6319 74.746 75.8993C74.4405 76.1653 73.9615 76.151 73.6751 75.8623C69.8886 72.0387 70.1236 66.0376 74.1988 62.4842C76.1723 60.764 78.7249 59.8645 81.4367 59.959C84.1295 60.0522 86.6229 61.1231 88.457 62.9756C90.2911 64.828 91.2476 67.2394 91.1483 69.7667C91.049 72.2933 89.9069 74.6328 87.9333 76.3537C86.2015 77.8641 83.9491 78.758 81.592 78.8725C81.5791 78.8739 81.5655 78.8739 81.5526 78.8739Z" fill="black"/>
<path d="M101.941 94C101.895 94 101.849 93.9993 101.801 93.9979C100.805 93.9631 99.883 93.5677 99.2039 92.8822L88.247 81.8173C82.3377 84.8302 74.8232 83.7472 70.1584 79.1357C64.6841 73.722 64.7258 64.9646 70.2501 59.615C73.121 56.8345 76.9544 55.3085 81.0592 55.3085C81.113 55.3085 81.1675 55.3085 81.2221 55.3092C85.3905 55.3504 89.249 56.9504 92.085 59.8148C96.7498 64.5259 97.3971 71.6839 93.7167 77.0493L104.672 88.1142C105.351 88.7997 105.704 89.6914 105.668 90.6258C105.631 91.5609 105.209 92.4263 104.479 93.0628C103.784 93.6701 102.887 94 101.941 94ZM88.3941 80.2087C88.5994 80.2087 88.8018 80.2863 88.9488 80.4356L100.314 91.9136C100.717 92.3204 101.265 92.5558 101.857 92.5764C102.444 92.5878 103.012 92.4 103.447 92.0217C103.881 91.6441 104.132 91.13 104.154 90.5753C104.175 90.0199 103.966 89.4902 103.563 89.0827L92.1979 77.6047C91.9546 77.3586 91.9274 76.986 92.1335 76.7115C95.7828 71.8454 95.2962 65.1467 90.9754 60.7833C88.4251 58.207 84.9555 56.7684 81.2062 56.7314C77.4758 56.6958 73.9562 58.0704 71.3392 60.6041C66.3719 65.4141 66.3363 73.2875 71.2588 78.1558C75.5803 82.4288 82.6234 83.3348 88.0045 80.3097C88.1258 80.2422 88.2599 80.2087 88.3941 80.2087Z" fill="black"/>
<defs>
<filter id="filter0_f_113_109" x="0" y="0" width="141" height="124" filterUnits="userSpaceOnUse" color-interpolation-filters="sRGB">
<feFlood flood-opacity="0" result="BackgroundImageFix"/>
<feBlend mode="normal" in="SourceGraphic" in2="BackgroundImageFix" result="shape"/>
<feGaussianBlur stdDeviation="15" result="effect1_foregroundBlur_113_109"/>
</filter>
</defs>
</svg>
