<svg width="347" height="493" viewBox="0 0 347 493" fill="none" xmlns="http://www.w3.org/2000/svg">
<path d="M1 22.5737H346V489C346 490.657 344.657 492 343 492H3.99999C2.34314 492 1 490.657 1 489V22.5737Z" fill="#E6E6F4"/>
<path d="M1 22.5737H346V489C346 490.657 344.657 492 343 492H3.99999C2.34314 492 1 490.657 1 489V22.5737Z" stroke="#2D3648" stroke-width="2"/>
<path d="M1 4C1 2.34314 2.34314 1 4 1H343C344.657 1 346 2.34315 346 4V22.1718H1V4Z" fill="#2D3648" stroke="black" stroke-width="2"/>
<path d="M29.5195 16.9453C29.0684 17.0273 28.46 17.0684 27.6943 17.0684C26.9333 17.0684 26.2451 16.9635 25.6299 16.7539C25.0192 16.5443 24.4928 16.2344 24.0508 15.8242C23.1029 14.9447 22.6289 13.7188 22.6289 12.1465C22.6289 11.1211 22.8727 10.2324 23.3604 9.48047C24.0212 8.46419 25.0352 7.81706 26.4023 7.53906C26.8216 7.45703 27.3206 7.41602 27.8994 7.41602C28.4827 7.41602 28.9499 7.44792 29.3008 7.51172V8.81738C28.9818 8.71712 28.4873 8.66699 27.8174 8.66699C27.152 8.66699 26.5869 8.74902 26.1221 8.91309C25.6572 9.07715 25.2721 9.31185 24.9668 9.61719C24.3561 10.2142 24.0508 11.0573 24.0508 12.1465C24.0508 13.2448 24.3516 14.1152 24.9531 14.7578C25.6048 15.4505 26.5413 15.7969 27.7627 15.7969C28.4782 15.7969 29.0638 15.7422 29.5195 15.6328V16.9453ZM30.6373 13.459C30.6373 12.3516 30.9905 11.4538 31.6969 10.7656C32.3577 10.123 33.1758 9.80176 34.151 9.80176C35.108 9.80176 35.9079 10.123 36.5504 10.7656C37.234 11.4492 37.5758 12.347 37.5758 13.459C37.5758 14.5664 37.2317 15.4596 36.5436 16.1387C35.8919 16.7858 35.0921 17.1094 34.1442 17.1094C33.1826 17.1094 32.3668 16.7858 31.6969 16.1387C30.9905 15.4596 30.6373 14.5664 30.6373 13.459ZM32.0592 13.459C32.0592 14.6257 32.4329 15.4186 33.1803 15.8379C33.4446 15.9837 33.7614 16.0566 34.1305 16.0566C34.4996 16.0566 34.8118 15.9837 35.067 15.8379C35.3222 15.6875 35.5319 15.4915 35.6959 15.25C36.0013 14.7852 36.1539 14.1882 36.1539 13.459C36.1539 12.3014 35.7871 11.5085 35.0534 11.0801C34.7982 10.9297 34.4928 10.8545 34.1373 10.8545C33.7819 10.8545 33.472 10.9297 33.2077 11.0801C32.9479 11.2259 32.7337 11.4196 32.5651 11.6611C32.2278 12.1351 32.0592 12.7344 32.0592 13.459ZM39.4114 6.82812H40.7786V14.3271C40.7786 15.2295 40.9837 15.7604 41.3938 15.9199C41.5305 15.9746 41.6764 16.002 41.8313 16.002C41.9863 16.002 42.1253 15.9837 42.2483 15.9473V17L41.9954 17.0273C41.9134 17.0365 41.8336 17.041 41.7561 17.041C40.8811 17.041 40.2499 16.7539 39.8626 16.1797C39.5618 15.7285 39.4114 15.1133 39.4114 14.334V6.82812ZM43.9472 6.82812H45.3144V14.3271C45.3144 15.2295 45.5195 15.7604 45.9296 15.9199C46.0663 15.9746 46.2122 16.002 46.3671 16.002C46.5221 16.002 46.6611 15.9837 46.7841 15.9473V17L46.5312 17.0273C46.4491 17.0365 46.3694 17.041 46.2919 17.041C45.4169 17.041 44.7857 16.7539 44.3984 16.1797C44.0976 15.7285 43.9472 15.1133 43.9472 14.334V6.82812ZM51.4839 17.1094C48.9045 17.1094 47.6148 15.8493 47.6148 13.3291C47.6148 12.2445 47.9726 11.3763 48.688 10.7246C49.3306 10.1322 50.0643 9.83594 50.8892 9.83594C51.787 9.83594 52.4888 10.1367 52.9947 10.7383C53.4641 11.2988 53.6988 12.0485 53.6988 12.9873V13.5205H49.0367C49.0367 14.8102 49.563 15.5986 50.6158 15.8857C50.8664 15.9541 51.2515 15.9883 51.7711 15.9883C52.2951 15.9883 52.8078 15.9176 53.3091 15.7764V16.9316C52.8078 17.0501 52.1994 17.1094 51.4839 17.1094ZM52.3316 12.5156C52.3316 12.0781 52.2108 11.709 51.9693 11.4082C51.6867 11.0618 51.2971 10.8887 50.8004 10.8887C50.2763 10.8887 49.8502 11.055 49.522 11.3877C49.2213 11.6976 49.0709 12.0736 49.0709 12.5156H52.3316ZM60.1281 16.9795C59.8547 17.0661 59.3807 17.1094 58.7062 17.1094C58.0318 17.1094 57.4576 17.0273 56.9836 16.8633C56.5142 16.6992 56.1132 16.4577 55.7805 16.1387C55.0923 15.4779 54.7482 14.5618 54.7482 13.3906C54.7482 12.2559 55.1607 11.3626 55.9855 10.7109C56.7238 10.1276 57.6307 9.83594 58.7062 9.83594C59.3716 9.83594 59.8273 9.85872 60.0734 9.9043V11.1211C59.6906 10.998 59.2531 10.9365 58.7609 10.9365C58.2733 10.9365 57.8677 11.0049 57.5441 11.1416C57.2206 11.2738 56.9562 11.4538 56.7512 11.6816C56.3638 12.1146 56.1701 12.6842 56.1701 13.3906C56.1701 14.5846 56.6008 15.3799 57.4621 15.7764C57.7674 15.9176 58.0659 15.9883 58.3576 15.9883C58.6493 15.9883 58.8726 15.9814 59.0275 15.9678C59.187 15.9541 59.3374 15.9359 59.4787 15.9131C59.7795 15.863 59.996 15.8105 60.1281 15.7559V16.9795ZM64.4452 15.9199C64.5955 15.9746 64.8234 16.002 65.1287 16.002C65.4341 16.002 65.6893 15.9655 65.8944 15.8926V16.9863C65.7987 17.0091 65.6597 17.0228 65.4774 17.0273L65.0467 17.041C64.951 17.041 64.8781 17.041 64.828 17.041C63.9484 17.041 63.299 16.7539 62.8797 16.1797C62.5425 15.7148 62.3739 15.0996 62.3739 14.334V10.9912H61.3621V10.3486L62.3739 9.94531L62.702 8.19531H63.7411V9.94531H65.9286V10.9912H63.7411V14.3271C63.7411 15.2204 63.9758 15.7513 64.4452 15.9199ZM69.1997 7.89453C69.1997 8.1543 69.1131 8.35482 68.9399 8.49609C68.7713 8.63281 68.5594 8.70117 68.3042 8.70117C68.049 8.70117 67.8371 8.63281 67.6684 8.49609C67.5044 8.35482 67.4223 8.1543 67.4223 7.89453C67.4223 7.63021 67.5044 7.42969 67.6684 7.29297C67.8371 7.15625 68.049 7.08789 68.3042 7.08789C68.5594 7.08789 68.7713 7.15625 68.9399 7.29297C69.1131 7.42969 69.1997 7.63021 69.1997 7.89453ZM67.6001 9.94531H68.9673V17H67.6001V9.94531ZM70.5226 13.459C70.5226 12.3516 70.8758 11.4538 71.5821 10.7656C72.243 10.123 73.061 9.80176 74.0363 9.80176C74.9933 9.80176 75.7931 10.123 76.4357 10.7656C77.1193 11.4492 77.4611 12.347 77.4611 13.459C77.4611 14.5664 77.117 15.4596 76.4288 16.1387C75.7771 16.7858 74.9773 17.1094 74.0294 17.1094C73.0678 17.1094 72.2521 16.7858 71.5821 16.1387C70.8758 15.4596 70.5226 14.5664 70.5226 13.459ZM71.9445 13.459C71.9445 14.6257 72.3182 15.4186 73.0655 15.8379C73.3299 15.9837 73.6466 16.0566 74.0157 16.0566C74.3849 16.0566 74.6971 15.9837 74.9523 15.8379C75.2075 15.6875 75.4171 15.4915 75.5812 15.25C75.8865 14.7852 76.0392 14.1882 76.0392 13.459C76.0392 12.3014 75.6723 11.5085 74.9386 11.0801C74.6834 10.9297 74.378 10.8545 74.0226 10.8545C73.6671 10.8545 73.3572 10.9297 73.0929 11.0801C72.8331 11.2259 72.6189 11.4196 72.4503 11.6611C72.1131 12.1351 71.9445 12.7344 71.9445 13.459ZM82.1814 11.0117C81.5024 11.0117 80.8985 11.2419 80.3699 11.7021V17H79.0027V9.94531H80.2673L80.363 10.7109C81.1059 10.1276 81.8738 9.83594 82.6668 9.83594C83.5053 9.83594 84.1205 10.0866 84.5125 10.5879C84.9226 11.1165 85.1277 11.9688 85.1277 13.1445V17H83.7605V13.1445C83.7605 12.0143 83.4552 11.3398 82.8445 11.1211C82.6485 11.0482 82.4275 11.0117 82.1814 11.0117ZM88.768 17.1094C88.1983 17.1094 87.6218 17.0684 87.0385 16.9863V15.7764C87.6309 15.9176 88.2325 15.9883 88.8432 15.9883C90.0645 15.9883 90.6752 15.7308 90.6752 15.2158C90.6752 15.0199 90.6273 14.874 90.5316 14.7783C90.3904 14.6279 90.1671 14.4775 89.8617 14.3271L88.8637 13.8691C88.2165 13.5456 87.7973 13.2858 87.6059 13.0898C87.2458 12.7253 87.0658 12.2923 87.0658 11.791C87.0658 11.2259 87.3279 10.7656 87.852 10.4102C88.4171 10.0273 89.21 9.83594 90.2309 9.83594C90.7458 9.83594 91.2654 9.8724 91.7895 9.94531V11.1143C91.2152 11.0094 90.7139 10.957 90.2855 10.957C89.8617 10.957 89.5313 10.9844 89.2943 11.0391C89.0619 11.0938 88.8865 11.1621 88.768 11.2441C88.5811 11.3717 88.4877 11.5381 88.4877 11.7432C88.4877 11.9437 88.5515 12.1077 88.6791 12.2354C88.8113 12.3584 89.0163 12.4928 89.2943 12.6387L90.2992 13.124C90.9555 13.4658 91.377 13.7279 91.5639 13.9102C91.9193 14.2565 92.0971 14.6917 92.0971 15.2158C92.0971 15.7764 91.8145 16.2275 91.2494 16.5693C90.657 16.9294 89.8298 17.1094 88.768 17.1094ZM98.5231 12.4062H103.172V13.459H98.5231V12.4062ZM114.854 16.9795C114.581 17.0661 114.107 17.1094 113.433 17.1094C112.758 17.1094 112.184 17.0273 111.71 16.8633C111.241 16.6992 110.839 16.4577 110.507 16.1387C109.819 15.4779 109.475 14.5618 109.475 13.3906C109.475 12.2559 109.887 11.3626 110.712 10.7109C111.45 10.1276 112.357 9.83594 113.433 9.83594C114.098 9.83594 114.554 9.85872 114.8 9.9043V11.1211C114.417 10.998 113.979 10.9365 113.487 10.9365C113 10.9365 112.594 11.0049 112.27 11.1416C111.947 11.2738 111.683 11.4538 111.478 11.6816C111.09 12.1146 110.896 12.6842 110.896 13.3906C110.896 14.5846 111.327 15.3799 112.188 15.7764C112.494 15.9176 112.792 15.9883 113.084 15.9883C113.376 15.9883 113.599 15.9814 113.754 15.9678C113.913 15.9541 114.064 15.9359 114.205 15.9131C114.506 15.863 114.722 15.8105 114.854 15.7559V16.9795ZM119.807 11.0117C119.133 11.0117 118.531 11.2419 118.003 11.7021V17H116.635V6.82812H118.003V10.7041C118.741 10.1253 119.504 9.83594 120.293 9.83594C121.136 9.83594 121.753 10.0866 122.145 10.5879C122.555 11.1165 122.76 11.9688 122.76 13.1445V17H121.393V13.1445C121.393 12.0143 121.086 11.3398 120.47 11.1211C120.274 11.0482 120.053 11.0117 119.807 11.0117ZM127.952 17.1094C125.373 17.1094 124.083 15.8493 124.083 13.3291C124.083 12.2445 124.441 11.3763 125.156 10.7246C125.799 10.1322 126.533 9.83594 127.358 9.83594C128.255 9.83594 128.957 10.1367 129.463 10.7383C129.933 11.2988 130.167 12.0485 130.167 12.9873V13.5205H125.505C125.505 14.8102 126.031 15.5986 127.084 15.8857C127.335 15.9541 127.72 15.9883 128.239 15.9883C128.764 15.9883 129.276 15.9176 129.778 15.7764V16.9316C129.276 17.0501 128.668 17.1094 127.952 17.1094ZM128.8 12.5156C128.8 12.0781 128.679 11.709 128.438 11.4082C128.155 11.0618 127.766 10.8887 127.269 10.8887C126.745 10.8887 126.319 11.055 125.99 11.3877C125.69 11.6976 125.539 12.0736 125.539 12.5156H128.8ZM136.597 16.9795C136.323 17.0661 135.849 17.1094 135.175 17.1094C134.5 17.1094 133.926 17.0273 133.452 16.8633C132.983 16.6992 132.582 16.4577 132.249 16.1387C131.561 15.4779 131.217 14.5618 131.217 13.3906C131.217 12.2559 131.629 11.3626 132.454 10.7109C133.192 10.1276 134.099 9.83594 135.175 9.83594C135.84 9.83594 136.296 9.85872 136.542 9.9043V11.1211C136.159 10.998 135.722 10.9365 135.229 10.9365C134.742 10.9365 134.336 11.0049 134.013 11.1416C133.689 11.2738 133.425 11.4538 133.22 11.6816C132.832 12.1146 132.639 12.6842 132.639 13.3906C132.639 14.5846 133.069 15.3799 133.931 15.7764C134.236 15.9176 134.534 15.9883 134.826 15.9883C135.118 15.9883 135.341 15.9814 135.496 15.9678C135.655 15.9541 135.806 15.9359 135.947 15.9131C136.248 15.863 136.464 15.8105 136.597 15.7559V16.9795ZM138.48 6.83496H139.847V13.1035L142.705 9.94531H144.332L141.29 13.1445L144.489 17H142.821L139.847 13.4043V17H138.48V6.83496ZM149.302 13.459C149.302 12.3516 149.655 11.4538 150.361 10.7656C151.022 10.123 151.84 9.80176 152.815 9.80176C153.772 9.80176 154.572 10.123 155.215 10.7656C155.898 11.4492 156.24 12.347 156.24 13.459C156.24 14.5664 155.896 15.4596 155.208 16.1387C154.556 16.7858 153.756 17.1094 152.808 17.1094C151.847 17.1094 151.031 16.7858 150.361 16.1387C149.655 15.4596 149.302 14.5664 149.302 13.459ZM150.723 13.459C150.723 14.6257 151.097 15.4186 151.845 15.8379C152.109 15.9837 152.426 16.0566 152.795 16.0566C153.164 16.0566 153.476 15.9837 153.731 15.8379C153.986 15.6875 154.196 15.4915 154.36 15.25C154.665 14.7852 154.818 14.1882 154.818 13.459C154.818 12.3014 154.451 11.5085 153.718 11.0801C153.462 10.9297 153.157 10.8545 152.802 10.8545C152.446 10.8545 152.136 10.9297 151.872 11.0801C151.612 11.2259 151.398 11.4196 151.229 11.6611C150.892 12.1351 150.723 12.7344 150.723 13.459ZM162.382 15.2705V9.94531H163.749V17H162.519L162.396 16.2549C161.721 16.8245 160.976 17.1094 160.161 17.1094C159.295 17.1094 158.682 16.8701 158.322 16.3916C157.948 15.904 157.761 15.0632 157.761 13.8691V9.94531H159.128V13.8008C159.128 14.6439 159.249 15.2181 159.491 15.5234C159.705 15.7969 160.113 15.9336 160.714 15.9336C161.32 15.9336 161.876 15.7126 162.382 15.2705ZM168.354 15.9199C168.504 15.9746 168.732 16.002 169.037 16.002C169.343 16.002 169.598 15.9655 169.803 15.8926V16.9863C169.707 17.0091 169.568 17.0228 169.386 17.0273L168.955 17.041C168.859 17.041 168.787 17.041 168.736 17.041C167.857 17.041 167.207 16.7539 166.788 16.1797C166.451 15.7148 166.282 15.0996 166.282 14.334V10.9912H165.271V10.3486L166.282 9.94531L166.61 8.19531H167.649V9.94531H169.837V10.9912H167.649V14.3271C167.649 15.2204 167.884 15.7513 168.354 15.9199ZM175.087 9.94531H176.543L178.355 15.5508L180.187 9.94531H181.609L183.461 15.5303L185.184 9.94531H186.537L184.165 17H182.757L180.857 11.6543L179.059 17H177.651L175.087 9.94531ZM190.745 11.0117C190.071 11.0117 189.469 11.2419 188.94 11.7021V17H187.573V6.82812H188.94V10.7041C189.679 10.1253 190.442 9.83594 191.23 9.83594C192.074 9.83594 192.691 10.0866 193.083 10.5879C193.493 11.1165 193.698 11.9688 193.698 13.1445V17H192.331V13.1445C192.331 12.0143 192.023 11.3398 191.408 11.1211C191.212 11.0482 190.991 11.0117 190.745 11.0117ZM195.91 15.7422C195.759 15.4824 195.639 15.1771 195.548 14.8262C195.461 14.4753 195.418 14.0173 195.418 13.4521C195.418 12.887 195.538 12.3675 195.78 11.8936C196.026 11.415 196.345 11.0231 196.737 10.7178C197.498 10.1299 198.444 9.83594 199.574 9.83594C200.162 9.83594 200.606 9.84961 200.907 9.87695C200.907 9.87695 201.128 9.89974 201.57 9.94531V17H200.339L200.285 16.1865C200.011 16.5511 199.594 16.8223 199.034 17C198.82 17.0684 198.599 17.1025 198.371 17.1025C198.147 17.1025 197.926 17.0798 197.708 17.0342C197.489 16.9886 197.27 16.9134 197.051 16.8086C196.837 16.7038 196.632 16.5648 196.436 16.3916C196.24 16.2139 196.065 15.9974 195.91 15.7422ZM200.203 10.9502C199.911 10.9137 199.619 10.8955 199.328 10.8955C199.041 10.8955 198.733 10.9479 198.405 11.0527C198.077 11.153 197.797 11.3125 197.564 11.5312C197.081 11.987 196.839 12.682 196.839 13.6162C196.839 14.5003 197.047 15.1543 197.462 15.5781C197.776 15.8926 198.154 16.0498 198.596 16.0498C199.166 16.0498 199.635 15.8424 200.005 15.4277C200.096 15.3229 200.162 15.2295 200.203 15.1475V10.9502ZM206.154 15.9199C206.304 15.9746 206.532 16.002 206.837 16.002C207.143 16.002 207.398 15.9655 207.603 15.8926V16.9863C207.507 17.0091 207.368 17.0228 207.186 17.0273L206.755 17.041C206.659 17.041 206.587 17.041 206.536 17.041C205.657 17.041 205.007 16.7539 204.588 16.1797C204.251 15.7148 204.082 15.0996 204.082 14.334V10.9912H203.071V10.3486L204.082 9.94531L204.41 8.19531H205.449V9.94531H207.637V10.9912H205.449V14.3271C205.449 15.2204 205.684 15.7513 206.154 15.9199ZM211.38 7.375C211.38 8.25911 211.209 8.91081 210.867 9.33008C210.484 9.79492 209.86 10.0273 208.994 10.0273V8.93359C209.568 8.93359 209.906 8.63737 210.006 8.04492C210.042 7.85352 210.06 7.63021 210.06 7.375V6.54102H211.38V7.375ZM214.405 17.1094C213.835 17.1094 213.259 17.0684 212.675 16.9863V15.7764C213.268 15.9176 213.869 15.9883 214.48 15.9883C215.701 15.9883 216.312 15.7308 216.312 15.2158C216.312 15.0199 216.264 14.874 216.169 14.7783C216.027 14.6279 215.804 14.4775 215.499 14.3271L214.501 13.8691C213.853 13.5456 213.434 13.2858 213.243 13.0898C212.883 12.7253 212.703 12.2923 212.703 11.791C212.703 11.2259 212.965 10.7656 213.489 10.4102C214.054 10.0273 214.847 9.83594 215.868 9.83594C216.383 9.83594 216.902 9.8724 217.426 9.94531V11.1143C216.852 11.0094 216.351 10.957 215.922 10.957C215.499 10.957 215.168 10.9844 214.931 11.0391C214.699 11.0938 214.523 11.1621 214.405 11.2441C214.218 11.3717 214.125 11.5381 214.125 11.7432C214.125 11.9437 214.188 12.1077 214.316 12.2354C214.448 12.3584 214.653 12.4928 214.931 12.6387L215.936 13.124C216.592 13.4658 217.014 13.7279 217.201 13.9102C217.556 14.2565 217.734 14.6917 217.734 15.2158C217.734 15.7764 217.451 16.2275 216.886 16.5693C216.294 16.9294 215.467 17.1094 214.405 17.1094ZM228.658 15.2705V9.94531H230.025V17H228.795L228.672 16.2549C227.997 16.8245 227.252 17.1094 226.436 17.1094C225.57 17.1094 224.958 16.8701 224.598 16.3916C224.224 15.904 224.037 15.0632 224.037 13.8691V9.94531H225.404V13.8008C225.404 14.6439 225.525 15.2181 225.766 15.5234C225.981 15.7969 226.389 15.9336 226.99 15.9336C227.596 15.9336 228.152 15.7126 228.658 15.2705ZM235.272 11.0117C234.593 11.0117 233.989 11.2419 233.46 11.7021V17H232.093V9.94531H233.358L233.454 10.7109C234.196 10.1276 234.964 9.83594 235.757 9.83594C236.596 9.83594 237.211 10.0866 237.603 10.5879C238.013 11.1165 238.218 11.9688 238.218 13.1445V17H236.851V13.1445C236.851 12.0143 236.546 11.3398 235.935 11.1211C235.739 11.0482 235.518 11.0117 235.272 11.0117ZM240.423 6.82812H241.79V14.3271C241.79 15.2295 241.995 15.7604 242.405 15.9199C242.542 15.9746 242.688 16.002 242.843 16.002C242.998 16.002 243.137 15.9837 243.26 15.9473V17L243.007 17.0273C242.925 17.0365 242.845 17.041 242.768 17.041C241.893 17.041 241.262 16.7539 240.874 16.1797C240.573 15.7285 240.423 15.1133 240.423 14.334V6.82812ZM244.207 13.459C244.207 12.3516 244.56 11.4538 245.266 10.7656C245.927 10.123 246.745 9.80176 247.72 9.80176C248.678 9.80176 249.477 10.123 250.12 10.7656C250.803 11.4492 251.145 12.347 251.145 13.459C251.145 14.5664 250.801 15.4596 250.113 16.1387C249.461 16.7858 248.662 17.1094 247.714 17.1094C246.752 17.1094 245.936 16.7858 245.266 16.1387C244.56 15.4596 244.207 14.5664 244.207 13.459ZM245.629 13.459C245.629 14.6257 246.002 15.4186 246.75 15.8379C247.014 15.9837 247.331 16.0566 247.7 16.0566C248.069 16.0566 248.381 15.9837 248.636 15.8379C248.892 15.6875 249.101 15.4915 249.265 15.25C249.571 14.7852 249.723 14.1882 249.723 13.459C249.723 12.3014 249.357 11.5085 248.623 11.0801C248.368 10.9297 248.062 10.8545 247.707 10.8545C247.351 10.8545 247.041 10.9297 246.777 11.0801C246.517 11.2259 246.303 11.4196 246.135 11.6611C245.797 12.1351 245.629 12.7344 245.629 13.459ZM257.752 16.9795C257.479 17.0661 257.005 17.1094 256.33 17.1094C255.656 17.1094 255.082 17.0273 254.608 16.8633C254.138 16.6992 253.737 16.4577 253.405 16.1387C252.717 15.4779 252.372 14.5618 252.372 13.3906C252.372 12.2559 252.785 11.3626 253.61 10.7109C254.348 10.1276 255.255 9.83594 256.33 9.83594C256.996 9.83594 257.452 9.85872 257.698 9.9043V11.1211C257.315 10.998 256.877 10.9365 256.385 10.9365C255.898 10.9365 255.492 11.0049 255.168 11.1416C254.845 11.2738 254.58 11.4538 254.375 11.6816C253.988 12.1146 253.794 12.6842 253.794 13.3906C253.794 14.5846 254.225 15.3799 255.086 15.7764C255.392 15.9176 255.69 15.9883 255.982 15.9883C256.274 15.9883 256.497 15.9814 256.652 15.9678C256.811 15.9541 256.962 15.9359 257.103 15.9131C257.404 15.863 257.62 15.8105 257.752 15.7559V16.9795ZM259.636 6.83496H261.003V13.1035L263.86 9.94531H265.487L262.445 13.1445L265.645 17H263.977L261.003 13.4043V17H259.636V6.83496ZM269.688 17.1094C267.109 17.1094 265.819 15.8493 265.819 13.3291C265.819 12.2445 266.177 11.3763 266.892 10.7246C267.535 10.1322 268.269 9.83594 269.093 9.83594C269.991 9.83594 270.693 10.1367 271.199 10.7383C271.668 11.2988 271.903 12.0485 271.903 12.9873V13.5205H267.241C267.241 14.8102 267.767 15.5986 268.82 15.8857C269.071 15.9541 269.456 15.9883 269.975 15.9883C270.499 15.9883 271.012 15.9176 271.513 15.7764V16.9316C271.012 17.0501 270.404 17.1094 269.688 17.1094ZM270.536 12.5156C270.536 12.0781 270.415 11.709 270.174 11.4082C269.891 11.0618 269.501 10.8887 269.005 10.8887C268.48 10.8887 268.054 11.055 267.726 11.3877C267.425 11.6976 267.275 12.0736 267.275 12.5156H270.536ZM274.333 10.7178C274.73 10.4124 275.174 10.1891 275.666 10.0479C276.163 9.90658 276.596 9.83594 276.965 9.83594C277.334 9.83594 277.619 9.84505 277.82 9.86328V6.82812H279.18V17H277.956L277.902 16.1865C277.624 16.5557 277.202 16.8291 276.637 17.0068C276.418 17.0752 276.195 17.1094 275.967 17.1094C275.744 17.1094 275.523 17.0866 275.304 17.041C275.085 16.9954 274.867 16.9202 274.648 16.8154C274.434 16.7061 274.228 16.5648 274.033 16.3916C273.837 16.2139 273.661 15.9974 273.506 15.7422C273.178 15.1816 273.014 14.5186 273.014 13.7529C273.014 12.9873 273.135 12.3675 273.376 11.8936C273.622 11.415 273.941 11.0231 274.333 10.7178ZM275.16 11.5312C274.928 11.75 274.748 12.0326 274.62 12.3789C274.497 12.7207 274.436 13.1377 274.436 13.6299C274.436 14.1175 274.495 14.5208 274.614 14.8398C274.732 15.1543 274.88 15.4004 275.058 15.5781C275.372 15.8971 275.751 16.0566 276.193 16.0566C276.762 16.0566 277.234 15.847 277.608 15.4277C277.703 15.3229 277.772 15.2295 277.813 15.1475V10.9434L277.676 10.9297C277.466 10.9023 277.216 10.8887 276.924 10.8887C276.637 10.8887 276.329 10.9411 276.001 11.0459C275.673 11.1462 275.393 11.3079 275.16 11.5312ZM281.296 7.08789H282.663L282.554 14.1699H281.405L281.296 7.08789ZM281.979 17.1709C281.706 17.1709 281.478 17.098 281.296 16.9521C281.118 16.8018 281.029 16.5876 281.029 16.3096C281.029 16.027 281.118 15.8105 281.296 15.6602C281.478 15.5098 281.706 15.4346 281.979 15.4346C282.257 15.4346 282.488 15.5098 282.67 15.6602C282.852 15.8105 282.943 16.027 282.943 16.3096C282.943 16.5876 282.852 16.8018 282.67 16.9521C282.488 17.098 282.257 17.1709 281.979 17.1709Z" fill="white"/>
</svg>
