<svg width="58" height="26" viewBox="0 0 58 26" fill="none" xmlns="http://www.w3.org/2000/svg">
<path d="M15 9H13M13.6213 4.37866L11.5 6.49998M9 5V3M6.50004 6.50001L4.37872 4.37869M5 9H3M6.50004 11.5L4.37872 13.6214M9 15V13M20 20L12 12" stroke="#001A72" stroke-width="1.5" stroke-linecap="round" stroke-linejoin="round"/>
<path d="M30.5479 15.4521H27.6631V14.4131H30.5479V11.5352H31.5869V14.4131H34.5195V15.4521H31.5869V18.3848H30.5479V15.4521ZM35.8698 14.4199C35.8698 12.9251 36.2207 11.7607 36.9225 10.9268C37.6107 10.111 38.5495 9.70312 39.7389 9.70312C40.9101 9.70312 41.8307 10.111 42.5006 10.9268C43.1933 11.7653 43.5397 12.9297 43.5397 14.4199C43.5397 15.9102 43.1933 17.07 42.5006 17.8994C41.8307 18.7061 40.9101 19.1094 39.7389 19.1094C38.5495 19.1094 37.6107 18.7061 36.9225 17.8994C36.2207 17.0745 35.8698 15.9147 35.8698 14.4199ZM39.7252 18.0703C40.1946 18.0703 40.582 17.9746 40.8873 17.7832C41.1927 17.5918 41.4342 17.332 41.612 17.0039C41.9401 16.4023 42.1041 15.5433 42.1041 14.4268C42.1041 12.6768 41.6985 11.5443 40.8873 11.0293C40.582 10.8379 40.1992 10.7422 39.7389 10.7422C38.8776 10.7422 38.2441 11.1022 37.8385 11.8223C37.483 12.4512 37.3053 13.3148 37.3053 14.4131C37.3053 16.8512 38.112 18.0703 39.7252 18.0703ZM47.1595 14.3516C46.845 14.3516 46.5556 14.3014 46.2913 14.2012C46.027 14.0964 45.8014 13.946 45.6145 13.75C45.2135 13.3307 45.013 12.7588 45.013 12.0342C45.013 11.3232 45.2135 10.7559 45.6145 10.332C46.0019 9.91732 46.5192 9.70996 47.1663 9.70996C47.7998 9.70996 48.3102 9.91732 48.6975 10.332C49.0895 10.7513 49.2854 11.3187 49.2854 12.0342C49.2854 12.7588 49.0895 13.3307 48.6975 13.75C48.3193 14.151 47.8066 14.3516 47.1595 14.3516ZM46.1067 12.0479C46.1067 12.499 46.2001 12.8499 46.387 13.1006C46.5738 13.3512 46.8313 13.4766 47.1595 13.4766C47.4876 13.4766 47.7405 13.3512 47.9182 13.1006C48.1005 12.8499 48.1917 12.499 48.1917 12.0479C48.1917 11.5921 48.1005 11.2344 47.9182 10.9746C47.7405 10.7148 47.4876 10.585 47.1595 10.585C46.8313 10.585 46.5738 10.7148 46.387 10.9746C46.2001 11.2344 46.1067 11.5921 46.1067 12.0479ZM50.803 16.6826C50.803 16.318 50.8554 15.9922 50.9602 15.7051C51.0651 15.418 51.2109 15.1742 51.3977 14.9736C51.7897 14.5589 52.3092 14.3516 52.9563 14.3516C53.5898 14.3516 54.1002 14.5589 54.4876 14.9736C54.8795 15.3929 55.0755 15.9603 55.0755 16.6758C55.0755 17.4004 54.8795 17.9701 54.4876 18.3848C54.1093 18.7904 53.5989 18.9932 52.9563 18.9932C52.3046 18.9932 51.7851 18.7904 51.3977 18.3848C51.0012 17.9701 50.803 17.4027 50.803 16.6826ZM52.9495 15.2266C52.6214 15.2266 52.3639 15.3564 52.177 15.6162C51.9902 15.876 51.8968 16.2337 51.8968 16.6895C51.8968 17.1406 51.9902 17.4915 52.177 17.7422C52.3639 17.9928 52.6214 18.1182 52.9495 18.1182C53.2776 18.1182 53.5305 17.9928 53.7083 17.7422C53.8906 17.4915 53.9817 17.1406 53.9817 16.6895C53.9817 16.2337 53.8906 15.876 53.7083 15.6162C53.5305 15.3564 53.2776 15.2266 52.9495 15.2266ZM52.1018 9.70312H53.2434L47.8636 19H46.722L52.1018 9.70312Z" fill="#082831"/>
</svg>
