<svg width="61" height="26" viewBox="0 0 61 26" fill="none" xmlns="http://www.w3.org/2000/svg">
<path d="M33.5479 15.4521H30.6631V14.4131H33.5479V11.5352H34.5869V14.4131H37.5195V15.4521H34.5869V18.3848H33.5479V15.4521ZM38.8698 14.4199C38.8698 12.9251 39.2207 11.7607 39.9225 10.9268C40.6107 10.111 41.5495 9.70312 42.7389 9.70312C43.9101 9.70312 44.8307 10.111 45.5006 10.9268C46.1933 11.7653 46.5397 12.9297 46.5397 14.4199C46.5397 15.9102 46.1933 17.07 45.5006 17.8994C44.8307 18.7061 43.9101 19.1094 42.7389 19.1094C41.5495 19.1094 40.6107 18.7061 39.9225 17.8994C39.2207 17.0745 38.8698 15.9147 38.8698 14.4199ZM42.7252 18.0703C43.1946 18.0703 43.582 17.9746 43.8873 17.7832C44.1927 17.5918 44.4342 17.332 44.612 17.0039C44.9401 16.4023 45.1041 15.5433 45.1041 14.4268C45.1041 12.6768 44.6985 11.5443 43.8873 11.0293C43.582 10.8379 43.1992 10.7422 42.7389 10.7422C41.8776 10.7422 41.2441 11.1022 40.8385 11.8223C40.483 12.4512 40.3053 13.3148 40.3053 14.4131C40.3053 16.8512 41.112 18.0703 42.7252 18.0703ZM50.1595 14.3516C49.845 14.3516 49.5556 14.3014 49.2913 14.2012C49.027 14.0964 48.8014 13.946 48.6145 13.75C48.2135 13.3307 48.013 12.7588 48.013 12.0342C48.013 11.3232 48.2135 10.7559 48.6145 10.332C49.0019 9.91732 49.5192 9.70996 50.1663 9.70996C50.7998 9.70996 51.3102 9.91732 51.6975 10.332C52.0895 10.7513 52.2854 11.3187 52.2854 12.0342C52.2854 12.7588 52.0895 13.3307 51.6975 13.75C51.3193 14.151 50.8066 14.3516 50.1595 14.3516ZM49.1067 12.0479C49.1067 12.499 49.2001 12.8499 49.387 13.1006C49.5738 13.3512 49.8313 13.4766 50.1595 13.4766C50.4876 13.4766 50.7405 13.3512 50.9182 13.1006C51.1005 12.8499 51.1917 12.499 51.1917 12.0479C51.1917 11.5921 51.1005 11.2344 50.9182 10.9746C50.7405 10.7148 50.4876 10.585 50.1595 10.585C49.8313 10.585 49.5738 10.7148 49.387 10.9746C49.2001 11.2344 49.1067 11.5921 49.1067 12.0479ZM53.803 16.6826C53.803 16.318 53.8554 15.9922 53.9602 15.7051C54.0651 15.418 54.2109 15.1742 54.3977 14.9736C54.7897 14.5589 55.3092 14.3516 55.9563 14.3516C56.5898 14.3516 57.1002 14.5589 57.4876 14.9736C57.8795 15.3929 58.0755 15.9603 58.0755 16.6758C58.0755 17.4004 57.8795 17.9701 57.4876 18.3848C57.1093 18.7904 56.5989 18.9932 55.9563 18.9932C55.3046 18.9932 54.7851 18.7904 54.3977 18.3848C54.0012 17.9701 53.803 17.4027 53.803 16.6826ZM55.9495 15.2266C55.6214 15.2266 55.3639 15.3564 55.177 15.6162C54.9902 15.876 54.8968 16.2337 54.8968 16.6895C54.8968 17.1406 54.9902 17.4915 55.177 17.7422C55.3639 17.9928 55.6214 18.1182 55.9495 18.1182C56.2776 18.1182 56.5305 17.9928 56.7083 17.7422C56.8906 17.4915 56.9817 17.1406 56.9817 16.6895C56.9817 16.2337 56.8906 15.876 56.7083 15.6162C56.5305 15.3564 56.2776 15.2266 55.9495 15.2266ZM55.1018 9.70312H56.2434L50.8636 19H49.722L55.1018 9.70312Z" fill="#082831"/>
<path opacity="0.15" d="M3 10H21L19 20H5L3 10Z" fill="#001A72"/>
<path d="M3 10H21M3 10L5 20H19L21 10M3 10L9 4M21 10L15 4" stroke="#001A72" stroke-width="1.5" stroke-linecap="round" stroke-linejoin="round"/>
</svg>
