<svg width="908" height="617" viewBox="0 0 908 617" fill="none" xmlns="http://www.w3.org/2000/svg">
<path d="M1 28H907V613C907 614.657 905.657 616 904 616H3.99998C2.34313 616 1 614.657 1 613V28Z" stroke="#2D3648" stroke-width="2"/>
<path d="M4 1H904C905.657 1 907 2.34314 907 4V28H1V4C1 2.34315 2.34315 1 4 1Z" fill="#2D3648" stroke="black" stroke-width="2"/>
<path d="M22.6445 9.71045H23.5195L26.9102 13.6069L30.2871 9.71045H31.1621V19.2261H29.7949V11.98L29.3916 12.5269L26.9102 15.4185L24.4287 12.5337L24.0117 11.9868V19.2261H22.6445V9.71045ZM33.3873 17.9683C33.237 17.7085 33.1162 17.4032 33.025 17.0522C32.9385 16.7013 32.8952 16.2433 32.8952 15.6782C32.8952 15.1131 33.0159 14.5936 33.2575 14.1196C33.5036 13.6411 33.8226 13.2492 34.2145 12.9438C34.9756 12.356 35.9212 12.062 37.0514 12.062C37.6393 12.062 38.0836 12.0757 38.3844 12.103C38.3844 12.103 38.6054 12.1258 39.0475 12.1714V19.2261H37.817L37.7623 18.4126C37.4889 18.7772 37.0719 19.0483 36.5114 19.2261C36.2972 19.2944 36.0761 19.3286 35.8483 19.3286C35.625 19.3286 35.4039 19.3058 35.1852 19.2603C34.9664 19.2147 34.7477 19.1395 34.5289 19.0347C34.3148 18.9299 34.1097 18.7909 33.9137 18.6177C33.7177 18.4399 33.5423 18.2235 33.3873 17.9683ZM37.6803 13.1763C37.3886 13.1398 37.097 13.1216 36.8053 13.1216C36.5182 13.1216 36.2106 13.174 35.8825 13.2788C35.5543 13.3791 35.2741 13.5386 35.0416 13.7573C34.5586 14.2131 34.317 14.908 34.317 15.8423C34.317 16.7264 34.5244 17.3804 34.9391 17.8042C35.2536 18.1187 35.6318 18.2759 36.0739 18.2759C36.6435 18.2759 37.1129 18.0685 37.4821 17.6538C37.5732 17.549 37.6393 17.4556 37.6803 17.3735V13.1763ZM40.8011 20.9761C40.9241 21.0125 41.0904 21.0308 41.3001 21.0308C41.5143 21.0308 41.733 20.9875 41.9563 20.9009C42.1796 20.8188 42.3733 20.7026 42.5374 20.5522C42.8108 20.3062 43.0592 19.9188 43.2825 19.3901L40.3841 12.1714H41.8401L43.8772 17.7905L45.7024 12.1714H47.1448L44.2464 20.0942C44.0276 20.6867 43.7246 21.1401 43.3372 21.4546C42.8268 21.8647 42.1455 22.0698 41.2932 22.0698C41.2158 22.0698 41.136 22.0653 41.054 22.0562L40.8011 22.0288V20.9761ZM54.7603 11.8091L52.3062 13.4839V12.103L55.3619 9.9292H56.1207V19.2261H54.7603V11.8091ZM57.9631 14.646C57.9631 13.1512 58.314 11.9868 59.0158 11.1528C59.704 10.3371 60.6428 9.9292 61.8322 9.9292C63.0034 9.9292 63.924 10.3371 64.5939 11.1528C65.2867 11.9914 65.633 13.1558 65.633 14.646C65.633 16.1362 65.2867 17.2961 64.5939 18.1255C63.924 18.9321 63.0034 19.3354 61.8322 19.3354C60.6428 19.3354 59.704 18.9321 59.0158 18.1255C58.314 17.3006 57.9631 16.1408 57.9631 14.646ZM61.8186 18.2964C62.288 18.2964 62.6753 18.2007 62.9807 18.0093C63.286 17.8179 63.5275 17.5581 63.7053 17.23C64.0334 16.6284 64.1975 15.7694 64.1975 14.6528C64.1975 12.9028 63.7919 11.7703 62.9807 11.2554C62.6753 11.064 62.2925 10.9683 61.8322 10.9683C60.9709 10.9683 60.3374 11.3283 59.9318 12.0483C59.5764 12.6772 59.3986 13.5409 59.3986 14.6392C59.3986 17.0773 60.2053 18.2964 61.8186 18.2964ZM67.5438 17.9546H68.8631V19.2261C68.8631 20.1102 68.6922 20.7619 68.3504 21.1812C67.9676 21.646 67.3433 21.8784 66.4774 21.8784V20.7505C67.0516 20.7505 67.3888 20.4657 67.4891 19.896C67.5256 19.7046 67.5438 19.4813 67.5438 19.2261V17.9546ZM75.3575 10.1206C76.1551 9.993 76.8523 9.9292 77.4493 9.9292C78.0509 9.9292 78.559 9.97249 78.9738 10.0591C79.393 10.1457 79.7462 10.2619 80.0333 10.4077C80.325 10.549 80.5597 10.7108 80.7374 10.8931C80.9152 11.0754 81.0519 11.2645 81.1476 11.4604C81.3071 11.7795 81.3868 12.1121 81.3868 12.4585C81.3868 12.8049 81.3344 13.1216 81.2296 13.4087C81.1294 13.6912 80.9835 13.9784 80.7921 14.27C80.6007 14.5617 80.366 14.8647 80.088 15.1792L79.1583 16.2046L77.381 18.0229H81.38V19.2261H75.1251V18.5972L78.0167 15.6646L78.9396 14.687C79.4545 14.1219 79.7781 13.6434 79.9103 13.2515C79.9832 13.0418 80.0196 12.8436 80.0196 12.6567C80.0196 12.4653 79.9923 12.2853 79.9376 12.1167C79.8829 11.9481 79.7667 11.7931 79.589 11.6519C79.1743 11.3146 78.518 11.146 77.6202 11.146C76.7224 11.146 75.9682 11.2417 75.3575 11.4331V10.1206ZM83.0789 14.646C83.0789 13.1512 83.4298 11.9868 84.1316 11.1528C84.8198 10.3371 85.7586 9.9292 86.948 9.9292C88.1192 9.9292 89.0398 10.3371 89.7097 11.1528C90.4024 11.9914 90.7488 13.1558 90.7488 14.646C90.7488 16.1362 90.4024 17.2961 89.7097 18.1255C89.0398 18.9321 88.1192 19.3354 86.948 19.3354C85.7586 19.3354 84.8198 18.9321 84.1316 18.1255C83.4298 17.3006 83.0789 16.1408 83.0789 14.646ZM86.9343 18.2964C87.4037 18.2964 87.7911 18.2007 88.0964 18.0093C88.4018 17.8179 88.6433 17.5581 88.8211 17.23C89.1492 16.6284 89.3132 15.7694 89.3132 14.6528C89.3132 12.9028 88.9076 11.7703 88.0964 11.2554C87.7911 11.064 87.4083 10.9683 86.948 10.9683C86.0867 10.9683 85.4532 11.3283 85.0476 12.0483C84.6922 12.6772 84.5144 13.5409 84.5144 14.6392C84.5144 17.0773 85.3211 18.2964 86.9343 18.2964ZM92.393 17.7837C93.0128 17.9569 93.7647 18.0435 94.6488 18.0435C95.5329 18.0435 96.2006 17.9022 96.6518 17.6196C97.1075 17.3325 97.3354 16.8768 97.3354 16.2524C97.3354 15.6828 97.1439 15.2681 96.7611 15.0083C96.3191 14.703 95.5831 14.5503 94.5531 14.5503H92.6459V9.95654H98.2582V11.2417H93.9584V13.4019H94.7582C96.1391 13.4019 97.1439 13.6252 97.7729 14.0718C98.42 14.5321 98.7436 15.2681 98.7436 16.2798C98.7436 17.1685 98.42 17.8771 97.7729 18.4058C97.0619 18.9937 96.0183 19.2876 94.642 19.2876C93.6348 19.2876 92.8852 19.2284 92.393 19.1099V17.7837ZM106.943 11.3306C106.506 11.1938 105.975 11.1255 105.351 11.1255C104.726 11.1255 104.2 11.2052 103.772 11.3647C103.343 11.5197 102.988 11.7384 102.705 12.021C102.149 12.5724 101.871 13.3244 101.871 14.2769C102.4 13.8895 103.029 13.6252 103.758 13.4839C104.013 13.4383 104.328 13.4155 104.701 13.4155C105.075 13.4155 105.46 13.4793 105.856 13.6069C106.258 13.73 106.602 13.9123 106.889 14.1538C107.486 14.6688 107.784 15.3934 107.784 16.3276C107.784 17.2983 107.404 18.0571 106.643 18.604C105.964 19.0916 105.152 19.3354 104.209 19.3354C103.001 19.3354 102.076 18.939 101.434 18.146C100.814 17.3895 100.504 16.3368 100.504 14.9878V14.5708C100.504 13.1672 100.946 12.0392 101.83 11.187C102.705 10.3485 103.86 9.9292 105.296 9.9292H105.713C106.26 9.9292 106.67 9.95426 106.943 10.0044V11.3306ZM101.885 15.3091C101.885 16.6763 102.315 17.59 103.177 18.0503C103.478 18.2144 103.81 18.2964 104.175 18.2964C104.539 18.2964 104.854 18.2554 105.118 18.1733C105.387 18.0868 105.622 17.9637 105.822 17.8042C106.246 17.4533 106.458 16.9839 106.458 16.396C106.458 15.8081 106.258 15.341 105.856 14.9946C105.455 14.6437 104.913 14.4683 104.23 14.4683C103.523 14.4683 102.865 14.6551 102.254 15.0288C102.094 15.1291 101.971 15.2225 101.885 15.3091Z" fill="white"/>
</svg>
