<svg width="122" height="14" viewBox="0 0 122 14" fill="none" xmlns="http://www.w3.org/2000/svg">
<path d="M0.162109 1.48438H2.8623C4.66243 1.48438 5.82227 2.01758 6.3418 3.08398C6.52865 3.47591 6.62207 3.91797 6.62207 4.41016C6.62207 4.89779 6.55599 5.31022 6.42383 5.64746C6.29622 5.9847 6.11621 6.27409 5.88379 6.51562C5.43717 6.98047 4.82194 7.28581 4.03809 7.43164C4.36165 8.42969 4.91081 9.11784 5.68555 9.49609C5.94076 9.6237 6.15495 9.69206 6.32812 9.70117C6.61979 9.71029 6.82487 9.70117 6.94336 9.67383V11H6.63574C5.61035 11 4.73763 10.6354 4.01758 9.90625C3.38411 9.27279 2.95801 8.47526 2.73926 7.51367H1.5293V11H0.162109V1.48438ZM2.77344 6.41992C3.59831 6.41992 4.20898 6.26042 4.60547 5.94141C5.00195 5.6224 5.2002 5.12565 5.2002 4.45117C5.2002 3.55339 4.7832 2.97461 3.94922 2.71484C3.65755 2.6237 3.30436 2.57812 2.88965 2.57812H1.5293V6.41992H2.77344ZM11.3903 11.1094C8.81085 11.1094 7.52113 9.84928 7.52113 7.3291C7.52113 6.24447 7.87888 5.3763 8.59437 4.72461C9.23695 4.13216 9.97068 3.83594 10.7955 3.83594C11.6933 3.83594 12.3952 4.13672 12.901 4.73828C13.3704 5.29883 13.6051 6.0485 13.6051 6.9873V7.52051H8.94301C8.94301 8.81022 9.46937 9.59863 10.5221 9.88574C10.7728 9.9541 11.1579 9.98828 11.6774 9.98828C12.2015 9.98828 12.7142 9.91764 13.2155 9.77637V10.9316C12.7142 11.0501 12.1058 11.1094 11.3903 11.1094ZM12.2379 6.51562C12.2379 6.07812 12.1172 5.70898 11.8756 5.4082C11.5931 5.06185 11.2034 4.88867 10.7067 4.88867C10.1826 4.88867 9.75648 5.05501 9.42836 5.3877C9.12758 5.69759 8.97719 6.07357 8.97719 6.51562H12.2379ZM18.9817 13.6934C18.5852 13.7936 18.0748 13.8438 17.4505 13.8438C16.8307 13.8438 16.3772 13.7982 16.0901 13.707V12.4902C16.4501 12.6452 16.8899 12.7227 17.4095 12.7227C17.9335 12.7272 18.3186 12.693 18.5647 12.6201C18.8108 12.5472 19.0045 12.4287 19.1458 12.2646C19.401 11.9684 19.5286 11.4329 19.5286 10.6582V10.2959C19.1822 10.6423 18.7265 10.8838 18.1614 11.0205C17.9335 11.0752 17.7057 11.1025 17.4778 11.1025C17.2499 11.1025 17.0266 11.0775 16.8079 11.0273C16.5937 10.9772 16.3795 10.8975 16.1653 10.7881C15.9511 10.6742 15.746 10.5283 15.5501 10.3506C15.3541 10.1683 15.1809 9.94271 15.0305 9.67383C14.6933 9.09049 14.5247 8.37272 14.5247 7.52051C14.5156 6.7321 14.7434 6.03939 15.2083 5.44238C15.6093 4.92285 16.1608 4.51953 16.8626 4.23242C17.5006 3.9681 18.191 3.83594 18.9339 3.83594C19.6767 3.83594 20.3307 3.8724 20.8958 3.94531V10.6582C20.8958 12.3626 20.2578 13.3743 18.9817 13.6934ZM19.5286 4.94336C19.2369 4.9069 18.9498 4.88867 18.6673 4.88867C18.3847 4.88867 18.068 4.94108 17.7171 5.0459C17.3662 5.15072 17.0585 5.31022 16.7942 5.52441C16.2154 5.99382 15.9261 6.65918 15.9261 7.52051C15.9261 8.45475 16.1516 9.13607 16.6028 9.56445C16.9401 9.88802 17.3525 10.0498 17.8401 10.0498C18.428 10.0498 18.9225 9.84245 19.3235 9.42773C19.4192 9.32292 19.4876 9.22949 19.5286 9.14746V4.94336ZM27.5917 9.27051V3.94531H28.9589V11H27.7284L27.6054 10.2549C26.9309 10.8245 26.1858 11.1094 25.37 11.1094C24.5042 11.1094 23.8912 10.8701 23.5312 10.3916C23.1575 9.90397 22.9706 9.06315 22.9706 7.86914V3.94531H24.3378V7.80078C24.3378 8.64388 24.4586 9.2181 24.7001 9.52344C24.9143 9.79688 25.3222 9.93359 25.9237 9.93359C26.5299 9.93359 27.0859 9.71257 27.5917 9.27051ZM31.3209 0.828125H32.688V8.32715C32.688 9.22949 32.8931 9.76042 33.3033 9.91992C33.44 9.97461 33.5858 10.002 33.7408 10.002C33.8957 10.002 34.0347 9.98372 34.1578 9.94727V11L33.9048 11.0273C33.8228 11.0365 33.7431 11.041 33.6656 11.041C32.7906 11.041 32.1594 10.7539 31.772 10.1797C31.4713 9.72852 31.3209 9.11328 31.3209 8.33398V0.828125ZM35.8771 9.74219C35.7268 9.48242 35.606 9.17708 35.5148 8.82617C35.4283 8.47526 35.385 8.01725 35.385 7.45215C35.385 6.88704 35.5057 6.36751 35.7473 5.89355C35.9934 5.41504 36.3124 5.02311 36.7043 4.71777C37.4654 4.12988 38.411 3.83594 39.5412 3.83594C40.1291 3.83594 40.5734 3.84961 40.8742 3.87695C40.8742 3.87695 41.0952 3.89974 41.5373 3.94531V11H40.3068L40.2521 10.1865C39.9787 10.5511 39.5617 10.8223 39.0012 11C38.787 11.0684 38.5659 11.1025 38.3381 11.1025C38.1148 11.1025 37.8937 11.0798 37.675 11.0342C37.4562 10.9886 37.2375 10.9134 37.0187 10.8086C36.8046 10.7038 36.5995 10.5648 36.4035 10.3916C36.2076 10.2139 36.0321 9.9974 35.8771 9.74219ZM40.1701 4.9502C39.8784 4.91374 39.5868 4.89551 39.2951 4.89551C39.008 4.89551 38.7004 4.94792 38.3723 5.05273C38.0441 5.15299 37.7639 5.3125 37.5314 5.53125C37.0484 5.98698 36.8068 6.68197 36.8068 7.61621C36.8068 8.50033 37.0142 9.1543 37.4289 9.57812C37.7434 9.89258 38.1216 10.0498 38.5637 10.0498C39.1333 10.0498 39.6027 9.84245 39.9719 9.42773C40.063 9.32292 40.1291 9.22949 40.1701 9.14746V4.9502ZM48.0692 5.19629C47.8185 5.12337 47.5177 5.08691 47.1668 5.08691C46.8205 5.08691 46.5357 5.12337 46.3123 5.19629C46.089 5.26465 45.8931 5.34896 45.7245 5.44922C45.4146 5.63151 45.189 5.83659 45.0477 6.06445V11H43.6805V3.94531H44.993L45.0477 4.92285C45.3895 4.49447 45.8885 4.17318 46.5448 3.95898C46.7817 3.87695 47.0529 3.83594 47.3582 3.83594C47.6636 3.83594 47.9006 3.85872 48.0692 3.9043V5.19629ZM57.3868 1.85352C57.2228 1.79883 56.9949 1.77148 56.7032 1.77148C56.4116 1.77148 56.1792 1.79883 56.006 1.85352C55.8374 1.9082 55.7029 1.98796 55.6027 2.09277C55.4295 2.27962 55.3429 2.58496 55.3429 3.00879V3.94531H57.1066V4.99121H55.3429V11H53.9757V4.99121H53.128V4.34863L53.9757 3.94531V3.19336C53.9757 2.71484 54.0167 2.35482 54.0988 2.11328C54.1853 1.87174 54.2879 1.67122 54.4064 1.51172C54.5249 1.35221 54.6844 1.21322 54.8849 1.09473C55.3087 0.844076 55.9034 0.71875 56.6691 0.71875C56.9881 0.71875 57.2273 0.736979 57.3868 0.773438V1.85352ZM59.9334 1.89453C59.9334 2.1543 59.8468 2.35482 59.6736 2.49609C59.505 2.63281 59.2931 2.70117 59.0379 2.70117C58.7826 2.70117 58.5707 2.63281 58.4021 2.49609C58.238 2.35482 58.156 2.1543 58.156 1.89453C58.156 1.63021 58.238 1.42969 58.4021 1.29297C58.5707 1.15625 58.7826 1.08789 59.0379 1.08789C59.2931 1.08789 59.505 1.15625 59.6736 1.29297C59.8468 1.42969 59.9334 1.63021 59.9334 1.89453ZM58.3338 3.94531H59.7009V11H58.3338V3.94531ZM63.4437 11.1094C62.8741 11.1094 62.2976 11.0684 61.7143 10.9863V9.77637C62.3067 9.91764 62.9083 9.98828 63.5189 9.98828C64.7403 9.98828 65.351 9.73079 65.351 9.21582C65.351 9.01986 65.3031 8.87402 65.2074 8.77832C65.0661 8.62793 64.8428 8.47754 64.5375 8.32715L63.5395 7.86914C62.8923 7.54557 62.473 7.28581 62.2816 7.08984C61.9216 6.72526 61.7416 6.29232 61.7416 5.79102C61.7416 5.22591 62.0036 4.76562 62.5277 4.41016C63.0928 4.02734 63.8858 3.83594 64.9066 3.83594C65.4216 3.83594 65.9411 3.8724 66.4652 3.94531V5.11426C65.891 5.00944 65.3897 4.95703 64.9613 4.95703C64.5375 4.95703 64.2071 4.98438 63.9701 5.03906C63.7377 5.09375 63.5622 5.16211 63.4437 5.24414C63.2569 5.37174 63.1635 5.53809 63.1635 5.74316C63.1635 5.94368 63.2273 6.10775 63.3549 6.23535C63.487 6.3584 63.6921 6.49284 63.9701 6.63867L64.975 7.12402C65.6312 7.46582 66.0528 7.72786 66.2396 7.91016C66.5951 8.25651 66.7729 8.69173 66.7729 9.21582C66.7729 9.77637 66.4903 10.2275 65.9252 10.5693C65.3327 10.9294 64.5056 11.1094 63.4437 11.1094ZM71.7461 5.01172C71.0717 5.01172 70.4701 5.24186 69.9414 5.70215V11H68.5743V0.828125H69.9414V4.7041C70.6797 4.12533 71.4431 3.83594 72.2315 3.83594C73.0746 3.83594 73.6921 4.08659 74.084 4.58789C74.4942 5.11654 74.6993 5.96875 74.6993 7.14453V11H73.3321V7.14453C73.3321 6.01432 73.0245 5.33984 72.4092 5.12109C72.2133 5.04818 71.9922 5.01172 71.7461 5.01172ZM86.054 10.2139C85.6621 10.5192 85.2178 10.7448 84.721 10.8906C84.2288 11.0319 83.6956 11.1025 83.1214 11.1025C82.5517 11.1025 81.9137 11.0684 81.2073 11V0.828125H82.5745V4.64941C82.8753 4.30762 83.2923 4.0638 83.8255 3.91797C84.026 3.86328 84.2311 3.83594 84.4407 3.83594C84.6549 3.83594 84.8714 3.85872 85.0902 3.9043C85.3089 3.94531 85.5254 4.01823 85.7396 4.12305C85.9583 4.22786 86.1657 4.36686 86.3616 4.54004C86.5576 4.71322 86.7308 4.92969 86.8812 5.18945C87.2139 5.74544 87.3802 6.40625 87.3802 7.17188C87.3802 7.93294 87.2571 8.55273 87.0111 9.03125C86.7695 9.50977 86.4505 9.90397 86.054 10.2139ZM82.5814 9.99512C82.709 10.0316 82.9596 10.0498 83.3333 10.0498C83.707 10.0498 84.0579 9.9974 84.3861 9.89258C84.7142 9.78776 84.9945 9.6237 85.2269 9.40039C85.7145 8.93099 85.9583 8.23145 85.9583 7.30176C85.9583 6.16699 85.6279 5.42415 84.9671 5.07324C84.7301 4.9502 84.4886 4.88867 84.2425 4.88867C83.9964 4.88867 83.7822 4.92057 83.5999 4.98438C83.4176 5.04818 83.2581 5.12565 83.1214 5.2168C82.8616 5.39453 82.6816 5.58594 82.5814 5.79102V9.99512ZM93.7275 9.27051V3.94531H95.0947V11H93.8642L93.7412 10.2549C93.0667 10.8245 92.3216 11.1094 91.5058 11.1094C90.6399 11.1094 90.027 10.8701 89.667 10.3916C89.2933 9.90397 89.1064 9.06315 89.1064 7.86914V3.94531H90.4736V7.80078C90.4736 8.64388 90.5944 9.2181 90.8359 9.52344C91.0501 9.79688 91.458 9.93359 92.0595 9.93359C92.6657 9.93359 93.2216 9.71257 93.7275 9.27051ZM102.228 10.9795C101.955 11.0661 101.481 11.1094 100.806 11.1094C100.132 11.1094 99.5576 11.0273 99.0836 10.8633C98.6142 10.6992 98.2132 10.4577 97.8805 10.1387C97.1923 9.47786 96.8482 8.56185 96.8482 7.39062C96.8482 6.25586 97.2607 5.36263 98.0855 4.71094C98.8238 4.1276 99.7307 3.83594 100.806 3.83594C101.472 3.83594 101.927 3.85872 102.173 3.9043V5.12109C101.791 4.99805 101.353 4.93652 100.861 4.93652C100.373 4.93652 99.9677 5.00488 99.6441 5.1416C99.3206 5.27376 99.0563 5.45378 98.8512 5.68164C98.4638 6.11458 98.2701 6.68424 98.2701 7.39062C98.2701 8.58464 98.7008 9.37988 99.5621 9.77637C99.8674 9.91764 100.166 9.98828 100.458 9.98828C100.749 9.98828 100.973 9.98145 101.128 9.96777C101.287 9.9541 101.437 9.93587 101.579 9.91309C101.879 9.86296 102.096 9.81055 102.228 9.75586V10.9795ZM104.112 0.834961H105.479V7.10352L108.336 3.94531H109.963L106.921 7.14453L110.12 11H108.452L105.479 7.4043V11H104.112V0.834961ZM114.164 11.1094C111.585 11.1094 110.295 9.84928 110.295 7.3291C110.295 6.24447 110.653 5.3763 111.368 4.72461C112.011 4.13216 112.744 3.83594 113.569 3.83594C114.467 3.83594 115.169 4.13672 115.675 4.73828C116.144 5.29883 116.379 6.0485 116.379 6.9873V7.52051H111.717C111.717 8.81022 112.243 9.59863 113.296 9.88574C113.546 9.9541 113.932 9.98828 114.451 9.98828C114.975 9.98828 115.488 9.91764 115.989 9.77637V10.9316C115.488 11.0501 114.879 11.1094 114.164 11.1094ZM115.012 6.51562C115.012 6.07812 114.891 5.70898 114.649 5.4082C114.367 5.06185 113.977 4.88867 113.48 4.88867C112.956 4.88867 112.53 5.05501 112.202 5.3877C111.901 5.69759 111.751 6.07357 111.751 6.51562H115.012ZM120.279 9.91992C120.429 9.97461 120.657 10.002 120.962 10.002C121.268 10.002 121.523 9.96549 121.728 9.89258V10.9863C121.632 11.0091 121.493 11.0228 121.311 11.0273L120.88 11.041C120.785 11.041 120.712 11.041 120.662 11.041C119.782 11.041 119.133 10.7539 118.713 10.1797C118.376 9.71484 118.208 9.09961 118.208 8.33398V4.99121H117.196V4.34863L118.208 3.94531L118.536 2.19531H119.575V3.94531H121.762V4.99121H119.575V8.32715C119.575 9.22038 119.809 9.7513 120.279 9.91992Z" fill="#082831"/>
</svg>
