<svg width="121" height="14" viewBox="0 0 121 14" fill="none" xmlns="http://www.w3.org/2000/svg">
<path d="M0.162109 1.48438H2.8623C4.66243 1.48438 5.82227 2.01758 6.3418 3.08398C6.52865 3.47591 6.62207 3.91797 6.62207 4.41016C6.62207 4.89779 6.55599 5.31022 6.42383 5.64746C6.29622 5.9847 6.11621 6.27409 5.88379 6.51562C5.43717 6.98047 4.82194 7.28581 4.03809 7.43164C4.36165 8.42969 4.91081 9.11784 5.68555 9.49609C5.94076 9.6237 6.15495 9.69206 6.32812 9.70117C6.61979 9.71029 6.82487 9.70117 6.94336 9.67383V11H6.63574C5.61035 11 4.73763 10.6354 4.01758 9.90625C3.38411 9.27279 2.95801 8.47526 2.73926 7.51367H1.5293V11H0.162109V1.48438ZM2.77344 6.41992C3.59831 6.41992 4.20898 6.26042 4.60547 5.94141C5.00195 5.6224 5.2002 5.12565 5.2002 4.45117C5.2002 3.55339 4.7832 2.97461 3.94922 2.71484C3.65755 2.6237 3.30436 2.57812 2.88965 2.57812H1.5293V6.41992H2.77344ZM11.3903 11.1094C8.81085 11.1094 7.52113 9.84928 7.52113 7.3291C7.52113 6.24447 7.87888 5.3763 8.59437 4.72461C9.23695 4.13216 9.97068 3.83594 10.7955 3.83594C11.6933 3.83594 12.3952 4.13672 12.901 4.73828C13.3704 5.29883 13.6051 6.0485 13.6051 6.9873V7.52051H8.94301C8.94301 8.81022 9.46937 9.59863 10.5221 9.88574C10.7728 9.9541 11.1579 9.98828 11.6774 9.98828C12.2015 9.98828 12.7142 9.91764 13.2155 9.77637V10.9316C12.7142 11.0501 12.1058 11.1094 11.3903 11.1094ZM12.2379 6.51562C12.2379 6.07812 12.1172 5.70898 11.8756 5.4082C11.5931 5.06185 11.2034 4.88867 10.7067 4.88867C10.1826 4.88867 9.75648 5.05501 9.42836 5.3877C9.12758 5.69759 8.97719 6.07357 8.97719 6.51562H12.2379ZM18.9817 13.6934C18.5852 13.7936 18.0748 13.8438 17.4505 13.8438C16.8307 13.8438 16.3772 13.7982 16.0901 13.707V12.4902C16.4501 12.6452 16.8899 12.7227 17.4095 12.7227C17.9335 12.7272 18.3186 12.693 18.5647 12.6201C18.8108 12.5472 19.0045 12.4287 19.1458 12.2646C19.401 11.9684 19.5286 11.4329 19.5286 10.6582V10.2959C19.1822 10.6423 18.7265 10.8838 18.1614 11.0205C17.9335 11.0752 17.7057 11.1025 17.4778 11.1025C17.2499 11.1025 17.0266 11.0775 16.8079 11.0273C16.5937 10.9772 16.3795 10.8975 16.1653 10.7881C15.9511 10.6742 15.746 10.5283 15.5501 10.3506C15.3541 10.1683 15.1809 9.94271 15.0305 9.67383C14.6933 9.09049 14.5247 8.37272 14.5247 7.52051C14.5156 6.7321 14.7434 6.03939 15.2083 5.44238C15.6093 4.92285 16.1608 4.51953 16.8626 4.23242C17.5006 3.9681 18.191 3.83594 18.9339 3.83594C19.6767 3.83594 20.3307 3.8724 20.8958 3.94531V10.6582C20.8958 12.3626 20.2578 13.3743 18.9817 13.6934ZM19.5286 4.94336C19.2369 4.9069 18.9498 4.88867 18.6673 4.88867C18.3847 4.88867 18.068 4.94108 17.7171 5.0459C17.3662 5.15072 17.0585 5.31022 16.7942 5.52441C16.2154 5.99382 15.9261 6.65918 15.9261 7.52051C15.9261 8.45475 16.1516 9.13607 16.6028 9.56445C16.9401 9.88802 17.3525 10.0498 17.8401 10.0498C18.428 10.0498 18.9225 9.84245 19.3235 9.42773C19.4192 9.32292 19.4876 9.22949 19.5286 9.14746V4.94336ZM27.5917 9.27051V3.94531H28.9589V11H27.7284L27.6054 10.2549C26.9309 10.8245 26.1858 11.1094 25.37 11.1094C24.5042 11.1094 23.8912 10.8701 23.5312 10.3916C23.1575 9.90397 22.9706 9.06315 22.9706 7.86914V3.94531H24.3378V7.80078C24.3378 8.64388 24.4586 9.2181 24.7001 9.52344C24.9143 9.79688 25.3222 9.93359 25.9237 9.93359C26.5299 9.93359 27.0859 9.71257 27.5917 9.27051ZM31.3209 0.828125H32.688V8.32715C32.688 9.22949 32.8931 9.76042 33.3033 9.91992C33.44 9.97461 33.5858 10.002 33.7408 10.002C33.8957 10.002 34.0347 9.98372 34.1578 9.94727V11L33.9048 11.0273C33.8228 11.0365 33.7431 11.041 33.6656 11.041C32.7906 11.041 32.1594 10.7539 31.772 10.1797C31.4713 9.72852 31.3209 9.11328 31.3209 8.33398V0.828125ZM35.8771 9.74219C35.7268 9.48242 35.606 9.17708 35.5148 8.82617C35.4283 8.47526 35.385 8.01725 35.385 7.45215C35.385 6.88704 35.5057 6.36751 35.7473 5.89355C35.9934 5.41504 36.3124 5.02311 36.7043 4.71777C37.4654 4.12988 38.411 3.83594 39.5412 3.83594C40.1291 3.83594 40.5734 3.84961 40.8742 3.87695C40.8742 3.87695 41.0952 3.89974 41.5373 3.94531V11H40.3068L40.2521 10.1865C39.9787 10.5511 39.5617 10.8223 39.0012 11C38.787 11.0684 38.5659 11.1025 38.3381 11.1025C38.1148 11.1025 37.8937 11.0798 37.675 11.0342C37.4562 10.9886 37.2375 10.9134 37.0187 10.8086C36.8046 10.7038 36.5995 10.5648 36.4035 10.3916C36.2076 10.2139 36.0321 9.9974 35.8771 9.74219ZM40.1701 4.9502C39.8784 4.91374 39.5868 4.89551 39.2951 4.89551C39.008 4.89551 38.7004 4.94792 38.3723 5.05273C38.0441 5.15299 37.7639 5.3125 37.5314 5.53125C37.0484 5.98698 36.8068 6.68197 36.8068 7.61621C36.8068 8.50033 37.0142 9.1543 37.4289 9.57812C37.7434 9.89258 38.1216 10.0498 38.5637 10.0498C39.1333 10.0498 39.6027 9.84245 39.9719 9.42773C40.063 9.32292 40.1291 9.22949 40.1701 9.14746V4.9502ZM48.0692 5.19629C47.8185 5.12337 47.5177 5.08691 47.1668 5.08691C46.8205 5.08691 46.5357 5.12337 46.3123 5.19629C46.089 5.26465 45.8931 5.34896 45.7245 5.44922C45.4146 5.63151 45.189 5.83659 45.0477 6.06445V11H43.6805V3.94531H44.993L45.0477 4.92285C45.3895 4.49447 45.8885 4.17318 46.5448 3.95898C46.7817 3.87695 47.0529 3.83594 47.3582 3.83594C47.6636 3.83594 47.9006 3.85872 48.0692 3.9043V5.19629ZM57.3868 1.85352C57.2228 1.79883 56.9949 1.77148 56.7032 1.77148C56.4116 1.77148 56.1792 1.79883 56.006 1.85352C55.8374 1.9082 55.7029 1.98796 55.6027 2.09277C55.4295 2.27962 55.3429 2.58496 55.3429 3.00879V3.94531H57.1066V4.99121H55.3429V11H53.9757V4.99121H53.128V4.34863L53.9757 3.94531V3.19336C53.9757 2.71484 54.0167 2.35482 54.0988 2.11328C54.1853 1.87174 54.2879 1.67122 54.4064 1.51172C54.5249 1.35221 54.6844 1.21322 54.8849 1.09473C55.3087 0.844076 55.9034 0.71875 56.6691 0.71875C56.9881 0.71875 57.2273 0.736979 57.3868 0.773438V1.85352ZM59.9334 1.89453C59.9334 2.1543 59.8468 2.35482 59.6736 2.49609C59.505 2.63281 59.2931 2.70117 59.0379 2.70117C58.7826 2.70117 58.5707 2.63281 58.4021 2.49609C58.238 2.35482 58.156 2.1543 58.156 1.89453C58.156 1.63021 58.238 1.42969 58.4021 1.29297C58.5707 1.15625 58.7826 1.08789 59.0379 1.08789C59.2931 1.08789 59.505 1.15625 59.6736 1.29297C59.8468 1.42969 59.9334 1.63021 59.9334 1.89453ZM58.3338 3.94531H59.7009V11H58.3338V3.94531ZM63.4437 11.1094C62.8741 11.1094 62.2976 11.0684 61.7143 10.9863V9.77637C62.3067 9.91764 62.9083 9.98828 63.5189 9.98828C64.7403 9.98828 65.351 9.73079 65.351 9.21582C65.351 9.01986 65.3031 8.87402 65.2074 8.77832C65.0661 8.62793 64.8428 8.47754 64.5375 8.32715L63.5395 7.86914C62.8923 7.54557 62.473 7.28581 62.2816 7.08984C61.9216 6.72526 61.7416 6.29232 61.7416 5.79102C61.7416 5.22591 62.0036 4.76562 62.5277 4.41016C63.0928 4.02734 63.8858 3.83594 64.9066 3.83594C65.4216 3.83594 65.9411 3.8724 66.4652 3.94531V5.11426C65.891 5.00944 65.3897 4.95703 64.9613 4.95703C64.5375 4.95703 64.2071 4.98438 63.9701 5.03906C63.7377 5.09375 63.5622 5.16211 63.4437 5.24414C63.2569 5.37174 63.1635 5.53809 63.1635 5.74316C63.1635 5.94368 63.2273 6.10775 63.3549 6.23535C63.487 6.3584 63.6921 6.49284 63.9701 6.63867L64.975 7.12402C65.6312 7.46582 66.0528 7.72786 66.2396 7.91016C66.5951 8.25651 66.7729 8.69173 66.7729 9.21582C66.7729 9.77637 66.4903 10.2275 65.9252 10.5693C65.3327 10.9294 64.5056 11.1094 63.4437 11.1094ZM71.7461 5.01172C71.0717 5.01172 70.4701 5.24186 69.9414 5.70215V11H68.5743V0.828125H69.9414V4.7041C70.6797 4.12533 71.4431 3.83594 72.2315 3.83594C73.0746 3.83594 73.6921 4.08659 74.084 4.58789C74.4942 5.11654 74.6993 5.96875 74.6993 7.14453V11H73.3321V7.14453C73.3321 6.01432 73.0245 5.33984 72.4092 5.12109C72.2133 5.04818 71.9922 5.01172 71.7461 5.01172ZM78.1891 1.89453C78.1891 2.1543 78.1026 2.35482 77.9294 2.49609C77.7608 2.63281 77.5488 2.70117 77.2936 2.70117C77.0384 2.70117 76.8265 2.63281 76.6579 2.49609C76.4938 2.35482 76.4118 2.1543 76.4118 1.89453C76.4118 1.63021 76.4938 1.42969 76.6579 1.29297C76.8265 1.15625 77.0384 1.08789 77.2936 1.08789C77.5488 1.08789 77.7608 1.15625 77.9294 1.29297C78.1026 1.42969 78.1891 1.63021 78.1891 1.89453ZM76.5895 3.94531H77.9567V11H76.5895V3.94531ZM83.1488 5.01172C82.4697 5.01172 81.8659 5.24186 81.3372 5.70215V11H79.97V3.94531H81.2347L81.3304 4.71094C82.0732 4.1276 82.8411 3.83594 83.6341 3.83594C84.4726 3.83594 85.0879 4.08659 85.4798 4.58789C85.89 5.11654 86.095 5.96875 86.095 7.14453V11H84.7279V7.14453C84.7279 6.01432 84.4225 5.33984 83.8118 5.12109C83.6159 5.04818 83.3948 5.01172 83.1488 5.01172ZM92.0185 13.6934C91.622 13.7936 91.1116 13.8438 90.4873 13.8438C89.8675 13.8438 89.414 13.7982 89.1269 13.707V12.4902C89.4869 12.6452 89.9267 12.7227 90.4463 12.7227C90.9703 12.7272 91.3554 12.693 91.6015 12.6201C91.8476 12.5472 92.0413 12.4287 92.1826 12.2646C92.4378 11.9684 92.5654 11.4329 92.5654 10.6582V10.2959C92.219 10.6423 91.7633 10.8838 91.1982 11.0205C90.9703 11.0752 90.7425 11.1025 90.5146 11.1025C90.2867 11.1025 90.0634 11.0775 89.8447 11.0273C89.6305 10.9772 89.4163 10.8975 89.2021 10.7881C88.9879 10.6742 88.7828 10.5283 88.5869 10.3506C88.3909 10.1683 88.2177 9.94271 88.0673 9.67383C87.7301 9.09049 87.5615 8.37272 87.5615 7.52051C87.5524 6.7321 87.7802 6.03939 88.2451 5.44238C88.6461 4.92285 89.1976 4.51953 89.8994 4.23242C90.5374 3.9681 91.2278 3.83594 91.9707 3.83594C92.7135 3.83594 93.3675 3.8724 93.9326 3.94531V10.6582C93.9326 12.3626 93.2946 13.3743 92.0185 13.6934ZM92.5654 4.94336C92.2737 4.9069 91.9866 4.88867 91.7041 4.88867C91.4215 4.88867 91.1048 4.94108 90.7539 5.0459C90.403 5.15072 90.0953 5.31022 89.831 5.52441C89.2522 5.99382 88.9629 6.65918 88.9629 7.52051C88.9629 8.45475 89.1884 9.13607 89.6396 9.56445C89.9768 9.88802 90.3893 10.0498 90.8769 10.0498C91.4648 10.0498 91.9593 9.84245 92.3603 9.42773C92.456 9.32292 92.5244 9.22949 92.5654 9.14746V4.94336ZM105.034 5.19629C104.784 5.12337 104.483 5.08691 104.132 5.08691C103.786 5.08691 103.501 5.12337 103.278 5.19629C103.054 5.26465 102.858 5.34896 102.69 5.44922C102.38 5.63151 102.154 5.83659 102.013 6.06445V11H100.646V3.94531H101.958L102.013 4.92285C102.355 4.49447 102.854 4.17318 103.51 3.95898C103.747 3.87695 104.018 3.83594 104.323 3.83594C104.629 3.83594 104.866 3.85872 105.034 3.9043V5.19629ZM105.79 7.45898C105.79 6.35156 106.143 5.45378 106.849 4.76562C107.51 4.12305 108.328 3.80176 109.304 3.80176C110.261 3.80176 111.06 4.12305 111.703 4.76562C112.387 5.44922 112.728 6.34701 112.728 7.45898C112.728 8.56641 112.384 9.45964 111.696 10.1387C111.044 10.7858 110.245 11.1094 109.297 11.1094C108.335 11.1094 107.519 10.7858 106.849 10.1387C106.143 9.45964 105.79 8.56641 105.79 7.45898ZM107.212 7.45898C107.212 8.62565 107.585 9.41862 108.333 9.83789C108.597 9.98372 108.914 10.0566 109.283 10.0566C109.652 10.0566 109.964 9.98372 110.22 9.83789C110.475 9.6875 110.684 9.49154 110.849 9.25C111.154 8.78516 111.307 8.18815 111.307 7.45898C111.307 6.30143 110.94 5.50846 110.206 5.08008C109.951 4.92969 109.645 4.85449 109.29 4.85449C108.934 4.85449 108.625 4.92969 108.36 5.08008C108.1 5.22591 107.886 5.4196 107.718 5.66113C107.38 6.13509 107.212 6.73438 107.212 7.45898ZM115.336 4.71777C115.733 4.41243 116.177 4.18913 116.669 4.04785C117.166 3.90658 117.599 3.83594 117.968 3.83594C118.337 3.83594 118.622 3.84505 118.823 3.86328V0.828125H120.183V11H118.959L118.905 10.1865C118.627 10.5557 118.205 10.8291 117.64 11.0068C117.421 11.0752 117.198 11.1094 116.97 11.1094C116.747 11.1094 116.526 11.0866 116.307 11.041C116.088 10.9954 115.87 10.9202 115.651 10.8154C115.437 10.7061 115.232 10.5648 115.036 10.3916C114.84 10.2139 114.664 9.9974 114.509 9.74219C114.181 9.18164 114.017 8.51855 114.017 7.75293C114.017 6.9873 114.138 6.36751 114.379 5.89355C114.626 5.41504 114.945 5.02311 115.336 4.71777ZM116.164 5.53125C115.931 5.75 115.751 6.03255 115.624 6.37891C115.501 6.7207 115.439 7.1377 115.439 7.62988C115.439 8.11751 115.498 8.52083 115.617 8.83984C115.735 9.1543 115.883 9.40039 116.061 9.57812C116.376 9.89714 116.754 10.0566 117.196 10.0566C117.765 10.0566 118.237 9.84701 118.611 9.42773C118.707 9.32292 118.775 9.22949 118.816 9.14746V4.94336L118.679 4.92969C118.47 4.90234 118.219 4.88867 117.927 4.88867C117.64 4.88867 117.333 4.94108 117.004 5.0459C116.676 5.14616 116.396 5.30794 116.164 5.53125Z" fill="#082831"/>
</svg>
