<svg width="171" height="20" viewBox="0 0 171 20" fill="none" xmlns="http://www.w3.org/2000/svg">
<path d="M0.503906 1.40625H9.75195V3.10547H2.45703V7.10938H8.0918V8.75H2.45703V15H0.503906V1.40625ZM14.2688 1.99219C14.2688 2.36328 14.1451 2.64974 13.8977 2.85156C13.6568 3.04688 13.354 3.14453 12.9895 3.14453C12.6249 3.14453 12.3221 3.04688 12.0813 2.85156C11.8469 2.64974 11.7297 2.36328 11.7297 1.99219C11.7297 1.61458 11.8469 1.32812 12.0813 1.13281C12.3221 0.9375 12.6249 0.839844 12.9895 0.839844C13.354 0.839844 13.6568 0.9375 13.8977 1.13281C14.1451 1.32812 14.2688 1.61458 14.2688 1.99219ZM11.9836 4.92188H13.9367V15H11.9836V4.92188ZM19.2836 15.1562C18.4698 15.1562 17.6462 15.0977 16.8129 14.9805V13.252C17.6592 13.4538 18.5186 13.5547 19.391 13.5547C21.1358 13.5547 22.0082 13.1868 22.0082 12.4512C22.0082 12.1712 21.9398 11.9629 21.8031 11.8262C21.6013 11.6113 21.2823 11.3965 20.8461 11.1816L19.4203 10.5273C18.4958 10.0651 17.8969 9.69401 17.6234 9.41406C17.1091 8.89323 16.852 8.27474 16.852 7.55859C16.852 6.7513 17.2263 6.09375 17.975 5.58594C18.7823 5.03906 19.9151 4.76562 21.3734 4.76562C22.1091 4.76562 22.8513 4.81771 23.6 4.92188V6.5918C22.7797 6.44206 22.0635 6.36719 21.4516 6.36719C20.8461 6.36719 20.3741 6.40625 20.0355 6.48438C19.7035 6.5625 19.4529 6.66016 19.2836 6.77734C19.0167 6.95964 18.8832 7.19727 18.8832 7.49023C18.8832 7.77669 18.9743 8.01107 19.1566 8.19336C19.3454 8.36914 19.6384 8.5612 20.0355 8.76953L21.4711 9.46289C22.4086 9.95117 23.0108 10.3255 23.2777 10.5859C23.7855 11.0807 24.0395 11.7025 24.0395 12.4512C24.0395 13.252 23.6358 13.8965 22.8285 14.3848C21.9822 14.8991 20.8005 15.1562 19.2836 15.1562ZM31.1441 6.44531C30.1806 6.44531 29.3212 6.77409 28.566 7.43164V15H26.6129V0.46875H28.566V6.00586C29.6207 5.17904 30.7112 4.76562 31.8375 4.76562C33.0419 4.76562 33.9241 5.1237 34.484 5.83984C35.0699 6.59505 35.3629 7.8125 35.3629 9.49219V15H33.4098V9.49219C33.4098 7.8776 32.9703 6.91406 32.0914 6.60156C31.8115 6.4974 31.4957 6.44531 31.1441 6.44531ZM40.3484 1.99219C40.3484 2.36328 40.2247 2.64974 39.9773 2.85156C39.7365 3.04688 39.4337 3.14453 39.0691 3.14453C38.7046 3.14453 38.4018 3.04688 38.1609 2.85156C37.9266 2.64974 37.8094 2.36328 37.8094 1.99219C37.8094 1.61458 37.9266 1.32812 38.1609 1.13281C38.4018 0.9375 38.7046 0.839844 39.0691 0.839844C39.4337 0.839844 39.7365 0.9375 39.9773 1.13281C40.2247 1.32812 40.3484 1.61458 40.3484 1.99219ZM38.0633 4.92188H40.0164V15H38.0633V4.92188ZM47.4336 6.44531C46.4635 6.44531 45.6009 6.77409 44.8457 7.43164V15H42.8926V4.92188H44.6992L44.8359 6.01562C45.8971 5.18229 46.9941 4.76562 48.127 4.76562C49.3249 4.76562 50.2038 5.1237 50.7637 5.83984C51.3496 6.59505 51.6426 7.8125 51.6426 9.49219V15H49.6895V9.49219C49.6895 7.8776 49.2533 6.91406 48.3809 6.60156C48.1009 6.4974 47.7852 6.44531 47.4336 6.44531ZM60.1047 18.8477C59.5383 18.9909 58.8091 19.0625 57.9172 19.0625C57.0318 19.0625 56.384 18.9974 55.9738 18.8672V17.1289C56.4882 17.3503 57.1164 17.4609 57.8586 17.4609C58.6073 17.4674 59.1574 17.4186 59.509 17.3145C59.8605 17.2103 60.1372 17.041 60.3391 16.8066C60.7036 16.3835 60.8859 15.6185 60.8859 14.5117V13.9941C60.3911 14.4889 59.7401 14.834 58.9328 15.0293C58.6073 15.1074 58.2818 15.1465 57.9562 15.1465C57.6307 15.1465 57.3117 15.1107 56.9992 15.0391C56.6932 14.9674 56.3872 14.8535 56.0812 14.6973C55.7753 14.5345 55.4823 14.3262 55.2023 14.0723C54.9224 13.8118 54.675 13.4896 54.4602 13.1055C53.9784 12.2721 53.7375 11.2467 53.7375 10.0293C53.7245 8.90299 54.05 7.91341 54.7141 7.06055C55.287 6.31836 56.0747 5.74219 57.0773 5.33203C57.9888 4.95443 58.9751 4.76562 60.0363 4.76562C61.0975 4.76562 62.0318 4.81771 62.8391 4.92188V14.5117C62.8391 16.9466 61.9276 18.3919 60.1047 18.8477ZM60.8859 6.34766C60.4693 6.29557 60.0591 6.26953 59.6555 6.26953C59.2518 6.26953 58.7993 6.3444 58.298 6.49414C57.7967 6.64388 57.3573 6.87174 56.9797 7.17773C56.1529 7.84831 55.7395 8.79883 55.7395 10.0293C55.7395 11.3639 56.0617 12.3372 56.7062 12.9492C57.188 13.4115 57.7772 13.6426 58.4738 13.6426C59.3137 13.6426 60.0201 13.3464 60.593 12.7539C60.7297 12.6042 60.8273 12.4707 60.8859 12.3535V6.34766ZM78.6988 6.70898C78.3408 6.60482 77.9111 6.55273 77.4098 6.55273C76.915 6.55273 76.5081 6.60482 76.1891 6.70898C75.8701 6.80664 75.5901 6.92708 75.3492 7.07031C74.9065 7.33073 74.5842 7.6237 74.3824 7.94922V15H72.4293V4.92188H74.3043L74.3824 6.31836C74.8707 5.70638 75.5836 5.2474 76.5211 4.94141C76.8596 4.82422 77.247 4.76562 77.6832 4.76562C78.1194 4.76562 78.4579 4.79818 78.6988 4.86328V6.70898ZM79.7781 9.94141C79.7781 8.35938 80.2827 7.07682 81.2918 6.09375C82.2358 5.17578 83.4044 4.7168 84.7977 4.7168C86.1648 4.7168 87.3074 5.17578 88.2254 6.09375C89.202 7.07031 89.6902 8.35286 89.6902 9.94141C89.6902 11.5234 89.1987 12.7995 88.2156 13.7695C87.2846 14.694 86.1421 15.1562 84.7879 15.1562C83.4142 15.1562 82.2488 14.694 81.2918 13.7695C80.2827 12.7995 79.7781 11.5234 79.7781 9.94141ZM81.8094 9.94141C81.8094 11.6081 82.3432 12.7409 83.4109 13.3398C83.7885 13.5482 84.241 13.6523 84.7684 13.6523C85.2957 13.6523 85.7417 13.5482 86.1062 13.3398C86.4708 13.125 86.7703 12.8451 87.0047 12.5C87.4409 11.8359 87.659 10.9831 87.659 9.94141C87.659 8.28776 87.1349 7.15495 86.0867 6.54297C85.7221 6.32812 85.2859 6.2207 84.7781 6.2207C84.2703 6.2207 83.8276 6.32812 83.45 6.54297C83.0789 6.7513 82.7729 7.02799 82.532 7.37305C82.0503 8.05013 81.8094 8.90625 81.8094 9.94141ZM93.416 6.02539C93.9824 5.58919 94.6172 5.27018 95.3203 5.06836C96.0299 4.86654 96.6484 4.76562 97.1758 4.76562C97.7031 4.76562 98.11 4.77865 98.3965 4.80469V0.46875H100.34V15H98.5918L98.5137 13.8379C98.1165 14.3652 97.5143 14.7559 96.707 15.0098C96.3945 15.1074 96.0755 15.1562 95.75 15.1562C95.431 15.1562 95.1152 15.1237 94.8027 15.0586C94.4902 14.9935 94.1777 14.8861 93.8652 14.7363C93.5592 14.5801 93.2663 14.3783 92.9863 14.1309C92.7064 13.877 92.4557 13.5677 92.2344 13.2031C91.7656 12.4023 91.5312 11.4551 91.5312 10.3613C91.5312 9.26758 91.7038 8.38216 92.0488 7.70508C92.4004 7.02148 92.8561 6.46159 93.416 6.02539ZM94.5977 7.1875C94.2656 7.5 94.0085 7.90365 93.8262 8.39844C93.6504 8.88672 93.5625 9.48242 93.5625 10.1855C93.5625 10.8822 93.6471 11.4583 93.8164 11.9141C93.9857 12.3633 94.1973 12.7148 94.4512 12.9688C94.9004 13.4245 95.4408 13.6523 96.0723 13.6523C96.8861 13.6523 97.5599 13.3529 98.0938 12.7539C98.2305 12.6042 98.3281 12.4707 98.3867 12.3535V6.34766L98.1914 6.32812C97.8919 6.28906 97.5339 6.26953 97.1172 6.26953C96.707 6.26953 96.2676 6.3444 95.7988 6.49414C95.3301 6.63737 94.9297 6.86849 94.5977 7.1875ZM103.499 8.4375H110.14V9.94141H103.499V8.4375ZM113.123 1.40625H115.077V13.2812H120.897V15H113.123V1.40625ZM127.66 15.1562C123.975 15.1562 122.132 13.3561 122.132 9.75586C122.132 8.20638 122.643 6.96615 123.666 6.03516C124.584 5.1888 125.632 4.76562 126.81 4.76562C128.093 4.76562 129.095 5.19531 129.818 6.05469C130.489 6.85547 130.824 7.92643 130.824 9.26758V10.0293H124.164C124.164 11.8717 124.916 12.998 126.42 13.4082C126.778 13.5059 127.328 13.5547 128.07 13.5547C128.819 13.5547 129.551 13.4538 130.267 13.252V14.9023C129.551 15.0716 128.682 15.1562 127.66 15.1562ZM128.871 8.59375C128.871 7.96875 128.698 7.44141 128.353 7.01172C127.949 6.51693 127.393 6.26953 126.683 6.26953C125.935 6.26953 125.326 6.50716 124.857 6.98242C124.427 7.42513 124.213 7.96224 124.213 8.59375H128.871ZM131.395 4.92188H133.495L136.239 13.0957L138.993 4.92188H141.083L137.225 15H135.262L131.395 4.92188ZM147.26 15.1562C143.575 15.1562 141.732 13.3561 141.732 9.75586C141.732 8.20638 142.243 6.96615 143.266 6.03516C144.184 5.1888 145.232 4.76562 146.41 4.76562C147.693 4.76562 148.695 5.19531 149.418 6.05469C150.089 6.85547 150.424 7.92643 150.424 9.26758V10.0293H143.764C143.764 11.8717 144.516 12.998 146.02 13.4082C146.378 13.5059 146.928 13.5547 147.67 13.5547C148.419 13.5547 149.151 13.4538 149.867 13.252V14.9023C149.151 15.0716 148.282 15.1562 147.26 15.1562ZM148.471 8.59375C148.471 7.96875 148.298 7.44141 147.953 7.01172C147.549 6.51693 146.993 6.26953 146.283 6.26953C145.535 6.26953 144.926 6.50716 144.457 6.98242C144.027 7.42513 143.812 7.96224 143.812 8.59375H148.471ZM152.792 0.46875H154.745V11.1816C154.745 12.4707 155.038 13.2292 155.624 13.457C155.82 13.5352 156.028 13.5742 156.249 13.5742C156.471 13.5742 156.669 13.5482 156.845 13.4961V15L156.484 15.0391C156.366 15.0521 156.252 15.0586 156.142 15.0586C154.892 15.0586 153.99 14.6484 153.437 13.8281C153.007 13.1836 152.792 12.3047 152.792 11.1914V0.46875ZM168.554 4.4043L165.048 6.79688V4.82422L169.414 1.71875H170.498V15H168.554V4.4043Z" fill="#082831"/>
<path d="M0.503906 1.40625V0.90625H0.00390625V1.40625H0.503906ZM9.75195 1.40625H10.252V0.90625H9.75195V1.40625ZM9.75195 3.10547V3.60547H10.252V3.10547H9.75195ZM2.45703 3.10547V2.60547H1.95703V3.10547H2.45703ZM2.45703 7.10938H1.95703V7.60938H2.45703V7.10938ZM8.0918 7.10938H8.5918V6.60938H8.0918V7.10938ZM8.0918 8.75V9.25H8.5918V8.75H8.0918ZM2.45703 8.75V8.25H1.95703V8.75H2.45703ZM2.45703 15V15.5H2.95703V15H2.45703ZM0.503906 15H0.00390625V15.5H0.503906V15ZM0.503906 1.90625H9.75195V0.90625H0.503906V1.90625ZM9.25195 1.40625V3.10547H10.252V1.40625H9.25195ZM9.75195 2.60547H2.45703V3.60547H9.75195V2.60547ZM1.95703 3.10547V7.10938H2.95703V3.10547H1.95703ZM2.45703 7.60938H8.0918V6.60938H2.45703V7.60938ZM7.5918 7.10938V8.75H8.5918V7.10938H7.5918ZM8.0918 8.25H2.45703V9.25H8.0918V8.25ZM1.95703 8.75V15H2.95703V8.75H1.95703ZM2.45703 14.5H0.503906V15.5H2.45703V14.5ZM1.00391 15V1.40625H0.00390625V15H1.00391ZM13.8977 2.85156L14.2126 3.23994L14.2137 3.239L13.8977 2.85156ZM12.0813 2.85156L11.755 3.23045L11.7606 3.23528L11.7663 3.23994L12.0813 2.85156ZM12.0813 1.13281L11.7663 0.7444L11.7612 0.748702L12.0813 1.13281ZM13.8977 1.13281L13.5827 1.52122L13.5878 1.52525L13.8977 1.13281ZM11.9836 4.92188V4.42188H11.4836V4.92188H11.9836ZM13.9367 4.92188H14.4367V4.42188H13.9367V4.92188ZM13.9367 15V15.5H14.4367V15H13.9367ZM11.9836 15H11.4836V15.5H11.9836V15ZM13.7688 1.99219C13.7688 2.24033 13.693 2.37325 13.5816 2.46413L14.2137 3.239C14.5971 2.92623 14.7688 2.48623 14.7688 1.99219H13.7688ZM13.5828 2.46318C13.446 2.57406 13.2604 2.64453 12.9895 2.64453V3.64453C13.4476 3.64453 13.8675 3.51969 14.2126 3.23994L13.5828 2.46318ZM12.9895 2.64453C12.7185 2.64453 12.5329 2.57406 12.3962 2.46318L11.7663 3.23994C12.1114 3.51969 12.5313 3.64453 12.9895 3.64453V2.64453ZM12.4075 2.47268C12.3055 2.38485 12.2297 2.24962 12.2297 1.99219H11.2297C11.2297 2.47694 11.3882 2.91463 11.755 3.23045L12.4075 2.47268ZM12.2297 1.99219C12.2297 1.72445 12.3076 1.59506 12.4013 1.51692L11.7612 0.748702C11.3862 1.06119 11.2297 1.50471 11.2297 1.99219H12.2297ZM12.3962 1.52119C12.5329 1.41032 12.7185 1.33984 12.9895 1.33984V0.339844C12.5313 0.339844 12.1114 0.464681 11.7663 0.744435L12.3962 1.52119ZM12.9895 1.33984C13.2604 1.33984 13.446 1.41032 13.5828 1.52119L14.2126 0.744435C13.8675 0.464681 13.4476 0.339844 12.9895 0.339844V1.33984ZM13.5878 1.52525C13.6909 1.60663 13.7688 1.73385 13.7688 1.99219H14.7688C14.7688 1.49532 14.5992 1.04962 14.2075 0.740371L13.5878 1.52525ZM11.9836 5.42188H13.9367V4.42188H11.9836V5.42188ZM13.4367 4.92188V15H14.4367V4.92188H13.4367ZM13.9367 14.5H11.9836V15.5H13.9367V14.5ZM12.4836 15V4.92188H11.4836V15H12.4836ZM16.8129 14.9805H16.3129V15.4151L16.7433 15.4756L16.8129 14.9805ZM16.8129 13.252L16.9289 12.7656L16.3129 12.6187V13.252H16.8129ZM21.8031 11.8262L21.4387 12.1685L21.444 12.1742L21.4496 12.1797L21.8031 11.8262ZM20.8461 11.1816L21.0671 10.7329L21.0546 10.7272L20.8461 11.1816ZM19.4203 10.5273L19.1967 10.9746L19.2042 10.9783L19.2118 10.9818L19.4203 10.5273ZM17.6234 9.41406L17.9811 9.06469L17.9792 9.06274L17.6234 9.41406ZM17.975 5.58594L17.6946 5.17198L17.6943 5.17214L17.975 5.58594ZM23.6 4.92188H24.1V4.48662L23.6689 4.42665L23.6 4.92188ZM23.6 6.5918L23.5102 7.08367L24.1 7.19133V6.5918H23.6ZM20.0355 6.48438L19.9231 5.99718L19.921 5.99767L20.0355 6.48438ZM19.2836 6.77734L19.5656 7.19025L19.5682 7.18844L19.2836 6.77734ZM19.1566 8.19336L18.8031 8.54691L18.8094 8.55322L18.8159 8.55931L19.1566 8.19336ZM20.0355 8.76953L19.8033 9.21231L19.8106 9.21616L19.8181 9.21977L20.0355 8.76953ZM21.4711 9.46289L21.7021 9.01943L21.6954 9.01594L21.6886 9.01266L21.4711 9.46289ZM23.2777 10.5859L22.9286 10.9438L22.9288 10.9441L23.2777 10.5859ZM22.8285 14.3848L22.5697 13.9569L22.5689 13.9575L22.8285 14.3848ZM19.2836 14.6562C18.4939 14.6562 17.6936 14.5994 16.8825 14.4853L16.7433 15.4756C17.5989 15.5959 18.4457 15.6562 19.2836 15.6562V14.6562ZM17.3129 14.9805V13.252H16.3129V14.9805H17.3129ZM16.6969 13.7383C17.5814 13.9492 18.4797 14.0547 19.391 14.0547V13.0547C18.5576 13.0547 17.7371 12.9583 16.9289 12.7656L16.6969 13.7383ZM19.391 14.0547C20.2834 14.0547 21.0185 13.9628 21.5482 13.7395C21.8181 13.6257 22.0606 13.467 22.2369 13.244C22.4191 13.0135 22.5082 12.7421 22.5082 12.4512H21.5082C21.5082 12.5281 21.4883 12.5785 21.4524 12.6239C21.4106 12.6768 21.3259 12.748 21.1596 12.8181C20.8169 12.9626 20.2434 13.0547 19.391 13.0547V14.0547ZM22.5082 12.4512C22.5082 12.0981 22.4222 11.7381 22.1567 11.4726L21.4496 12.1797C21.4575 12.1876 21.5082 12.2443 21.5082 12.4512H22.5082ZM22.1675 11.4838C21.9066 11.206 21.5267 10.9595 21.067 10.7331L20.6252 11.6302C21.0379 11.8335 21.296 12.0166 21.4387 12.1685L22.1675 11.4838ZM21.0546 10.7272L19.6289 10.0729L19.2118 10.9818L20.6376 11.6361L21.0546 10.7272ZM19.6439 10.0801C18.7132 9.61479 18.1879 9.27643 17.9811 9.06469L17.2657 9.76343C17.6058 10.1116 18.2784 10.5154 19.1967 10.9746L19.6439 10.0801ZM17.9792 9.06274C17.555 8.63317 17.352 8.14 17.352 7.55859H16.352C16.352 8.40948 16.6632 9.15329 17.2677 9.76539L17.9792 9.06274ZM17.352 7.55859C17.352 6.93916 17.6248 6.42763 18.2557 5.99973L17.6943 5.17214C16.8278 5.75987 16.352 6.56345 16.352 7.55859H17.352ZM18.2554 5.9999C18.9483 5.53052 19.9685 5.26562 21.3734 5.26562V4.26562C19.8617 4.26562 18.6163 4.54761 17.6946 5.17198L18.2554 5.9999ZM21.3734 5.26562C22.0854 5.26562 22.8046 5.31603 23.5311 5.4171L23.6689 4.42665C22.898 4.31939 22.1328 4.26562 21.3734 4.26562V5.26562ZM23.1 4.92188V6.5918H24.1V4.92188H23.1ZM23.6898 6.09992C22.8497 5.94658 22.1022 5.86719 21.4516 5.86719V6.86719C22.0248 6.86719 22.7097 6.93754 23.5102 7.08367L23.6898 6.09992ZM21.4516 5.86719C20.8317 5.86719 20.316 5.90652 19.9231 5.99718L20.148 6.97157C20.4322 6.90598 20.8605 6.86719 21.4516 6.86719V5.86719ZM19.921 5.99767C19.5628 6.08196 19.2426 6.1976 18.999 6.36625L19.5682 7.18844C19.6631 7.12272 19.8442 7.04304 20.1501 6.97108L19.921 5.99767ZM19.0016 6.36444C18.6148 6.62861 18.3832 7.013 18.3832 7.49023H19.3832C19.3832 7.38153 19.4185 7.29066 19.5656 7.19024L19.0016 6.36444ZM18.3832 7.49023C18.3832 7.89315 18.5162 8.26002 18.8031 8.54691L19.5102 7.83981C19.4325 7.76212 19.3832 7.66023 19.3832 7.49023H18.3832ZM18.8159 8.55931C19.0527 8.77974 19.3912 8.99611 19.8033 9.21231L20.2678 8.32676C19.8857 8.12628 19.6382 7.95854 19.4974 7.82741L18.8159 8.55931ZM19.8181 9.21977L21.2536 9.91313L21.6886 9.01266L20.253 8.3193L19.8181 9.21977ZM21.2401 9.90635C22.1864 10.3992 22.7225 10.7428 22.9286 10.9438L23.6269 10.228C23.2991 9.90827 22.6308 9.50316 21.7021 9.01943L21.2401 9.90635ZM22.9288 10.9441C23.3342 11.339 23.5395 11.8289 23.5395 12.4512H24.5395C24.5395 11.576 24.2369 10.8224 23.6267 10.2278L22.9288 10.9441ZM23.5395 12.4512C23.5395 13.0431 23.2587 13.5402 22.5697 13.9569L23.0873 14.8126C24.0129 14.2527 24.5395 13.4608 24.5395 12.4512H23.5395ZM22.5689 13.9575C21.8319 14.4053 20.7538 14.6562 19.2836 14.6562V15.6562C20.8472 15.6562 22.1325 15.3928 23.0882 14.8121L22.5689 13.9575ZM28.566 7.43164L28.2377 7.05455L28.066 7.20402V7.43164H28.566ZM28.566 15V15.5H29.066V15H28.566ZM26.6129 15H26.1129V15.5H26.6129V15ZM26.6129 0.46875V-0.03125H26.1129V0.46875H26.6129ZM28.566 0.46875H29.066V-0.03125H28.566V0.46875ZM28.566 6.00586H28.066V7.03316L28.8745 6.39936L28.566 6.00586ZM34.484 5.83984L34.879 5.53334L34.8779 5.53188L34.484 5.83984ZM35.3629 15V15.5H35.8629V15H35.3629ZM33.4098 15H32.9098V15.5H33.4098V15ZM32.0914 6.60156L31.917 7.07022L31.9239 7.07267L32.0914 6.60156ZM31.1441 5.94531C30.0548 5.94531 29.08 6.32114 28.2377 7.05455L28.8943 7.80873C29.5624 7.22703 30.3064 6.94531 31.1441 6.94531V5.94531ZM28.066 7.43164V15H29.066V7.43164H28.066ZM28.566 14.5H26.6129V15.5H28.566V14.5ZM27.1129 15V0.46875H26.1129V15H27.1129ZM26.6129 0.96875H28.566V-0.03125H26.6129V0.96875ZM28.066 0.46875V6.00586H29.066V0.46875H28.066ZM28.8745 6.39936C29.8585 5.62795 30.8432 5.26562 31.8375 5.26562V4.26562C30.5792 4.26562 29.3829 4.73012 28.2575 5.61236L28.8745 6.39936ZM31.8375 5.26562C32.942 5.26562 33.6538 5.58982 34.0901 6.1478L34.8779 5.53188C34.1943 4.65758 33.1418 4.26562 31.8375 4.26562V5.26562ZM34.0889 6.14634C34.5719 6.76888 34.8629 7.84846 34.8629 9.49219H35.8629C35.8629 7.77654 35.5679 6.42123 34.879 5.53335L34.0889 6.14634ZM34.8629 9.49219V15H35.8629V9.49219H34.8629ZM35.3629 14.5H33.4098V15.5H35.3629V14.5ZM33.9098 15V9.49219H32.9098V15H33.9098ZM33.9098 9.49219C33.9098 7.83758 33.4609 6.55784 32.2589 6.13046L31.9239 7.07267C32.4797 7.27029 32.9098 7.91763 32.9098 9.49219H33.9098ZM32.2658 6.13295C31.9211 6.00471 31.5449 5.94531 31.1441 5.94531V6.94531C31.4465 6.94531 31.7018 6.99008 31.917 7.07017L32.2658 6.13295ZM39.9773 2.85156L40.2922 3.23994L40.2934 3.239L39.9773 2.85156ZM38.1609 2.85156L37.8347 3.23045L37.8403 3.23528L37.846 3.23994L38.1609 2.85156ZM38.1609 1.13281L37.846 0.7444L37.8408 0.748702L38.1609 1.13281ZM39.9773 1.13281L39.6624 1.52122L39.6675 1.52525L39.9773 1.13281ZM38.0633 4.92188V4.42188H37.5633V4.92188H38.0633ZM40.0164 4.92188H40.5164V4.42188H40.0164V4.92188ZM40.0164 15V15.5H40.5164V15H40.0164ZM38.0633 15H37.5633V15.5H38.0633V15ZM39.8484 1.99219C39.8484 2.24033 39.7727 2.37325 39.6613 2.46413L40.2934 3.239C40.6768 2.92623 40.8484 2.48623 40.8484 1.99219H39.8484ZM39.6624 2.46318C39.5257 2.57406 39.3401 2.64453 39.0691 2.64453V3.64453C39.5273 3.64453 39.9472 3.51969 40.2922 3.23994L39.6624 2.46318ZM39.0691 2.64453C38.7982 2.64453 38.6126 2.57406 38.4758 2.46318L37.846 3.23994C38.1911 3.51969 38.6109 3.64453 39.0691 3.64453V2.64453ZM38.4872 2.47268C38.3852 2.38485 38.3094 2.24962 38.3094 1.99219H37.3094C37.3094 2.47694 37.4679 2.91463 37.8347 3.23045L38.4872 2.47268ZM38.3094 1.99219C38.3094 1.72445 38.3873 1.59506 38.481 1.51692L37.8408 0.748702C37.4659 1.06119 37.3094 1.50471 37.3094 1.99219H38.3094ZM38.4758 1.52119C38.6126 1.41032 38.7982 1.33984 39.0691 1.33984V0.339844C38.6109 0.339844 38.1911 0.464681 37.846 0.744435L38.4758 1.52119ZM39.0691 1.33984C39.3401 1.33984 39.5257 1.41032 39.6624 1.52119L40.2922 0.744435C39.9472 0.464681 39.5273 0.339844 39.0691 0.339844V1.33984ZM39.6675 1.52525C39.7706 1.60663 39.8484 1.73385 39.8484 1.99219H40.8484C40.8484 1.49532 40.6789 1.04962 40.2872 0.740371L39.6675 1.52525ZM38.0633 5.42188H40.0164V4.42188H38.0633V5.42188ZM39.5164 4.92188V15H40.5164V4.92188H39.5164ZM40.0164 14.5H38.0633V15.5H40.0164V14.5ZM38.5633 15V4.92188H37.5633V15H38.5633ZM44.8457 7.43164L44.5174 7.05455L44.3457 7.20402V7.43164H44.8457ZM44.8457 15V15.5H45.3457V15H44.8457ZM42.8926 15H42.3926V15.5H42.8926V15ZM42.8926 4.92188V4.42188H42.3926V4.92188H42.8926ZM44.6992 4.92188L45.1954 4.85986L45.1406 4.42188H44.6992V4.92188ZM44.8359 6.01562L44.3398 6.07764L44.4495 6.95486L45.1447 6.40887L44.8359 6.01562ZM50.7637 5.83984L51.1587 5.53334L51.1576 5.53188L50.7637 5.83984ZM51.6426 15V15.5H52.1426V15H51.6426ZM49.6895 15H49.1895V15.5H49.6895V15ZM48.3809 6.60156L48.2065 7.07021L48.2122 7.07227L48.3809 6.60156ZM47.4336 5.94531C46.3387 5.94531 45.3604 6.32054 44.5174 7.05455L45.174 7.80873C45.8414 7.22763 46.5884 6.94531 47.4336 6.94531V5.94531ZM44.3457 7.43164V15H45.3457V7.43164H44.3457ZM44.8457 14.5H42.8926V15.5H44.8457V14.5ZM43.3926 15V4.92188H42.3926V15H43.3926ZM42.8926 5.42188H44.6992V4.42188H42.8926V5.42188ZM44.2031 4.98389L44.3398 6.07764L45.3321 5.95361L45.1954 4.85986L44.2031 4.98389ZM45.1447 6.40887C46.1353 5.631 47.1265 5.26562 48.127 5.26562V4.26562C46.8618 4.26562 45.659 4.73359 44.5271 5.62238L45.1447 6.40887ZM48.127 5.26562C49.2239 5.26562 49.933 5.58917 50.3698 6.1478L51.1576 5.53188C50.4745 4.65823 49.4259 4.26562 48.127 4.26562V5.26562ZM50.3686 6.14634C50.8516 6.76888 51.1426 7.84846 51.1426 9.49219H52.1426C52.1426 7.77654 51.8476 6.42123 51.1587 5.53335L50.3686 6.14634ZM51.1426 9.49219V15H52.1426V9.49219H51.1426ZM51.6426 14.5H49.6895V15.5H51.6426V14.5ZM50.1895 15V9.49219H49.1895V15H50.1895ZM50.1895 9.49219C50.1895 7.83957 49.745 6.55912 48.5495 6.13085L48.2122 7.07227C48.7615 7.26901 49.1895 7.91564 49.1895 9.49219H50.1895ZM48.5552 6.13295C48.2106 6.00471 47.8344 5.94531 47.4336 5.94531V6.94531C47.7359 6.94531 47.9912 6.99008 48.2065 7.07017L48.5552 6.13295ZM60.1047 18.8477L59.9834 18.3626L59.9821 18.3629L60.1047 18.8477ZM55.9738 18.8672H55.4738V19.233L55.8225 19.3438L55.9738 18.8672ZM55.9738 17.1289L56.1715 16.6696L55.4738 16.3694V17.1289H55.9738ZM57.8586 17.4609L57.8629 16.9609H57.8586V17.4609ZM60.3391 16.8066L59.9603 16.4803L59.9602 16.4804L60.3391 16.8066ZM60.8859 13.9941H61.3859V12.787L60.5324 13.6406L60.8859 13.9941ZM58.9328 15.0293L59.0495 15.5155L59.0504 15.5153L58.9328 15.0293ZM56.9992 15.0391L56.8853 15.5259L56.8875 15.5264L56.9992 15.0391ZM56.0812 14.6973L55.8464 15.1388L55.8539 15.1426L56.0812 14.6973ZM55.2023 14.0723L54.8618 14.4384L54.8664 14.4426L55.2023 14.0723ZM54.4602 13.1055L54.8966 12.8614L54.893 12.8552L54.4602 13.1055ZM53.7375 10.0293H54.2375L54.2375 10.0235L53.7375 10.0293ZM54.7141 7.06055L55.1086 7.36773L55.1099 7.36607L54.7141 7.06055ZM57.0773 5.33203L57.2667 5.79481L57.2687 5.79396L57.0773 5.33203ZM62.8391 4.92188H63.3391V4.48225L62.903 4.42599L62.8391 4.92188ZM60.8859 6.34766H61.3859V5.90627L60.948 5.85152L60.8859 6.34766ZM58.298 6.49414L58.1549 6.01506L58.298 6.49414ZM56.9797 7.17773L56.6649 6.78927L56.6647 6.7894L56.9797 7.17773ZM56.7062 12.9492L57.0524 12.5884L57.0505 12.5866L56.7062 12.9492ZM60.593 12.7539L60.9524 13.1015L60.9574 13.0963L60.9622 13.091L60.593 12.7539ZM60.8859 12.3535L61.3331 12.5771L61.3859 12.4715V12.3535H60.8859ZM59.9821 18.3629C59.4709 18.4922 58.787 18.5625 57.9172 18.5625V19.5625C58.8312 19.5625 59.6057 19.4896 60.2273 19.3324L59.9821 18.3629ZM57.9172 18.5625C57.0408 18.5625 56.4579 18.4963 56.1251 18.3906L55.8225 19.3438C56.3101 19.4985 57.0228 19.5625 57.9172 19.5625V18.5625ZM56.4738 18.8672V17.1289H55.4738V18.8672H56.4738ZM55.7762 17.5882C56.3697 17.8436 57.0694 17.9609 57.8586 17.9609V16.9609C57.1634 16.9609 56.6066 16.8569 56.1715 16.6696L55.7762 17.5882ZM57.8542 17.9609C58.6121 17.9675 59.2246 17.9202 59.651 17.7939L59.3669 16.8351C59.0903 16.917 58.6025 16.9674 57.8629 16.961L57.8542 17.9609ZM59.651 17.7939C60.0773 17.6676 60.4427 17.4526 60.7179 17.1329L59.9602 16.4804C59.8318 16.6295 59.6438 16.753 59.3669 16.8351L59.651 17.7939ZM60.7179 17.133C61.2077 16.5644 61.3859 15.6378 61.3859 14.5117H60.3859C60.3859 15.5991 60.1996 16.2025 59.9603 16.4803L60.7179 17.133ZM61.3859 14.5117V13.9941H60.3859V14.5117H61.3859ZM60.5324 13.6406C60.1138 14.0591 59.5501 14.3655 58.8152 14.5433L59.0504 15.5153C59.9302 15.3024 60.6684 14.9187 61.2395 14.3477L60.5324 13.6406ZM58.8161 14.5431C58.5277 14.6123 58.2414 14.6465 57.9562 14.6465V15.6465C58.3222 15.6465 58.6868 15.6025 59.0495 15.5155L58.8161 14.5431ZM57.9562 14.6465C57.6677 14.6465 57.3862 14.6148 57.1109 14.5517L56.8875 15.5264C57.2372 15.6066 57.5937 15.6465 57.9562 15.6465V14.6465ZM57.1132 14.5522C56.85 14.4906 56.5819 14.3915 56.3086 14.252L55.8539 15.1426C56.1925 15.3155 56.5365 15.4443 56.8853 15.5259L57.1132 14.5522ZM56.3161 14.2558C56.0497 14.1142 55.7903 13.9305 55.5382 13.7019L54.8664 14.4426C55.1743 14.7218 55.5008 14.9549 55.8464 15.1387L56.3161 14.2558ZM55.5429 13.7062C55.3063 13.4861 55.0897 13.2068 54.8965 12.8614L54.0238 13.3495C54.2603 13.7723 54.5385 14.1376 54.8618 14.4384L55.5429 13.7062ZM54.893 12.8552C54.4654 12.1156 54.2375 11.1818 54.2375 10.0293H53.2375C53.2375 11.3117 53.4913 12.4287 54.0273 13.3557L54.893 12.8552ZM54.2375 10.0235C54.2257 9.00532 54.5172 8.12725 55.1086 7.36773L54.3195 6.75337C53.5828 7.69957 53.2233 8.80066 53.2375 10.0351L54.2375 10.0235ZM55.1099 7.36607C55.6211 6.70376 56.3327 6.17688 57.2667 5.7948L56.888 4.86926C55.8168 5.3075 54.9528 5.93295 54.3183 6.75502L55.1099 7.36607ZM57.2687 5.79396C58.115 5.44334 59.0358 5.26562 60.0363 5.26562V4.26562C58.9145 4.26562 57.8626 4.46551 56.886 4.8701L57.2687 5.79396ZM60.0363 5.26562C61.0822 5.26562 61.9942 5.31701 62.7751 5.41776L62.903 4.42599C62.0693 4.31841 61.1129 4.26562 60.0363 4.26562V5.26562ZM62.3391 4.92188V14.5117H63.3391V4.92188H62.3391ZM62.3391 14.5117C62.3391 15.6729 62.1208 16.5394 61.7325 17.1552C61.3526 17.7576 60.7835 18.1626 59.9834 18.3626L60.226 19.3327C61.2487 19.077 62.0469 18.5315 62.5784 17.6886C63.1016 16.859 63.3391 15.7854 63.3391 14.5117H62.3391ZM60.948 5.85152C60.5115 5.79697 60.0807 5.76953 59.6555 5.76953V6.76953C60.0376 6.76953 60.427 6.79418 60.8239 6.84379L60.948 5.85152ZM59.6555 5.76953C59.1915 5.76953 58.6897 5.85532 58.1549 6.01506L58.4412 6.97322C58.909 6.83349 59.3122 6.76953 59.6555 6.76953V5.76953ZM58.1549 6.01506C57.5959 6.18205 57.097 6.43909 56.6649 6.78927L57.2945 7.5662C57.6175 7.30441 57.9976 7.10571 58.4412 6.97322L58.1549 6.01506ZM56.6647 6.7894C55.7018 7.57034 55.2395 8.67445 55.2395 10.0293H56.2395C56.2395 8.92321 56.6039 8.12627 57.2946 7.56607L56.6647 6.7894ZM55.2395 10.0293C55.2395 11.4326 55.5774 12.5669 56.362 13.3118L57.0505 12.5866C56.546 12.1076 56.2395 11.2953 56.2395 10.0293H55.2395ZM56.3601 13.31C56.9393 13.8658 57.6544 14.1426 58.4738 14.1426V13.1426C57.9 13.1426 57.4367 12.9571 57.0524 12.5884L56.3601 13.31ZM58.4738 14.1426C59.4463 14.1426 60.2833 13.7934 60.9524 13.1015L60.2335 12.4063C59.7568 12.8993 59.1811 13.1426 58.4738 13.1426V14.1426ZM60.9622 13.091C61.115 12.9237 61.2459 12.7516 61.3331 12.5771L60.4387 12.1299C60.4088 12.1898 60.3444 12.2847 60.2237 12.4168L60.9622 13.091ZM61.3859 12.3535V6.34766H60.3859V12.3535H61.3859ZM78.6988 6.70898L78.5592 7.18908L79.1988 7.37517V6.70898H78.6988ZM76.1891 6.70898L76.3354 7.18717L76.3443 7.18429L76.1891 6.70898ZM75.3492 7.07031L75.6027 7.50128L75.6048 7.50008L75.3492 7.07031ZM74.3824 7.94922L73.9575 7.68575L73.8824 7.8068V7.94922H74.3824ZM74.3824 15V15.5H74.8824V15H74.3824ZM72.4293 15H71.9293V15.5H72.4293V15ZM72.4293 4.92188V4.42188H71.9293V4.92188H72.4293ZM74.3043 4.92188L74.8035 4.89395L74.7771 4.42188H74.3043V4.92188ZM74.3824 6.31836L73.8832 6.34629L73.9564 7.65405L74.7733 6.6302L74.3824 6.31836ZM76.5211 4.94141L76.6763 5.4168L76.6847 5.4139L76.5211 4.94141ZM78.6988 4.86328H79.1988V4.48048L78.8293 4.3806L78.6988 4.86328ZM78.8385 6.22889C78.4225 6.10787 77.9432 6.05273 77.4098 6.05273V7.05273C77.8789 7.05273 78.259 7.10176 78.5592 7.18908L78.8385 6.22889ZM77.4098 6.05273C76.8848 6.05273 76.4207 6.10738 76.0339 6.23368L76.3443 7.18429C76.5955 7.10226 76.9451 7.05273 77.4098 7.05273V6.05273ZM76.0427 6.23088C75.6925 6.33809 75.3747 6.47347 75.0937 6.64054L75.6048 7.50008C75.8055 7.3807 76.0476 7.27519 76.3354 7.18708L76.0427 6.23088ZM75.0957 6.63935C74.6059 6.92745 74.2141 7.27187 73.9575 7.68575L74.8074 8.21269C74.9544 7.97552 75.2071 7.73401 75.6027 7.50128L75.0957 6.63935ZM73.8824 7.94922V15H74.8824V7.94922H73.8824ZM74.3824 14.5H72.4293V15.5H74.3824V14.5ZM72.9293 15V4.92188H71.9293V15H72.9293ZM72.4293 5.42188H74.3043V4.42188H72.4293V5.42188ZM73.8051 4.9498L73.8832 6.34629L74.8816 6.29043L74.8035 4.89395L73.8051 4.9498ZM74.7733 6.6302C75.1866 6.1122 75.8075 5.70026 76.6762 5.41673L76.366 4.46608C75.3597 4.79453 74.5548 5.30056 73.9916 6.00652L74.7733 6.6302ZM76.6847 5.4139C76.9606 5.31839 77.291 5.26562 77.6832 5.26562V4.26562C77.203 4.26562 76.7587 4.33005 76.3575 4.46891L76.6847 5.4139ZM77.6832 5.26562C78.1029 5.26562 78.3903 5.29783 78.5684 5.34596L78.8293 4.3806C78.5256 4.29853 78.1359 4.26562 77.6832 4.26562V5.26562ZM78.1988 4.86328V6.70898H79.1988V4.86328H78.1988ZM81.2918 6.09375L80.9432 5.73529L80.9429 5.73561L81.2918 6.09375ZM88.2156 13.7695L87.8644 13.4136L87.8633 13.4147L88.2156 13.7695ZM81.2918 13.7695L81.6392 13.4099L81.6383 13.4091L81.2918 13.7695ZM83.4109 13.3398L83.1663 13.7759L83.1694 13.7776L83.4109 13.3398ZM86.1062 13.3398L86.3543 13.774L86.3601 13.7706L86.1062 13.3398ZM87.0047 12.5L87.4183 12.781L87.4226 12.7745L87.0047 12.5ZM86.0867 6.54297L85.8329 6.97374L85.8346 6.97476L86.0867 6.54297ZM83.45 6.54297L83.6948 6.97897L83.6973 6.97755L83.45 6.54297ZM82.532 7.37305L82.9394 7.66294L82.942 7.65926L82.532 7.37305ZM80.2781 9.94141C80.2781 8.47606 80.7405 7.32887 81.6407 6.45189L80.9429 5.73561C79.8249 6.82477 79.2781 8.24269 79.2781 9.94141H80.2781ZM81.6404 6.45221C82.4852 5.63067 83.5263 5.2168 84.7977 5.2168V4.2168C83.2826 4.2168 81.9864 4.72089 80.9432 5.73529L81.6404 6.45221ZM84.7977 5.2168C86.0401 5.2168 87.053 5.6285 87.8718 6.4473L88.5789 5.7402C87.5618 4.72306 86.2896 4.2168 84.7977 4.2168V5.2168ZM87.8718 6.4473C88.7404 7.31585 89.1902 8.46387 89.1902 9.94141H90.1902C90.1902 8.24186 89.6635 6.82477 88.5789 5.7402L87.8718 6.4473ZM89.1902 9.94141C89.1902 11.4108 88.7382 12.5514 87.8644 13.4136L88.5668 14.1254C89.6592 13.0475 90.1902 11.636 90.1902 9.94141H89.1902ZM87.8633 13.4147C87.0293 14.2429 86.0148 14.6562 84.7879 14.6562V15.6562C86.2693 15.6562 87.54 15.1451 88.5679 14.1243L87.8633 13.4147ZM84.7879 14.6562C83.5391 14.6562 82.4997 14.2412 81.6392 13.4099L80.9444 14.1291C81.998 15.1469 83.2892 15.6562 84.7879 15.6562V14.6562ZM81.6383 13.4091C80.7404 12.546 80.2781 11.4068 80.2781 9.94141H79.2781C79.2781 11.64 79.8249 13.053 80.9453 14.13L81.6383 13.4091ZM81.3094 9.94141C81.3094 11.7147 81.8853 13.0573 83.1663 13.7759L83.6556 12.9038C82.8011 12.4245 82.3094 11.5015 82.3094 9.94141H81.3094ZM83.1694 13.7776C83.6357 14.0349 84.1752 14.1523 84.7684 14.1523V13.1523C84.3068 13.1523 83.9413 13.0614 83.6525 12.9021L83.1694 13.7776ZM84.7684 14.1523C85.3608 14.1523 85.8972 14.0352 86.3543 13.774L85.8582 12.9057C85.5862 13.0612 85.2306 13.1523 84.7684 13.1523V14.1523ZM86.3601 13.7706C86.7874 13.5188 87.1418 13.188 87.4183 12.7809L86.5911 12.2191C86.3988 12.5021 86.1543 12.7312 85.8524 12.9091L86.3601 13.7706ZM87.4226 12.7745C87.9267 12.0071 88.159 11.0508 88.159 9.94141H87.159C87.159 10.9154 86.9551 11.6648 86.5868 12.2255L87.4226 12.7745ZM88.159 9.94141C88.159 8.1826 87.5943 6.84419 86.3388 6.11118L85.8346 6.97476C86.6755 7.46571 87.159 8.39292 87.159 9.94141H88.159ZM86.3406 6.1122C85.885 5.84373 85.3573 5.7207 84.7781 5.7207V6.7207C85.2146 6.7207 85.5593 6.81252 85.8329 6.97374L86.3406 6.1122ZM84.7781 5.7207C84.1984 5.7207 83.6676 5.84392 83.2027 6.10839L83.6973 6.97755C83.9876 6.81233 84.3423 6.7207 84.7781 6.7207V5.7207ZM83.2052 6.10698C82.7693 6.35173 82.4065 6.67934 82.122 7.08683L82.942 7.65926C83.1393 7.37665 83.3885 7.15087 83.6948 6.97896L83.2052 6.10698ZM82.1246 7.08317C81.5692 7.86374 81.3094 8.82813 81.3094 9.94141H82.3094C82.3094 8.98437 82.5313 8.23652 82.9394 7.66292L82.1246 7.08317ZM93.416 6.02539L93.1109 5.62924L93.1087 5.63096L93.416 6.02539ZM95.3203 5.06836L95.1835 4.58743L95.1824 4.58777L95.3203 5.06836ZM98.3965 4.80469L98.3512 5.30263L98.8965 5.3522V4.80469H98.3965ZM98.3965 0.46875V-0.03125H97.8965V0.46875H98.3965ZM100.34 0.46875H100.84V-0.03125H100.34V0.46875ZM100.34 15V15.5H100.84V15H100.34ZM98.5918 15L98.0929 15.0335L98.1243 15.5H98.5918V15ZM98.5137 13.8379L99.0125 13.8044L98.9224 12.464L98.1143 13.5371L98.5137 13.8379ZM96.707 15.0098L96.8562 15.487L96.857 15.4867L96.707 15.0098ZM93.8652 14.7363L93.6378 15.1818L93.6492 15.1872L93.8652 14.7363ZM92.9863 14.1309L92.6504 14.5012L92.6552 14.5055L92.9863 14.1309ZM92.2344 13.2031L91.8028 13.4557L91.807 13.4626L92.2344 13.2031ZM92.0488 7.70508L91.6042 7.4764L91.6033 7.47805L92.0488 7.70508ZM94.5977 7.1875L94.9404 7.55162L94.9441 7.54805L94.5977 7.1875ZM93.8262 8.39844L93.357 8.22558L93.3557 8.22908L93.8262 8.39844ZM93.8164 11.9141L93.3477 12.0882L93.3485 12.0904L93.8164 11.9141ZM94.4512 12.9688L94.8073 12.6177L94.8047 12.6152L94.4512 12.9688ZM98.0938 12.7539L97.7245 12.4167L97.7205 12.4212L98.0938 12.7539ZM98.3867 12.3535L98.8339 12.5771L98.8867 12.4715V12.3535H98.3867ZM98.3867 6.34766H98.8867V5.89516L98.4365 5.85014L98.3867 6.34766ZM98.1914 6.32812L98.1267 6.82393L98.1342 6.8249L98.1417 6.82564L98.1914 6.32812ZM95.7988 6.49414L95.9449 6.97235L95.951 6.97043L95.7988 6.49414ZM93.7211 6.42153C94.2364 6.02466 94.8142 5.73381 95.4583 5.54895L95.1824 4.58777C94.4201 4.80655 93.7284 5.15372 93.1109 5.62925L93.7211 6.42153ZM95.4571 5.54929C96.1385 5.35549 96.709 5.26562 97.1758 5.26562V4.26562C96.5879 4.26562 95.9214 4.37758 95.1835 4.58743L95.4571 5.54929ZM97.1758 5.26562C97.6982 5.26562 98.0874 5.27865 98.3512 5.30263L98.4417 4.30674C98.1327 4.27864 97.708 4.26562 97.1758 4.26562V5.26562ZM98.8965 4.80469V0.46875H97.8965V4.80469H98.8965ZM98.3965 0.96875H100.34V-0.03125H98.3965V0.96875ZM99.8398 0.46875V15H100.84V0.46875H99.8398ZM100.34 14.5H98.5918V15.5H100.34V14.5ZM99.0907 14.9665L99.0125 13.8044L98.0148 13.8714L98.0929 15.0335L99.0907 14.9665ZM98.1143 13.5371C97.7955 13.9604 97.2929 14.3013 96.557 14.5328L96.857 15.4867C97.7357 15.2104 98.4376 14.7701 98.9131 14.1387L98.1143 13.5371ZM96.5579 14.5325C96.2934 14.6152 96.0247 14.6562 95.75 14.6562V15.6562C96.1264 15.6562 96.4957 15.5997 96.8562 15.487L96.5579 14.5325ZM95.75 14.6562C95.4653 14.6562 95.1837 14.6272 94.9047 14.5691L94.7008 15.5481C95.0468 15.6202 95.3967 15.6562 95.75 15.6562V14.6562ZM94.9047 14.5691C94.6349 14.5129 94.3605 14.4192 94.0813 14.2854L93.6492 15.1872C93.9949 15.3529 94.3456 15.4741 94.7008 15.5481L94.9047 14.5691ZM94.0926 14.291C93.8271 14.1555 93.5686 13.9782 93.3174 13.7562L92.6552 14.5055C92.9639 14.7783 93.2914 15.0047 93.6378 15.1816L94.0926 14.291ZM93.3222 13.7605C93.0822 13.5428 92.8613 13.2723 92.6618 12.9436L91.807 13.4626C92.0502 13.8632 92.3306 14.2111 92.6504 14.5012L93.3222 13.7605ZM92.6659 12.9505C92.2494 12.2391 92.0312 11.3823 92.0312 10.3613H91.0312C91.0312 11.5279 91.2818 12.5656 91.8029 13.4557L92.6659 12.9505ZM92.0312 10.3613C92.0312 9.31421 92.1973 8.51486 92.4943 7.93211L91.6033 7.47805C91.2102 8.24946 91.0312 9.22095 91.0312 10.3613H92.0312ZM92.4935 7.93375C92.8146 7.30929 93.2253 6.80778 93.7233 6.41982L93.1087 5.63096C92.4869 6.1154 91.9862 6.73368 91.6042 7.4764L92.4935 7.93375ZM94.255 6.8234C93.8583 7.19672 93.5619 7.66949 93.357 8.22558L94.2953 8.57129C94.455 8.1378 94.6729 7.80328 94.9403 7.5516L94.255 6.8234ZM93.3557 8.22908C93.1548 8.78716 93.0625 9.44382 93.0625 10.1855H94.0625C94.0625 9.52103 94.146 8.98628 94.2966 8.5678L93.3557 8.22908ZM93.0625 10.1855C93.0625 10.918 93.1509 11.5582 93.3477 12.0882L94.2851 11.74C94.1434 11.3584 94.0625 10.8463 94.0625 10.1855H93.0625ZM93.3485 12.0904C93.5349 12.5849 93.7795 13.0042 94.0976 13.3223L94.8047 12.6152C94.615 12.4255 94.4365 12.1417 94.2843 11.7378L93.3485 12.0904ZM94.0951 13.3197C94.6369 13.8694 95.3049 14.1523 96.0723 14.1523V13.1523C95.5766 13.1523 95.1639 12.9796 94.8073 12.6178L94.0951 13.3197ZM96.0723 14.1523C97.0263 14.1523 97.8367 13.7937 98.467 13.0866L97.7205 12.4212C97.2831 12.912 96.7458 13.1523 96.0723 13.1523V14.1523ZM98.463 13.091C98.6158 12.9237 98.7467 12.7516 98.8339 12.5771L97.9395 12.1299C97.9096 12.1898 97.8451 12.2847 97.7245 12.4168L98.463 13.091ZM98.8867 12.3535V6.34766H97.8867V12.3535H98.8867ZM98.4365 5.85014L98.2412 5.83061L98.1417 6.82564L98.337 6.84517L98.4365 5.85014ZM98.2561 5.83232C97.9288 5.78964 97.548 5.76953 97.1172 5.76953V6.76953C97.5197 6.76953 97.855 6.78848 98.1267 6.82393L98.2561 5.83232ZM97.1172 5.76953C96.6463 5.76953 96.1551 5.85544 95.6467 6.01785L95.951 6.97043C96.38 6.83337 96.7678 6.76953 97.1172 6.76953V5.76953ZM95.6527 6.01596C95.1139 6.18062 94.6435 6.45006 94.2512 6.82695L94.9441 7.54805C95.2159 7.28692 95.5463 7.09412 95.9449 6.97232L95.6527 6.01596ZM103.499 8.4375V7.9375H102.999V8.4375H103.499ZM110.14 8.4375H110.64V7.9375H110.14V8.4375ZM110.14 9.94141V10.4414H110.64V9.94141H110.14ZM103.499 9.94141H102.999V10.4414H103.499V9.94141ZM103.499 8.9375H110.14V7.9375H103.499V8.9375ZM109.64 8.4375V9.94141H110.64V8.4375H109.64ZM110.14 9.44141H103.499V10.4414H110.14V9.44141ZM103.999 9.94141V8.4375H102.999V9.94141H103.999ZM113.123 1.40625V0.90625H112.623V1.40625H113.123ZM115.077 1.40625H115.577V0.90625H115.077V1.40625ZM115.077 13.2812H114.577V13.7812H115.077V13.2812ZM120.897 13.2812H121.397V12.7812H120.897V13.2812ZM120.897 15V15.5H121.397V15H120.897ZM113.123 15H112.623V15.5H113.123V15ZM113.123 1.90625H115.077V0.90625H113.123V1.90625ZM114.577 1.40625V13.2812H115.577V1.40625H114.577ZM115.077 13.7812H120.897V12.7812H115.077V13.7812ZM120.397 13.2812V15H121.397V13.2812H120.397ZM120.897 14.5H113.123V15.5H120.897V14.5ZM113.623 15V1.40625H112.623V15H113.623ZM123.666 6.03516L124.002 6.40481L124.005 6.40276L123.666 6.03516ZM129.818 6.05469L130.201 5.73368L130.201 5.73289L129.818 6.05469ZM130.824 10.0293V10.5293H131.324V10.0293H130.824ZM124.164 10.0293V9.5293H123.664V10.0293H124.164ZM130.267 13.252H130.767V12.5916L130.132 12.7707L130.267 13.252ZM130.267 14.9023L130.382 15.3889L130.767 15.2979V14.9023H130.267ZM128.871 8.59375V9.09375H129.371V8.59375H128.871ZM128.353 7.01172L128.743 6.69864L128.741 6.69566L128.353 7.01172ZM124.857 6.98242L124.501 6.6313L124.498 6.63418L124.857 6.98242ZM124.213 8.59375H123.713V9.09375H124.213V8.59375ZM127.66 14.6562C125.892 14.6562 124.658 14.2243 123.864 13.4485C123.072 12.6748 122.632 11.4759 122.632 9.75586H121.632C121.632 11.636 122.114 13.1373 123.165 14.1638C124.213 15.1881 125.743 15.6562 127.66 15.6562V14.6562ZM122.632 9.75586C122.632 8.32824 123.097 7.22906 124.002 6.40481L123.329 5.66551C122.19 6.70323 121.632 8.08452 121.632 9.75586H122.632ZM124.005 6.40276C124.836 5.63597 125.765 5.26562 126.81 5.26562V4.26562C125.498 4.26562 124.331 4.74163 123.327 5.66755L124.005 6.40276ZM126.81 5.26562C127.969 5.26562 128.822 5.64691 129.435 6.37649L130.201 5.73289C129.369 4.74372 128.217 4.26562 126.81 4.26562V5.26562ZM129.435 6.3757C130.011 7.06346 130.324 8.0098 130.324 9.26758H131.324C131.324 7.84307 130.967 6.64748 130.201 5.73368L129.435 6.3757ZM130.324 9.26758V10.0293H131.324V9.26758H130.324ZM130.824 9.5293H124.164V10.5293H130.824V9.5293ZM123.664 10.0293C123.664 11.0147 123.864 11.8634 124.312 12.5335C124.765 13.2119 125.438 13.6589 126.288 13.8906L126.551 12.9258C125.897 12.7474 125.442 12.4261 125.143 11.9782C124.839 11.522 124.664 10.8864 124.664 10.0293H123.664ZM126.288 13.8906C126.713 14.0065 127.318 14.0547 128.07 14.0547V13.0547C127.337 13.0547 126.842 13.0052 126.551 12.9258L126.288 13.8906ZM128.07 14.0547C128.864 14.0547 129.642 13.9475 130.403 13.7332L130.132 12.7707C129.46 12.96 128.773 13.0547 128.07 13.0547V14.0547ZM129.767 13.252V14.9023H130.767V13.252H129.767ZM130.152 14.4158C129.485 14.5734 128.657 14.6562 127.66 14.6562V15.6562C128.707 15.6562 129.617 15.5698 130.382 15.3889L130.152 14.4158ZM129.371 8.59375C129.371 7.87101 129.169 7.22891 128.743 6.69865L127.963 7.32479C128.228 7.6539 128.371 8.06649 128.371 8.59375H129.371ZM128.741 6.69566C128.231 6.07053 127.524 5.76953 126.683 5.76953V6.76953C127.262 6.76953 127.668 6.96332 127.966 7.32778L128.741 6.69566ZM126.683 5.76953C125.819 5.76953 125.076 6.04881 124.501 6.63132L125.213 7.33353C125.576 6.96551 126.05 6.76953 126.683 6.76953V5.76953ZM124.498 6.63418C123.976 7.17262 123.713 7.83564 123.713 8.59375H124.713C124.713 8.08884 124.879 7.67764 125.216 7.33066L124.498 6.63418ZM124.213 9.09375H128.871V8.09375H124.213V9.09375ZM131.395 4.92188V4.42188H130.668L130.928 5.101L131.395 4.92188ZM133.495 4.92188L133.969 4.76274L133.854 4.42188H133.495V4.92188ZM136.239 13.0957L135.765 13.2548L136.238 14.6642L136.713 13.2553L136.239 13.0957ZM138.993 4.92188V4.42188H138.634L138.519 4.76223L138.993 4.92188ZM141.083 4.92188L141.55 5.10061L141.81 4.42188H141.083V4.92188ZM137.225 15V15.5H137.569L137.692 15.1787L137.225 15ZM135.262 15L134.796 15.1791L134.919 15.5H135.262V15ZM131.395 5.42188H133.495V4.42188H131.395V5.42188ZM133.021 5.08101L135.765 13.2548L136.713 12.9366L133.969 4.76274L133.021 5.08101ZM136.713 13.2553L139.467 5.08152L138.519 4.76223L135.765 12.9361L136.713 13.2553ZM138.993 5.42188H141.083V4.42188H138.993V5.42188ZM140.616 4.74314L136.758 14.8213L137.692 15.1787L141.55 5.10061L140.616 4.74314ZM137.225 14.5H135.262V15.5H137.225V14.5ZM135.729 14.8209L131.862 4.74275L130.928 5.101L134.796 15.1791L135.729 14.8209ZM143.266 6.03516L143.602 6.40481L143.605 6.40276L143.266 6.03516ZM149.418 6.05469L149.801 5.73368L149.801 5.73289L149.418 6.05469ZM150.424 10.0293V10.5293H150.924V10.0293H150.424ZM143.764 10.0293V9.5293H143.264V10.0293H143.764ZM149.867 13.252H150.367V12.5916L149.732 12.7707L149.867 13.252ZM149.867 14.9023L149.982 15.3889L150.367 15.2979V14.9023H149.867ZM148.471 8.59375V9.09375H148.971V8.59375H148.471ZM147.953 7.01172L148.343 6.69864L148.341 6.69566L147.953 7.01172ZM144.457 6.98242L144.101 6.6313L144.098 6.63418L144.457 6.98242ZM143.812 8.59375H143.312V9.09375H143.812V8.59375ZM147.26 14.6562C145.492 14.6562 144.258 14.2243 143.464 13.4485C142.672 12.6748 142.232 11.4759 142.232 9.75586H141.232C141.232 11.636 141.714 13.1373 142.765 14.1638C143.813 15.1881 145.343 15.6562 147.26 15.6562V14.6562ZM142.232 9.75586C142.232 8.32824 142.697 7.22906 143.602 6.40481L142.929 5.66551C141.79 6.70323 141.232 8.08452 141.232 9.75586H142.232ZM143.605 6.40276C144.436 5.63597 145.365 5.26562 146.41 5.26562V4.26562C145.098 4.26562 143.931 4.74163 142.927 5.66755L143.605 6.40276ZM146.41 5.26562C147.569 5.26562 148.422 5.64691 149.035 6.37649L149.801 5.73289C148.969 4.74372 147.817 4.26562 146.41 4.26562V5.26562ZM149.035 6.3757C149.611 7.06346 149.924 8.0098 149.924 9.26758H150.924C150.924 7.84307 150.567 6.64748 149.801 5.73368L149.035 6.3757ZM149.924 9.26758V10.0293H150.924V9.26758H149.924ZM150.424 9.5293H143.764V10.5293H150.424V9.5293ZM143.264 10.0293C143.264 11.0147 143.464 11.8634 143.912 12.5335C144.365 13.2119 145.038 13.6589 145.888 13.8906L146.151 12.9258C145.497 12.7474 145.042 12.4261 144.743 11.9782C144.439 11.522 144.264 10.8864 144.264 10.0293H143.264ZM145.888 13.8906C146.313 14.0065 146.918 14.0547 147.67 14.0547V13.0547C146.937 13.0547 146.442 13.0052 146.151 12.9258L145.888 13.8906ZM147.67 14.0547C148.464 14.0547 149.242 13.9475 150.003 13.7332L149.732 12.7707C149.06 12.96 148.373 13.0547 147.67 13.0547V14.0547ZM149.367 13.252V14.9023H150.367V13.252H149.367ZM149.752 14.4158C149.085 14.5734 148.257 14.6562 147.26 14.6562V15.6562C148.307 15.6562 149.217 15.5698 149.982 15.3889L149.752 14.4158ZM148.971 8.59375C148.971 7.87101 148.769 7.22891 148.343 6.69865L147.563 7.32479C147.828 7.6539 147.971 8.06649 147.971 8.59375H148.971ZM148.341 6.69566C147.831 6.07053 147.124 5.76953 146.283 5.76953V6.76953C146.862 6.76953 147.268 6.96332 147.566 7.32778L148.341 6.69566ZM146.283 5.76953C145.419 5.76953 144.676 6.04881 144.101 6.63132L144.813 7.33353C145.176 6.96551 145.65 6.76953 146.283 6.76953V5.76953ZM144.098 6.63418C143.576 7.17262 143.312 7.83564 143.312 8.59375H144.312C144.312 8.08884 144.479 7.67764 144.816 7.33066L144.098 6.63418ZM143.812 9.09375H148.471V8.09375H143.812V9.09375ZM152.792 0.46875V-0.03125H152.292V0.46875H152.792ZM154.745 0.46875H155.245V-0.03125H154.745V0.46875ZM155.624 13.457L155.81 12.9928L155.805 12.991L155.624 13.457ZM156.845 13.4961H157.345V12.8265L156.703 13.0167L156.845 13.4961ZM156.845 15L156.899 15.4971L157.345 15.4489V15H156.845ZM156.484 15.0391L156.43 14.542L156.428 14.5421L156.484 15.0391ZM153.437 13.8281L153.021 14.1055L153.022 14.1077L153.437 13.8281ZM152.792 0.96875H154.745V-0.03125H152.792V0.96875ZM154.245 0.46875V11.1816H155.245V0.46875H154.245ZM154.245 11.1816C154.245 11.8559 154.321 12.4371 154.499 12.8974C154.68 13.3671 154.983 13.7442 155.443 13.923L155.805 12.991C155.679 12.942 155.543 12.826 155.431 12.5371C155.316 12.239 155.245 11.7964 155.245 11.1816H154.245ZM155.439 13.9213C155.696 14.0242 155.968 14.0742 156.249 14.0742V13.0742C156.088 13.0742 155.943 13.0461 155.81 12.9928L155.439 13.9213ZM156.249 14.0742C156.509 14.0742 156.757 14.0437 156.987 13.9755L156.703 13.0167C156.582 13.0526 156.432 13.0742 156.249 13.0742V14.0742ZM156.345 13.4961V15H157.345V13.4961H156.345ZM156.791 14.5029L156.43 14.542L156.537 15.5362L156.899 15.4971L156.791 14.5029ZM156.428 14.5421C156.328 14.5532 156.233 14.5586 156.142 14.5586V15.5586C156.272 15.5586 156.404 15.5509 156.539 15.536L156.428 14.5421ZM156.142 14.5586C155.009 14.5586 154.287 14.1946 153.851 13.5485L153.022 14.1077C153.693 15.1022 154.775 15.5586 156.142 15.5586V14.5586ZM153.853 13.5508C153.497 13.017 153.292 12.2471 153.292 11.1914H152.292C152.292 12.3622 152.517 13.3502 153.021 14.1055L153.853 13.5508ZM153.292 11.1914V0.46875H152.292V11.1914H153.292ZM168.554 4.4043H169.054V3.45773L168.272 3.9913L168.554 4.4043ZM165.048 6.79688H164.548V7.74344L165.33 7.20987L165.048 6.79688ZM165.048 4.82422L164.759 4.4168L164.548 4.56631V4.82422H165.048ZM169.414 1.71875V1.21875H169.254L169.124 1.31133L169.414 1.71875ZM170.498 1.71875H170.998V1.21875H170.498V1.71875ZM170.498 15V15.5H170.998V15H170.498ZM168.554 15H168.054V15.5H168.554V15ZM168.272 3.9913L164.767 6.38388L165.33 7.20987L168.836 4.81729L168.272 3.9913ZM165.548 6.79688V4.82422H164.548V6.79688H165.548ZM165.338 5.23164L169.704 2.12617L169.124 1.31133L164.759 4.4168L165.338 5.23164ZM169.414 2.21875H170.498V1.21875H169.414V2.21875ZM169.998 1.71875V15H170.998V1.71875H169.998ZM170.498 14.5H168.554V15.5H170.498V14.5ZM169.054 15V4.4043H168.054V15H169.054Z" fill="black"/>
</svg>
