<svg width="181" height="121" viewBox="0 0 181 121" fill="none" xmlns="http://www.w3.org/2000/svg">
<path d="M1 4C1 2.34315 2.34315 1 4 1H177C178.657 1 180 2.34315 180 4V42.0222H1V4Z" fill="#2D3648"/>
<path d="M1 4C1 2.34315 2.34315 1 4 1H177C178.657 1 180 2.34315 180 4V42.0222H1V4Z" stroke="black" stroke-width="2"/>
<path d="M180 117C180 118.657 178.657 120 177 120L4 120C2.34315 120 1 118.657 1 117L1.00001 41.3333L180 41.3334L180 117Z" fill="#E6E6F4"/>
<path d="M180 117C180 118.657 178.657 120 177 120L4 120C2.34315 120 1 118.657 1 117L1.00001 41.3333L180 41.3334L180 117Z" stroke="black" stroke-width="2"/>
<path d="M70.7769 27.2145C70.2775 27.5646 69.6373 27.8412 68.8564 28.0443C68.0755 28.2403 67.1187 28.3383 65.986 28.3383C64.8604 28.3383 63.7242 28.2718 62.5775 28.1388V26.1011C63.6046 26.3322 64.6388 26.4477 65.68 26.4477C66.7212 26.4477 67.5021 26.3917 68.0227 26.2797C68.5433 26.1606 68.9619 26.0066 69.2785 25.8175C69.8624 25.4674 70.1543 25.0122 70.1543 24.4521C70.1543 24.0179 70.0418 23.6818 69.8167 23.4437C69.4579 23.0726 68.9408 22.733 68.2654 22.4249L65.5639 21.196C64.6353 20.7618 63.9775 20.3592 63.5906 19.9881C62.7604 19.1898 62.3453 18.2655 62.3453 17.2152C62.3453 16.1368 62.8167 15.265 63.7594 14.5998C64.7936 13.8716 66.2639 13.5074 68.1704 13.5074C69.4016 13.5074 70.5272 13.5565 71.5473 13.6545V15.6607C70.682 15.4646 69.7146 15.3666 68.6453 15.3666C67.583 15.3666 66.8091 15.4226 66.3237 15.5346C65.8453 15.6397 65.4689 15.7762 65.1946 15.9443C64.6951 16.2524 64.4453 16.6585 64.4453 17.1627C64.4453 17.6528 64.6036 18.059 64.9202 18.3811C65.2016 18.6541 65.7152 18.9693 66.4609 19.3264L69.2363 20.6393C70.1579 21.0734 70.8016 21.4831 71.1674 21.8682C71.5403 22.2533 71.8146 22.642 71.9905 23.0341C72.1664 23.4192 72.2543 23.8849 72.2543 24.4311C72.2543 24.9702 72.1347 25.4814 71.8955 25.9646C71.6563 26.4407 71.2835 26.8574 70.7769 27.2145Z" fill="white"/>
<path d="M82.6437 28.2018C82.2216 28.3348 81.4899 28.4014 80.4487 28.4014C79.4075 28.4014 78.5211 28.2753 77.7894 28.0232C77.0648 27.7712 76.4457 27.4 75.9322 26.9099C74.8699 25.8945 74.3387 24.4871 74.3387 22.6875C74.3387 20.9439 74.9754 19.5715 76.2487 18.5701C77.3884 17.6738 78.7884 17.2257 80.4487 17.2257C81.4758 17.2257 82.1794 17.2607 82.5593 17.3307V19.2003C81.9683 19.0113 81.2929 18.9167 80.5331 18.9167C79.7804 18.9167 79.1542 19.0218 78.6548 19.2318C78.1553 19.4349 77.7472 19.7115 77.4306 20.0616C76.8327 20.7268 76.5337 21.6021 76.5337 22.6875C76.5337 24.5221 77.1985 25.744 78.5281 26.3532C78.9995 26.5703 79.4603 26.6788 79.9105 26.6788C80.3608 26.6788 80.7055 26.6683 80.9447 26.6473C81.1909 26.6263 81.4231 26.5983 81.6412 26.5633C82.1055 26.4862 82.4397 26.4057 82.6437 26.3217V28.2018Z" fill="white"/>
<path d="M84.6858 22.7925C84.6858 21.091 85.2311 19.7115 86.3215 18.6541C87.3416 17.6668 88.6044 17.1732 90.1099 17.1732C91.5873 17.1732 92.822 17.6668 93.8139 18.6541C94.8692 19.7045 95.3968 21.084 95.3968 22.7925C95.3968 24.4941 94.8657 25.8665 93.8034 26.9099C92.7973 27.9042 91.5627 28.4014 90.0994 28.4014C88.615 28.4014 87.3557 27.9042 86.3215 26.9099C85.2311 25.8665 84.6858 24.4941 84.6858 22.7925ZM86.8808 22.7925C86.8808 24.5851 87.4577 25.8035 88.6114 26.4477C89.0195 26.6718 89.5084 26.7838 90.0783 26.7838C90.6481 26.7838 91.13 26.6718 91.524 26.4477C91.918 26.2166 92.2416 25.9155 92.4948 25.5444C92.9662 24.8302 93.2019 23.9129 93.2019 22.7925C93.2019 21.0139 92.6355 19.7955 91.5029 19.1373C91.1089 18.9062 90.6376 18.7907 90.0888 18.7907C89.5401 18.7907 89.0617 18.9062 88.6537 19.1373C88.2527 19.3614 87.922 19.659 87.6617 20.0301C87.1411 20.7583 86.8808 21.6791 86.8808 22.7925Z" fill="white"/>
<path d="M104.699 19.3159C104.312 19.2038 103.848 19.1478 103.306 19.1478C102.772 19.1478 102.332 19.2038 101.987 19.3159C101.642 19.4209 101.34 19.5504 101.08 19.7045C100.601 19.9846 100.253 20.2997 100.035 20.6498V28.2333H97.9244V17.3937H99.9505L100.035 18.8957C100.563 18.2375 101.333 17.7438 102.346 17.4147C102.712 17.2887 103.13 17.2257 103.602 17.2257C104.073 17.2257 104.439 17.2607 104.699 17.3307V19.3159Z" fill="white"/>
<path d="M111.659 28.4014C107.677 28.4014 105.686 26.4652 105.686 22.5929C105.686 20.9264 106.238 19.5925 107.343 18.5911C108.335 17.6808 109.468 17.2257 110.741 17.2257C112.127 17.2257 113.21 17.6878 113.991 18.6121C114.716 19.4734 115.078 20.6253 115.078 22.0678V22.887H107.881C107.881 24.8687 108.694 26.0801 110.319 26.5212C110.706 26.6263 111.3 26.6788 112.102 26.6788C112.911 26.6788 113.703 26.5703 114.477 26.3532V28.1283C113.703 28.3103 112.763 28.4014 111.659 28.4014ZM112.968 21.343C112.968 20.6708 112.781 20.1036 112.408 19.6415C111.972 19.1093 111.371 18.8432 110.604 18.8432C109.795 18.8432 109.137 19.0988 108.63 19.61C108.166 20.0861 107.934 20.6638 107.934 21.343H112.968Z" fill="white"/>
<path d="M77.0273 80.6426C77.0273 75.304 78.2806 71.1455 80.7871 68.167C83.2448 65.2536 86.5977 63.7969 90.8457 63.7969C95.0286 63.7969 98.3164 65.2536 100.709 68.167C103.183 71.1618 104.42 75.3203 104.42 80.6426C104.42 85.9648 103.183 90.1071 100.709 93.0693C98.3164 95.9502 95.0286 97.3906 90.8457 97.3906C86.5977 97.3906 83.2448 95.9502 80.7871 93.0693C78.2806 90.1234 77.0273 85.9811 77.0273 80.6426ZM90.7969 93.6797C92.4733 93.6797 93.8568 93.3379 94.9473 92.6543C96.0378 91.9707 96.9004 91.043 97.5352 89.8711C98.707 87.7227 99.293 84.6546 99.293 80.667C99.293 74.417 97.8444 70.3724 94.9473 68.5332C93.8568 67.8496 92.4896 67.5078 90.8457 67.5078C87.7695 67.5078 85.5072 68.7936 84.0586 71.3652C82.7891 73.6113 82.1543 76.6956 82.1543 80.6182C82.1543 89.3258 85.0352 93.6797 90.7969 93.6797Z" fill="black"/>
</svg>
