<svg width="599" height="407" viewBox="0 0 599 407" fill="none" xmlns="http://www.w3.org/2000/svg">
<path d="M1 22H598V403C598 404.657 596.657 406 595 406H4.00001C2.34315 406 1 404.657 1 403V22Z" fill="#E6E6F4"/>
<path d="M1 22H598V403C598 404.657 596.657 406 595 406H4.00001C2.34315 406 1 404.657 1 403V22Z" stroke="#2D3648" stroke-width="2"/>
<path d="M1 4C1 2.34315 2.34315 1 4 1H595C596.657 1 598 2.34315 598 4V21H1V4Z" fill="#2D3648" stroke="black" stroke-width="2"/>
<path d="M29.4736 16.3369C29.1501 16.5648 28.7354 16.7448 28.2295 16.877C27.7236 17.0046 27.1038 17.0684 26.3701 17.0684C25.641 17.0684 24.9049 17.0251 24.1621 16.9385V15.6123C24.8275 15.7627 25.4974 15.8379 26.1719 15.8379C26.8464 15.8379 27.3522 15.8014 27.6895 15.7285C28.0267 15.651 28.2979 15.5508 28.5029 15.4277C28.8812 15.1999 29.0703 14.9036 29.0703 14.5391C29.0703 14.2565 28.9974 14.0378 28.8516 13.8828C28.6191 13.6413 28.2842 13.4202 27.8467 13.2197L26.0967 12.4199C25.4951 12.1374 25.069 11.8753 24.8184 11.6338C24.2806 11.1143 24.0117 10.5127 24.0117 9.8291C24.0117 9.12728 24.3171 8.5599 24.9277 8.12695C25.5977 7.65299 26.5501 7.41602 27.7852 7.41602C28.5827 7.41602 29.3118 7.44792 29.9727 7.51172V8.81738C29.4121 8.68978 28.7855 8.62598 28.0928 8.62598C27.4046 8.62598 26.9033 8.66243 26.5889 8.73535C26.279 8.80371 26.0352 8.89258 25.8574 9.00195C25.5339 9.20247 25.3721 9.4668 25.3721 9.79492C25.3721 10.1139 25.4746 10.3783 25.6797 10.5879C25.862 10.7656 26.1947 10.9707 26.6777 11.2031L28.4756 12.0576C29.0726 12.3402 29.4896 12.6068 29.7266 12.8574C29.9681 13.1081 30.1458 13.361 30.2598 13.6162C30.3737 13.8669 30.4307 14.1699 30.4307 14.5254C30.4307 14.8763 30.3532 15.209 30.1982 15.5234C30.0433 15.8333 29.8018 16.1045 29.4736 16.3369ZM34.6315 15.9199C34.7819 15.9746 35.0097 16.002 35.3151 16.002C35.6204 16.002 35.8756 15.9655 36.0807 15.8926V16.9863C35.985 17.0091 35.846 17.0228 35.6637 17.0273L35.233 17.041C35.1373 17.041 35.0644 17.041 35.0143 17.041C34.1347 17.041 33.4853 16.7539 33.0661 16.1797C32.7288 15.7148 32.5602 15.0996 32.5602 14.334V10.9912H31.5485V10.3486L32.5602 9.94531L32.8883 8.19531H33.9274V9.94531H36.1149V10.9912H33.9274V14.3271C33.9274 15.2204 34.1621 15.7513 34.6315 15.9199ZM37.3352 13.459C37.3352 12.3516 37.6884 11.4538 38.3948 10.7656C39.0556 10.123 39.8736 9.80176 40.8489 9.80176C41.8059 9.80176 42.6057 10.123 43.2483 10.7656C43.9319 11.4492 44.2737 12.347 44.2737 13.459C44.2737 14.5664 43.9296 15.4596 43.2415 16.1387C42.5898 16.7858 41.79 17.1094 40.8421 17.1094C39.8805 17.1094 39.0647 16.7858 38.3948 16.1387C37.6884 15.4596 37.3352 14.5664 37.3352 13.459ZM38.7571 13.459C38.7571 14.6257 39.1308 15.4186 39.8782 15.8379C40.1425 15.9837 40.4593 16.0566 40.8284 16.0566C41.1975 16.0566 41.5097 15.9837 41.7649 15.8379C42.0201 15.6875 42.2298 15.4915 42.3938 15.25C42.6992 14.7852 42.8518 14.1882 42.8518 13.459C42.8518 12.3014 42.485 11.5085 41.7513 11.0801C41.496 10.9297 41.1907 10.8545 40.8352 10.8545C40.4798 10.8545 40.1699 10.9297 39.9055 11.0801C39.6458 11.2259 39.4316 11.4196 39.263 11.6611C38.9257 12.1351 38.7571 12.7344 38.7571 13.459ZM50.2997 11.1963C50.0491 11.1234 49.7483 11.0869 49.3974 11.0869C49.051 11.0869 48.7662 11.1234 48.5429 11.1963C48.3196 11.2646 48.1236 11.349 47.955 11.4492C47.6451 11.6315 47.4195 11.8366 47.2782 12.0645V17H45.9111V9.94531H47.2236L47.2782 10.9229C47.62 10.4945 48.1191 10.1732 48.7753 9.95898C49.0123 9.87695 49.2835 9.83594 49.5888 9.83594C49.8941 9.83594 50.1311 9.85872 50.2997 9.9043V11.1963ZM54.8082 17.1094C52.2287 17.1094 50.939 15.8493 50.939 13.3291C50.939 12.2445 51.2968 11.3763 52.0123 10.7246C52.6548 10.1322 53.3886 9.83594 54.2134 9.83594C55.1112 9.83594 55.813 10.1367 56.3189 10.7383C56.7883 11.2988 57.023 12.0485 57.023 12.9873V13.5205H52.3609C52.3609 14.8102 52.8873 15.5986 53.94 15.8857C54.1907 15.9541 54.5757 15.9883 55.0953 15.9883C55.6194 15.9883 56.1321 15.9176 56.6334 15.7764V16.9316C56.1321 17.0501 55.5237 17.1094 54.8082 17.1094ZM55.6558 12.5156C55.6558 12.0781 55.5351 11.709 55.2935 11.4082C55.011 11.0618 54.6213 10.8887 54.1246 10.8887C53.6005 10.8887 53.1744 11.055 52.8463 11.3877C52.5455 11.6976 52.3951 12.0736 52.3951 12.5156H55.6558ZM63.0116 12.4062H67.66V13.459H63.0116V12.4062ZM78.878 15.2705V9.94531H80.2452V17H79.0148L78.8917 16.2549C78.2172 16.8245 77.4721 17.1094 76.6564 17.1094C75.7905 17.1094 75.1775 16.8701 74.8175 16.3916C74.4438 15.904 74.257 15.0632 74.257 13.8691V9.94531H75.6241V13.8008C75.6241 14.6439 75.7449 15.2181 75.9864 15.5234C76.2006 15.7969 76.6085 15.9336 77.2101 15.9336C77.8162 15.9336 78.3722 15.7126 78.878 15.2705ZM83.783 19.7344H82.4158V9.94531H83.6463L83.7009 10.752C83.9744 10.3874 84.3936 10.1162 84.9588 9.93848C85.1775 9.87012 85.3985 9.83594 85.6218 9.83594C85.8497 9.83594 86.073 9.861 86.2918 9.91113C86.5105 9.95671 86.727 10.0342 86.9412 10.1436C87.1554 10.2484 87.3604 10.3896 87.5564 10.5674C87.7524 10.7406 87.9255 10.957 88.0759 11.2168C88.4041 11.7773 88.5681 12.4723 88.5681 13.3018C88.5681 14.5687 88.1306 15.5371 87.2556 16.207C86.4809 16.804 85.5375 17.1025 84.4255 17.1025H84.0838C83.9744 17.1025 83.8741 17.1003 83.783 17.0957V19.7344ZM83.783 15.9883C83.9106 16.0247 84.1612 16.043 84.5349 16.043C84.9086 16.043 85.2595 15.9906 85.5877 15.8857C85.9158 15.7809 86.1938 15.6191 86.4216 15.4004C86.9047 14.9355 87.1463 14.236 87.1463 13.3018C87.1463 12.4222 86.9366 11.7728 86.5173 11.3535C86.2074 11.0436 85.8292 10.8887 85.3826 10.8887C84.822 10.8887 84.3572 11.096 83.988 11.5107C83.8923 11.6156 83.824 11.709 83.783 11.791V15.9883ZM94.3617 19.6934C93.9652 19.7936 93.4548 19.8438 92.8305 19.8438C92.2107 19.8438 91.7572 19.7982 91.4701 19.707V18.4902C91.8301 18.6452 92.2699 18.7227 92.7895 18.7227C93.3135 18.7272 93.6986 18.693 93.9447 18.6201C94.1908 18.5472 94.3845 18.4287 94.5258 18.2646C94.781 17.9684 94.9086 17.4329 94.9086 16.6582V16.2959C94.5622 16.6423 94.1065 16.8838 93.5414 17.0205C93.3135 17.0752 93.0857 17.1025 92.8578 17.1025C92.6299 17.1025 92.4066 17.0775 92.1879 17.0273C91.9737 16.9772 91.7595 16.8975 91.5453 16.7881C91.3311 16.6742 91.126 16.5283 90.9301 16.3506C90.7341 16.1683 90.5609 15.9427 90.4105 15.6738C90.0733 15.0905 89.9047 14.3727 89.9047 13.5205C89.8956 12.7321 90.1234 12.0394 90.5883 11.4424C90.9893 10.9229 91.5408 10.5195 92.2426 10.2324C92.8806 9.9681 93.571 9.83594 94.3139 9.83594C95.0567 9.83594 95.7107 9.8724 96.2758 9.94531V16.6582C96.2758 18.3626 95.6378 19.3743 94.3617 19.6934ZM94.9086 10.9434C94.6169 10.9069 94.3298 10.8887 94.0473 10.8887C93.7647 10.8887 93.448 10.9411 93.0971 11.0459C92.7462 11.1507 92.4385 11.3102 92.1742 11.5244C91.5954 11.9938 91.3061 12.6592 91.3061 13.5205C91.3061 14.4548 91.5316 15.1361 91.9828 15.5645C92.3201 15.888 92.7325 16.0498 93.2201 16.0498C93.808 16.0498 94.3025 15.8424 94.7035 15.4277C94.7992 15.3229 94.8676 15.2295 94.9086 15.1475V10.9434ZM102.856 11.1963C102.605 11.1234 102.304 11.0869 101.953 11.0869C101.607 11.0869 101.322 11.1234 101.099 11.1963C100.875 11.2646 100.679 11.349 100.511 11.4492C100.201 11.6315 99.9753 11.8366 99.834 12.0645V17H98.4668V9.94531H99.7793L99.834 10.9229C100.176 10.4945 100.675 10.1732 101.331 9.95898C101.568 9.87695 101.839 9.83594 102.145 9.83594C102.45 9.83594 102.687 9.85872 102.856 9.9043V11.1963ZM104.383 15.7422C104.233 15.4824 104.112 15.1771 104.021 14.8262C103.935 14.4753 103.891 14.0173 103.891 13.4521C103.891 12.887 104.012 12.3675 104.254 11.8936C104.5 11.415 104.819 11.0231 105.211 10.7178C105.972 10.1299 106.917 9.83594 108.048 9.83594C108.635 9.83594 109.08 9.84961 109.381 9.87695C109.381 9.87695 109.602 9.89974 110.044 9.94531V17H108.813L108.758 16.1865C108.485 16.5511 108.068 16.8223 107.507 17C107.293 17.0684 107.072 17.1025 106.844 17.1025C106.621 17.1025 106.4 17.0798 106.181 17.0342C105.963 16.9886 105.744 16.9134 105.525 16.8086C105.311 16.7038 105.106 16.5648 104.91 16.3916C104.714 16.2139 104.538 15.9974 104.383 15.7422ZM108.676 10.9502C108.385 10.9137 108.093 10.8955 107.801 10.8955C107.514 10.8955 107.207 10.9479 106.879 11.0527C106.55 11.153 106.27 11.3125 106.038 11.5312C105.555 11.987 105.313 12.682 105.313 13.6162C105.313 14.5003 105.521 15.1543 105.935 15.5781C106.25 15.8926 106.628 16.0498 107.07 16.0498C107.64 16.0498 108.109 15.8424 108.478 15.4277C108.569 15.3229 108.635 15.2295 108.676 15.1475V10.9502ZM113.158 10.7178C113.554 10.4124 113.998 10.1891 114.491 10.0479C114.987 9.90658 115.42 9.83594 115.789 9.83594C116.159 9.83594 116.443 9.84505 116.644 9.86328V6.82812H118.004V17H116.781L116.726 16.1865C116.448 16.5557 116.026 16.8291 115.461 17.0068C115.243 17.0752 115.019 17.1094 114.791 17.1094C114.568 17.1094 114.347 17.0866 114.128 17.041C113.909 16.9954 113.691 16.9202 113.472 16.8154C113.258 16.7061 113.053 16.5648 112.857 16.3916C112.661 16.2139 112.485 15.9974 112.33 15.7422C112.002 15.1816 111.838 14.5186 111.838 13.7529C111.838 12.9873 111.959 12.3675 112.201 11.8936C112.447 11.415 112.766 11.0231 113.158 10.7178ZM113.985 11.5312C113.752 11.75 113.572 12.0326 113.445 12.3789C113.322 12.7207 113.26 13.1377 113.26 13.6299C113.26 14.1175 113.319 14.5208 113.438 14.8398C113.556 15.1543 113.704 15.4004 113.882 15.5781C114.197 15.8971 114.575 16.0566 115.017 16.0566C115.587 16.0566 116.058 15.847 116.432 15.4277C116.528 15.3229 116.596 15.2295 116.637 15.1475V10.9434L116.5 10.9297C116.291 10.9023 116.04 10.8887 115.748 10.8887C115.461 10.8887 115.154 10.9411 114.826 11.0459C114.497 11.1462 114.217 11.3079 113.985 11.5312ZM123.408 17.1094C120.829 17.1094 119.539 15.8493 119.539 13.3291C119.539 12.2445 119.897 11.3763 120.612 10.7246C121.255 10.1322 121.989 9.83594 122.813 9.83594C123.711 9.83594 124.413 10.1367 124.919 10.7383C125.388 11.2988 125.623 12.0485 125.623 12.9873V13.5205H120.961C120.961 14.8102 121.487 15.5986 122.54 15.8857C122.791 15.9541 123.176 15.9883 123.695 15.9883C124.219 15.9883 124.732 15.9176 125.233 15.7764V16.9316C124.732 17.0501 124.124 17.1094 123.408 17.1094ZM124.256 12.5156C124.256 12.0781 124.135 11.709 123.894 11.4082C123.611 11.0618 123.221 10.8887 122.725 10.8887C122.2 10.8887 121.774 11.055 121.446 11.3877C121.145 11.6976 120.995 12.0736 120.995 12.5156H124.256ZM131.215 18.75C131.338 18.7865 131.504 18.8047 131.714 18.8047C131.928 18.8047 132.147 18.7614 132.37 18.6748C132.594 18.5928 132.787 18.4766 132.951 18.3262C133.225 18.0801 133.473 17.6927 133.697 17.1641L130.798 9.94531H132.254L134.291 15.5645L136.116 9.94531H137.559L134.66 17.8682C134.442 18.4606 134.139 18.9141 133.751 19.2285C133.241 19.6387 132.559 19.8438 131.707 19.8438C131.63 19.8438 131.55 19.8392 131.468 19.8301L131.215 19.8027V18.75ZM137.925 13.459C137.925 12.3516 138.278 11.4538 138.984 10.7656C139.645 10.123 140.463 9.80176 141.438 9.80176C142.395 9.80176 143.195 10.123 143.838 10.7656C144.521 11.4492 144.863 12.347 144.863 13.459C144.863 14.5664 144.519 15.4596 143.831 16.1387C143.179 16.7858 142.379 17.1094 141.432 17.1094C140.47 17.1094 139.654 16.7858 138.984 16.1387C138.278 15.4596 137.925 14.5664 137.925 13.459ZM139.347 13.459C139.347 14.6257 139.72 15.4186 140.468 15.8379C140.732 15.9837 141.049 16.0566 141.418 16.0566C141.787 16.0566 142.099 15.9837 142.354 15.8379C142.61 15.6875 142.819 15.4915 142.983 15.25C143.289 14.7852 143.441 14.1882 143.441 13.459C143.441 12.3014 143.074 11.5085 142.341 11.0801C142.085 10.9297 141.78 10.8545 141.425 10.8545C141.069 10.8545 140.759 10.9297 140.495 11.0801C140.235 11.2259 140.021 11.4196 139.852 11.6611C139.515 12.1351 139.347 12.7344 139.347 13.459ZM151.005 15.2705V9.94531H152.373V17H151.142L151.019 16.2549C150.345 16.8245 149.599 17.1094 148.784 17.1094C147.918 17.1094 147.305 16.8701 146.945 16.3916C146.571 15.904 146.384 15.0632 146.384 13.8691V9.94531H147.751V13.8008C147.751 14.6439 147.872 15.2181 148.114 15.5234C148.328 15.7969 148.736 15.9336 149.337 15.9336C149.944 15.9336 150.5 15.7126 151.005 15.2705ZM158.925 11.1963C158.674 11.1234 158.374 11.0869 158.023 11.0869C157.676 11.0869 157.391 11.1234 157.168 11.1963C156.945 11.2646 156.749 11.349 156.58 11.4492C156.27 11.6315 156.045 11.8366 155.903 12.0645V17H154.536V9.94531H155.849L155.903 10.9229C156.245 10.4945 156.744 10.1732 157.401 9.95898C157.638 9.87695 157.909 9.83594 158.214 9.83594C158.519 9.83594 158.756 9.85872 158.925 9.9043V11.1963ZM167.197 15.9199C167.347 15.9746 167.575 16.002 167.88 16.002C168.186 16.002 168.441 15.9655 168.646 15.8926V16.9863C168.55 17.0091 168.411 17.0228 168.229 17.0273L167.798 17.041C167.703 17.041 167.63 17.041 167.58 17.041C166.7 17.041 166.051 16.7539 165.631 16.1797C165.294 15.7148 165.125 15.0996 165.125 14.334V10.9912H164.114V10.3486L165.125 9.94531L165.454 8.19531H166.493V9.94531H168.68V10.9912H166.493V14.3271C166.493 15.2204 166.727 15.7513 167.197 15.9199ZM169.9 13.459C169.9 12.3516 170.254 11.4538 170.96 10.7656C171.621 10.123 172.439 9.80176 173.414 9.80176C174.371 9.80176 175.171 10.123 175.814 10.7656C176.497 11.4492 176.839 12.347 176.839 13.459C176.839 14.5664 176.495 15.4596 175.807 16.1387C175.155 16.7858 174.355 17.1094 173.407 17.1094C172.446 17.1094 171.63 16.7858 170.96 16.1387C170.254 15.4596 169.9 14.5664 169.9 13.459ZM171.322 13.459C171.322 14.6257 171.696 15.4186 172.443 15.8379C172.708 15.9837 173.024 16.0566 173.394 16.0566C173.763 16.0566 174.075 15.9837 174.33 15.8379C174.585 15.6875 174.795 15.4915 174.959 15.25C175.264 14.7852 175.417 14.1882 175.417 13.459C175.417 12.3014 175.05 11.5085 174.316 11.0801C174.061 10.9297 173.756 10.8545 173.4 10.8545C173.045 10.8545 172.735 10.9297 172.471 11.0801C172.211 11.2259 171.997 11.4196 171.828 11.6611C171.491 12.1351 171.322 12.7344 171.322 13.459ZM177.923 13.459C177.923 12.3516 178.276 11.4538 178.982 10.7656C179.643 10.123 180.461 9.80176 181.436 9.80176C182.393 9.80176 183.193 10.123 183.836 10.7656C184.519 11.4492 184.861 12.347 184.861 13.459C184.861 14.5664 184.517 15.4596 183.829 16.1387C183.177 16.7858 182.377 17.1094 181.429 17.1094C180.468 17.1094 179.652 16.7858 178.982 16.1387C178.276 15.4596 177.923 14.5664 177.923 13.459ZM179.344 13.459C179.344 14.6257 179.718 15.4186 180.466 15.8379C180.73 15.9837 181.047 16.0566 181.416 16.0566C181.785 16.0566 182.097 15.9837 182.352 15.8379C182.607 15.6875 182.817 15.4915 182.981 15.25C183.287 14.7852 183.439 14.1882 183.439 13.459C183.439 12.3014 183.072 11.5085 182.339 11.0801C182.083 10.9297 181.778 10.8545 181.423 10.8545C181.067 10.8545 180.757 10.9297 180.493 11.0801C180.233 11.2259 180.019 11.4196 179.85 11.6611C179.513 12.1351 179.344 12.7344 179.344 13.459ZM186.697 6.82812H188.064V14.3271C188.064 15.2295 188.269 15.7604 188.679 15.9199C188.816 15.9746 188.962 16.002 189.117 16.002C189.272 16.002 189.411 15.9837 189.534 15.9473V17L189.281 17.0273C189.199 17.0365 189.119 17.041 189.041 17.041C188.166 17.041 187.535 16.7539 187.148 16.1797C186.847 15.7285 186.697 15.1133 186.697 14.334V6.82812ZM192.668 17.1094C192.098 17.1094 191.522 17.0684 190.938 16.9863V15.7764C191.531 15.9176 192.132 15.9883 192.743 15.9883C193.965 15.9883 194.575 15.7308 194.575 15.2158C194.575 15.0199 194.527 14.874 194.432 14.7783C194.29 14.6279 194.067 14.4775 193.762 14.3271L192.764 13.8691C192.117 13.5456 191.697 13.2858 191.506 13.0898C191.146 12.7253 190.966 12.2923 190.966 11.791C190.966 11.2259 191.228 10.7656 191.752 10.4102C192.317 10.0273 193.11 9.83594 194.131 9.83594C194.646 9.83594 195.165 9.8724 195.689 9.94531V11.1143C195.115 11.0094 194.614 10.957 194.186 10.957C193.762 10.957 193.431 10.9844 193.194 11.0391C192.962 11.0938 192.786 11.1621 192.668 11.2441C192.481 11.3717 192.388 11.5381 192.388 11.7432C192.388 11.9437 192.451 12.1077 192.579 12.2354C192.711 12.3584 192.916 12.4928 193.194 12.6387L194.199 13.124C194.855 13.4658 195.277 13.7279 195.464 13.9102C195.819 14.2565 195.997 14.6917 195.997 15.2158C195.997 15.7764 195.715 16.2275 195.149 16.5693C194.557 16.9294 193.73 17.1094 192.668 17.1094ZM197.805 7.08789H199.173L199.063 14.1699H197.915L197.805 7.08789ZM198.489 17.1709C198.215 17.1709 197.988 17.098 197.805 16.9521C197.628 16.8018 197.539 16.5876 197.539 16.3096C197.539 16.027 197.628 15.8105 197.805 15.6602C197.988 15.5098 198.215 15.4346 198.489 15.4346C198.767 15.4346 198.997 15.5098 199.179 15.6602C199.362 15.8105 199.453 16.027 199.453 16.3096C199.453 16.5876 199.362 16.8018 199.179 16.9521C198.997 17.098 198.767 17.1709 198.489 17.1709Z" fill="white"/>
</svg>
