<svg width="24" height="24" viewBox="0 0 24 24" fill="none" xmlns="http://www.w3.org/2000/svg">
<path d="M12.4 21.75C9.81416 21.75 7.33421 20.7228 5.50573 18.8943C3.67725 17.0658 2.65002 14.5859 2.65002 12C2.65002 9.41414 3.67725 6.93419 5.50573 5.10571C7.33421 3.27723 9.81416 2.25 12.4 2.25C12.5989 2.25 12.7897 2.32902 12.9304 2.46967C13.071 2.61032 13.15 2.80109 13.15 3C13.15 3.19891 13.071 3.38968 12.9304 3.53033C12.7897 3.67098 12.5989 3.75 12.4 3.75C10.212 3.75 8.11357 4.61919 6.56639 6.16637C5.01922 7.71354 4.15002 9.81196 4.15002 12C4.15002 14.188 5.01922 16.2865 6.56639 17.8336C8.11357 19.3808 10.212 20.25 12.4 20.25C13.4933 20.2536 14.5761 20.0377 15.5844 19.6151C16.5927 19.1926 17.506 18.5719 18.27 17.79C18.4106 17.6481 18.6018 17.5679 18.8015 17.5669C19.0012 17.566 19.1931 17.6444 19.335 17.785C19.4769 17.9256 19.5572 18.1167 19.5581 18.3165C19.559 18.5162 19.4806 18.7081 19.34 18.85C18.4349 19.7715 17.3547 20.5028 16.1629 21.0008C14.9711 21.4989 13.6917 21.7536 12.4 21.75V21.75Z" fill="#F0F0F0"/>
<path d="M12.1001 15.45C12.0015 15.4505 11.9039 15.4313 11.8129 15.3935C11.7219 15.3557 11.6393 15.3001 11.5701 15.23L7.57007 11.23C7.43759 11.0878 7.36546 10.8998 7.36889 10.7055C7.37232 10.5112 7.45103 10.3258 7.58844 10.1884C7.72586 10.051 7.91124 9.97227 8.10554 9.96884C8.29984 9.96541 8.48789 10.0375 8.63007 10.17L12.1001 13.64L20.1001 5.64001C20.1687 5.56633 20.2515 5.50723 20.3435 5.46623C20.4355 5.42524 20.5348 5.4032 20.6355 5.40142C20.7362 5.39965 20.8363 5.41817 20.9297 5.45589C21.0231 5.49361 21.1079 5.54976 21.1791 5.62098C21.2503 5.6922 21.3065 5.77703 21.3442 5.87042C21.3819 5.96381 21.4004 6.06383 21.3987 6.16454C21.3969 6.26524 21.3748 6.36455 21.3338 6.45655C21.2929 6.54855 21.2338 6.63135 21.1601 6.70001L12.6601 15.2C12.5904 15.2798 12.5043 15.3435 12.4076 15.3867C12.3109 15.4298 12.206 15.4515 12.1001 15.45V15.45Z" fill="#F0F0F0"/>
</svg>
