<svg width="59" height="26" viewBox="0 0 59 26" fill="none" xmlns="http://www.w3.org/2000/svg">
<path opacity="0.15" d="M7 6.89445V4H17V6.89445C17 7.2893 16.8831 7.67531 16.6641 8.00385L14.7396 10.8906C14.2917 11.5624 14.2917 12.4376 14.7396 13.1094L16.6641 15.9962C16.8831 16.3247 17 16.7107 17 17.1056V20H7V17.1056C7 16.7107 7.11688 16.3247 7.3359 15.9962L9.2604 13.1094C9.70827 12.4376 9.70827 11.5624 9.2604 10.8906L7.3359 8.00385C7.11688 7.67531 7 7.2893 7 6.89445Z" fill="#001A72"/>
<path d="M17 4V6.89445C17 7.2893 16.8831 7.67531 16.6641 8.00385L14.7396 10.8906C14.2917 11.5624 14.2917 12.4376 14.7396 13.1094L16.6641 15.9962C16.8831 16.3247 17 16.7107 17 17.1056V20M17 4H19M17 4H7M17 20H19M17 20H7M7 4V6.89445C7 7.2893 7.11688 7.67531 7.3359 8.00385L9.2604 10.8906C9.70827 11.5624 9.70827 12.4376 9.2604 13.1094L7.3359 15.9962C7.11688 16.3247 7 16.7107 7 17.1056V20M7 4H5M7 20H5" stroke="#001A72" stroke-width="1.5" stroke-linecap="round" stroke-linejoin="round"/>
<path d="M31.5479 15.4521H28.6631V14.4131H31.5479V11.5352H32.5869V14.4131H35.5195V15.4521H32.5869V18.3848H31.5479V15.4521ZM36.8698 14.4199C36.8698 12.9251 37.2207 11.7607 37.9225 10.9268C38.6107 10.111 39.5495 9.70312 40.7389 9.70312C41.9101 9.70312 42.8307 10.111 43.5006 10.9268C44.1933 11.7653 44.5397 12.9297 44.5397 14.4199C44.5397 15.9102 44.1933 17.07 43.5006 17.8994C42.8307 18.7061 41.9101 19.1094 40.7389 19.1094C39.5495 19.1094 38.6107 18.7061 37.9225 17.8994C37.2207 17.0745 36.8698 15.9147 36.8698 14.4199ZM40.7252 18.0703C41.1946 18.0703 41.582 17.9746 41.8873 17.7832C42.1927 17.5918 42.4342 17.332 42.612 17.0039C42.9401 16.4023 43.1041 15.5433 43.1041 14.4268C43.1041 12.6768 42.6985 11.5443 41.8873 11.0293C41.582 10.8379 41.1992 10.7422 40.7389 10.7422C39.8776 10.7422 39.2441 11.1022 38.8385 11.8223C38.483 12.4512 38.3053 13.3148 38.3053 14.4131C38.3053 16.8512 39.112 18.0703 40.7252 18.0703ZM48.1595 14.3516C47.845 14.3516 47.5556 14.3014 47.2913 14.2012C47.027 14.0964 46.8014 13.946 46.6145 13.75C46.2135 13.3307 46.013 12.7588 46.013 12.0342C46.013 11.3232 46.2135 10.7559 46.6145 10.332C47.0019 9.91732 47.5192 9.70996 48.1663 9.70996C48.7998 9.70996 49.3102 9.91732 49.6975 10.332C50.0895 10.7513 50.2854 11.3187 50.2854 12.0342C50.2854 12.7588 50.0895 13.3307 49.6975 13.75C49.3193 14.151 48.8066 14.3516 48.1595 14.3516ZM47.1067 12.0479C47.1067 12.499 47.2001 12.8499 47.387 13.1006C47.5738 13.3512 47.8313 13.4766 48.1595 13.4766C48.4876 13.4766 48.7405 13.3512 48.9182 13.1006C49.1005 12.8499 49.1917 12.499 49.1917 12.0479C49.1917 11.5921 49.1005 11.2344 48.9182 10.9746C48.7405 10.7148 48.4876 10.585 48.1595 10.585C47.8313 10.585 47.5738 10.7148 47.387 10.9746C47.2001 11.2344 47.1067 11.5921 47.1067 12.0479ZM51.803 16.6826C51.803 16.318 51.8554 15.9922 51.9602 15.7051C52.0651 15.418 52.2109 15.1742 52.3977 14.9736C52.7897 14.5589 53.3092 14.3516 53.9563 14.3516C54.5898 14.3516 55.1002 14.5589 55.4876 14.9736C55.8795 15.3929 56.0755 15.9603 56.0755 16.6758C56.0755 17.4004 55.8795 17.9701 55.4876 18.3848C55.1093 18.7904 54.5989 18.9932 53.9563 18.9932C53.3046 18.9932 52.7851 18.7904 52.3977 18.3848C52.0012 17.9701 51.803 17.4027 51.803 16.6826ZM53.9495 15.2266C53.6214 15.2266 53.3639 15.3564 53.177 15.6162C52.9902 15.876 52.8968 16.2337 52.8968 16.6895C52.8968 17.1406 52.9902 17.4915 53.177 17.7422C53.3639 17.9928 53.6214 18.1182 53.9495 18.1182C54.2776 18.1182 54.5305 17.9928 54.7083 17.7422C54.8906 17.4915 54.9817 17.1406 54.9817 16.6895C54.9817 16.2337 54.8906 15.876 54.7083 15.6162C54.5305 15.3564 54.2776 15.2266 53.9495 15.2266ZM53.1018 9.70312H54.2434L48.8636 19H47.722L53.1018 9.70312Z" fill="#082831"/>
</svg>
