<svg width="72" height="37" viewBox="0 0 72 37" fill="none" xmlns="http://www.w3.org/2000/svg">
<mask id="path-1-inside-1_132_67" fill="white">
<path d="M0 6C0 2.68629 2.68629 0 6 0H66C69.3137 0 72 2.68629 72 6V31C72 34.3137 69.3137 37 66 37H6C2.68629 37 0 34.3137 0 31V6Z"/>
</mask>
<path d="M0 6C0 2.68629 2.68629 0 6 0H66C69.3137 0 72 2.68629 72 6V31C72 34.3137 69.3137 37 66 37H6C2.68629 37 0 34.3137 0 31V6Z" fill="#E1E4EC" fill-opacity="0.7"/>
<path d="M-2 4C-2 -0.418278 1.58172 -4 6 -4H66C70.4183 -4 74 -0.418278 74 4L70 6C70 4.89543 68.2091 4 66 4H6C3.79086 4 2 4.89543 2 6L-2 4ZM74 33C74 37.4183 70.4183 41 66 41H6C1.58172 41 -2 37.4183 -2 33L2 31C2 32.1046 3.79086 33 6 33H66C68.2091 33 70 32.1046 70 31L74 33ZM6 41C1.58172 41 -2 37.4183 -2 33V4C-2 -0.418278 1.58172 -4 6 -4V4C3.79086 4 2 4.89543 2 6V31C2 32.1046 3.79086 33 6 33V41ZM66 -4C70.4183 -4 74 -0.418278 74 4V33C74 37.4183 70.4183 41 66 41V33C68.2091 33 70 32.1046 70 31V6C70 4.89543 68.2091 4 66 4V-4Z" fill="#2D3648" fill-opacity="0.9" mask="url(#path-1-inside-1_132_67)"/>
</svg>
