<svg width="112" height="32" viewBox="0 0 112 32" fill="none" xmlns="http://www.w3.org/2000/svg">
<path d="M0 16.5C0 8.49187 6.49187 2 14.5 2H97.5C105.508 2 112 8.49187 112 16.5V17.5C112 25.5081 105.508 32 97.5 32H14.5C6.49187 32 0 25.5081 0 17.5V16.5Z" fill="#C3A860"/>
<path d="M0 14.5C0 6.49187 6.49187 0 14.5 0H97.5C105.508 0 112 6.49187 112 14.5V15.5C112 23.5081 105.508 30 97.5 30H14.5C6.49187 30 0 23.5081 0 15.5V14.5Z" fill="#F2D997"/>
<path d="M24.3364 18.5527C26.3651 18.5527 27.3794 17.3065 27.3794 14.814V7.08594H29.2349V14.814C29.2349 16.6385 28.7741 18.0054 27.8525 18.9146C27.0176 19.7371 25.8455 20.1484 24.3364 20.1484C22.0047 20.1484 20.4925 19.1867 19.7998 17.2632C19.5524 16.589 19.4287 15.7726 19.4287 14.814V7.08594H21.2842V14.814C21.2842 17.3065 22.3016 18.5527 24.3364 18.5527Z" fill="white"/>
<path d="M33.9155 23.7109H32.06V10.4258H33.7299L33.8041 11.5205C34.1752 11.0257 34.7442 10.6577 35.5112 10.4165C35.808 10.3237 36.108 10.2773 36.4111 10.2773C36.7203 10.2773 37.0234 10.3114 37.3203 10.3794C37.6171 10.4412 37.9109 10.5464 38.2016 10.6948C38.4923 10.8371 38.7706 11.0288 39.0366 11.27C39.3025 11.505 39.5375 11.7988 39.7416 12.1514C40.187 12.9121 40.4096 13.8553 40.4096 14.981C40.4096 16.7004 39.8159 18.0146 38.6284 18.9238C37.5769 19.734 36.2967 20.1392 34.7875 20.1392H34.3237C34.1752 20.1392 34.0392 20.1361 33.9155 20.1299V23.7109ZM33.9155 18.627C34.0886 18.6764 34.4288 18.7012 34.936 18.7012C35.4431 18.7012 35.9194 18.63 36.3647 18.4878C36.81 18.3455 37.1873 18.126 37.4965 17.8291C38.1521 17.1982 38.4799 16.2489 38.4799 14.981C38.4799 13.7873 38.1954 12.9059 37.6264 12.3369C37.2058 11.9163 36.6925 11.7061 36.0864 11.7061C35.3256 11.7061 34.6948 11.9875 34.1938 12.5503C34.0639 12.6925 33.9711 12.8193 33.9155 12.9307V18.627Z" fill="white"/>
<path d="M48.2723 23.6553C47.7343 23.7913 47.0416 23.8594 46.1942 23.8594C45.3531 23.8594 44.7377 23.7975 44.348 23.6738V22.0225C44.8366 22.2327 45.4335 22.3379 46.1386 22.3379C46.8498 22.3441 47.3724 22.2977 47.7064 22.1987C48.0404 22.0998 48.3033 21.939 48.495 21.7163C48.8414 21.3143 49.0145 20.5876 49.0145 19.5361V19.0444C48.5445 19.5145 47.926 19.8423 47.1591 20.0278C46.8498 20.1021 46.5406 20.1392 46.2313 20.1392C45.9221 20.1392 45.619 20.1051 45.3222 20.0371C45.0315 19.9691 44.7408 19.8608 44.4501 19.7124C44.1594 19.5578 43.8811 19.3599 43.6151 19.1187C43.3492 18.8713 43.1141 18.5651 42.91 18.2002C42.4524 17.4085 42.2235 16.4344 42.2235 15.2778C42.2111 14.2078 42.5204 13.2677 43.1513 12.4575C43.6955 11.7524 44.4439 11.2051 45.3964 10.8154C46.2623 10.4567 47.1993 10.2773 48.2074 10.2773C49.2155 10.2773 50.1031 10.3268 50.87 10.4258V19.5361C50.87 21.8493 50.0041 23.2223 48.2723 23.6553ZM49.0145 11.7803C48.6187 11.7308 48.2291 11.7061 47.8456 11.7061C47.4621 11.7061 47.0323 11.7772 46.556 11.9194C46.0798 12.0617 45.6623 12.2782 45.3036 12.5688C44.5181 13.2059 44.1254 14.1089 44.1254 15.2778C44.1254 16.5457 44.4315 17.4704 45.0438 18.0518C45.5015 18.4909 46.0612 18.7104 46.723 18.7104C47.5209 18.7104 48.1919 18.429 48.7362 17.8662C48.8661 17.724 48.9589 17.5972 49.0145 17.4858V11.7803Z" fill="white"/>
<path d="M59.7996 12.1235C59.4595 12.0246 59.0513 11.9751 58.575 11.9751C58.105 11.9751 57.7184 12.0246 57.4154 12.1235C57.1123 12.2163 56.8463 12.3307 56.6175 12.4668C56.1969 12.7142 55.8908 12.9925 55.699 13.3018V20H53.8436V10.4258H55.6248L55.699 11.7524C56.1629 11.1711 56.8402 10.735 57.7308 10.4443C58.0524 10.333 58.4204 10.2773 58.8348 10.2773C59.2492 10.2773 59.5708 10.3083 59.7996 10.3701V12.1235Z" fill="white"/>
<path d="M61.8733 18.293C61.6692 17.9404 61.5053 17.526 61.3816 17.0498C61.2641 16.5736 61.2053 15.952 61.2053 15.1851C61.2053 14.4181 61.3692 13.7131 61.697 13.0698C62.031 12.4204 62.464 11.8885 62.9959 11.4741C64.0287 10.6763 65.3121 10.2773 66.846 10.2773C67.6438 10.2773 68.2468 10.2959 68.655 10.333C68.655 10.333 68.955 10.3639 69.5549 10.4258V20H67.885L67.8108 18.896C67.4397 19.3908 66.8738 19.7588 66.1131 20C65.8224 20.0928 65.5224 20.1392 65.2132 20.1392C64.9101 20.1392 64.6101 20.1082 64.3132 20.0464C64.0164 19.9845 63.7195 19.8825 63.4226 19.7402C63.1319 19.598 62.8536 19.4093 62.5877 19.1743C62.3217 18.9331 62.0836 18.6393 61.8733 18.293ZM67.6995 11.7896C67.3036 11.7401 66.9078 11.7153 66.512 11.7153C66.1223 11.7153 65.7048 11.7865 65.2595 11.9287C64.8142 12.0648 64.4339 12.2812 64.1184 12.5781C63.4628 13.1966 63.135 14.1398 63.135 15.4077C63.135 16.6076 63.4164 17.4951 63.9793 18.0703C64.406 18.4971 64.9194 18.7104 65.5193 18.7104C66.2924 18.7104 66.9295 18.429 67.4304 17.8662C67.5541 17.724 67.6438 17.5972 67.6995 17.4858V11.7896Z" fill="white"/>
<path d="M73.781 11.4741C74.319 11.0597 74.9221 10.7567 75.59 10.5649C76.2642 10.3732 76.8518 10.2773 77.3527 10.2773C77.8537 10.2773 78.2403 10.2897 78.5124 10.3145V6.19531H80.3586V20H78.698L78.6237 18.896C78.2465 19.397 77.6744 19.7681 76.9074 20.0093C76.6105 20.1021 76.3075 20.1484 75.9982 20.1484C75.6952 20.1484 75.3952 20.1175 75.0983 20.0557C74.8015 19.9938 74.5046 19.8918 74.2077 19.7495C73.917 19.6011 73.6387 19.4093 73.3728 19.1743C73.1068 18.9331 72.8687 18.6393 72.6584 18.293C72.2131 17.5322 71.9904 16.6323 71.9904 15.5933C71.9904 14.5542 72.1543 13.7131 72.4821 13.0698C72.8161 12.4204 73.2491 11.8885 73.781 11.4741ZM74.9035 12.5781C74.5881 12.875 74.3438 13.2585 74.1706 13.7285C74.0036 14.1924 73.9201 14.7583 73.9201 15.4263C73.9201 16.0881 74.0005 16.6354 74.1613 17.0684C74.3221 17.4951 74.5231 17.8291 74.7644 18.0703C75.1911 18.5033 75.7045 18.7197 76.3044 18.7197C77.0775 18.7197 77.7176 18.4352 78.2248 17.8662C78.3547 17.724 78.4475 17.5972 78.5031 17.4858V11.7803L78.3176 11.7617C78.0331 11.7246 77.6929 11.7061 77.2971 11.7061C76.9074 11.7061 76.4899 11.7772 76.0446 11.9194C75.5993 12.0555 75.2189 12.2751 74.9035 12.5781Z" fill="white"/>
<path d="M87.6925 20.1484C84.1919 20.1484 82.4415 18.4383 82.4415 15.0181C82.4415 13.5461 82.9271 12.3678 83.8981 11.4834C84.7702 10.6794 85.7659 10.2773 86.8854 10.2773C88.1038 10.2773 89.0563 10.6855 89.7428 11.502C90.3799 12.2627 90.6984 13.2801 90.6984 14.5542V15.2778H84.3712C84.3712 17.0282 85.0856 18.0981 86.5143 18.4878C86.8545 18.5806 87.3771 18.627 88.0822 18.627C88.7934 18.627 89.4892 18.5311 90.1696 18.3394V19.9072C89.4892 20.068 88.6636 20.1484 87.6925 20.1484ZM88.8429 13.9141C88.8429 13.3203 88.679 12.8193 88.3512 12.4111C87.9678 11.9411 87.4389 11.7061 86.7648 11.7061C86.0535 11.7061 85.4752 11.9318 85.0299 12.3833C84.6217 12.8039 84.4176 13.3141 84.4176 13.9141H88.8429Z" fill="white"/>
</svg>
