<svg width="685" height="496" viewBox="0 0 685 496" fill="none" xmlns="http://www.w3.org/2000/svg">
<rect x="56" y="86" width="629" height="410" fill="#8F9CC6"/>
<path d="M56.9409 261.041L348.441 320.145L348.441 336.432L207.941 388.791L56.9409 351.79L56.9409 261.041Z" fill="#BEBEBE"/>
<path d="M56.7205 244.395L348.22 319.787L207.72 372.145L56.7205 335.145L56.7205 244.395Z" fill="#D9D9D9"/>
<path d="M128.146 159.192L292.586 194.623L292.586 204.386L213.328 235.773L128.146 214L83.5 251L60 245.5L128.146 159.192Z" fill="#BEBEBE"/>
<path d="M128.022 149.213L292.462 194.408L213.204 225.795L128.022 204L67.4999 253.5L56.9999 248.5L56.9997 88L279.5 88.0001L128.022 149.213Z" fill="#D9D9D9"/>
<path d="M127.98 148.951L279 88L301.5 88L143.5 153.5L127.98 148.951Z" fill="#BEBEBE"/>
<rect x="230" y="299" width="22" height="18" fill="#F8F8F8"/>
<rect x="234" y="311" width="7" height="13" fill="#F8F8F8"/>
<rect x="224" y="323" width="24" height="24" fill="#F8F8F8"/>
<rect x="232" y="341" width="29" height="17" fill="#F8F8F8"/>
<rect x="252" y="344" width="9" height="33" fill="#F8F8F8"/>
<rect x="240" y="352" width="14" height="34" fill="#F8F8F8"/>
<rect x="241.946" y="337.362" width="121.098" height="3.41041" transform="rotate(-36.531 241.946 337.362)" fill="#5E5C5C"/>
<path d="M337.5 268C340 291 350.2 343.8 371 371C391.8 398.2 387.5 395.333 392 399.5" stroke="white" stroke-width="2"/>
<rect x="387" y="396.063" width="4" height="7" rx="2" transform="rotate(-31.0427 387 396.063)" fill="#D9D9D9"/>
<rect x="388.094" y="397.897" width="4.01521" height="2" transform="rotate(-30.2961 388.094 397.897)" fill="#F50000"/>
<path d="M385.5 399C385.5 399 385.5 400.5 388.5 400C391.5 399.5 389.5 399 391.5 399.5C393.5 400 397.5 395.5 395.5 395C393.5 394.5 399.385 395.078 399.385 395.078L400.689 397.804L388.304 403.726L385.5 399Z" fill="#8F9CC6"/>
</svg>
