<svg width="190" height="24" viewBox="0 0 190 24" fill="none" xmlns="http://www.w3.org/2000/svg">
<path d="M1.03261 18V6.36364H5.6917C6.54776 6.36364 7.26178 6.49053 7.83375 6.74432C8.40572 6.99811 8.83564 7.35038 9.12352 7.80114C9.4114 8.24811 9.55534 8.76326 9.55534 9.34659C9.55534 9.80114 9.46443 10.2008 9.28261 10.5455C9.1008 10.8864 8.8508 11.1667 8.53261 11.3864C8.21822 11.6023 7.85837 11.7557 7.45307 11.8466V11.9602C7.89625 11.9792 8.31102 12.1042 8.69739 12.3352C9.08754 12.5663 9.40383 12.8902 9.64625 13.3068C9.88867 13.7197 10.0099 14.2121 10.0099 14.7841C10.0099 15.4015 9.85648 15.9527 9.54966 16.4375C9.24663 16.9186 8.79777 17.2992 8.20307 17.5795C7.60837 17.8598 6.87542 18 6.0042 18H1.03261ZM3.49284 15.9886H5.49852C6.18413 15.9886 6.68413 15.858 6.99852 15.5966C7.31292 15.3314 7.47011 14.9792 7.47011 14.5398C7.47011 14.2178 7.39246 13.9337 7.23716 13.6875C7.08186 13.4413 6.86027 13.2481 6.57239 13.108C6.2883 12.9678 5.94928 12.8977 5.55534 12.8977H3.49284V15.9886ZM3.49284 11.233H5.3167C5.65383 11.233 5.95307 11.1742 6.21443 11.0568C6.47958 10.9356 6.68792 10.7652 6.83943 10.5455C6.99473 10.3258 7.07239 10.0625 7.07239 9.75568C7.07239 9.33523 6.92277 8.99621 6.62352 8.73864C6.32807 8.48106 5.90761 8.35227 5.36216 8.35227H3.49284V11.233ZM13.8939 18.1648C13.3371 18.1648 12.8409 18.0682 12.4053 17.875C11.9697 17.678 11.625 17.3883 11.3712 17.0057C11.1212 16.6193 10.9962 16.1383 10.9962 15.5625C10.9962 15.0777 11.0852 14.6705 11.2632 14.3409C11.4413 14.0114 11.6837 13.7462 11.9905 13.5455C12.2973 13.3447 12.6458 13.1932 13.036 13.0909C13.4299 12.9886 13.8428 12.9167 14.2746 12.875C14.7822 12.822 15.1913 12.7727 15.5019 12.7273C15.8125 12.678 16.0379 12.6061 16.178 12.5114C16.3182 12.4167 16.3882 12.2765 16.3882 12.0909V12.0568C16.3882 11.697 16.2746 11.4186 16.0473 11.2216C15.8238 11.0246 15.5057 10.9261 15.0928 10.9261C14.6572 10.9261 14.3106 11.0227 14.053 11.2159C13.7954 11.4053 13.625 11.6439 13.5416 11.9318L11.303 11.75C11.4166 11.2197 11.6401 10.7614 11.9735 10.375C12.3068 9.98485 12.7367 9.68561 13.2632 9.47727C13.7935 9.26515 14.4072 9.15909 15.1041 9.15909C15.589 9.15909 16.053 9.21591 16.4962 9.32955C16.9432 9.44318 17.339 9.61932 17.6837 9.85795C18.0322 10.0966 18.3068 10.4034 18.5076 10.7784C18.7083 11.1496 18.8087 11.5947 18.8087 12.1136V18H16.5132V16.7898H16.4451C16.3049 17.0625 16.1174 17.303 15.8826 17.5114C15.6477 17.7159 15.3655 17.8769 15.036 17.9943C14.7064 18.108 14.3257 18.1648 13.8939 18.1648ZM14.5871 16.4943C14.9432 16.4943 15.2576 16.4242 15.5303 16.2841C15.803 16.1402 16.017 15.947 16.1723 15.7045C16.3276 15.4621 16.4053 15.1875 16.4053 14.8807V13.9545C16.3295 14.0038 16.2254 14.0492 16.0928 14.0909C15.964 14.1288 15.8182 14.1648 15.6553 14.1989C15.4924 14.2292 15.3295 14.2576 15.1666 14.2841C15.0038 14.3068 14.856 14.3277 14.7235 14.3466C14.4394 14.3883 14.1913 14.4545 13.9791 14.5455C13.767 14.6364 13.6023 14.7595 13.4848 14.9148C13.3674 15.0663 13.3087 15.2557 13.3087 15.483C13.3087 15.8125 13.428 16.0644 13.6666 16.2386C13.9091 16.4091 14.2159 16.4943 14.5871 16.4943ZM20.5265 18V9.27273H22.947V18H20.5265ZM21.7424 8.14773C21.3826 8.14773 21.0739 8.02841 20.8163 7.78977C20.5625 7.54735 20.4356 7.25758 20.4356 6.92045C20.4356 6.58712 20.5625 6.30114 20.8163 6.0625C21.0739 5.82008 21.3826 5.69886 21.7424 5.69886C22.1023 5.69886 22.4091 5.82008 22.6629 6.0625C22.9205 6.30114 23.0493 6.58712 23.0493 6.92045C23.0493 7.25758 22.9205 7.54735 22.6629 7.78977C22.4091 8.02841 22.1023 8.14773 21.7424 8.14773ZM29.368 9.27273V11.0909H24.1123V9.27273H29.368ZM25.3055 7.18182H27.7259V15.3182C27.7259 15.5417 27.76 15.7159 27.8282 15.8409C27.8964 15.9621 27.9911 16.0473 28.1123 16.0966C28.2373 16.1458 28.3812 16.1705 28.5441 16.1705C28.6577 16.1705 28.7714 16.161 28.885 16.142C28.9986 16.1193 29.0858 16.1023 29.1464 16.0909L29.527 17.892C29.4058 17.9299 29.2354 17.9735 29.0157 18.0227C28.796 18.0758 28.5289 18.108 28.2145 18.1193C27.6312 18.142 27.1198 18.0644 26.6805 17.8864C26.2448 17.7083 25.9058 17.4318 25.6634 17.0568C25.421 16.6818 25.3017 16.2083 25.3055 15.6364V7.18182Z" fill="black"/>
<path d="M1.03261 18H0.0326134V19H1.03261V18ZM1.03261 6.36364V5.36364H0.0326134V6.36364H1.03261ZM7.83375 6.74432L7.42817 7.65838L7.83375 6.74432ZM9.12352 7.80114L8.28073 8.33939L8.28281 8.34261L9.12352 7.80114ZM9.28261 10.5455L10.165 11.016L10.1671 11.012L9.28261 10.5455ZM8.53261 11.3864L9.09872 12.2107L9.1008 12.2093L8.53261 11.3864ZM7.45307 11.8466L7.23421 10.8708L6.45307 11.046V11.8466H7.45307ZM7.45307 11.9602H6.45307V12.9184L7.41037 12.9593L7.45307 11.9602ZM8.69739 12.3352L8.18412 13.1935L8.18781 13.1957L8.69739 12.3352ZM9.64625 13.3068L8.78189 13.8097L8.78391 13.8131L9.64625 13.3068ZM9.54966 16.4375L8.70464 15.9028L8.70354 15.9045L9.54966 16.4375ZM8.20307 17.5795L7.77672 16.675H7.77672L8.20307 17.5795ZM3.49284 15.9886H2.49284V16.9886H3.49284V15.9886ZM6.99852 15.5966L7.63781 16.3656L7.64323 16.361L6.99852 15.5966ZM7.23716 13.6875L6.39136 14.221V14.221L7.23716 13.6875ZM6.57239 13.108L6.12996 14.0048L6.13466 14.0071L6.57239 13.108ZM3.49284 12.8977V11.8977H2.49284V12.8977H3.49284ZM3.49284 11.233H2.49284V12.233H3.49284V11.233ZM6.21443 11.0568L6.62426 11.969L6.63019 11.9663L6.21443 11.0568ZM6.83943 10.5455L6.0228 9.96818L6.01622 9.97772L6.83943 10.5455ZM6.62352 8.73864L5.96637 9.49242L5.97115 9.49654L6.62352 8.73864ZM3.49284 8.35227V7.35227H2.49284V8.35227H3.49284ZM2.03261 18V6.36364H0.0326134V18H2.03261ZM1.03261 7.36364H5.6917V5.36364H1.03261V7.36364ZM5.6917 7.36364C6.4564 7.36364 7.02173 7.47804 7.42817 7.65838L8.23933 5.83026C7.50183 5.50302 6.63913 5.36364 5.6917 5.36364V7.36364ZM7.42817 7.65838C7.85185 7.84637 8.11552 8.08068 8.28074 8.33939L9.96631 7.26289C9.55577 6.62007 8.95959 6.14984 8.23933 5.83026L7.42817 7.65838ZM8.28281 8.34261C8.45668 8.61257 8.55534 8.93591 8.55534 9.34659H10.5553C10.5553 8.5906 10.3661 7.88364 9.96424 7.25966L8.28281 8.34261ZM8.55534 9.34659C8.55534 9.66566 8.49236 9.90023 8.39812 10.0789L10.1671 11.012C10.4365 10.5013 10.5553 9.93662 10.5553 9.34659H8.55534ZM8.40026 10.0749C8.29361 10.2748 8.15138 10.4344 7.96442 10.5635L9.1008 12.2093C9.55022 11.899 9.90798 11.4979 10.165 11.016L8.40026 10.0749ZM7.96651 10.562C7.76617 10.6996 7.5263 10.8053 7.23421 10.8708L7.67193 12.8223C8.19044 12.706 8.67027 12.5049 9.09872 12.2107L7.96651 10.562ZM6.45307 11.8466V11.9602H8.45307V11.8466H6.45307ZM7.41037 12.9593C7.68487 12.971 7.93825 13.0464 8.18413 13.1935L9.21064 11.477C8.68379 11.1619 8.10763 10.9873 7.49576 10.9611L7.41037 12.9593ZM8.18781 13.1957C8.42184 13.3343 8.61969 13.5309 8.7819 13.8097L10.5106 12.8039C10.188 12.2494 9.75323 11.7983 9.20696 11.4748L8.18781 13.1957ZM8.78391 13.8131C8.92008 14.0451 9.00989 14.3554 9.00989 14.7841H11.0099C11.0099 14.0689 10.8573 13.3943 10.5086 12.8005L8.78391 13.8131ZM9.00989 14.7841C9.00989 15.2272 8.90248 15.5901 8.70464 15.9028L10.3947 16.9722C10.8105 16.3152 11.0099 15.5758 11.0099 14.7841H9.00989ZM8.70354 15.9045C8.51725 16.2002 8.22649 16.463 7.77672 16.675L8.62942 18.4841C9.36904 18.1355 9.97601 17.6369 10.3958 16.9705L8.70354 15.9045ZM7.77672 16.675C7.35133 16.8755 6.77374 17 6.0042 17V19C6.97709 19 7.86541 18.8442 8.62942 18.4841L7.77672 16.675ZM6.0042 17H1.03261V19H6.0042V17ZM3.49284 16.9886H5.49852V14.9886H3.49284V16.9886ZM5.49852 16.9886C6.27236 16.9886 7.05713 16.8483 7.6378 16.3656L6.35925 14.8276C6.31113 14.8676 6.0959 14.9886 5.49852 14.9886V16.9886ZM7.64323 16.361C8.19989 15.8915 8.47011 15.2509 8.47011 14.5398H6.47011C6.47011 14.7074 6.42594 14.7713 6.35382 14.8322L7.64323 16.361ZM8.47011 14.5398C8.47011 14.0497 8.3495 13.5766 8.08296 13.154L6.39136 14.221C6.43542 14.2909 6.47011 14.3859 6.47011 14.5398H8.47011ZM8.08296 13.154C7.81854 12.7348 7.44811 12.4221 7.01011 12.2088L6.13466 14.0071C6.27242 14.0741 6.34518 14.1478 6.39136 14.221L8.08296 13.154ZM7.01481 12.2111C6.56372 11.9886 6.06618 11.8977 5.55534 11.8977V13.8977C5.83238 13.8977 6.01287 13.947 6.12996 14.0048L7.01481 12.2111ZM5.55534 11.8977H3.49284V13.8977H5.55534V11.8977ZM2.49284 12.8977V15.9886H4.49284V12.8977H2.49284ZM3.49284 12.233H5.3167V10.233H3.49284V12.233ZM5.3167 12.233C5.77044 12.233 6.21327 12.1536 6.62425 11.969L5.80462 10.1446C5.69287 10.1949 5.53722 10.233 5.3167 10.233V12.233ZM6.63019 11.9663C7.04385 11.7772 7.39929 11.4951 7.66264 11.1132L6.01622 9.97772C5.97654 10.0353 5.91531 10.094 5.79867 10.1473L6.63019 11.9663ZM7.65601 11.1227C7.94693 10.7111 8.07239 10.2391 8.07239 9.75568H6.07239C6.07239 9.88586 6.04254 9.94037 6.02285 9.96822L7.65601 11.1227ZM8.07239 9.75568C8.07239 9.06551 7.81161 8.44186 7.27589 7.98074L5.97115 9.49654C6.03392 9.55057 6.07239 9.60495 6.07239 9.75568H8.07239ZM7.28066 7.98486C6.74275 7.51592 6.05489 7.35227 5.36216 7.35227V9.35227C5.76034 9.35227 5.91339 9.4462 5.96639 9.49241L7.28066 7.98486ZM5.36216 7.35227H3.49284V9.35227H5.36216V7.35227ZM2.49284 8.35227V11.233H4.49284V8.35227H2.49284ZM12.4053 17.875L11.9933 18.7862L11.9999 18.7891L12.4053 17.875ZM11.3712 17.0057L10.5316 17.549L10.5379 17.5585L11.3712 17.0057ZM11.2632 14.3409L10.3834 13.8656L11.2632 14.3409ZM11.9905 13.5455L11.443 12.7087L11.9905 13.5455ZM13.036 13.0909L12.7847 12.123L12.7824 12.1236L13.036 13.0909ZM14.2746 12.875L14.3707 13.8704L14.3785 13.8696L14.2746 12.875ZM15.5019 12.7273L15.6467 13.7168L15.6585 13.7149L15.5019 12.7273ZM16.178 12.5114L15.6182 11.6828H15.6182L16.178 12.5114ZM16.0473 11.2216L15.3861 11.9718L15.3924 11.9773L16.0473 11.2216ZM14.053 11.2159L14.6454 12.0216L14.653 12.0159L14.053 11.2159ZM13.5416 11.9318L13.4607 12.9285L14.275 12.9947L14.5022 12.2099L13.5416 11.9318ZM11.303 11.75L10.3252 11.5405L10.0865 12.6545L11.2221 12.7467L11.303 11.75ZM11.9735 10.375L12.7306 11.0282L12.7338 11.0246L11.9735 10.375ZM13.2632 9.47727L13.6312 10.4071L13.6346 10.4057L13.2632 9.47727ZM16.4962 9.32955L16.2478 10.2982L16.2498 10.2987L16.4962 9.32955ZM17.6837 9.85795L17.1145 10.6802L17.1187 10.683L17.6837 9.85795ZM18.5076 10.7784L17.6259 11.2504L17.628 11.2541L18.5076 10.7784ZM18.8087 18V19H19.8087V18H18.8087ZM16.5132 18H15.5132V19H16.5132V18ZM16.5132 16.7898H17.5132V15.7898H16.5132V16.7898ZM16.4451 16.7898V15.7898H15.8346L15.5556 16.3327L16.4451 16.7898ZM15.8826 17.5114L16.5394 18.2655L16.5462 18.2594L15.8826 17.5114ZM15.036 17.9943L15.362 18.9397L15.3716 18.9363L15.036 17.9943ZM15.5303 16.2841L15.9874 17.1736L15.997 17.1685L15.5303 16.2841ZM16.1723 15.7045L15.3303 15.1651L16.1723 15.7045ZM16.4053 13.9545H17.4053V12.1119L15.8603 13.1161L16.4053 13.9545ZM16.0928 14.0909L16.375 15.0503L16.3838 15.0477L16.3926 15.0449L16.0928 14.0909ZM15.6553 14.1989L15.8382 15.182L15.8492 15.1799L15.8601 15.1777L15.6553 14.1989ZM15.1666 14.2841L15.3048 15.2745L15.3161 15.2729L15.3273 15.2711L15.1666 14.2841ZM14.7235 14.3466L14.582 13.3566L14.5784 13.3572L14.7235 14.3466ZM13.9791 14.5455L14.3731 15.4646L13.9791 14.5455ZM13.4848 14.9148L14.2753 15.5274L14.2825 15.5179L13.4848 14.9148ZM13.6666 16.2386L13.077 17.0463L13.0842 17.0515L13.0915 17.0567L13.6666 16.2386ZM13.8939 17.1648C13.4535 17.1648 13.0989 17.0887 12.8107 16.9609L11.9999 18.7891C12.5829 19.0477 13.2208 19.1648 13.8939 19.1648V17.1648ZM12.8173 16.9638C12.5456 16.841 12.3499 16.6721 12.2045 16.4529L10.5379 17.5585C10.9 18.1044 11.3938 18.5151 11.9933 18.7862L12.8173 16.9638ZM12.2108 16.4624C12.089 16.2742 11.9962 15.9938 11.9962 15.5625H9.99619C9.99619 16.2827 10.1534 16.9644 10.5316 17.5489L12.2108 16.4624ZM11.9962 15.5625C11.9962 15.1961 12.0637 14.963 12.1431 14.8162L10.3834 13.8656C10.1067 14.3779 9.99619 14.9592 9.99619 15.5625H11.9962ZM12.1431 14.8162C12.2439 14.6296 12.3734 14.49 12.538 14.3822L11.443 12.7087C10.994 13.0025 10.6387 13.3931 10.3834 13.8656L12.1431 14.8162ZM12.538 14.3822C12.746 14.2462 12.9934 14.1359 13.2895 14.0582L12.7824 12.1236C12.2982 12.2505 11.8487 12.4432 11.443 12.7087L12.538 14.3822ZM13.2873 14.0588C13.627 13.9706 13.9878 13.9073 14.3706 13.8704L14.1786 11.8796C13.6978 11.926 13.2328 12.0067 12.7847 12.123L13.2873 14.0588ZM14.3785 13.8696C14.8925 13.8159 15.3168 13.765 15.6467 13.7167L15.3571 11.7378C15.0658 11.7804 14.6719 11.828 14.1707 11.8804L14.3785 13.8696ZM15.6585 13.7149C16.0102 13.6592 16.4125 13.5598 16.7379 13.34L15.6182 11.6828C15.6514 11.6603 15.6548 11.6661 15.5997 11.6838C15.548 11.7003 15.4658 11.7205 15.3453 11.7396L15.6585 13.7149ZM16.7379 13.34C17.1833 13.039 17.3882 12.5706 17.3882 12.0909H15.3882C15.3882 12.0569 15.3952 11.9802 15.4413 11.888C15.4892 11.7922 15.5574 11.7238 15.6182 11.6828L16.7379 13.34ZM17.3882 12.0909V12.0568H15.3882V12.0909H17.3882ZM17.3882 12.0568C17.3882 11.4695 17.1919 10.8902 16.7023 10.4659L15.3924 11.9773C15.3917 11.9767 15.3881 11.9733 15.3838 11.9674C15.3796 11.9614 15.3775 11.9569 15.3772 11.956C15.3764 11.9541 15.3882 11.9815 15.3882 12.0568H17.3882ZM16.7085 10.4714C16.2424 10.0606 15.6552 9.92614 15.0928 9.92614V11.9261C15.3562 11.9261 15.4052 11.9886 15.3861 11.9718L16.7085 10.4714ZM15.0928 9.92614C14.5163 9.92614 13.9356 10.054 13.453 10.4159L14.653 12.0159C14.6856 11.9915 14.7981 11.9261 15.0928 11.9261V9.92614ZM13.4606 10.4103C13.0382 10.7209 12.7299 11.1397 12.5811 11.6538L14.5022 12.2099C14.5201 12.1482 14.5527 12.0898 14.6454 12.0216L13.4606 10.4103ZM13.6226 10.9351L11.384 10.7533L11.2221 12.7467L13.4607 12.9285L13.6226 10.9351ZM12.2808 11.9595C12.3616 11.5827 12.5138 11.2796 12.7306 11.0282L11.2163 9.72177C10.7665 10.2432 10.4717 10.8567 10.3252 11.5405L12.2808 11.9595ZM12.7338 11.0246C12.9505 10.7709 13.2404 10.5618 13.6312 10.4071L12.8953 8.54742C12.2331 8.80945 11.6631 9.1988 11.2132 9.72543L12.7338 11.0246ZM13.6346 10.4057C14.0239 10.25 14.5072 10.1591 15.1041 10.1591V8.15909C14.3072 8.15909 13.5632 8.28027 12.8918 8.54879L13.6346 10.4057ZM15.1041 10.1591C15.5102 10.1591 15.8905 10.2066 16.2478 10.2982L16.7446 8.36088C16.2155 8.22523 15.6678 8.15909 15.1041 8.15909V10.1591ZM16.2498 10.2987C16.5928 10.3859 16.8771 10.5158 17.1145 10.6801L18.2529 9.03576C17.8009 8.72283 17.2935 8.50044 16.7426 8.36038L16.2498 10.2987ZM17.1187 10.683C17.3339 10.8304 17.5003 11.0157 17.6259 11.2504L19.3892 10.3064C19.1133 9.79109 18.7305 9.36279 18.2487 9.03287L17.1187 10.683ZM17.628 11.2541C17.7335 11.4493 17.8087 11.7231 17.8087 12.1136H19.8087C19.8087 11.4663 19.6831 10.8499 19.3872 10.3027L17.628 11.2541ZM17.8087 12.1136V18H19.8087V12.1136H17.8087ZM18.8087 17H16.5132V19H18.8087V17ZM17.5132 18V16.7898H15.5132V18H17.5132ZM16.5132 15.7898H16.4451V17.7898H16.5132V15.7898ZM15.5556 16.3327C15.4734 16.4926 15.3634 16.6351 15.2189 16.7633L16.5462 18.2594C16.8714 17.9709 17.1364 17.6324 17.3345 17.2468L15.5556 16.3327ZM15.2258 16.7573C15.0962 16.8701 14.9265 16.9717 14.7003 17.0523L15.3716 18.9363C15.8046 18.782 16.1992 18.5617 16.5393 18.2654L15.2258 16.7573ZM14.71 17.0489C14.5069 17.119 14.2402 17.1648 13.8939 17.1648V19.1648C14.4112 19.1648 14.9059 19.0969 15.362 18.9397L14.71 17.0489ZM14.5871 17.4943C15.0765 17.4943 15.552 17.3972 15.9874 17.1735L15.0732 15.3947C14.9631 15.4513 14.8099 15.4943 14.5871 15.4943V17.4943ZM15.997 17.1685C16.4113 16.9498 16.7592 16.6422 17.0144 16.244L15.3303 15.1651C15.2748 15.2517 15.1947 15.3305 15.0635 15.3997L15.997 17.1685ZM17.0144 16.244C17.2797 15.8298 17.4053 15.3656 17.4053 14.8807H15.4053C15.4053 15.0094 15.3756 15.0944 15.3303 15.1651L17.0144 16.244ZM17.4053 14.8807V13.9545H15.4053V14.8807H17.4053ZM15.8603 13.1161C15.8785 13.1043 15.8843 13.103 15.8704 13.109C15.8572 13.1148 15.8324 13.1245 15.793 13.1369L16.3926 15.0449C16.5706 14.989 16.7692 14.9107 16.9503 14.793L15.8603 13.1161ZM15.8106 13.1315C15.7125 13.1604 15.5932 13.1902 15.4504 13.2201L15.8601 15.1777C16.0432 15.1393 16.2155 15.0972 16.375 15.0503L15.8106 13.1315ZM15.4724 13.2157C15.3169 13.2447 15.1614 13.2718 15.006 13.2971L15.3273 15.2711C15.4977 15.2434 15.6679 15.2137 15.8382 15.182L15.4724 13.2157ZM15.0285 13.2937C14.8647 13.3165 14.7159 13.3375 14.582 13.3566L14.8649 15.3365C14.9962 15.3178 15.1428 15.2971 15.3048 15.2745L15.0285 13.2937ZM14.5784 13.3572C14.2285 13.4085 13.8935 13.4942 13.5852 13.6263L14.3731 15.4646C14.4891 15.4149 14.6502 15.368 14.8686 15.336L14.5784 13.3572ZM13.5852 13.6263C13.2431 13.7729 12.9273 13.994 12.6872 14.3117L14.2825 15.5179C14.2814 15.5194 14.2837 15.5155 14.295 15.5071C14.3069 15.4981 14.3309 15.4826 14.3731 15.4646L13.5852 13.6263ZM12.6944 14.3022C12.4171 14.66 12.3087 15.0766 12.3087 15.483H14.3087C14.3087 15.4553 14.3122 15.4525 14.3079 15.4666C14.3057 15.4735 14.3021 15.4832 14.2962 15.4945C14.2903 15.5059 14.2832 15.5171 14.2752 15.5273L12.6944 14.3022ZM12.3087 15.483C12.3087 16.0892 12.5479 16.66 13.077 17.0463L14.2563 15.431C14.2578 15.432 14.2656 15.4381 14.2757 15.4502C14.2861 15.4625 14.2952 15.4767 14.3019 15.4909C14.3162 15.521 14.3087 15.5264 14.3087 15.483H12.3087ZM13.0915 17.0567C13.5406 17.3725 14.0624 17.4943 14.5871 17.4943V15.4943C14.3694 15.4943 14.2775 15.4457 14.2418 15.4206L13.0915 17.0567ZM20.5265 18H19.5265V19H20.5265V18ZM20.5265 9.27273V8.27273H19.5265V9.27273H20.5265ZM22.947 9.27273H23.947V8.27273H22.947V9.27273ZM22.947 18V19H23.947V18H22.947ZM20.8163 7.78977L20.1256 8.51288L20.1311 8.51815L20.1367 8.52333L20.8163 7.78977ZM20.8163 6.0625L21.5013 6.79102L21.5017 6.7907L20.8163 6.0625ZM22.6629 6.0625L21.9722 6.78561L21.9777 6.79088L21.9833 6.79606L22.6629 6.0625ZM22.6629 7.78977L23.3479 8.51829L23.3483 8.51797L22.6629 7.78977ZM21.5265 18V9.27273H19.5265V18H21.5265ZM20.5265 10.2727H22.947V8.27273H20.5265V10.2727ZM21.947 9.27273V18H23.947V9.27273H21.947ZM22.947 17H20.5265V19H22.947V17ZM21.7424 7.14773C21.6277 7.14773 21.5636 7.11892 21.4959 7.05621L20.1367 8.52333C20.5842 8.9379 21.1375 9.14773 21.7424 9.14773V7.14773ZM21.507 7.06666C21.4417 7.00421 21.4356 6.97206 21.4356 6.92045H19.4356C19.4356 7.54309 19.6834 8.09049 20.1256 8.51288L21.507 7.06666ZM21.4356 6.92045C21.4356 6.88421 21.4417 6.8686 21.4449 6.86154C21.4484 6.8535 21.4605 6.8294 21.5013 6.79102L20.1313 5.33398C19.6867 5.75202 19.4356 6.29754 19.4356 6.92045H21.4356ZM21.5017 6.7907C21.5702 6.7262 21.6324 6.69886 21.7424 6.69886V4.69886C21.1328 4.69886 20.5776 4.91395 20.1309 5.3343L21.5017 6.7907ZM21.7424 6.69886C21.8522 6.69886 21.9096 6.72584 21.9722 6.78561L23.3536 5.33939C22.9086 4.91431 22.3523 4.69886 21.7424 4.69886V6.69886ZM21.9833 6.79606C22.0256 6.83524 22.0377 6.85949 22.0409 6.86658C22.0435 6.87248 22.0493 6.88631 22.0493 6.92045H24.0493C24.0493 6.29235 23.7921 5.74545 23.3425 5.32894L21.9833 6.79606ZM22.0493 6.92045C22.0493 6.96695 22.0454 6.99767 21.9775 7.06157L23.3483 8.51797C23.7955 8.09703 24.0493 7.5482 24.0493 6.92045H22.0493ZM21.9779 7.06125C21.9162 7.11924 21.857 7.14773 21.7424 7.14773V9.14773C22.3476 9.14773 22.902 8.93758 23.3479 8.51829L21.9779 7.06125ZM29.368 9.27273H30.368V8.27273H29.368V9.27273ZM29.368 11.0909V12.0909H30.368V11.0909H29.368ZM24.1123 11.0909H23.1123V12.0909H24.1123V11.0909ZM24.1123 9.27273V8.27273H23.1123V9.27273H24.1123ZM25.3055 7.18182V6.18182H24.3055V7.18182H25.3055ZM27.7259 7.18182H28.7259V6.18182H27.7259V7.18182ZM27.8282 15.8409L26.9502 16.3198L26.9566 16.3312L27.8282 15.8409ZM28.1123 16.0966L27.7359 17.0231L27.7457 17.027L28.1123 16.0966ZM28.885 16.142L29.0494 17.1284L29.0653 17.1258L29.0811 17.1226L28.885 16.142ZM29.1464 16.0909L30.1248 15.8841L29.9227 14.9279L28.9621 15.108L29.1464 16.0909ZM29.527 17.892L29.8253 18.8465L30.6935 18.5752L30.5054 17.6853L29.527 17.892ZM29.0157 18.0227L28.797 17.0469L28.789 17.0487L28.781 17.0506L29.0157 18.0227ZM28.2145 18.1193L28.1784 17.12L28.1756 17.1201L28.2145 18.1193ZM26.6805 17.8864L26.3021 18.812L26.3049 18.8132L26.6805 17.8864ZM25.6634 17.0568L26.5032 16.5139L25.6634 17.0568ZM25.3055 15.6364L26.3055 15.643V15.6364H25.3055ZM28.368 9.27273V11.0909H30.368V9.27273H28.368ZM29.368 10.0909H24.1123V12.0909H29.368V10.0909ZM25.1123 11.0909V9.27273H23.1123V11.0909H25.1123ZM24.1123 10.2727H29.368V8.27273H24.1123V10.2727ZM25.3055 8.18182H27.7259V6.18182H25.3055V8.18182ZM26.7259 7.18182V15.3182H28.7259V7.18182H26.7259ZM26.7259 15.3182C26.7259 15.6227 26.7689 15.9873 26.9503 16.3198L28.7061 15.3621C28.719 15.3857 28.7261 15.4041 28.7297 15.4145C28.7332 15.4249 28.7337 15.4288 28.7329 15.4245C28.732 15.4202 28.7302 15.4094 28.7286 15.3912C28.7271 15.373 28.7259 15.3489 28.7259 15.3182H26.7259ZM26.9566 16.3312C27.1282 16.6363 27.3913 16.8831 27.7359 17.0231L28.4886 15.1701C28.5325 15.1879 28.5782 15.2154 28.6193 15.2524C28.6599 15.289 28.6854 15.3251 28.6998 15.3506L26.9566 16.3312ZM27.7457 17.027C28.0094 17.1309 28.2817 17.1705 28.5441 17.1705V15.1705C28.4808 15.1705 28.4652 15.1608 28.4788 15.1662L27.7457 17.027ZM28.5441 17.1705C28.7136 17.1705 28.8822 17.1563 29.0494 17.1284L28.7206 15.1557C28.6605 15.1657 28.6019 15.1705 28.5441 15.1705V17.1705ZM29.0811 17.1226C29.1936 17.1001 29.276 17.084 29.3307 17.0738L28.9621 15.108C28.8955 15.1205 28.8037 15.1385 28.6889 15.1615L29.0811 17.1226ZM28.168 16.2977L28.5487 18.0988L30.5054 17.6853L30.1248 15.8841L28.168 16.2977ZM29.2288 16.9376C29.1464 16.9633 29.0069 16.9999 28.797 17.0469L29.2344 18.9985C29.4638 18.9471 29.6653 18.8965 29.8253 18.8465L29.2288 16.9376ZM28.781 17.0506C28.6462 17.0832 28.4498 17.1102 28.1784 17.12L28.2507 19.1187C28.6081 19.1057 28.9458 19.0683 29.2503 18.9948L28.781 17.0506ZM28.1756 17.1201C27.702 17.1385 27.3372 17.0735 27.056 16.9595L26.3049 18.8132C26.9025 19.0553 27.5604 19.1456 28.2535 19.1186L28.1756 17.1201ZM27.0588 16.9607C26.8017 16.8556 26.6284 16.7076 26.5032 16.5139L24.8236 17.5997C25.1833 18.156 25.688 18.561 26.3021 18.812L27.0588 16.9607ZM26.5032 16.5139C26.3926 16.3429 26.3026 16.0744 26.3054 15.643L24.3055 15.6297C24.3008 16.3423 24.4493 17.0207 24.8236 17.5997L26.5032 16.5139ZM26.3055 15.6364V7.18182H24.3055V15.6364H26.3055Z" fill="#9A9A9A"/>
<rect x="39" y="7" width="150" height="11" rx="3" fill="#D0D0D0" fill-opacity="0.47" stroke="black" stroke-width="2"/>
<path d="M39 10C39 8.34315 40.3431 7 42 7H150V18H42C40.3431 18 39 16.6569 39 15V10Z" fill="#3C3C3C" fill-opacity="0.47" stroke="black" stroke-width="2"/>
</svg>
