<svg width="99" height="38" viewBox="0 0 99 38" fill="none" xmlns="http://www.w3.org/2000/svg">
<rect x="1" y="1" width="97" height="36" rx="3" fill="#D0D0D0" fill-opacity="0.47" stroke="black" stroke-width="2"/>
<path d="M41.5757 16.5469H38.4649C38.4081 16.1444 38.2921 15.7869 38.1169 15.4744C37.9417 15.1572 37.7168 14.8873 37.4422 14.6648C37.1676 14.4422 36.8504 14.2718 36.4905 14.1534C36.1354 14.035 35.7495 13.9759 35.3328 13.9759C34.58 13.9759 33.9242 14.1629 33.3655 14.5369C32.8068 14.9062 32.3736 15.446 32.0658 16.1562C31.758 16.8617 31.6042 17.7187 31.6042 18.7273C31.6042 19.7642 31.758 20.6354 32.0658 21.3409C32.3783 22.0464 32.8139 22.5791 33.3726 22.9389C33.9313 23.2988 34.5776 23.4787 35.3115 23.4787C35.7235 23.4787 36.1046 23.4242 36.455 23.3153C36.8101 23.2064 37.125 23.0478 37.3996 22.8395C37.6742 22.6264 37.9015 22.3684 38.0814 22.0653C38.2661 21.7623 38.3939 21.4167 38.4649 21.0284L41.5757 21.0426C41.4953 21.7102 41.294 22.3542 40.9721 22.9744C40.6548 23.59 40.2263 24.1416 39.6865 24.6293C39.1515 25.1122 38.5123 25.4957 37.7689 25.7798C37.0303 26.0592 36.1946 26.1989 35.2618 26.1989C33.9645 26.1989 32.8044 25.9053 31.7817 25.3182C30.7637 24.7311 29.9588 23.8812 29.3669 22.7685C28.7798 21.6558 28.4863 20.3087 28.4863 18.7273C28.4863 17.1411 28.7846 15.7917 29.3811 14.679C29.9777 13.5663 30.7874 12.7187 31.8101 12.1364C32.8328 11.5492 33.9834 11.2557 35.2618 11.2557C36.1046 11.2557 36.8859 11.3741 37.6056 11.6108C38.33 11.8475 38.9716 12.1932 39.5303 12.6477C40.089 13.0975 40.5435 13.6491 40.8939 14.3026C41.249 14.956 41.4763 15.7041 41.5757 16.5469ZM46.635 26.206C45.939 26.206 45.3187 26.0852 44.7742 25.8438C44.2297 25.5975 43.7988 25.2353 43.4816 24.7571C43.1691 24.2741 43.0128 23.6728 43.0128 22.9531C43.0128 22.3471 43.1241 21.8381 43.3466 21.4261C43.5692 21.0142 43.8722 20.6828 44.2557 20.4318C44.6392 20.1809 45.0748 19.9915 45.5625 19.8636C46.055 19.7358 46.5711 19.6458 47.1108 19.5938C47.7453 19.5275 48.2567 19.4659 48.6449 19.4091C49.0332 19.3475 49.3149 19.2576 49.4901 19.1392C49.6653 19.0208 49.7529 18.8456 49.7529 18.6136V18.571C49.7529 18.1212 49.6108 17.7732 49.3267 17.527C49.0474 17.2808 48.6497 17.1577 48.1336 17.1577C47.5891 17.1577 47.1558 17.2784 46.8338 17.5199C46.5119 17.7566 46.2988 18.0549 46.1946 18.4148L43.3963 18.1875C43.5384 17.5246 43.8177 16.9517 44.2344 16.4688C44.6511 15.9811 45.1885 15.607 45.8466 15.3466C46.5095 15.0814 47.2766 14.9489 48.1478 14.9489C48.7538 14.9489 49.3338 15.0199 49.8878 15.1619C50.4465 15.304 50.9413 15.5241 51.3722 15.8224C51.8078 16.1207 52.1511 16.5043 52.402 16.973C52.653 17.437 52.7784 17.9934 52.7784 18.642V26H49.9091V24.4872H49.8239C49.6487 24.8281 49.4143 25.1288 49.1208 25.3892C48.8272 25.6449 48.4745 25.8461 48.0625 25.9929C47.6506 26.1349 47.1748 26.206 46.635 26.206ZM47.5015 24.1179C47.9465 24.1179 48.3395 24.0303 48.6804 23.8551C49.0213 23.6752 49.2889 23.4337 49.483 23.1307C49.6771 22.8277 49.7742 22.4844 49.7742 22.1009V20.9432C49.6795 21.0047 49.5493 21.0616 49.3836 21.1136C49.2226 21.161 49.0403 21.206 48.8367 21.2486C48.6331 21.2865 48.4295 21.322 48.2259 21.3551C48.0223 21.3835 47.8376 21.4096 47.6719 21.4332C47.3168 21.4853 47.0067 21.5682 46.7415 21.6818C46.4764 21.7955 46.2704 21.9493 46.1236 22.1435C45.9768 22.3329 45.9034 22.5696 45.9034 22.8537C45.9034 23.2656 46.0526 23.5805 46.3509 23.7983C46.6539 24.0114 47.0374 24.1179 47.5015 24.1179ZM64.0025 18.2017L61.2326 18.3722C61.1852 18.1354 61.0834 17.9223 60.9272 17.733C60.7709 17.5388 60.565 17.3849 60.3093 17.2713C60.0583 17.1529 59.7577 17.0938 59.4073 17.0938C58.9385 17.0938 58.5432 17.1932 58.2212 17.392C57.8992 17.5862 57.7382 17.8466 57.7382 18.1733C57.7382 18.4337 57.8424 18.6539 58.0507 18.8338C58.2591 19.0137 58.6166 19.1581 59.1232 19.267L61.0976 19.6648C62.1582 19.8826 62.9489 20.233 63.4698 20.7159C63.9906 21.1989 64.251 21.8333 64.251 22.6193C64.251 23.3343 64.0403 23.9616 63.6189 24.5014C63.2023 25.0412 62.6293 25.4626 61.9002 25.7656C61.1757 26.0639 60.34 26.2131 59.3931 26.2131C57.9489 26.2131 56.7984 25.9124 55.9414 25.3111C55.0891 24.705 54.5896 23.8812 54.4428 22.8395L57.4186 22.6832C57.5086 23.1236 57.7264 23.4598 58.0721 23.6918C58.4177 23.919 58.8604 24.0327 59.4002 24.0327C59.9305 24.0327 60.3566 23.9309 60.6786 23.7273C61.0053 23.5189 61.171 23.2514 61.1757 22.9247C61.171 22.6501 61.055 22.4252 60.8277 22.25C60.6005 22.0701 60.2501 21.9328 59.7766 21.8381L57.8874 21.4616C56.8221 21.2486 56.029 20.8793 55.5081 20.3537C54.992 19.8281 54.734 19.1581 54.734 18.3438C54.734 17.643 54.9234 17.0393 55.3022 16.5327C55.6857 16.026 56.2231 15.6354 56.9144 15.3608C57.6104 15.0862 58.4248 14.9489 59.3576 14.9489C60.7354 14.9489 61.8197 15.2401 62.6104 15.8224C63.4059 16.4048 63.8699 17.1979 64.0025 18.2017ZM71.7588 15.0909V17.3636H65.1892V15.0909H71.7588ZM66.6806 12.4773H69.7062V22.6477C69.7062 22.9271 69.7488 23.1449 69.8341 23.3011C69.9193 23.4527 70.0377 23.5592 70.1892 23.6207C70.3454 23.6823 70.5253 23.7131 70.7289 23.7131C70.871 23.7131 71.013 23.7012 71.1551 23.6776C71.2971 23.6491 71.406 23.6278 71.4818 23.6136L71.9576 25.8651C71.8061 25.9124 71.5931 25.9669 71.3184 26.0284C71.0438 26.0947 70.71 26.1349 70.317 26.1491C69.5878 26.1776 68.9486 26.0805 68.3994 25.858C67.8549 25.6354 67.4311 25.2898 67.1281 24.821C66.8251 24.3523 66.6759 23.7604 66.6806 23.0455V12.4773Z" fill="#363636"/>
</svg>
