<svg width="24" height="24" viewBox="0 0 24 24" fill="none" xmlns="http://www.w3.org/2000/svg">
<path d="M12.44 23C12.2776 23.0007 12.1194 22.948 11.99 22.85L5.12996 17.73C5.0395 17.6577 4.96583 17.5666 4.91403 17.463C4.86223 17.3594 4.83355 17.2458 4.82996 17.13V6.88C4.8321 6.76253 4.86009 6.64698 4.91194 6.54155C4.96379 6.43612 5.03823 6.34341 5.12996 6.27L12 1.15C12.1298 1.05263 12.2877 1 12.45 1C12.6122 1 12.7701 1.05263 12.9 1.15L19.75 6.27C19.8433 6.34194 19.9189 6.43434 19.9709 6.5401C20.0229 6.64586 20.05 6.76214 20.05 6.88V17.13C20.0485 17.2462 20.0207 17.3605 19.9687 17.4644C19.9168 17.5683 19.842 17.6591 19.75 17.73L12.9 22.85C12.7671 22.9488 12.6055 23.0014 12.44 23V23ZM6.32996 16.75L12.44 21.31L18.54 16.75V7.25L12.44 2.69L6.32996 7.25V16.75Z" fill="#EAEAEA"/>
<path d="M9.93994 16C9.74103 16 9.55026 15.921 9.40961 15.7803C9.26896 15.6397 9.18994 15.4489 9.18994 15.25V8.66998C9.18994 8.47107 9.26896 8.28031 9.40961 8.13965C9.55026 7.999 9.74103 7.91998 9.93994 7.91998C10.1389 7.91998 10.3296 7.999 10.4703 8.13965C10.6109 8.28031 10.6899 8.47107 10.6899 8.66998V15.26C10.6848 15.4563 10.6038 15.6431 10.464 15.781C10.3242 15.919 10.1364 15.9975 9.93994 16Z" fill="#EAEAEA"/>
<path d="M14.94 16.08C14.8411 16.0813 14.743 16.0629 14.6514 16.0256C14.5598 15.9884 14.4766 15.9332 14.4067 15.8633C14.3368 15.7934 14.2816 15.7102 14.2444 15.6186C14.2071 15.527 14.1887 15.4289 14.19 15.33V8.73999C14.19 8.54108 14.269 8.35031 14.4097 8.20966C14.5503 8.06901 14.7411 7.98999 14.94 7.98999C15.1389 7.98999 15.3297 8.06901 15.4703 8.20966C15.611 8.35031 15.69 8.54108 15.69 8.73999V15.33C15.69 15.5289 15.611 15.7197 15.4703 15.8603C15.3297 16.001 15.1389 16.08 14.94 16.08V16.08Z" fill="#EAEAEA"/>
</svg>
