<svg width="629" height="410" viewBox="0 0 629 410" fill="none" xmlns="http://www.w3.org/2000/svg">
<rect width="629" height="410" fill="#8F9CC6"/>
<path d="M0.940864 175.04L292.441 234.145L292.441 250.432L151.941 302.791L0 265.5L0.940864 175.04Z" fill="#BEBEBE"/>
<path d="M0 158L292.22 233.787L151.72 286.145L0 248.5V158Z" fill="#D9D9D9"/>
<path d="M71.9805 62.9512L223 0H242.5L87.5001 67.5L71.9805 62.9512Z" fill="#BEBEBE"/>
<rect x="174" y="213" width="22" height="18" rx="8" fill="#F8F8F8"/>
<rect x="178" y="225" width="7" height="13" rx="3.5" fill="#F8F8F8"/>
<rect x="168" y="237" width="24" height="24" rx="8" fill="#F8F8F8"/>
<rect x="176" y="255" width="29" height="17" rx="8" fill="#F8F8F8"/>
<rect x="196" y="258" width="9" height="33" rx="4.5" fill="#F8F8F8"/>
<rect x="184" y="266" width="14" height="34" rx="7" fill="#F8F8F8"/>
<rect x="185.946" y="252.362" width="121.098" height="3.41041" transform="rotate(-36.531 185.946 252.362)" fill="#5E5C5C"/>
<path d="M281.5 185C284 208 294.2 260.8 315 288C335.8 315.2 331.5 312.333 336 316.5" stroke="white" stroke-width="2"/>
<rect x="331" y="313.063" width="4" height="7" rx="2" transform="rotate(-31.0427 331 313.063)" fill="#D9D9D9"/>
<rect x="332.094" y="314.897" width="4.01521" height="2" transform="rotate(-30.2961 332.094 314.897)" fill="#F50000"/>
<path d="M329.5 316C329.5 316 329.5 317.5 332.5 317C335.5 316.5 333.5 316 335.5 316.5C337.5 317 341.5 312.5 339.5 312C337.5 311.5 343.385 312.078 343.385 312.078L344.689 314.804L332.304 320.726L329.5 316Z" fill="#8F9CC6"/>
<path d="M72.1466 73.1916L236.586 108.623L236.586 118.386L157.328 149.773L72.1466 128L27.5001 165L4.00008 159.5L72.1466 73.1916Z" fill="#BEBEBE"/>
<path d="M72.0222 63.2135L236.462 108.408L157.204 139.795L72.0222 118L11.5 167.5L0 162.5V0H227L72.0222 63.2135Z" fill="#D9D9D9"/>
</svg>
