<svg width="99" height="36" viewBox="0 0 99 36" fill="none" xmlns="http://www.w3.org/2000/svg">
<mask id="path-1-inside-1_90_170" fill="white">
<path d="M0 4C0 1.79086 1.79086 0 4 0H95C97.2091 0 99 1.79086 99 4V32C99 34.2091 97.2091 36 95 36H4C1.79086 36 0 34.2091 0 32V4Z"/>
</mask>
<path d="M0 4C0 1.79086 1.79086 0 4 0H95C97.2091 0 99 1.79086 99 4V32C99 34.2091 97.2091 36 95 36H4C1.79086 36 0 34.2091 0 32V4Z" fill="#F2D997"/>
<path d="M0 0H99H0ZM99 32C99 35.866 95.866 39 92 39H7C3.13401 39 0 35.866 0 32C0 32.5523 1.79086 33 4 33H95C97.2091 33 99 32.5523 99 32ZM0 36V0V36ZM99 0V36V0Z" fill="#C4A860" mask="url(#path-1-inside-1_90_170)"/>
<path d="M35.1279 24.9023C34.3223 25.0488 33.2358 25.1221 31.8687 25.1221C30.5096 25.1221 29.2808 24.9349 28.1821 24.5605C27.0916 24.1862 26.1517 23.6328 25.3623 22.9004C23.6696 21.3298 22.8232 19.1406 22.8232 16.333C22.8232 14.502 23.2586 12.915 24.1294 11.5723C25.3094 9.75749 27.1201 8.60189 29.5615 8.10547C30.3102 7.95898 31.2013 7.88574 32.2349 7.88574C33.2765 7.88574 34.1107 7.94271 34.7373 8.05664V10.3882C34.1676 10.2091 33.2847 10.1196 32.0884 10.1196C30.9002 10.1196 29.8911 10.2661 29.061 10.5591C28.231 10.8521 27.5433 11.2712 26.998 11.8164C25.9076 12.8825 25.3623 14.388 25.3623 16.333C25.3623 18.2943 25.8994 19.8486 26.9736 20.9961C28.1374 22.2331 29.8097 22.8516 31.9907 22.8516C33.2684 22.8516 34.3141 22.7539 35.1279 22.5586V24.9023ZM40.2534 22.7539C39.9849 22.29 39.7692 21.7448 39.6064 21.1182C39.4518 20.4915 39.3745 19.6737 39.3745 18.6646C39.3745 17.6554 39.5902 16.7277 40.0215 15.8813C40.4609 15.0269 41.0306 14.327 41.7305 13.7817C43.0895 12.7319 44.7782 12.207 46.7964 12.207C47.8462 12.207 48.6396 12.2314 49.1768 12.2803C49.1768 12.2803 49.5715 12.321 50.3608 12.4023V25H48.1636L48.0659 23.5474C47.5776 24.1984 46.833 24.6826 45.832 25C45.4495 25.1221 45.0549 25.1831 44.6479 25.1831C44.2492 25.1831 43.8545 25.1424 43.4639 25.061C43.0732 24.9797 42.6826 24.8454 42.292 24.6582C41.9095 24.471 41.5433 24.2228 41.1934 23.9136C40.8434 23.5962 40.5301 23.2096 40.2534 22.7539ZM47.9194 14.1968C47.3986 14.1317 46.8778 14.0991 46.3569 14.0991C45.8442 14.0991 45.2949 14.1927 44.709 14.3799C44.123 14.5589 43.6226 14.8438 43.2075 15.2344C42.3449 16.0482 41.9136 17.2892 41.9136 18.9575C41.9136 20.5363 42.2839 21.7041 43.0244 22.4609C43.5859 23.0225 44.2614 23.3032 45.0508 23.3032C46.068 23.3032 46.9062 22.9329 47.5654 22.1924C47.7282 22.0052 47.8462 21.8384 47.9194 21.6919V14.1968ZM58.8555 25.1953C57.8382 25.1953 56.8088 25.1221 55.7671 24.9756V22.8149C56.825 23.0672 57.8993 23.1934 58.9897 23.1934C61.1707 23.1934 62.2612 22.7336 62.2612 21.814C62.2612 21.464 62.1758 21.2036 62.0049 21.0327C61.7526 20.7642 61.3538 20.4956 60.8086 20.2271L59.0264 19.4092C57.8708 18.8314 57.1221 18.3675 56.7803 18.0176C56.1374 17.3665 55.8159 16.5934 55.8159 15.6982C55.8159 14.6891 56.2839 13.8672 57.2197 13.2324C58.2288 12.5488 59.6449 12.207 61.4678 12.207C62.3874 12.207 63.3151 12.2721 64.251 12.4023V14.4897C63.2256 14.3026 62.3304 14.209 61.5654 14.209C60.8086 14.209 60.2186 14.2578 59.7954 14.3555C59.3804 14.4531 59.0671 14.5752 58.8555 14.7217C58.5218 14.9495 58.355 15.2466 58.355 15.6128C58.355 15.9709 58.4689 16.2638 58.6968 16.4917C58.9328 16.7114 59.299 16.9515 59.7954 17.2119L61.5898 18.0786C62.7617 18.689 63.5145 19.1569 63.8481 19.4824C64.4829 20.1009 64.8003 20.8781 64.8003 21.814C64.8003 22.8149 64.2957 23.6206 63.2866 24.231C62.2287 24.8739 60.7516 25.1953 58.8555 25.1953ZM74.2959 23.0713C74.5645 23.1689 74.9714 23.2178 75.5166 23.2178C76.0618 23.2178 76.5176 23.1527 76.8838 23.0225V24.9756C76.7129 25.0163 76.4647 25.0407 76.1392 25.0488L75.3701 25.0732C75.1992 25.0732 75.069 25.0732 74.9795 25.0732C73.4089 25.0732 72.2492 24.5605 71.5005 23.5352C70.8983 22.7051 70.5972 21.6064 70.5972 20.2393V14.27H68.7905V13.1226L70.5972 12.4023L71.1831 9.27734H73.0386V12.4023H76.9448V14.27H73.0386V20.2271C73.0386 21.8221 73.4577 22.7702 74.2959 23.0713Z" fill="#BC7C58"/>
<path d="M35.1279 24.9023L35.3068 25.8862L36.1279 25.7369V24.9023H35.1279ZM28.1821 24.5605L27.8574 25.5064L27.8596 25.5071L28.1821 24.5605ZM25.3623 22.9004L24.6821 23.6334L24.6821 23.6335L25.3623 22.9004ZM24.1294 11.5723L23.291 11.0271L23.2904 11.0282L24.1294 11.5723ZM29.5615 8.10547L29.3695 7.12405L29.3623 7.12552L29.5615 8.10547ZM34.7373 8.05664H35.7373V7.22206L34.9162 7.07277L34.7373 8.05664ZM34.7373 10.3882L34.4375 11.3422L35.7373 11.7507V10.3882H34.7373ZM26.998 11.8164L27.6971 12.5315L27.7052 12.5235L26.998 11.8164ZM26.9736 20.9961L26.2436 21.6795L26.2453 21.6813L26.9736 20.9961ZM35.1279 22.5586H36.1279V21.2902L34.8946 21.5862L35.1279 22.5586ZM34.949 23.9185C34.2285 24.0495 33.2099 24.1221 31.8687 24.1221V26.1221C33.2618 26.1221 34.4161 26.0482 35.3068 25.8862L34.949 23.9185ZM31.8687 24.1221C30.601 24.1221 29.4834 23.9475 28.5047 23.614L27.8596 25.5071C29.0781 25.9223 30.4182 26.1221 31.8687 26.1221V24.1221ZM28.5068 23.6147C27.5389 23.2825 26.7224 22.7982 26.0425 22.1673L24.6821 23.6335C25.581 24.4674 26.6444 25.0899 27.8574 25.5064L28.5068 23.6147ZM26.0425 22.1673C24.5968 20.8259 23.8232 18.9272 23.8232 16.333H21.8232C21.8232 19.354 22.7424 21.8336 24.6821 23.6334L26.0425 22.1673ZM23.8232 16.333C23.8232 14.6665 24.2173 13.2747 24.9684 12.1164L23.2904 11.0282C22.3 12.5554 21.8232 14.3374 21.8232 16.333H23.8232ZM24.9678 12.1174C25.9793 10.5617 27.539 9.53718 29.7608 9.08542L29.3623 7.12552C26.7013 7.66659 24.6395 8.95325 23.291 11.0271L24.9678 12.1174ZM29.7535 9.08686C30.4212 8.95622 31.2448 8.88574 32.2349 8.88574V6.88574C31.1579 6.88574 30.1992 6.96174 29.3695 7.12408L29.7535 9.08686ZM32.2349 8.88574C33.2491 8.88574 34.016 8.94189 34.5584 9.04051L34.9162 7.07277C34.2054 6.94353 33.3039 6.88574 32.2349 6.88574V8.88574ZM33.7373 8.05664V10.3882H35.7373V8.05664H33.7373ZM35.0371 9.43419C34.3156 9.20741 33.3058 9.11963 32.0884 9.11963V11.1196C33.2636 11.1196 34.0197 11.2109 34.4375 11.3422L35.0371 9.43419ZM32.0884 9.11963C30.8239 9.11963 29.6953 9.27477 28.7282 9.61609L29.3939 11.5021C30.0869 11.2575 30.9766 11.1196 32.0884 11.1196V9.11963ZM28.7282 9.61609C27.7773 9.95171 26.9558 10.4445 26.2909 11.1093L27.7052 12.5235C28.1308 12.0979 28.6846 11.7524 29.3939 11.5021L28.7282 9.61609ZM26.299 11.1013C24.9666 12.4039 24.3623 14.1969 24.3623 16.333H26.3623C26.3623 14.5791 26.8485 13.3611 27.6971 12.5315L26.299 11.1013ZM24.3623 16.333C24.3623 18.4823 24.9557 20.3037 26.2436 21.6795L27.7037 20.3127C26.8432 19.3935 26.3623 18.1063 26.3623 16.333H24.3623ZM26.2453 21.6813C27.6481 23.1724 29.6168 23.8516 31.9907 23.8516V21.8516C30.0027 21.8516 28.6266 21.2937 27.702 20.3109L26.2453 21.6813ZM31.9907 23.8516C33.3104 23.8516 34.4422 23.7516 35.3613 23.531L34.8946 21.5862C34.186 21.7563 33.2263 21.8516 31.9907 21.8516V23.8516ZM34.1279 22.5586V24.9023H36.1279V22.5586H34.1279ZM40.2534 22.7539L39.388 23.2549L39.3932 23.264L39.3986 23.2729L40.2534 22.7539ZM39.6064 21.1182L38.6355 21.3577L38.6386 21.3696L39.6064 21.1182ZM40.0215 15.8813L39.1322 15.424L39.1305 15.4273L40.0215 15.8813ZM41.7305 13.7817L41.1192 12.9903L41.1159 12.9929L41.7305 13.7817ZM49.1768 12.2803L49.2793 11.2855L49.2673 11.2844L49.1768 12.2803ZM50.3608 12.4023H51.3608V11.5001L50.4634 11.4076L50.3608 12.4023ZM50.3608 25V26H51.3608V25H50.3608ZM48.1636 25L47.1658 25.0671L47.2285 26H48.1636V25ZM48.0659 23.5474L49.0637 23.4803L48.8829 20.7914L47.2659 22.9474L48.0659 23.5474ZM45.832 25L45.5298 24.0468L45.528 24.0473L45.832 25ZM42.292 24.6582L41.8524 25.5565L41.8599 25.56L42.292 24.6582ZM41.1934 23.9136L40.5215 24.6544L40.5312 24.6629L41.1934 23.9136ZM47.9194 14.1968H48.9194V13.314L48.0435 13.2045L47.9194 14.1968ZM44.709 14.3799L45.0012 15.3363L45.0133 15.3325L44.709 14.3799ZM43.2075 15.2344L42.5222 14.5062L42.5213 14.507L43.2075 15.2344ZM43.0244 22.4609L42.3096 23.1604L42.3173 23.168L43.0244 22.4609ZM47.5654 22.1924L48.3124 22.8573L48.32 22.8486L47.5654 22.1924ZM47.9194 21.6919L48.8139 22.1391L48.9194 21.928V21.6919H47.9194ZM41.1188 22.2529C40.9038 21.8814 40.7189 21.4234 40.5743 20.8668L38.6386 21.3696C38.8195 22.0662 39.0659 22.6986 39.388 23.2549L41.1188 22.2529ZM40.5773 20.8786C40.4497 20.3614 40.3745 19.6327 40.3745 18.6646H38.3745C38.3745 19.7146 38.454 20.6217 38.6356 21.3577L40.5773 20.8786ZM40.3745 18.6646C40.3745 17.8032 40.5573 17.0324 40.9125 16.3354L39.1305 15.4273C38.6231 16.423 38.3745 17.5077 38.3745 18.6646H40.3745ZM40.9108 16.3387C41.2894 15.6025 41.769 15.0194 42.345 14.5706L41.1159 12.9929C40.2922 13.6346 39.6325 14.4513 39.1322 15.424L40.9108 16.3387ZM42.3418 14.5731C43.4963 13.6813 44.9591 13.207 46.7964 13.207V11.207C44.5972 11.207 42.6827 11.7826 41.1192 12.9903L42.3418 14.5731ZM46.7964 13.207C47.8385 13.207 48.5955 13.2316 49.0862 13.2762L49.2673 11.2844C48.6838 11.2313 47.8538 11.207 46.7964 11.207V13.207ZM49.1768 12.2803C49.0742 13.275 49.0742 13.275 49.0742 13.275C49.0742 13.275 49.0742 13.275 49.0742 13.275C49.0742 13.275 49.0743 13.275 49.0743 13.275C49.0743 13.275 49.0744 13.275 49.0745 13.275C49.0748 13.2751 49.0749 13.2751 49.0754 13.2751C49.0759 13.2752 49.0775 13.2753 49.0788 13.2755C49.0835 13.276 49.085 13.2761 49.0927 13.2769C49.106 13.2783 49.1226 13.28 49.1482 13.2826C49.2117 13.2892 49.2574 13.2939 49.3702 13.3055C49.4949 13.3184 49.5662 13.3257 49.7403 13.3437C49.7414 13.3438 49.7426 13.3439 49.7437 13.344C49.7449 13.3441 49.746 13.3443 49.7472 13.3444C49.749 13.3446 49.7524 13.3449 49.7542 13.3451C49.7577 13.3455 49.7647 13.3462 49.7683 13.3466C49.7685 13.3466 49.7823 13.348 49.7825 13.348C49.7837 13.3481 49.7849 13.3483 49.7861 13.3484C49.7873 13.3485 49.7885 13.3486 49.7897 13.3488C49.7909 13.3489 49.7921 13.349 49.7933 13.3491C49.7945 13.3493 49.7957 13.3494 49.7969 13.3495C49.8114 13.351 49.8407 13.354 49.8559 13.3556C49.8899 13.3591 49.9437 13.3646 49.9808 13.3685C50.0535 13.376 50.1732 13.3883 50.2583 13.3971L50.4634 11.4076C50.3385 11.3947 50.4418 11.4054 50.32 11.3928C50.2688 11.3876 50.3022 11.391 50.2518 11.3858C50.2504 11.3857 50.249 11.3855 50.2476 11.3854C50.2462 11.3852 50.2448 11.3851 50.2434 11.3849C50.2327 11.3838 50.2458 11.3852 50.2351 11.3841C50.2337 11.3839 50.2323 11.3838 50.2309 11.3837C50.2296 11.3835 50.2282 11.3834 50.2268 11.3832C50.2254 11.3831 50.224 11.3829 50.2227 11.3828C50.2213 11.3827 50.2199 11.3825 50.2185 11.3824C50.1586 11.3762 50.2456 11.3852 50.1859 11.379C50.1778 11.3782 50.1296 11.3732 50.1223 11.3724C50.1153 11.3717 50.0672 11.3668 50.061 11.3661C49.9973 11.3596 50.0947 11.3696 50.0312 11.3631C50.03 11.3629 50.0288 11.3628 50.0275 11.3627C50.0263 11.3626 50.0251 11.3624 50.0239 11.3623C50.0226 11.3622 50.0214 11.3621 50.0202 11.3619C50.019 11.3618 50.0178 11.3617 50.0165 11.3615C50.0106 11.3609 50.0152 11.3614 50.0093 11.3608C50.0064 11.3605 50.0049 11.3603 50.002 11.3601C49.944 11.3541 50.0026 11.3601 49.9454 11.3542C49.927 11.3523 49.9086 11.3504 49.891 11.3486C49.8707 11.3465 49.8585 11.3453 49.839 11.3432C49.8003 11.3393 49.7774 11.3369 49.7418 11.3332C49.6353 11.3223 49.7574 11.3348 49.654 11.3242C49.6121 11.3199 49.6141 11.3201 49.5753 11.3161C49.4505 11.3032 49.5583 11.3143 49.4458 11.3027C49.4116 11.2992 49.3752 11.2954 49.3533 11.2932C49.3431 11.2921 49.3544 11.2933 49.3444 11.2923C49.3408 11.2919 49.3393 11.2917 49.336 11.2914C49.3345 11.2912 49.3334 11.2911 49.332 11.291C49.3289 11.2907 49.3332 11.2911 49.3301 11.2908C49.3294 11.2907 49.3289 11.2907 49.3282 11.2906C49.3177 11.2895 49.3312 11.2909 49.3209 11.2898C49.3122 11.2889 49.3035 11.288 49.2978 11.2875C49.296 11.2873 49.2907 11.2867 49.2897 11.2866C49.2889 11.2865 49.284 11.286 49.2839 11.286C49.2819 11.2858 49.2838 11.286 49.2819 11.2858C49.2815 11.2858 49.2806 11.2857 49.2805 11.2857C49.2803 11.2856 49.2801 11.2856 49.28 11.2856C49.2797 11.2856 49.2798 11.2856 49.2796 11.2856C49.2796 11.2856 49.2795 11.2856 49.2795 11.2856C49.2795 11.2856 49.2795 11.2856 49.2795 11.2856C49.2794 11.2856 49.2794 11.2856 49.2794 11.2856C49.2794 11.2856 49.2794 11.2856 49.2793 11.2855C49.2793 11.2855 49.2793 11.2855 49.2793 11.2855C49.2793 11.2855 49.2793 11.2855 49.2793 11.2855C49.2793 11.2855 49.2793 11.2855 49.1768 12.2803ZM49.3608 12.4023V25H51.3608V12.4023H49.3608ZM50.3608 24H48.1636V26H50.3608V24ZM49.1613 24.9329L49.0637 23.4803L47.0682 23.6144L47.1658 25.0671L49.1613 24.9329ZM47.2659 22.9474C46.9346 23.3891 46.3897 23.7741 45.5298 24.0468L46.1343 25.9532C47.2763 25.5911 48.2206 25.0077 48.8659 24.1474L47.2659 22.9474ZM45.528 24.0473C45.2451 24.1376 44.9531 24.1831 44.6479 24.1831V26.1831C45.1566 26.1831 45.654 26.1065 46.1361 25.9527L45.528 24.0473ZM44.6479 24.1831C44.3178 24.1831 43.9914 24.1495 43.6678 24.0821L43.2599 26.04C43.7176 26.1354 44.1806 26.1831 44.6479 26.1831V24.1831ZM43.6678 24.0821C43.3625 24.0184 43.0482 23.9117 42.7241 23.7564L41.8599 25.56C42.317 25.7791 42.784 25.9409 43.2599 26.04L43.6678 24.0821ZM42.7315 23.76C42.437 23.6158 42.1447 23.4198 41.8556 23.1642L40.5312 24.6629C40.9419 25.0259 41.382 25.3262 41.8524 25.5564L42.7315 23.76ZM41.8652 23.1729C41.5951 22.9279 41.3412 22.6187 41.1082 22.2349L39.3986 23.2729C39.719 23.8005 40.0918 24.2645 40.5215 24.6543L41.8652 23.1729ZM48.0435 13.2045C47.4818 13.1343 46.9196 13.0991 46.3569 13.0991V15.0991C46.836 15.0991 47.3154 15.1291 47.7954 15.1891L48.0435 13.2045ZM46.3569 13.0991C45.7227 13.0991 45.07 13.2148 44.4047 13.4273L45.0133 15.3325C45.5199 15.1706 45.9657 15.0991 46.3569 15.0991V13.0991ZM44.4168 13.4235C43.6952 13.644 43.0572 14.0026 42.5222 14.5062L43.8929 15.9626C44.1879 15.6849 44.5509 15.4738 45.0012 15.3362L44.4168 13.4235ZM42.5213 14.507C41.3881 15.5761 40.9136 17.1284 40.9136 18.9575H42.9136C42.9136 17.4501 43.3017 16.5203 43.8937 15.9618L42.5213 14.507ZM40.9136 18.9575C40.9136 20.671 41.3135 22.1422 42.3097 23.1603L43.7392 21.7616C43.2542 21.266 42.9136 20.4016 42.9136 18.9575H40.9136ZM42.3173 23.168C43.0651 23.9158 43.9944 24.3032 45.0508 24.3032V22.3032C44.5284 22.3032 44.1068 22.1291 43.7315 21.7538L42.3173 23.168ZM45.0508 24.3032C46.345 24.3032 47.4579 23.8173 48.3124 22.8573L46.8185 21.5275C46.3546 22.0486 45.7911 22.3032 45.0508 22.3032V24.3032ZM48.32 22.8486C48.5128 22.6269 48.689 22.3888 48.8139 22.1391L47.025 21.2447C47.0034 21.2879 46.9436 21.3835 46.8108 21.5362L48.32 22.8486ZM48.9194 21.6919V14.1968H46.9194V21.6919H48.9194ZM55.7671 24.9756H54.7671V25.8448L55.6278 25.9658L55.7671 24.9756ZM55.7671 22.8149L55.999 21.8422L54.7671 21.5484V22.8149H55.7671ZM62.0049 21.0327L61.276 21.7174L61.2867 21.7288L61.2978 21.7398L62.0049 21.0327ZM60.8086 20.2271L61.2504 19.33L61.2381 19.3239L61.2257 19.3182L60.8086 20.2271ZM59.0264 19.4092L58.5792 20.3036L58.5941 20.3111L58.6093 20.318L59.0264 19.4092ZM56.7803 18.0176L57.4957 17.3188L57.4918 17.3149L56.7803 18.0176ZM57.2197 13.2324L56.6589 12.4045L56.6584 12.4048L57.2197 13.2324ZM64.251 12.4023H65.251V11.5318L64.3888 11.4119L64.251 12.4023ZM64.251 14.4897L64.0714 15.4735L65.251 15.6888V14.4897H64.251ZM59.7954 14.3555L59.5705 13.3811L59.5664 13.3821L59.7954 14.3555ZM58.8555 14.7217L59.4194 15.5475L59.4247 15.5439L58.8555 14.7217ZM58.6968 16.4917L57.9897 17.1988L58.0023 17.2114L58.0154 17.2236L58.6968 16.4917ZM59.7954 17.2119L59.3309 18.0975L59.3456 18.1052L59.3605 18.1124L59.7954 17.2119ZM61.5898 18.0786L62.0518 17.1917L62.0384 17.1847L62.0248 17.1781L61.5898 18.0786ZM63.8481 19.4824L63.1498 20.1982L63.1503 20.1987L63.8481 19.4824ZM63.2866 24.231L62.7691 23.3753L62.7673 23.3764L63.2866 24.231ZM58.8555 24.1953C57.8864 24.1953 56.9034 24.1255 55.9063 23.9853L55.6278 25.9658C56.7141 26.1186 57.7901 26.1953 58.8555 26.1953V24.1953ZM56.7671 24.9756V22.8149H54.7671V24.9756H56.7671ZM55.5351 23.7877C56.6693 24.0581 57.8213 24.1934 58.9897 24.1934V22.1934C57.9772 22.1934 56.9808 22.0763 55.999 21.8422L55.5351 23.7877ZM58.9897 24.1934C60.1202 24.1934 61.0998 24.0786 61.8319 23.77C62.2082 23.6113 62.5705 23.3801 62.8412 23.0376C63.1239 22.6801 63.2612 22.2578 63.2612 21.814H61.2612C61.2612 21.8288 61.2593 21.8273 61.263 21.8164C61.2646 21.8115 61.2668 21.8067 61.269 21.8026C61.2712 21.7986 61.2727 21.7968 61.2723 21.7973C61.2704 21.7997 61.2238 21.8558 61.0548 21.9271C60.6965 22.0782 60.0403 22.1934 58.9897 22.1934V24.1934ZM63.2612 21.814C63.2612 21.3178 63.1405 20.7541 62.712 20.3256L61.2978 21.7398C61.2795 21.7215 61.2662 21.7034 61.2574 21.6886C61.2488 21.6741 61.2463 21.666 61.247 21.668C61.249 21.6741 61.2612 21.7171 61.2612 21.814H63.2612ZM62.7337 20.348C62.3631 19.9535 61.8427 19.6217 61.2504 19.33L60.3667 21.1241C60.865 21.3695 61.1421 21.5748 61.276 21.7174L62.7337 20.348ZM61.2257 19.3182L59.4435 18.5003L58.6093 20.318L60.3915 21.1359L61.2257 19.3182ZM59.4736 18.5148C58.3056 17.9307 57.7042 17.5324 57.4956 17.3188L56.0649 18.7163C56.5399 19.2027 57.436 19.732 58.5792 20.3036L59.4736 18.5148ZM57.4918 17.3149C57.0292 16.8464 56.8159 16.324 56.8159 15.6982H54.8159C54.8159 16.8629 55.2456 17.8866 56.0687 18.7202L57.4918 17.3149ZM56.8159 15.6982C56.8159 15.0648 57.0808 14.5349 57.7811 14.06L56.6584 12.4048C55.4869 13.1994 54.8159 14.3134 54.8159 15.6982H56.8159ZM57.7806 14.0603C58.5609 13.5317 59.7516 13.207 61.4678 13.207V11.207C59.5381 11.207 57.8968 11.5659 56.6589 12.4045L57.7806 14.0603ZM61.4678 13.207C62.34 13.207 63.2217 13.2688 64.1132 13.3928L64.3888 11.4119C63.4085 11.2755 62.4347 11.207 61.4678 11.207V13.207ZM63.251 12.4023V14.4897H65.251V12.4023H63.251ZM64.4305 13.506C63.3656 13.3116 62.4078 13.209 61.5654 13.209V15.209C62.253 15.209 63.0856 15.2935 64.0714 15.4735L64.4305 13.506ZM61.5654 13.209C60.7799 13.209 60.1023 13.2584 59.5706 13.3811L60.0203 15.3299C60.3349 15.2573 60.8373 15.209 61.5654 15.209V13.209ZM59.5664 13.3821C59.0989 13.492 58.6465 13.6501 58.2863 13.8995L59.4247 15.5439C59.4876 15.5003 59.6618 15.4142 60.0244 15.3289L59.5664 13.3821ZM58.2915 13.8959C57.7181 14.2875 57.355 14.8781 57.355 15.6128H59.355C59.355 15.5977 59.3566 15.5928 59.3561 15.595C59.3554 15.5977 59.3538 15.6018 59.352 15.6051C59.3472 15.6135 59.3563 15.5906 59.4194 15.5475L58.2915 13.8959ZM57.355 15.6128C57.355 16.2038 57.5526 16.7617 57.9897 17.1988L59.4039 15.7846C59.3852 15.7659 59.355 15.7379 59.355 15.6128H57.355ZM58.0154 17.2236C58.3473 17.5326 58.8045 17.8213 59.3309 18.0975L60.26 16.3264C59.7935 16.0817 59.5183 15.8902 59.3782 15.7598L58.0154 17.2236ZM59.3605 18.1124L61.1549 18.9791L62.0248 17.1781L60.2303 16.3114L59.3605 18.1124ZM61.1279 18.9655C62.3173 19.585 62.9378 19.9914 63.1498 20.1982L64.5465 18.7666C64.0911 18.3224 63.2062 17.7929 62.0518 17.1917L61.1279 18.9655ZM63.1503 20.1987C63.5801 20.6175 63.8003 21.131 63.8003 21.814H65.8003C65.8003 20.6252 65.3857 19.5844 64.546 18.7662L63.1503 20.1987ZM63.8003 21.814C63.8003 22.3973 63.5415 22.9081 62.7691 23.3753L63.8042 25.0866C65.0499 24.3331 65.8003 23.2326 65.8003 21.814H63.8003ZM62.7673 23.3764C61.9281 23.8864 60.6583 24.1953 58.8555 24.1953V26.1953C60.845 26.1953 62.5293 25.8613 63.8059 25.0855L62.7673 23.3764ZM74.2959 23.0713L74.6376 22.1315L74.634 22.1302L74.2959 23.0713ZM76.8838 23.0225H77.8838V21.6056L76.5488 22.0802L76.8838 23.0225ZM76.8838 24.9756L77.1154 25.9484L77.8838 25.7654V24.9756H76.8838ZM76.1392 25.0488L76.1142 24.0491L76.1074 24.0493L76.1392 25.0488ZM75.3701 25.0732V26.0732H75.386L75.4018 26.0727L75.3701 25.0732ZM71.5005 23.5352L70.6911 24.1224L70.6929 24.1249L71.5005 23.5352ZM70.5972 14.27H71.5972V13.27H70.5972V14.27ZM68.7905 14.27H67.7905V15.27H68.7905V14.27ZM68.7905 13.1226L68.4202 12.1936L67.7905 12.4447V13.1226H68.7905ZM70.5972 12.4023L70.9675 13.3313L71.4786 13.1275L71.58 12.5866L70.5972 12.4023ZM71.1831 9.27734V8.27734H70.3532L70.2002 9.09306L71.1831 9.27734ZM73.0386 9.27734H74.0386V8.27734H73.0386V9.27734ZM73.0386 12.4023H72.0386V13.4023H73.0386V12.4023ZM76.9448 12.4023H77.9448V11.4023H76.9448V12.4023ZM76.9448 14.27V15.27H77.9448V14.27H76.9448ZM73.0386 14.27V13.27H72.0386V14.27H73.0386ZM73.9542 24.0111C74.3912 24.17 74.9408 24.2178 75.5166 24.2178V22.2178C75.0019 22.2178 74.7377 22.1679 74.6376 22.1315L73.9542 24.0111ZM75.5166 24.2178C76.1336 24.2178 76.7113 24.1451 77.2188 23.9647L76.5488 22.0802C76.3239 22.1602 75.9901 22.2178 75.5166 22.2178V24.2178ZM75.8838 23.0225V24.9756H77.8838V23.0225H75.8838ZM76.6522 24.0028C76.5838 24.0191 76.4183 24.0415 76.1142 24.0491L76.1642 26.0485C76.511 26.0398 76.842 26.0135 77.1154 25.9484L76.6522 24.0028ZM76.1074 24.0493L75.3384 24.0737L75.4018 26.0727L76.1709 26.0483L76.1074 24.0493ZM75.3701 24.0732C75.3698 24.0732 75.3694 24.0732 75.3691 24.0732C75.3688 24.0732 75.3684 24.0732 75.3681 24.0732C75.3678 24.0732 75.3675 24.0732 75.3671 24.0732C75.3668 24.0732 75.3665 24.0732 75.3661 24.0732C75.3658 24.0732 75.3655 24.0732 75.3651 24.0732C75.3648 24.0732 75.3645 24.0732 75.3641 24.0732C75.3638 24.0732 75.3635 24.0732 75.3631 24.0732C75.3628 24.0732 75.3625 24.0732 75.3621 24.0732C75.3618 24.0732 75.3615 24.0732 75.3611 24.0732C75.3608 24.0732 75.3605 24.0732 75.3602 24.0732C75.3598 24.0732 75.3595 24.0732 75.3592 24.0732C75.3588 24.0732 75.3585 24.0732 75.3582 24.0732C75.3578 24.0732 75.3575 24.0732 75.3572 24.0732C75.3568 24.0732 75.3565 24.0732 75.3562 24.0732C75.3559 24.0732 75.3555 24.0732 75.3552 24.0732C75.3549 24.0732 75.3545 24.0732 75.3542 24.0732C75.3539 24.0732 75.3536 24.0732 75.3532 24.0732C75.3529 24.0732 75.3526 24.0732 75.3522 24.0732C75.3519 24.0732 75.3516 24.0732 75.3513 24.0732C75.3509 24.0732 75.3506 24.0732 75.3503 24.0732C75.3499 24.0732 75.3496 24.0732 75.3493 24.0732C75.349 24.0732 75.3486 24.0732 75.3483 24.0732C75.348 24.0732 75.3477 24.0732 75.3473 24.0732C75.347 24.0732 75.3467 24.0732 75.3464 24.0732C75.346 24.0732 75.3457 24.0732 75.3454 24.0732C75.345 24.0732 75.3447 24.0732 75.3444 24.0732C75.3441 24.0732 75.3437 24.0732 75.3434 24.0732C75.3431 24.0732 75.3428 24.0732 75.3424 24.0732C75.3421 24.0732 75.3418 24.0732 75.3415 24.0732C75.3411 24.0732 75.3408 24.0732 75.3405 24.0732C75.3402 24.0732 75.3398 24.0732 75.3395 24.0732C75.3392 24.0732 75.3389 24.0732 75.3386 24.0732C75.3382 24.0732 75.3379 24.0732 75.3376 24.0732C75.3373 24.0732 75.3369 24.0732 75.3366 24.0732C75.3363 24.0732 75.336 24.0732 75.3356 24.0732C75.3353 24.0732 75.335 24.0732 75.3347 24.0732C75.3343 24.0732 75.334 24.0732 75.3337 24.0732C75.3334 24.0732 75.3331 24.0732 75.3327 24.0732C75.3324 24.0732 75.3321 24.0732 75.3318 24.0732C75.3315 24.0732 75.3311 24.0732 75.3308 24.0732C75.3305 24.0732 75.3302 24.0732 75.3298 24.0732C75.3295 24.0732 75.3292 24.0732 75.3289 24.0732C75.3286 24.0732 75.3282 24.0732 75.3279 24.0732C75.3276 24.0732 75.3273 24.0732 75.327 24.0732C75.3266 24.0732 75.3263 24.0732 75.326 24.0732C75.3257 24.0732 75.3254 24.0732 75.325 24.0732C75.3247 24.0732 75.3244 24.0732 75.3241 24.0732C75.3238 24.0732 75.3234 24.0732 75.3231 24.0732C75.3228 24.0732 75.3225 24.0732 75.3222 24.0732C75.3219 24.0732 75.3215 24.0732 75.3212 24.0732C75.3209 24.0732 75.3206 24.0732 75.3203 24.0732C75.3199 24.0732 75.3196 24.0732 75.3193 24.0732C75.319 24.0732 75.3187 24.0732 75.3184 24.0732C75.318 24.0732 75.3177 24.0732 75.3174 24.0732C75.3171 24.0732 75.3168 24.0732 75.3165 24.0732C75.3161 24.0732 75.3158 24.0732 75.3155 24.0732C75.3152 24.0732 75.3149 24.0732 75.3146 24.0732C75.3142 24.0732 75.3139 24.0732 75.3136 24.0732C75.3133 24.0732 75.313 24.0732 75.3127 24.0732C75.3123 24.0732 75.312 24.0732 75.3117 24.0732C75.3114 24.0732 75.3111 24.0732 75.3108 24.0732C75.3105 24.0732 75.3101 24.0732 75.3098 24.0732C75.3095 24.0732 75.3092 24.0732 75.3089 24.0732C75.3086 24.0732 75.3083 24.0732 75.3079 24.0732C75.3076 24.0732 75.3073 24.0732 75.307 24.0732C75.3067 24.0732 75.3064 24.0732 75.3061 24.0732C75.3057 24.0732 75.3054 24.0732 75.3051 24.0732C75.3048 24.0732 75.3045 24.0732 75.3042 24.0732C75.3039 24.0732 75.3036 24.0732 75.3032 24.0732C75.3029 24.0732 75.3026 24.0732 75.3023 24.0732C75.302 24.0732 75.3017 24.0732 75.3014 24.0732C75.3011 24.0732 75.3007 24.0732 75.3004 24.0732C75.3001 24.0732 75.2998 24.0732 75.2995 24.0732C75.2992 24.0732 75.2989 24.0732 75.2986 24.0732C75.2983 24.0732 75.2979 24.0732 75.2976 24.0732C75.2973 24.0732 75.297 24.0732 75.2967 24.0732C75.2964 24.0732 75.2961 24.0732 75.2958 24.0732C75.2955 24.0732 75.2952 24.0732 75.2948 24.0732C75.2945 24.0732 75.2942 24.0732 75.2939 24.0732C75.2936 24.0732 75.2933 24.0732 75.293 24.0732C75.2927 24.0732 75.2924 24.0732 75.2921 24.0732C75.2918 24.0732 75.2914 24.0732 75.2911 24.0732C75.2908 24.0732 75.2905 24.0732 75.2902 24.0732C75.2899 24.0732 75.2896 24.0732 75.2893 24.0732C75.289 24.0732 75.2887 24.0732 75.2884 24.0732C75.2881 24.0732 75.2878 24.0732 75.2874 24.0732C75.2871 24.0732 75.2868 24.0732 75.2865 24.0732C75.2862 24.0732 75.2859 24.0732 75.2856 24.0732C75.2853 24.0732 75.285 24.0732 75.2847 24.0732C75.2844 24.0732 75.2841 24.0732 75.2838 24.0732C75.2835 24.0732 75.2832 24.0732 75.2828 24.0732C75.2825 24.0732 75.2822 24.0732 75.2819 24.0732C75.2816 24.0732 75.2813 24.0732 75.281 24.0732C75.2807 24.0732 75.2804 24.0732 75.2801 24.0732C75.2798 24.0732 75.2795 24.0732 75.2792 24.0732C75.2789 24.0732 75.2786 24.0732 75.2783 24.0732C75.278 24.0732 75.2777 24.0732 75.2774 24.0732C75.2771 24.0732 75.2768 24.0732 75.2765 24.0732C75.2762 24.0732 75.2758 24.0732 75.2755 24.0732C75.2752 24.0732 75.2749 24.0732 75.2746 24.0732C75.2743 24.0732 75.274 24.0732 75.2737 24.0732C75.2734 24.0732 75.2731 24.0732 75.2728 24.0732C75.2725 24.0732 75.2722 24.0732 75.2719 24.0732C75.2716 24.0732 75.2713 24.0732 75.271 24.0732C75.2707 24.0732 75.2704 24.0732 75.2701 24.0732C75.2698 24.0732 75.2695 24.0732 75.2692 24.0732C75.2689 24.0732 75.2686 24.0732 75.2683 24.0732C75.268 24.0732 75.2677 24.0732 75.2674 24.0732C75.2671 24.0732 75.2668 24.0732 75.2665 24.0732C75.2662 24.0732 75.2659 24.0732 75.2656 24.0732C75.2653 24.0732 75.265 24.0732 75.2647 24.0732C75.2644 24.0732 75.2641 24.0732 75.2638 24.0732C75.2635 24.0732 75.2632 24.0732 75.2629 24.0732C75.2626 24.0732 75.2623 24.0732 75.262 24.0732C75.2617 24.0732 75.2614 24.0732 75.2611 24.0732C75.2608 24.0732 75.2605 24.0732 75.2602 24.0732C75.2599 24.0732 75.2596 24.0732 75.2593 24.0732C75.259 24.0732 75.2587 24.0732 75.2584 24.0732C75.2581 24.0732 75.2578 24.0732 75.2575 24.0732C75.2573 24.0732 75.257 24.0732 75.2567 24.0732C75.2564 24.0732 75.2561 24.0732 75.2558 24.0732C75.2555 24.0732 75.2552 24.0732 75.2549 24.0732C75.2546 24.0732 75.2543 24.0732 75.254 24.0732C75.2537 24.0732 75.2534 24.0732 75.2531 24.0732C75.2528 24.0732 75.2525 24.0732 75.2522 24.0732C75.2519 24.0732 75.2516 24.0732 75.2513 24.0732C75.251 24.0732 75.2507 24.0732 75.2505 24.0732C75.2502 24.0732 75.2499 24.0732 75.2496 24.0732C75.2493 24.0732 75.249 24.0732 75.2487 24.0732C75.2484 24.0732 75.2481 24.0732 75.2478 24.0732C75.2475 24.0732 75.2472 24.0732 75.2469 24.0732C75.2466 24.0732 75.2463 24.0732 75.2461 24.0732C75.2458 24.0732 75.2455 24.0732 75.2452 24.0732C75.2449 24.0732 75.2446 24.0732 75.2443 24.0732C75.244 24.0732 75.2437 24.0732 75.2434 24.0732C75.2431 24.0732 75.2428 24.0732 75.2425 24.0732C75.2423 24.0732 75.242 24.0732 75.2417 24.0732C75.2414 24.0732 75.2411 24.0732 75.2408 24.0732C75.2405 24.0732 75.2402 24.0732 75.2399 24.0732C75.2396 24.0732 75.2393 24.0732 75.2391 24.0732C75.2388 24.0732 75.2385 24.0732 75.2382 24.0732C75.2379 24.0732 75.2376 24.0732 75.2373 24.0732C75.237 24.0732 75.2367 24.0732 75.2364 24.0732C75.2362 24.0732 75.2359 24.0732 75.2356 24.0732C75.2353 24.0732 75.235 24.0732 75.2347 24.0732C75.2344 24.0732 75.2341 24.0732 75.2338 24.0732C75.2336 24.0732 75.2333 24.0732 75.233 24.0732C75.2327 24.0732 75.2324 24.0732 75.2321 24.0732C75.2318 24.0732 75.2315 24.0732 75.2313 24.0732C75.231 24.0732 75.2307 24.0732 75.2304 24.0732C75.2301 24.0732 75.2298 24.0732 75.2295 24.0732C75.2292 24.0732 75.229 24.0732 75.2287 24.0732C75.2284 24.0732 75.2281 24.0732 75.2278 24.0732C75.2275 24.0732 75.2272 24.0732 75.227 24.0732C75.2267 24.0732 75.2264 24.0732 75.2261 24.0732C75.2258 24.0732 75.2255 24.0732 75.2252 24.0732C75.225 24.0732 75.2247 24.0732 75.2244 24.0732C75.2241 24.0732 75.2238 24.0732 75.2235 24.0732C75.2232 24.0732 75.223 24.0732 75.2227 24.0732C75.2224 24.0732 75.2221 24.0732 75.2218 24.0732C75.2215 24.0732 75.2213 24.0732 75.221 24.0732C75.2207 24.0732 75.2204 24.0732 75.2201 24.0732C75.2198 24.0732 75.2196 24.0732 75.2193 24.0732C75.219 24.0732 75.2187 24.0732 75.2184 24.0732C75.2181 24.0732 75.2179 24.0732 75.2176 24.0732C75.2173 24.0732 75.217 24.0732 75.2167 24.0732C75.2164 24.0732 75.2162 24.0732 75.2159 24.0732C75.2156 24.0732 75.2153 24.0732 75.215 24.0732C75.2148 24.0732 75.2145 24.0732 75.2142 24.0732C75.2139 24.0732 75.2136 24.0732 75.2133 24.0732C75.2131 24.0732 75.2128 24.0732 75.2125 24.0732C75.2122 24.0732 75.2119 24.0732 75.2117 24.0732C75.2114 24.0732 75.2111 24.0732 75.2108 24.0732C75.2105 24.0732 75.2103 24.0732 75.21 24.0732C75.2097 24.0732 75.2094 24.0732 75.2091 24.0732C75.2089 24.0732 75.2086 24.0732 75.2083 24.0732C75.208 24.0732 75.2077 24.0732 75.2075 24.0732C75.2072 24.0732 75.2069 24.0732 75.2066 24.0732C75.2064 24.0732 75.2061 24.0732 75.2058 24.0732C75.2055 24.0732 75.2052 24.0732 75.205 24.0732C75.2047 24.0732 75.2044 24.0732 75.2041 24.0732C75.2038 24.0732 75.2036 24.0732 75.2033 24.0732C75.203 24.0732 75.2027 24.0732 75.2025 24.0732C75.2022 24.0732 75.2019 24.0732 75.2016 24.0732C75.2014 24.0732 75.2011 24.0732 75.2008 24.0732C75.2005 24.0732 75.2003 24.0732 75.2 24.0732C75.1997 24.0732 75.1994 24.0732 75.1991 24.0732C75.1989 24.0732 75.1986 24.0732 75.1983 24.0732C75.198 24.0732 75.1978 24.0732 75.1975 24.0732C75.1972 24.0732 75.1969 24.0732 75.1967 24.0732C75.1964 24.0732 75.1961 24.0732 75.1958 24.0732C75.1956 24.0732 75.1953 24.0732 75.195 24.0732C75.1947 24.0732 75.1945 24.0732 75.1942 24.0732C75.1939 24.0732 75.1937 24.0732 75.1934 24.0732C75.1931 24.0732 75.1928 24.0732 75.1926 24.0732C75.1923 24.0732 75.192 24.0732 75.1917 24.0732C75.1915 24.0732 75.1912 24.0732 75.1909 24.0732C75.1906 24.0732 75.1904 24.0732 75.1901 24.0732C75.1898 24.0732 75.1896 24.0732 75.1893 24.0732C75.189 24.0732 75.1887 24.0732 75.1885 24.0732C75.1882 24.0732 75.1879 24.0732 75.1877 24.0732C75.1874 24.0732 75.1871 24.0732 75.1868 24.0732C75.1866 24.0732 75.1863 24.0732 75.186 24.0732C75.1858 24.0732 75.1855 24.0732 75.1852 24.0732C75.1849 24.0732 75.1847 24.0732 75.1844 24.0732C75.1841 24.0732 75.1839 24.0732 75.1836 24.0732C75.1833 24.0732 75.1831 24.0732 75.1828 24.0732C75.1825 24.0732 75.1823 24.0732 75.182 24.0732C75.1817 24.0732 75.1814 24.0732 75.1812 24.0732C75.1809 24.0732 75.1806 24.0732 75.1804 24.0732C75.1801 24.0732 75.1798 24.0732 75.1796 24.0732C75.1793 24.0732 75.179 24.0732 75.1788 24.0732C75.1785 24.0732 75.1782 24.0732 75.178 24.0732C75.1777 24.0732 75.1774 24.0732 75.1772 24.0732C75.1769 24.0732 75.1766 24.0732 75.1764 24.0732C75.1761 24.0732 75.1758 24.0732 75.1755 24.0732C75.1753 24.0732 75.175 24.0732 75.1748 24.0732C75.1745 24.0732 75.1742 24.0732 75.174 24.0732C75.1737 24.0732 75.1734 24.0732 75.1732 24.0732C75.1729 24.0732 75.1726 24.0732 75.1724 24.0732C75.1721 24.0732 75.1718 24.0732 75.1716 24.0732C75.1713 24.0732 75.171 24.0732 75.1708 24.0732C75.1705 24.0732 75.1702 24.0732 75.17 24.0732C75.1697 24.0732 75.1694 24.0732 75.1692 24.0732C75.1689 24.0732 75.1686 24.0732 75.1684 24.0732C75.1681 24.0732 75.1679 24.0732 75.1676 24.0732C75.1673 24.0732 75.1671 24.0732 75.1668 24.0732C75.1665 24.0732 75.1663 24.0732 75.166 24.0732C75.1658 24.0732 75.1655 24.0732 75.1652 24.0732C75.165 24.0732 75.1647 24.0732 75.1644 24.0732C75.1642 24.0732 75.1639 24.0732 75.1637 24.0732C75.1634 24.0732 75.1631 24.0732 75.1629 24.0732C75.1626 24.0732 75.1623 24.0732 75.1621 24.0732C75.1618 24.0732 75.1616 24.0732 75.1613 24.0732C75.161 24.0732 75.1608 24.0732 75.1605 24.0732C75.1603 24.0732 75.16 24.0732 75.1597 24.0732C75.1595 24.0732 75.1592 24.0732 75.159 24.0732C75.1587 24.0732 75.1584 24.0732 75.1582 24.0732C75.1579 24.0732 75.1577 24.0732 75.1574 24.0732C75.1571 24.0732 75.1569 24.0732 75.1566 24.0732C75.1564 24.0732 75.1561 24.0732 75.1558 24.0732C75.1556 24.0732 75.1553 24.0732 75.1551 24.0732C75.1548 24.0732 75.1545 24.0732 75.1543 24.0732C75.154 24.0732 75.1538 24.0732 75.1535 24.0732C75.1533 24.0732 75.153 24.0732 75.1527 24.0732C75.1525 24.0732 75.1522 24.0732 75.152 24.0732C75.1517 24.0732 75.1514 24.0732 75.1512 24.0732C75.1509 24.0732 75.1507 24.0732 75.1504 24.0732C75.1502 24.0732 75.1499 24.0732 75.1497 24.0732C75.1494 24.0732 75.1491 24.0732 75.1489 24.0732C75.1486 24.0732 75.1484 24.0732 75.1481 24.0732C75.1479 24.0732 75.1476 24.0732 75.1473 24.0732C75.1471 24.0732 75.1468 24.0732 75.1466 24.0732C75.1463 24.0732 75.1461 24.0732 75.1458 24.0732C75.1456 24.0732 75.1453 24.0732 75.1451 24.0732C75.1448 24.0732 75.1445 24.0732 75.1443 24.0732C75.144 24.0732 75.1438 24.0732 75.1435 24.0732C75.1433 24.0732 75.143 24.0732 75.1428 24.0732C75.1425 24.0732 75.1423 24.0732 75.142 24.0732C75.1417 24.0732 75.1415 24.0732 75.1412 24.0732C75.141 24.0732 75.1407 24.0732 75.1405 24.0732C75.1402 24.0732 75.14 24.0732 75.1397 24.0732C75.1395 24.0732 75.1392 24.0732 75.139 24.0732C75.1387 24.0732 75.1385 24.0732 75.1382 24.0732C75.138 24.0732 75.1377 24.0732 75.1375 24.0732C75.1372 24.0732 75.137 24.0732 75.1367 24.0732C75.1365 24.0732 75.1362 24.0732 75.136 24.0732C75.1357 24.0732 75.1354 24.0732 75.1352 24.0732C75.1349 24.0732 75.1347 24.0732 75.1344 24.0732C75.1342 24.0732 75.1339 24.0732 75.1337 24.0732C75.1334 24.0732 75.1332 24.0732 75.1329 24.0732C75.1327 24.0732 75.1324 24.0732 75.1322 24.0732C75.1319 24.0732 75.1317 24.0732 75.1315 24.0732C75.1312 24.0732 75.131 24.0732 75.1307 24.0732C75.1305 24.0732 75.1302 24.0732 75.13 24.0732C75.1297 24.0732 75.1295 24.0732 75.1292 24.0732C75.129 24.0732 75.1287 24.0732 75.1285 24.0732C75.1282 24.0732 75.128 24.0732 75.1277 24.0732C75.1275 24.0732 75.1272 24.0732 75.127 24.0732C75.1267 24.0732 75.1265 24.0732 75.1262 24.0732C75.126 24.0732 75.1258 24.0732 75.1255 24.0732C75.1253 24.0732 75.125 24.0732 75.1248 24.0732C75.1245 24.0732 75.1243 24.0732 75.124 24.0732C75.1238 24.0732 75.1235 24.0732 75.1233 24.0732C75.123 24.0732 75.1228 24.0732 75.1226 24.0732C75.1223 24.0732 75.1221 24.0732 75.1218 24.0732C75.1216 24.0732 75.1213 24.0732 75.1211 24.0732C75.1208 24.0732 75.1206 24.0732 75.1203 24.0732C75.1201 24.0732 75.1199 24.0732 75.1196 24.0732C75.1194 24.0732 75.1191 24.0732 75.1189 24.0732C75.1186 24.0732 75.1184 24.0732 75.1182 24.0732C75.1179 24.0732 75.1177 24.0732 75.1174 24.0732C75.1172 24.0732 75.1169 24.0732 75.1167 24.0732C75.1165 24.0732 75.1162 24.0732 75.116 24.0732C75.1157 24.0732 75.1155 24.0732 75.1152 24.0732C75.115 24.0732 75.1148 24.0732 75.1145 24.0732C75.1143 24.0732 75.114 24.0732 75.1138 24.0732C75.1135 24.0732 75.1133 24.0732 75.1131 24.0732C75.1128 24.0732 75.1126 24.0732 75.1123 24.0732C75.1121 24.0732 75.1119 24.0732 75.1116 24.0732C75.1114 24.0732 75.1111 24.0732 75.1109 24.0732C75.1107 24.0732 75.1104 24.0732 75.1102 24.0732C75.1099 24.0732 75.1097 24.0732 75.1095 24.0732C75.1092 24.0732 75.109 24.0732 75.1087 24.0732C75.1085 24.0732 75.1083 24.0732 75.108 24.0732C75.1078 24.0732 75.1075 24.0732 75.1073 24.0732C75.1071 24.0732 75.1068 24.0732 75.1066 24.0732C75.1063 24.0732 75.1061 24.0732 75.1059 24.0732C75.1056 24.0732 75.1054 24.0732 75.1052 24.0732C75.1049 24.0732 75.1047 24.0732 75.1044 24.0732C75.1042 24.0732 75.104 24.0732 75.1037 24.0732C75.1035 24.0732 75.1033 24.0732 75.103 24.0732C75.1028 24.0732 75.1025 24.0732 75.1023 24.0732C75.1021 24.0732 75.1018 24.0732 75.1016 24.0732C75.1014 24.0732 75.1011 24.0732 75.1009 24.0732C75.1007 24.0732 75.1004 24.0732 75.1002 24.0732C75.1 24.0732 75.0997 24.0732 75.0995 24.0732C75.0992 24.0732 75.099 24.0732 75.0988 24.0732C75.0985 24.0732 75.0983 24.0732 75.0981 24.0732C75.0978 24.0732 75.0976 24.0732 75.0974 24.0732C75.0971 24.0732 75.0969 24.0732 75.0967 24.0732C75.0964 24.0732 75.0962 24.0732 75.096 24.0732C75.0957 24.0732 75.0955 24.0732 75.0953 24.0732C75.095 24.0732 75.0948 24.0732 75.0946 24.0732C75.0943 24.0732 75.0941 24.0732 75.0939 24.0732C75.0936 24.0732 75.0934 24.0732 75.0932 24.0732C75.0929 24.0732 75.0927 24.0732 75.0925 24.0732C75.0922 24.0732 75.092 24.0732 75.0918 24.0732C75.0915 24.0732 75.0913 24.0732 75.0911 24.0732C75.0908 24.0732 75.0906 24.0732 75.0904 24.0732C75.0901 24.0732 75.0899 24.0732 75.0897 24.0732C75.0895 24.0732 75.0892 24.0732 75.089 24.0732C75.0888 24.0732 75.0885 24.0732 75.0883 24.0732C75.0881 24.0732 75.0878 24.0732 75.0876 24.0732C75.0874 24.0732 75.0872 24.0732 75.0869 24.0732C75.0867 24.0732 75.0865 24.0732 75.0862 24.0732C75.086 24.0732 75.0858 24.0732 75.0855 24.0732C75.0853 24.0732 75.0851 24.0732 75.0849 24.0732C75.0846 24.0732 75.0844 24.0732 75.0842 24.0732C75.0839 24.0732 75.0837 24.0732 75.0835 24.0732C75.0833 24.0732 75.083 24.0732 75.0828 24.0732C75.0826 24.0732 75.0823 24.0732 75.0821 24.0732C75.0819 24.0732 75.0817 24.0732 75.0814 24.0732C75.0812 24.0732 75.081 24.0732 75.0808 24.0732C75.0805 24.0732 75.0803 24.0732 75.0801 24.0732C75.0798 24.0732 75.0796 24.0732 75.0794 24.0732C75.0792 24.0732 75.0789 24.0732 75.0787 24.0732C75.0785 24.0732 75.0783 24.0732 75.078 24.0732C75.0778 24.0732 75.0776 24.0732 75.0774 24.0732C75.0771 24.0732 75.0769 24.0732 75.0767 24.0732C75.0765 24.0732 75.0762 24.0732 75.076 24.0732C75.0758 24.0732 75.0756 24.0732 75.0753 24.0732C75.0751 24.0732 75.0749 24.0732 75.0747 24.0732C75.0744 24.0732 75.0742 24.0732 75.074 24.0732C75.0738 24.0732 75.0735 24.0732 75.0733 24.0732C75.0731 24.0732 75.0729 24.0732 75.0726 24.0732C75.0724 24.0732 75.0722 24.0732 75.072 24.0732C75.0718 24.0732 75.0715 24.0732 75.0713 24.0732C75.0711 24.0732 75.0709 24.0732 75.0706 24.0732C75.0704 24.0732 75.0702 24.0732 75.07 24.0732C75.0698 24.0732 75.0695 24.0732 75.0693 24.0732C75.0691 24.0732 75.0689 24.0732 75.0686 24.0732C75.0684 24.0732 75.0682 24.0732 75.068 24.0732C75.0678 24.0732 75.0675 24.0732 75.0673 24.0732C75.0671 24.0732 75.0669 24.0732 75.0667 24.0732C75.0664 24.0732 75.0662 24.0732 75.066 24.0732C75.0658 24.0732 75.0656 24.0732 75.0653 24.0732C75.0651 24.0732 75.0649 24.0732 75.0647 24.0732C75.0645 24.0732 75.0642 24.0732 75.064 24.0732C75.0638 24.0732 75.0636 24.0732 75.0634 24.0732C75.0631 24.0732 75.0629 24.0732 75.0627 24.0732C75.0625 24.0732 75.0623 24.0732 75.0621 24.0732C75.0618 24.0732 75.0616 24.0732 75.0614 24.0732C75.0612 24.0732 75.061 24.0732 75.0607 24.0732C75.0605 24.0732 75.0603 24.0732 75.0601 24.0732C75.0599 24.0732 75.0597 24.0732 75.0594 24.0732C75.0592 24.0732 75.059 24.0732 75.0588 24.0732C75.0586 24.0732 75.0584 24.0732 75.0581 24.0732C75.0579 24.0732 75.0577 24.0732 75.0575 24.0732C75.0573 24.0732 75.0571 24.0732 75.0568 24.0732C75.0566 24.0732 75.0564 24.0732 75.0562 24.0732C75.056 24.0732 75.0558 24.0732 75.0555 24.0732C75.0553 24.0732 75.0551 24.0732 75.0549 24.0732C75.0547 24.0732 75.0545 24.0732 75.0543 24.0732C75.054 24.0732 75.0538 24.0732 75.0536 24.0732C75.0534 24.0732 75.0532 24.0732 75.053 24.0732C75.0528 24.0732 75.0525 24.0732 75.0523 24.0732C75.0521 24.0732 75.0519 24.0732 75.0517 24.0732C75.0515 24.0732 75.0513 24.0732 75.0511 24.0732C75.0508 24.0732 75.0506 24.0732 75.0504 24.0732C75.0502 24.0732 75.05 24.0732 75.0498 24.0732C75.0496 24.0732 75.0494 24.0732 75.0491 24.0732C75.0489 24.0732 75.0487 24.0732 75.0485 24.0732C75.0483 24.0732 75.0481 24.0732 75.0479 24.0732C75.0477 24.0732 75.0474 24.0732 75.0472 24.0732C75.047 24.0732 75.0468 24.0732 75.0466 24.0732C75.0464 24.0732 75.0462 24.0732 75.046 24.0732C75.0458 24.0732 75.0455 24.0732 75.0453 24.0732C75.0451 24.0732 75.0449 24.0732 75.0447 24.0732C75.0445 24.0732 75.0443 24.0732 75.0441 24.0732C75.0439 24.0732 75.0437 24.0732 75.0435 24.0732C75.0432 24.0732 75.043 24.0732 75.0428 24.0732C75.0426 24.0732 75.0424 24.0732 75.0422 24.0732C75.042 24.0732 75.0418 24.0732 75.0416 24.0732C75.0414 24.0732 75.0412 24.0732 75.0409 24.0732C75.0407 24.0732 75.0405 24.0732 75.0403 24.0732C75.0401 24.0732 75.0399 24.0732 75.0397 24.0732C75.0395 24.0732 75.0393 24.0732 75.0391 24.0732C75.0389 24.0732 75.0387 24.0732 75.0385 24.0732C75.0383 24.0732 75.038 24.0732 75.0378 24.0732C75.0376 24.0732 75.0374 24.0732 75.0372 24.0732C75.037 24.0732 75.0368 24.0732 75.0366 24.0732C75.0364 24.0732 75.0362 24.0732 75.036 24.0732C75.0358 24.0732 75.0356 24.0732 75.0354 24.0732C75.0352 24.0732 75.035 24.0732 75.0348 24.0732C75.0345 24.0732 75.0343 24.0732 75.0341 24.0732C75.0339 24.0732 75.0337 24.0732 75.0335 24.0732C75.0333 24.0732 75.0331 24.0732 75.0329 24.0732C75.0327 24.0732 75.0325 24.0732 75.0323 24.0732C75.0321 24.0732 75.0319 24.0732 75.0317 24.0732C75.0315 24.0732 75.0313 24.0732 75.0311 24.0732C75.0309 24.0732 75.0307 24.0732 75.0305 24.0732C75.0303 24.0732 75.0301 24.0732 75.0299 24.0732C75.0297 24.0732 75.0295 24.0732 75.0293 24.0732C75.0291 24.0732 75.0289 24.0732 75.0287 24.0732C75.0284 24.0732 75.0282 24.0732 75.028 24.0732C75.0278 24.0732 75.0276 24.0732 75.0274 24.0732C75.0272 24.0732 75.027 24.0732 75.0268 24.0732C75.0266 24.0732 75.0264 24.0732 75.0262 24.0732C75.026 24.0732 75.0258 24.0732 75.0256 24.0732C75.0254 24.0732 75.0252 24.0732 75.025 24.0732C75.0248 24.0732 75.0246 24.0732 75.0244 24.0732C75.0242 24.0732 75.024 24.0732 75.0238 24.0732C75.0236 24.0732 75.0234 24.0732 75.0232 24.0732C75.023 24.0732 75.0228 24.0732 75.0226 24.0732C75.0224 24.0732 75.0222 24.0732 75.022 24.0732C75.0218 24.0732 75.0216 24.0732 75.0215 24.0732C75.0213 24.0732 75.0211 24.0732 75.0209 24.0732C75.0207 24.0732 75.0205 24.0732 75.0203 24.0732C75.0201 24.0732 75.0199 24.0732 75.0197 24.0732C75.0195 24.0732 75.0193 24.0732 75.0191 24.0732C75.0189 24.0732 75.0187 24.0732 75.0185 24.0732C75.0183 24.0732 75.0181 24.0732 75.0179 24.0732C75.0177 24.0732 75.0175 24.0732 75.0173 24.0732C75.0171 24.0732 75.0169 24.0732 75.0167 24.0732C75.0165 24.0732 75.0163 24.0732 75.0161 24.0732C75.0159 24.0732 75.0157 24.0732 75.0156 24.0732C75.0154 24.0732 75.0152 24.0732 75.015 24.0732C75.0148 24.0732 75.0146 24.0732 75.0144 24.0732C75.0142 24.0732 75.014 24.0732 75.0138 24.0732C75.0136 24.0732 75.0134 24.0732 75.0132 24.0732C75.013 24.0732 75.0128 24.0732 75.0126 24.0732C75.0124 24.0732 75.0123 24.0732 75.0121 24.0732C75.0119 24.0732 75.0117 24.0732 75.0115 24.0732C75.0113 24.0732 75.0111 24.0732 75.0109 24.0732C75.0107 24.0732 75.0105 24.0732 75.0103 24.0732C75.0101 24.0732 75.0099 24.0732 75.0097 24.0732C75.0096 24.0732 75.0094 24.0732 75.0092 24.0732C75.009 24.0732 75.0088 24.0732 75.0086 24.0732C75.0084 24.0732 75.0082 24.0732 75.008 24.0732C75.0078 24.0732 75.0076 24.0732 75.0075 24.0732C75.0073 24.0732 75.0071 24.0732 75.0069 24.0732C75.0067 24.0732 75.0065 24.0732 75.0063 24.0732C75.0061 24.0732 75.0059 24.0732 75.0057 24.0732C75.0056 24.0732 75.0054 24.0732 75.0052 24.0732C75.005 24.0732 75.0048 24.0732 75.0046 24.0732C75.0044 24.0732 75.0042 24.0732 75.004 24.0732C75.0038 24.0732 75.0037 24.0732 75.0035 24.0732C75.0033 24.0732 75.0031 24.0732 75.0029 24.0732C75.0027 24.0732 75.0025 24.0732 75.0023 24.0732C75.0022 24.0732 75.002 24.0732 75.0018 24.0732C75.0016 24.0732 75.0014 24.0732 75.0012 24.0732C75.001 24.0732 75.0008 24.0732 75.0007 24.0732C75.0005 24.0732 75.0003 24.0732 75.0001 24.0732C74.9999 24.0732 74.9997 24.0732 74.9995 24.0732C74.9994 24.0732 74.9992 24.0732 74.999 24.0732C74.9988 24.0732 74.9986 24.0732 74.9984 24.0732C74.9982 24.0732 74.998 24.0732 74.9979 24.0732C74.9977 24.0732 74.9975 24.0732 74.9973 24.0732C74.9971 24.0732 74.9969 24.0732 74.9968 24.0732C74.9966 24.0732 74.9964 24.0732 74.9962 24.0732C74.996 24.0732 74.9958 24.0732 74.9956 24.0732C74.9955 24.0732 74.9953 24.0732 74.9951 24.0732C74.9949 24.0732 74.9947 24.0732 74.9945 24.0732C74.9944 24.0732 74.9942 24.0732 74.994 24.0732C74.9938 24.0732 74.9936 24.0732 74.9934 24.0732C74.9933 24.0732 74.9931 24.0732 74.9929 24.0732C74.9927 24.0732 74.9925 24.0732 74.9923 24.0732C74.9922 24.0732 74.992 24.0732 74.9918 24.0732C74.9916 24.0732 74.9914 24.0732 74.9913 24.0732C74.9911 24.0732 74.9909 24.0732 74.9907 24.0732C74.9905 24.0732 74.9903 24.0732 74.9902 24.0732C74.99 24.0732 74.9898 24.0732 74.9896 24.0732C74.9894 24.0732 74.9893 24.0732 74.9891 24.0732C74.9889 24.0732 74.9887 24.0732 74.9885 24.0732C74.9884 24.0732 74.9882 24.0732 74.988 24.0732C74.9878 24.0732 74.9876 24.0732 74.9875 24.0732C74.9873 24.0732 74.9871 24.0732 74.9869 24.0732C74.9867 24.0732 74.9866 24.0732 74.9864 24.0732C74.9862 24.0732 74.986 24.0732 74.9859 24.0732C74.9857 24.0732 74.9855 24.0732 74.9853 24.0732C74.9851 24.0732 74.985 24.0732 74.9848 24.0732C74.9846 24.0732 74.9844 24.0732 74.9843 24.0732C74.9841 24.0732 74.9839 24.0732 74.9837 24.0732C74.9835 24.0732 74.9834 24.0732 74.9832 24.0732C74.983 24.0732 74.9828 24.0732 74.9827 24.0732C74.9825 24.0732 74.9823 24.0732 74.9821 24.0732C74.982 24.0732 74.9818 24.0732 74.9816 24.0732C74.9814 24.0732 74.9812 24.0732 74.9811 24.0732C74.9809 24.0732 74.9807 24.0732 74.9805 24.0732C74.9804 24.0732 74.9802 24.0732 74.98 24.0732C74.9798 24.0732 74.9797 24.0732 74.9795 24.0732V26.0732C74.9797 26.0732 74.9798 26.0732 74.98 26.0732C74.9802 26.0732 74.9804 26.0732 74.9805 26.0732C74.9807 26.0732 74.9809 26.0732 74.9811 26.0732C74.9812 26.0732 74.9814 26.0732 74.9816 26.0732C74.9818 26.0732 74.982 26.0732 74.9821 26.0732C74.9823 26.0732 74.9825 26.0732 74.9827 26.0732C74.9828 26.0732 74.983 26.0732 74.9832 26.0732C74.9834 26.0732 74.9835 26.0732 74.9837 26.0732C74.9839 26.0732 74.9841 26.0732 74.9843 26.0732C74.9844 26.0732 74.9846 26.0732 74.9848 26.0732C74.985 26.0732 74.9851 26.0732 74.9853 26.0732C74.9855 26.0732 74.9857 26.0732 74.9859 26.0732C74.986 26.0732 74.9862 26.0732 74.9864 26.0732C74.9866 26.0732 74.9867 26.0732 74.9869 26.0732C74.9871 26.0732 74.9873 26.0732 74.9875 26.0732C74.9876 26.0732 74.9878 26.0732 74.988 26.0732C74.9882 26.0732 74.9884 26.0732 74.9885 26.0732C74.9887 26.0732 74.9889 26.0732 74.9891 26.0732C74.9893 26.0732 74.9894 26.0732 74.9896 26.0732C74.9898 26.0732 74.99 26.0732 74.9902 26.0732C74.9903 26.0732 74.9905 26.0732 74.9907 26.0732C74.9909 26.0732 74.9911 26.0732 74.9913 26.0732C74.9914 26.0732 74.9916 26.0732 74.9918 26.0732C74.992 26.0732 74.9922 26.0732 74.9923 26.0732C74.9925 26.0732 74.9927 26.0732 74.9929 26.0732C74.9931 26.0732 74.9933 26.0732 74.9934 26.0732C74.9936 26.0732 74.9938 26.0732 74.994 26.0732C74.9942 26.0732 74.9944 26.0732 74.9945 26.0732C74.9947 26.0732 74.9949 26.0732 74.9951 26.0732C74.9953 26.0732 74.9955 26.0732 74.9956 26.0732C74.9958 26.0732 74.996 26.0732 74.9962 26.0732C74.9964 26.0732 74.9966 26.0732 74.9968 26.0732C74.9969 26.0732 74.9971 26.0732 74.9973 26.0732C74.9975 26.0732 74.9977 26.0732 74.9979 26.0732C74.998 26.0732 74.9982 26.0732 74.9984 26.0732C74.9986 26.0732 74.9988 26.0732 74.999 26.0732C74.9992 26.0732 74.9994 26.0732 74.9995 26.0732C74.9997 26.0732 74.9999 26.0732 75.0001 26.0732C75.0003 26.0732 75.0005 26.0732 75.0007 26.0732C75.0008 26.0732 75.001 26.0732 75.0012 26.0732C75.0014 26.0732 75.0016 26.0732 75.0018 26.0732C75.002 26.0732 75.0022 26.0732 75.0023 26.0732C75.0025 26.0732 75.0027 26.0732 75.0029 26.0732C75.0031 26.0732 75.0033 26.0732 75.0035 26.0732C75.0037 26.0732 75.0038 26.0732 75.004 26.0732C75.0042 26.0732 75.0044 26.0732 75.0046 26.0732C75.0048 26.0732 75.005 26.0732 75.0052 26.0732C75.0054 26.0732 75.0056 26.0732 75.0057 26.0732C75.0059 26.0732 75.0061 26.0732 75.0063 26.0732C75.0065 26.0732 75.0067 26.0732 75.0069 26.0732C75.0071 26.0732 75.0073 26.0732 75.0075 26.0732C75.0076 26.0732 75.0078 26.0732 75.008 26.0732C75.0082 26.0732 75.0084 26.0732 75.0086 26.0732C75.0088 26.0732 75.009 26.0732 75.0092 26.0732C75.0094 26.0732 75.0096 26.0732 75.0097 26.0732C75.0099 26.0732 75.0101 26.0732 75.0103 26.0732C75.0105 26.0732 75.0107 26.0732 75.0109 26.0732C75.0111 26.0732 75.0113 26.0732 75.0115 26.0732C75.0117 26.0732 75.0119 26.0732 75.0121 26.0732C75.0123 26.0732 75.0124 26.0732 75.0126 26.0732C75.0128 26.0732 75.013 26.0732 75.0132 26.0732C75.0134 26.0732 75.0136 26.0732 75.0138 26.0732C75.014 26.0732 75.0142 26.0732 75.0144 26.0732C75.0146 26.0732 75.0148 26.0732 75.015 26.0732C75.0152 26.0732 75.0154 26.0732 75.0156 26.0732C75.0157 26.0732 75.0159 26.0732 75.0161 26.0732C75.0163 26.0732 75.0165 26.0732 75.0167 26.0732C75.0169 26.0732 75.0171 26.0732 75.0173 26.0732C75.0175 26.0732 75.0177 26.0732 75.0179 26.0732C75.0181 26.0732 75.0183 26.0732 75.0185 26.0732C75.0187 26.0732 75.0189 26.0732 75.0191 26.0732C75.0193 26.0732 75.0195 26.0732 75.0197 26.0732C75.0199 26.0732 75.0201 26.0732 75.0203 26.0732C75.0205 26.0732 75.0207 26.0732 75.0209 26.0732C75.0211 26.0732 75.0213 26.0732 75.0215 26.0732C75.0216 26.0732 75.0218 26.0732 75.022 26.0732C75.0222 26.0732 75.0224 26.0732 75.0226 26.0732C75.0228 26.0732 75.023 26.0732 75.0232 26.0732C75.0234 26.0732 75.0236 26.0732 75.0238 26.0732C75.024 26.0732 75.0242 26.0732 75.0244 26.0732C75.0246 26.0732 75.0248 26.0732 75.025 26.0732C75.0252 26.0732 75.0254 26.0732 75.0256 26.0732C75.0258 26.0732 75.026 26.0732 75.0262 26.0732C75.0264 26.0732 75.0266 26.0732 75.0268 26.0732C75.027 26.0732 75.0272 26.0732 75.0274 26.0732C75.0276 26.0732 75.0278 26.0732 75.028 26.0732C75.0282 26.0732 75.0284 26.0732 75.0287 26.0732C75.0289 26.0732 75.0291 26.0732 75.0293 26.0732C75.0295 26.0732 75.0297 26.0732 75.0299 26.0732C75.0301 26.0732 75.0303 26.0732 75.0305 26.0732C75.0307 26.0732 75.0309 26.0732 75.0311 26.0732C75.0313 26.0732 75.0315 26.0732 75.0317 26.0732C75.0319 26.0732 75.0321 26.0732 75.0323 26.0732C75.0325 26.0732 75.0327 26.0732 75.0329 26.0732C75.0331 26.0732 75.0333 26.0732 75.0335 26.0732C75.0337 26.0732 75.0339 26.0732 75.0341 26.0732C75.0343 26.0732 75.0345 26.0732 75.0348 26.0732C75.035 26.0732 75.0352 26.0732 75.0354 26.0732C75.0356 26.0732 75.0358 26.0732 75.036 26.0732C75.0362 26.0732 75.0364 26.0732 75.0366 26.0732C75.0368 26.0732 75.037 26.0732 75.0372 26.0732C75.0374 26.0732 75.0376 26.0732 75.0378 26.0732C75.038 26.0732 75.0383 26.0732 75.0385 26.0732C75.0387 26.0732 75.0389 26.0732 75.0391 26.0732C75.0393 26.0732 75.0395 26.0732 75.0397 26.0732C75.0399 26.0732 75.0401 26.0732 75.0403 26.0732C75.0405 26.0732 75.0407 26.0732 75.0409 26.0732C75.0412 26.0732 75.0414 26.0732 75.0416 26.0732C75.0418 26.0732 75.042 26.0732 75.0422 26.0732C75.0424 26.0732 75.0426 26.0732 75.0428 26.0732C75.043 26.0732 75.0432 26.0732 75.0435 26.0732C75.0437 26.0732 75.0439 26.0732 75.0441 26.0732C75.0443 26.0732 75.0445 26.0732 75.0447 26.0732C75.0449 26.0732 75.0451 26.0732 75.0453 26.0732C75.0455 26.0732 75.0458 26.0732 75.046 26.0732C75.0462 26.0732 75.0464 26.0732 75.0466 26.0732C75.0468 26.0732 75.047 26.0732 75.0472 26.0732C75.0474 26.0732 75.0477 26.0732 75.0479 26.0732C75.0481 26.0732 75.0483 26.0732 75.0485 26.0732C75.0487 26.0732 75.0489 26.0732 75.0491 26.0732C75.0494 26.0732 75.0496 26.0732 75.0498 26.0732C75.05 26.0732 75.0502 26.0732 75.0504 26.0732C75.0506 26.0732 75.0508 26.0732 75.0511 26.0732C75.0513 26.0732 75.0515 26.0732 75.0517 26.0732C75.0519 26.0732 75.0521 26.0732 75.0523 26.0732C75.0525 26.0732 75.0528 26.0732 75.053 26.0732C75.0532 26.0732 75.0534 26.0732 75.0536 26.0732C75.0538 26.0732 75.054 26.0732 75.0543 26.0732C75.0545 26.0732 75.0547 26.0732 75.0549 26.0732C75.0551 26.0732 75.0553 26.0732 75.0555 26.0732C75.0558 26.0732 75.056 26.0732 75.0562 26.0732C75.0564 26.0732 75.0566 26.0732 75.0568 26.0732C75.0571 26.0732 75.0573 26.0732 75.0575 26.0732C75.0577 26.0732 75.0579 26.0732 75.0581 26.0732C75.0584 26.0732 75.0586 26.0732 75.0588 26.0732C75.059 26.0732 75.0592 26.0732 75.0594 26.0732C75.0597 26.0732 75.0599 26.0732 75.0601 26.0732C75.0603 26.0732 75.0605 26.0732 75.0607 26.0732C75.061 26.0732 75.0612 26.0732 75.0614 26.0732C75.0616 26.0732 75.0618 26.0732 75.0621 26.0732C75.0623 26.0732 75.0625 26.0732 75.0627 26.0732C75.0629 26.0732 75.0631 26.0732 75.0634 26.0732C75.0636 26.0732 75.0638 26.0732 75.064 26.0732C75.0642 26.0732 75.0645 26.0732 75.0647 26.0732C75.0649 26.0732 75.0651 26.0732 75.0653 26.0732C75.0656 26.0732 75.0658 26.0732 75.066 26.0732C75.0662 26.0732 75.0664 26.0732 75.0667 26.0732C75.0669 26.0732 75.0671 26.0732 75.0673 26.0732C75.0675 26.0732 75.0678 26.0732 75.068 26.0732C75.0682 26.0732 75.0684 26.0732 75.0686 26.0732C75.0689 26.0732 75.0691 26.0732 75.0693 26.0732C75.0695 26.0732 75.0698 26.0732 75.07 26.0732C75.0702 26.0732 75.0704 26.0732 75.0706 26.0732C75.0709 26.0732 75.0711 26.0732 75.0713 26.0732C75.0715 26.0732 75.0718 26.0732 75.072 26.0732C75.0722 26.0732 75.0724 26.0732 75.0726 26.0732C75.0729 26.0732 75.0731 26.0732 75.0733 26.0732C75.0735 26.0732 75.0738 26.0732 75.074 26.0732C75.0742 26.0732 75.0744 26.0732 75.0747 26.0732C75.0749 26.0732 75.0751 26.0732 75.0753 26.0732C75.0756 26.0732 75.0758 26.0732 75.076 26.0732C75.0762 26.0732 75.0765 26.0732 75.0767 26.0732C75.0769 26.0732 75.0771 26.0732 75.0774 26.0732C75.0776 26.0732 75.0778 26.0732 75.078 26.0732C75.0783 26.0732 75.0785 26.0732 75.0787 26.0732C75.0789 26.0732 75.0792 26.0732 75.0794 26.0732C75.0796 26.0732 75.0798 26.0732 75.0801 26.0732C75.0803 26.0732 75.0805 26.0732 75.0808 26.0732C75.081 26.0732 75.0812 26.0732 75.0814 26.0732C75.0817 26.0732 75.0819 26.0732 75.0821 26.0732C75.0823 26.0732 75.0826 26.0732 75.0828 26.0732C75.083 26.0732 75.0833 26.0732 75.0835 26.0732C75.0837 26.0732 75.0839 26.0732 75.0842 26.0732C75.0844 26.0732 75.0846 26.0732 75.0849 26.0732C75.0851 26.0732 75.0853 26.0732 75.0855 26.0732C75.0858 26.0732 75.086 26.0732 75.0862 26.0732C75.0865 26.0732 75.0867 26.0732 75.0869 26.0732C75.0872 26.0732 75.0874 26.0732 75.0876 26.0732C75.0878 26.0732 75.0881 26.0732 75.0883 26.0732C75.0885 26.0732 75.0888 26.0732 75.089 26.0732C75.0892 26.0732 75.0895 26.0732 75.0897 26.0732C75.0899 26.0732 75.0901 26.0732 75.0904 26.0732C75.0906 26.0732 75.0908 26.0732 75.0911 26.0732C75.0913 26.0732 75.0915 26.0732 75.0918 26.0732C75.092 26.0732 75.0922 26.0732 75.0925 26.0732C75.0927 26.0732 75.0929 26.0732 75.0932 26.0732C75.0934 26.0732 75.0936 26.0732 75.0939 26.0732C75.0941 26.0732 75.0943 26.0732 75.0946 26.0732C75.0948 26.0732 75.095 26.0732 75.0953 26.0732C75.0955 26.0732 75.0957 26.0732 75.096 26.0732C75.0962 26.0732 75.0964 26.0732 75.0967 26.0732C75.0969 26.0732 75.0971 26.0732 75.0974 26.0732C75.0976 26.0732 75.0978 26.0732 75.0981 26.0732C75.0983 26.0732 75.0985 26.0732 75.0988 26.0732C75.099 26.0732 75.0992 26.0732 75.0995 26.0732C75.0997 26.0732 75.1 26.0732 75.1002 26.0732C75.1004 26.0732 75.1007 26.0732 75.1009 26.0732C75.1011 26.0732 75.1014 26.0732 75.1016 26.0732C75.1018 26.0732 75.1021 26.0732 75.1023 26.0732C75.1025 26.0732 75.1028 26.0732 75.103 26.0732C75.1033 26.0732 75.1035 26.0732 75.1037 26.0732C75.104 26.0732 75.1042 26.0732 75.1044 26.0732C75.1047 26.0732 75.1049 26.0732 75.1052 26.0732C75.1054 26.0732 75.1056 26.0732 75.1059 26.0732C75.1061 26.0732 75.1063 26.0732 75.1066 26.0732C75.1068 26.0732 75.1071 26.0732 75.1073 26.0732C75.1075 26.0732 75.1078 26.0732 75.108 26.0732C75.1083 26.0732 75.1085 26.0732 75.1087 26.0732C75.109 26.0732 75.1092 26.0732 75.1095 26.0732C75.1097 26.0732 75.1099 26.0732 75.1102 26.0732C75.1104 26.0732 75.1107 26.0732 75.1109 26.0732C75.1111 26.0732 75.1114 26.0732 75.1116 26.0732C75.1119 26.0732 75.1121 26.0732 75.1123 26.0732C75.1126 26.0732 75.1128 26.0732 75.1131 26.0732C75.1133 26.0732 75.1135 26.0732 75.1138 26.0732C75.114 26.0732 75.1143 26.0732 75.1145 26.0732C75.1148 26.0732 75.115 26.0732 75.1152 26.0732C75.1155 26.0732 75.1157 26.0732 75.116 26.0732C75.1162 26.0732 75.1165 26.0732 75.1167 26.0732C75.1169 26.0732 75.1172 26.0732 75.1174 26.0732C75.1177 26.0732 75.1179 26.0732 75.1182 26.0732C75.1184 26.0732 75.1186 26.0732 75.1189 26.0732C75.1191 26.0732 75.1194 26.0732 75.1196 26.0732C75.1199 26.0732 75.1201 26.0732 75.1203 26.0732C75.1206 26.0732 75.1208 26.0732 75.1211 26.0732C75.1213 26.0732 75.1216 26.0732 75.1218 26.0732C75.1221 26.0732 75.1223 26.0732 75.1226 26.0732C75.1228 26.0732 75.123 26.0732 75.1233 26.0732C75.1235 26.0732 75.1238 26.0732 75.124 26.0732C75.1243 26.0732 75.1245 26.0732 75.1248 26.0732C75.125 26.0732 75.1253 26.0732 75.1255 26.0732C75.1258 26.0732 75.126 26.0732 75.1262 26.0732C75.1265 26.0732 75.1267 26.0732 75.127 26.0732C75.1272 26.0732 75.1275 26.0732 75.1277 26.0732C75.128 26.0732 75.1282 26.0732 75.1285 26.0732C75.1287 26.0732 75.129 26.0732 75.1292 26.0732C75.1295 26.0732 75.1297 26.0732 75.13 26.0732C75.1302 26.0732 75.1305 26.0732 75.1307 26.0732C75.131 26.0732 75.1312 26.0732 75.1315 26.0732C75.1317 26.0732 75.1319 26.0732 75.1322 26.0732C75.1324 26.0732 75.1327 26.0732 75.1329 26.0732C75.1332 26.0732 75.1334 26.0732 75.1337 26.0732C75.1339 26.0732 75.1342 26.0732 75.1344 26.0732C75.1347 26.0732 75.1349 26.0732 75.1352 26.0732C75.1354 26.0732 75.1357 26.0732 75.136 26.0732C75.1362 26.0732 75.1365 26.0732 75.1367 26.0732C75.137 26.0732 75.1372 26.0732 75.1375 26.0732C75.1377 26.0732 75.138 26.0732 75.1382 26.0732C75.1385 26.0732 75.1387 26.0732 75.139 26.0732C75.1392 26.0732 75.1395 26.0732 75.1397 26.0732C75.14 26.0732 75.1402 26.0732 75.1405 26.0732C75.1407 26.0732 75.141 26.0732 75.1412 26.0732C75.1415 26.0732 75.1417 26.0732 75.142 26.0732C75.1423 26.0732 75.1425 26.0732 75.1428 26.0732C75.143 26.0732 75.1433 26.0732 75.1435 26.0732C75.1438 26.0732 75.144 26.0732 75.1443 26.0732C75.1445 26.0732 75.1448 26.0732 75.1451 26.0732C75.1453 26.0732 75.1456 26.0732 75.1458 26.0732C75.1461 26.0732 75.1463 26.0732 75.1466 26.0732C75.1468 26.0732 75.1471 26.0732 75.1473 26.0732C75.1476 26.0732 75.1479 26.0732 75.1481 26.0732C75.1484 26.0732 75.1486 26.0732 75.1489 26.0732C75.1491 26.0732 75.1494 26.0732 75.1497 26.0732C75.1499 26.0732 75.1502 26.0732 75.1504 26.0732C75.1507 26.0732 75.1509 26.0732 75.1512 26.0732C75.1514 26.0732 75.1517 26.0732 75.152 26.0732C75.1522 26.0732 75.1525 26.0732 75.1527 26.0732C75.153 26.0732 75.1533 26.0732 75.1535 26.0732C75.1538 26.0732 75.154 26.0732 75.1543 26.0732C75.1545 26.0732 75.1548 26.0732 75.1551 26.0732C75.1553 26.0732 75.1556 26.0732 75.1558 26.0732C75.1561 26.0732 75.1564 26.0732 75.1566 26.0732C75.1569 26.0732 75.1571 26.0732 75.1574 26.0732C75.1577 26.0732 75.1579 26.0732 75.1582 26.0732C75.1584 26.0732 75.1587 26.0732 75.159 26.0732C75.1592 26.0732 75.1595 26.0732 75.1597 26.0732C75.16 26.0732 75.1603 26.0732 75.1605 26.0732C75.1608 26.0732 75.161 26.0732 75.1613 26.0732C75.1616 26.0732 75.1618 26.0732 75.1621 26.0732C75.1623 26.0732 75.1626 26.0732 75.1629 26.0732C75.1631 26.0732 75.1634 26.0732 75.1637 26.0732C75.1639 26.0732 75.1642 26.0732 75.1644 26.0732C75.1647 26.0732 75.165 26.0732 75.1652 26.0732C75.1655 26.0732 75.1658 26.0732 75.166 26.0732C75.1663 26.0732 75.1665 26.0732 75.1668 26.0732C75.1671 26.0732 75.1673 26.0732 75.1676 26.0732C75.1679 26.0732 75.1681 26.0732 75.1684 26.0732C75.1686 26.0732 75.1689 26.0732 75.1692 26.0732C75.1694 26.0732 75.1697 26.0732 75.17 26.0732C75.1702 26.0732 75.1705 26.0732 75.1708 26.0732C75.171 26.0732 75.1713 26.0732 75.1716 26.0732C75.1718 26.0732 75.1721 26.0732 75.1724 26.0732C75.1726 26.0732 75.1729 26.0732 75.1732 26.0732C75.1734 26.0732 75.1737 26.0732 75.174 26.0732C75.1742 26.0732 75.1745 26.0732 75.1748 26.0732C75.175 26.0732 75.1753 26.0732 75.1755 26.0732C75.1758 26.0732 75.1761 26.0732 75.1764 26.0732C75.1766 26.0732 75.1769 26.0732 75.1772 26.0732C75.1774 26.0732 75.1777 26.0732 75.178 26.0732C75.1782 26.0732 75.1785 26.0732 75.1788 26.0732C75.179 26.0732 75.1793 26.0732 75.1796 26.0732C75.1798 26.0732 75.1801 26.0732 75.1804 26.0732C75.1806 26.0732 75.1809 26.0732 75.1812 26.0732C75.1814 26.0732 75.1817 26.0732 75.182 26.0732C75.1823 26.0732 75.1825 26.0732 75.1828 26.0732C75.1831 26.0732 75.1833 26.0732 75.1836 26.0732C75.1839 26.0732 75.1841 26.0732 75.1844 26.0732C75.1847 26.0732 75.1849 26.0732 75.1852 26.0732C75.1855 26.0732 75.1858 26.0732 75.186 26.0732C75.1863 26.0732 75.1866 26.0732 75.1868 26.0732C75.1871 26.0732 75.1874 26.0732 75.1877 26.0732C75.1879 26.0732 75.1882 26.0732 75.1885 26.0732C75.1887 26.0732 75.189 26.0732 75.1893 26.0732C75.1896 26.0732 75.1898 26.0732 75.1901 26.0732C75.1904 26.0732 75.1906 26.0732 75.1909 26.0732C75.1912 26.0732 75.1915 26.0732 75.1917 26.0732C75.192 26.0732 75.1923 26.0732 75.1926 26.0732C75.1928 26.0732 75.1931 26.0732 75.1934 26.0732C75.1937 26.0732 75.1939 26.0732 75.1942 26.0732C75.1945 26.0732 75.1947 26.0732 75.195 26.0732C75.1953 26.0732 75.1956 26.0732 75.1958 26.0732C75.1961 26.0732 75.1964 26.0732 75.1967 26.0732C75.1969 26.0732 75.1972 26.0732 75.1975 26.0732C75.1978 26.0732 75.198 26.0732 75.1983 26.0732C75.1986 26.0732 75.1989 26.0732 75.1991 26.0732C75.1994 26.0732 75.1997 26.0732 75.2 26.0732C75.2003 26.0732 75.2005 26.0732 75.2008 26.0732C75.2011 26.0732 75.2014 26.0732 75.2016 26.0732C75.2019 26.0732 75.2022 26.0732 75.2025 26.0732C75.2027 26.0732 75.203 26.0732 75.2033 26.0732C75.2036 26.0732 75.2038 26.0732 75.2041 26.0732C75.2044 26.0732 75.2047 26.0732 75.205 26.0732C75.2052 26.0732 75.2055 26.0732 75.2058 26.0732C75.2061 26.0732 75.2064 26.0732 75.2066 26.0732C75.2069 26.0732 75.2072 26.0732 75.2075 26.0732C75.2077 26.0732 75.208 26.0732 75.2083 26.0732C75.2086 26.0732 75.2089 26.0732 75.2091 26.0732C75.2094 26.0732 75.2097 26.0732 75.21 26.0732C75.2103 26.0732 75.2105 26.0732 75.2108 26.0732C75.2111 26.0732 75.2114 26.0732 75.2117 26.0732C75.2119 26.0732 75.2122 26.0732 75.2125 26.0732C75.2128 26.0732 75.2131 26.0732 75.2133 26.0732C75.2136 26.0732 75.2139 26.0732 75.2142 26.0732C75.2145 26.0732 75.2148 26.0732 75.215 26.0732C75.2153 26.0732 75.2156 26.0732 75.2159 26.0732C75.2162 26.0732 75.2164 26.0732 75.2167 26.0732C75.217 26.0732 75.2173 26.0732 75.2176 26.0732C75.2179 26.0732 75.2181 26.0732 75.2184 26.0732C75.2187 26.0732 75.219 26.0732 75.2193 26.0732C75.2196 26.0732 75.2198 26.0732 75.2201 26.0732C75.2204 26.0732 75.2207 26.0732 75.221 26.0732C75.2213 26.0732 75.2215 26.0732 75.2218 26.0732C75.2221 26.0732 75.2224 26.0732 75.2227 26.0732C75.223 26.0732 75.2232 26.0732 75.2235 26.0732C75.2238 26.0732 75.2241 26.0732 75.2244 26.0732C75.2247 26.0732 75.225 26.0732 75.2252 26.0732C75.2255 26.0732 75.2258 26.0732 75.2261 26.0732C75.2264 26.0732 75.2267 26.0732 75.227 26.0732C75.2272 26.0732 75.2275 26.0732 75.2278 26.0732C75.2281 26.0732 75.2284 26.0732 75.2287 26.0732C75.229 26.0732 75.2292 26.0732 75.2295 26.0732C75.2298 26.0732 75.2301 26.0732 75.2304 26.0732C75.2307 26.0732 75.231 26.0732 75.2313 26.0732C75.2315 26.0732 75.2318 26.0732 75.2321 26.0732C75.2324 26.0732 75.2327 26.0732 75.233 26.0732C75.2333 26.0732 75.2336 26.0732 75.2338 26.0732C75.2341 26.0732 75.2344 26.0732 75.2347 26.0732C75.235 26.0732 75.2353 26.0732 75.2356 26.0732C75.2359 26.0732 75.2362 26.0732 75.2364 26.0732C75.2367 26.0732 75.237 26.0732 75.2373 26.0732C75.2376 26.0732 75.2379 26.0732 75.2382 26.0732C75.2385 26.0732 75.2388 26.0732 75.2391 26.0732C75.2393 26.0732 75.2396 26.0732 75.2399 26.0732C75.2402 26.0732 75.2405 26.0732 75.2408 26.0732C75.2411 26.0732 75.2414 26.0732 75.2417 26.0732C75.242 26.0732 75.2423 26.0732 75.2425 26.0732C75.2428 26.0732 75.2431 26.0732 75.2434 26.0732C75.2437 26.0732 75.244 26.0732 75.2443 26.0732C75.2446 26.0732 75.2449 26.0732 75.2452 26.0732C75.2455 26.0732 75.2458 26.0732 75.2461 26.0732C75.2463 26.0732 75.2466 26.0732 75.2469 26.0732C75.2472 26.0732 75.2475 26.0732 75.2478 26.0732C75.2481 26.0732 75.2484 26.0732 75.2487 26.0732C75.249 26.0732 75.2493 26.0732 75.2496 26.0732C75.2499 26.0732 75.2502 26.0732 75.2505 26.0732C75.2507 26.0732 75.251 26.0732 75.2513 26.0732C75.2516 26.0732 75.2519 26.0732 75.2522 26.0732C75.2525 26.0732 75.2528 26.0732 75.2531 26.0732C75.2534 26.0732 75.2537 26.0732 75.254 26.0732C75.2543 26.0732 75.2546 26.0732 75.2549 26.0732C75.2552 26.0732 75.2555 26.0732 75.2558 26.0732C75.2561 26.0732 75.2564 26.0732 75.2567 26.0732C75.257 26.0732 75.2573 26.0732 75.2575 26.0732C75.2578 26.0732 75.2581 26.0732 75.2584 26.0732C75.2587 26.0732 75.259 26.0732 75.2593 26.0732C75.2596 26.0732 75.2599 26.0732 75.2602 26.0732C75.2605 26.0732 75.2608 26.0732 75.2611 26.0732C75.2614 26.0732 75.2617 26.0732 75.262 26.0732C75.2623 26.0732 75.2626 26.0732 75.2629 26.0732C75.2632 26.0732 75.2635 26.0732 75.2638 26.0732C75.2641 26.0732 75.2644 26.0732 75.2647 26.0732C75.265 26.0732 75.2653 26.0732 75.2656 26.0732C75.2659 26.0732 75.2662 26.0732 75.2665 26.0732C75.2668 26.0732 75.2671 26.0732 75.2674 26.0732C75.2677 26.0732 75.268 26.0732 75.2683 26.0732C75.2686 26.0732 75.2689 26.0732 75.2692 26.0732C75.2695 26.0732 75.2698 26.0732 75.2701 26.0732C75.2704 26.0732 75.2707 26.0732 75.271 26.0732C75.2713 26.0732 75.2716 26.0732 75.2719 26.0732C75.2722 26.0732 75.2725 26.0732 75.2728 26.0732C75.2731 26.0732 75.2734 26.0732 75.2737 26.0732C75.274 26.0732 75.2743 26.0732 75.2746 26.0732C75.2749 26.0732 75.2752 26.0732 75.2755 26.0732C75.2758 26.0732 75.2762 26.0732 75.2765 26.0732C75.2768 26.0732 75.2771 26.0732 75.2774 26.0732C75.2777 26.0732 75.278 26.0732 75.2783 26.0732C75.2786 26.0732 75.2789 26.0732 75.2792 26.0732C75.2795 26.0732 75.2798 26.0732 75.2801 26.0732C75.2804 26.0732 75.2807 26.0732 75.281 26.0732C75.2813 26.0732 75.2816 26.0732 75.2819 26.0732C75.2822 26.0732 75.2825 26.0732 75.2828 26.0732C75.2832 26.0732 75.2835 26.0732 75.2838 26.0732C75.2841 26.0732 75.2844 26.0732 75.2847 26.0732C75.285 26.0732 75.2853 26.0732 75.2856 26.0732C75.2859 26.0732 75.2862 26.0732 75.2865 26.0732C75.2868 26.0732 75.2871 26.0732 75.2874 26.0732C75.2878 26.0732 75.2881 26.0732 75.2884 26.0732C75.2887 26.0732 75.289 26.0732 75.2893 26.0732C75.2896 26.0732 75.2899 26.0732 75.2902 26.0732C75.2905 26.0732 75.2908 26.0732 75.2911 26.0732C75.2914 26.0732 75.2918 26.0732 75.2921 26.0732C75.2924 26.0732 75.2927 26.0732 75.293 26.0732C75.2933 26.0732 75.2936 26.0732 75.2939 26.0732C75.2942 26.0732 75.2945 26.0732 75.2948 26.0732C75.2952 26.0732 75.2955 26.0732 75.2958 26.0732C75.2961 26.0732 75.2964 26.0732 75.2967 26.0732C75.297 26.0732 75.2973 26.0732 75.2976 26.0732C75.2979 26.0732 75.2983 26.0732 75.2986 26.0732C75.2989 26.0732 75.2992 26.0732 75.2995 26.0732C75.2998 26.0732 75.3001 26.0732 75.3004 26.0732C75.3007 26.0732 75.3011 26.0732 75.3014 26.0732C75.3017 26.0732 75.302 26.0732 75.3023 26.0732C75.3026 26.0732 75.3029 26.0732 75.3032 26.0732C75.3036 26.0732 75.3039 26.0732 75.3042 26.0732C75.3045 26.0732 75.3048 26.0732 75.3051 26.0732C75.3054 26.0732 75.3057 26.0732 75.3061 26.0732C75.3064 26.0732 75.3067 26.0732 75.307 26.0732C75.3073 26.0732 75.3076 26.0732 75.3079 26.0732C75.3083 26.0732 75.3086 26.0732 75.3089 26.0732C75.3092 26.0732 75.3095 26.0732 75.3098 26.0732C75.3101 26.0732 75.3105 26.0732 75.3108 26.0732C75.3111 26.0732 75.3114 26.0732 75.3117 26.0732C75.312 26.0732 75.3123 26.0732 75.3127 26.0732C75.313 26.0732 75.3133 26.0732 75.3136 26.0732C75.3139 26.0732 75.3142 26.0732 75.3146 26.0732C75.3149 26.0732 75.3152 26.0732 75.3155 26.0732C75.3158 26.0732 75.3161 26.0732 75.3165 26.0732C75.3168 26.0732 75.3171 26.0732 75.3174 26.0732C75.3177 26.0732 75.318 26.0732 75.3184 26.0732C75.3187 26.0732 75.319 26.0732 75.3193 26.0732C75.3196 26.0732 75.3199 26.0732 75.3203 26.0732C75.3206 26.0732 75.3209 26.0732 75.3212 26.0732C75.3215 26.0732 75.3219 26.0732 75.3222 26.0732C75.3225 26.0732 75.3228 26.0732 75.3231 26.0732C75.3234 26.0732 75.3238 26.0732 75.3241 26.0732C75.3244 26.0732 75.3247 26.0732 75.325 26.0732C75.3254 26.0732 75.3257 26.0732 75.326 26.0732C75.3263 26.0732 75.3266 26.0732 75.327 26.0732C75.3273 26.0732 75.3276 26.0732 75.3279 26.0732C75.3282 26.0732 75.3286 26.0732 75.3289 26.0732C75.3292 26.0732 75.3295 26.0732 75.3298 26.0732C75.3302 26.0732 75.3305 26.0732 75.3308 26.0732C75.3311 26.0732 75.3315 26.0732 75.3318 26.0732C75.3321 26.0732 75.3324 26.0732 75.3327 26.0732C75.3331 26.0732 75.3334 26.0732 75.3337 26.0732C75.334 26.0732 75.3343 26.0732 75.3347 26.0732C75.335 26.0732 75.3353 26.0732 75.3356 26.0732C75.336 26.0732 75.3363 26.0732 75.3366 26.0732C75.3369 26.0732 75.3373 26.0732 75.3376 26.0732C75.3379 26.0732 75.3382 26.0732 75.3386 26.0732C75.3389 26.0732 75.3392 26.0732 75.3395 26.0732C75.3398 26.0732 75.3402 26.0732 75.3405 26.0732C75.3408 26.0732 75.3411 26.0732 75.3415 26.0732C75.3418 26.0732 75.3421 26.0732 75.3424 26.0732C75.3428 26.0732 75.3431 26.0732 75.3434 26.0732C75.3437 26.0732 75.3441 26.0732 75.3444 26.0732C75.3447 26.0732 75.345 26.0732 75.3454 26.0732C75.3457 26.0732 75.346 26.0732 75.3464 26.0732C75.3467 26.0732 75.347 26.0732 75.3473 26.0732C75.3477 26.0732 75.348 26.0732 75.3483 26.0732C75.3486 26.0732 75.349 26.0732 75.3493 26.0732C75.3496 26.0732 75.3499 26.0732 75.3503 26.0732C75.3506 26.0732 75.3509 26.0732 75.3513 26.0732C75.3516 26.0732 75.3519 26.0732 75.3522 26.0732C75.3526 26.0732 75.3529 26.0732 75.3532 26.0732C75.3536 26.0732 75.3539 26.0732 75.3542 26.0732C75.3545 26.0732 75.3549 26.0732 75.3552 26.0732C75.3555 26.0732 75.3559 26.0732 75.3562 26.0732C75.3565 26.0732 75.3568 26.0732 75.3572 26.0732C75.3575 26.0732 75.3578 26.0732 75.3582 26.0732C75.3585 26.0732 75.3588 26.0732 75.3592 26.0732C75.3595 26.0732 75.3598 26.0732 75.3602 26.0732C75.3605 26.0732 75.3608 26.0732 75.3611 26.0732C75.3615 26.0732 75.3618 26.0732 75.3621 26.0732C75.3625 26.0732 75.3628 26.0732 75.3631 26.0732C75.3635 26.0732 75.3638 26.0732 75.3641 26.0732C75.3645 26.0732 75.3648 26.0732 75.3651 26.0732C75.3655 26.0732 75.3658 26.0732 75.3661 26.0732C75.3665 26.0732 75.3668 26.0732 75.3671 26.0732C75.3675 26.0732 75.3678 26.0732 75.3681 26.0732C75.3684 26.0732 75.3688 26.0732 75.3691 26.0732C75.3694 26.0732 75.3698 26.0732 75.3701 26.0732V24.0732ZM74.9795 24.0732C73.6435 24.0732 72.8236 23.6515 72.3081 22.9455L70.6929 24.1249C71.6747 25.4696 73.1742 26.0732 74.9795 26.0732V24.0732ZM72.3099 22.9479C71.867 22.3374 71.5972 21.465 71.5972 20.2393H69.5972C69.5972 21.7479 69.9296 23.0728 70.6911 24.1224L72.3099 22.9479ZM71.5972 20.2393V14.27H69.5972V20.2393H71.5972ZM70.5972 13.27H68.7905V15.27H70.5972V13.27ZM69.7905 14.27V13.1226H67.7905V14.27H69.7905ZM69.1608 14.0515L70.9675 13.3313L70.2269 11.4734L68.4202 12.1936L69.1608 14.0515ZM71.58 12.5866L72.166 9.46163L70.2002 9.09306L69.6143 12.2181L71.58 12.5866ZM71.1831 10.2773H73.0386V8.27734H71.1831V10.2773ZM72.0386 9.27734V12.4023H74.0386V9.27734H72.0386ZM73.0386 13.4023H76.9448V11.4023H73.0386V13.4023ZM75.9448 12.4023V14.27H77.9448V12.4023H75.9448ZM76.9448 13.27H73.0386V15.27H76.9448V13.27ZM72.0386 14.27V20.2271H74.0386V14.27H72.0386ZM72.0386 20.2271C72.0386 21.8807 72.4647 23.4761 73.9578 24.0124L74.634 22.1302C74.4506 22.0643 74.0386 21.7635 74.0386 20.2271H72.0386Z" fill="#BC7C58"/>
</svg>
