<svg width="24" height="24" viewBox="0 0 24 24" fill="none" xmlns="http://www.w3.org/2000/svg">
<path d="M12 22.08C10.0016 22.08 8.04804 21.4871 6.38668 20.3765C4.72531 19.2658 3.43078 17.6872 2.66693 15.8405C1.90307 13.9938 1.70423 11.962 2.09557 10.0022C2.4869 8.04248 3.45082 6.24287 4.86533 4.83116C6.27984 3.41945 8.08136 2.45909 10.0419 2.07165C12.0024 1.6842 14.0338 1.88707 15.879 2.65458C17.7242 3.42209 19.3002 4.71975 20.4076 6.38331C21.515 8.04688 22.104 10.0016 22.1 12C22.0921 14.6744 21.0248 17.2367 19.1318 19.1259C17.2388 21.0152 14.6744 22.0774 12 22.08V22.08ZM12 3.38001C10.2999 3.38001 8.63802 3.88389 7.22419 4.82799C5.81036 5.77209 4.70807 7.11405 4.05658 8.68433C3.40508 10.2546 3.23361 11.9828 3.56382 13.6504C3.89404 15.3181 4.71112 16.8505 5.91186 18.0541C7.11259 19.2576 8.64309 20.0782 10.31 20.4123C11.9769 20.7464 13.7055 20.5789 15.2773 19.9311C16.849 19.2833 18.1936 18.1841 19.1409 16.7725C20.0883 15.3608 20.5961 13.7001 20.6 12C20.6013 10.8693 20.3799 9.74946 19.9484 8.70434C19.517 7.65923 18.8839 6.70933 18.0853 5.90889C17.2867 5.10845 16.3383 4.47314 15.2942 4.03923C14.25 3.60533 13.1307 3.38132 12 3.38001V3.38001Z" fill="#F0F0F0"/>
<path d="M14.81 15.53C14.7112 15.5322 14.613 15.5138 14.5218 15.4759C14.4305 15.438 14.3482 15.3815 14.28 15.31L11.47 12.51C11.3293 12.3695 11.2502 12.1788 11.25 11.98V6.37C11.25 6.17108 11.329 5.98032 11.4697 5.83966C11.6103 5.69901 11.8011 5.62 12 5.62C12.1989 5.62 12.3897 5.69901 12.5303 5.83966C12.671 5.98032 12.75 6.17108 12.75 6.37V11.67L15.34 14.25C15.4805 14.3906 15.5593 14.5812 15.5593 14.78C15.5593 14.9787 15.4805 15.1694 15.34 15.31C15.2708 15.3801 15.1882 15.4357 15.0972 15.4735C15.0062 15.5112 14.9085 15.5305 14.81 15.53V15.53Z" fill="#F0F0F0"/>
</svg>
