<svg width="134" height="24" viewBox="0 0 134 24" fill="none" xmlns="http://www.w3.org/2000/svg">
<rect y="2" width="134" height="21" rx="4" fill="#2D3648"/>
<rect x="1" y="3" width="132" height="19" rx="3" stroke="#DEDEDE" stroke-opacity="0.1" stroke-width="2"/>
<path d="M10.0842 16V8H15.2092V9.21484H11.5334V11.3867H14.8576V12.6016H11.5334V16H10.0842ZM16.357 16V10H17.7711V16H16.357ZM17.0679 9.14844C16.844 9.14844 16.6513 9.07422 16.4898 8.92578C16.3283 8.77474 16.2476 8.59375 16.2476 8.38281C16.2476 8.16927 16.3283 7.98828 16.4898 7.83984C16.6513 7.6888 16.844 7.61328 17.0679 7.61328C17.2945 7.61328 17.4872 7.6888 17.6461 7.83984C17.8075 7.98828 17.8882 8.16927 17.8882 8.38281C17.8882 8.59375 17.8075 8.77474 17.6461 8.92578C17.4872 9.07422 17.2945 9.14844 17.0679 9.14844ZM23.8573 11.5859L22.5683 11.7266C22.5318 11.5964 22.468 11.474 22.3769 11.3594C22.2883 11.2448 22.1685 11.1523 22.0175 11.082C21.8665 11.0117 21.6816 10.9766 21.4628 10.9766C21.1685 10.9766 20.9211 11.0404 20.7206 11.168C20.5227 11.2956 20.4251 11.4609 20.4277 11.6641C20.4251 11.8385 20.4889 11.9805 20.6191 12.0898C20.7519 12.1992 20.9706 12.2891 21.2753 12.3594L22.2987 12.5781C22.8665 12.7005 23.2883 12.8945 23.5644 13.1602C23.843 13.4258 23.9836 13.7734 23.9862 14.2031C23.9836 14.5807 23.873 14.9141 23.6542 15.2031C23.4381 15.4896 23.1373 15.7135 22.7519 15.875C22.3665 16.0365 21.9237 16.1172 21.4237 16.1172C20.6894 16.1172 20.0982 15.9635 19.6503 15.6562C19.2024 15.3464 18.9355 14.9154 18.8495 14.3633L20.2284 14.2305C20.2909 14.5013 20.4237 14.7057 20.6269 14.8437C20.83 14.9818 21.0943 15.0508 21.4198 15.0508C21.7558 15.0508 22.0253 14.9818 22.2284 14.8437C22.4342 14.7057 22.537 14.5352 22.537 14.332C22.537 14.1602 22.4706 14.0182 22.3378 13.9062C22.2076 13.7943 22.0045 13.7083 21.7284 13.6484L20.705 13.4336C20.1295 13.3138 19.7037 13.112 19.4277 12.8281C19.1516 12.5417 19.0149 12.1797 19.0175 11.7422C19.0149 11.3724 19.1152 11.0521 19.3183 10.7812C19.524 10.5078 19.8092 10.2969 20.1737 10.1484C20.5409 9.9974 20.9641 9.92188 21.4433 9.92188C22.1464 9.92188 22.6998 10.0716 23.1034 10.3711C23.5097 10.6706 23.761 11.0755 23.8573 11.5859ZM26.4563 12.4844V16H25.0423V8H26.4251V11.0195H26.4954C26.636 10.681 26.8535 10.4141 27.1477 10.2187C27.4446 10.0208 27.8222 9.92188 28.2805 9.92188C28.6972 9.92188 29.0605 10.0091 29.3704 10.1836C29.6803 10.3581 29.9199 10.6133 30.0891 10.9492C30.261 11.2852 30.347 11.6953 30.347 12.1797V16H28.9329V12.3984C28.9329 11.9948 28.8287 11.681 28.6204 11.457C28.4147 11.2305 28.1256 11.1172 27.7532 11.1172C27.5032 11.1172 27.2792 11.1719 27.0813 11.2812C26.886 11.388 26.7324 11.543 26.6204 11.7461C26.511 11.9492 26.4563 12.1953 26.4563 12.4844ZM34.3594 16V8H35.7734V10.9922H35.832C35.9049 10.8464 36.0078 10.6914 36.1406 10.5273C36.2734 10.3607 36.4531 10.2187 36.6797 10.1016C36.9063 9.98177 37.1953 9.92188 37.5469 9.92188C38.0104 9.92188 38.4284 10.0404 38.8008 10.2773C39.1758 10.5117 39.4727 10.8594 39.6914 11.3203C39.9128 11.7786 40.0234 12.3411 40.0234 13.0078C40.0234 13.6667 39.9154 14.2266 39.6992 14.6875C39.4831 15.1484 39.1888 15.5 38.8164 15.7422C38.444 15.9844 38.0221 16.1055 37.5508 16.1055C37.207 16.1055 36.9219 16.0482 36.6953 15.9336C36.4688 15.819 36.2865 15.681 36.1484 15.5195C36.013 15.3555 35.9076 15.2005 35.832 15.0547H35.75V16H34.3594ZM35.7461 13C35.7461 13.388 35.8008 13.7279 35.9102 14.0195C36.0221 14.3112 36.1823 14.5391 36.3906 14.7031C36.6016 14.8646 36.8568 14.9453 37.1563 14.9453C37.4688 14.9453 37.7305 14.862 37.9414 14.6953C38.1523 14.526 38.3112 14.2956 38.418 14.0039C38.5273 13.7096 38.582 13.375 38.582 13C38.582 12.6276 38.5286 12.2969 38.4219 12.0078C38.3151 11.7187 38.1563 11.4922 37.9453 11.3281C37.7344 11.1641 37.4714 11.082 37.1563 11.082C36.8542 11.082 36.5977 11.1615 36.3867 11.3203C36.1758 11.4792 36.0156 11.7018 35.9063 11.9883C35.7995 12.2747 35.7461 12.612 35.7461 13ZM44.9398 13.4766V10H46.3539V16H44.9828V14.9336H44.9203C44.7849 15.2695 44.5622 15.5443 44.2523 15.7578C43.945 15.9714 43.5661 16.0781 43.1156 16.0781C42.7224 16.0781 42.3747 15.9909 42.0726 15.8164C41.7731 15.6393 41.5388 15.3828 41.3695 15.0469C41.2002 14.7083 41.1156 14.2995 41.1156 13.8203V10H42.5296V13.6016C42.5296 13.9818 42.6338 14.2839 42.8421 14.5078C43.0505 14.7318 43.3239 14.8437 43.6625 14.8437C43.8708 14.8437 44.0726 14.793 44.2679 14.6914C44.4632 14.5898 44.6234 14.4388 44.7484 14.2383C44.876 14.0352 44.9398 13.7812 44.9398 13.4766ZM50.3152 16.1172C49.7162 16.1172 49.2019 15.9857 48.7722 15.7227C48.3451 15.4596 48.0157 15.0964 47.7839 14.6328C47.5547 14.1667 47.4402 13.6302 47.4402 13.0234C47.4402 12.4141 47.5573 11.8763 47.7917 11.4102C48.0261 10.9414 48.3568 10.5768 48.7839 10.3164C49.2136 10.0534 49.7214 9.92188 50.3073 9.92188C50.7943 9.92188 51.2253 10.0117 51.6003 10.1914C51.9779 10.3685 52.2787 10.6198 52.5027 10.9453C52.7266 11.2682 52.8542 11.6458 52.8855 12.0781H51.5339C51.4792 11.7891 51.349 11.5482 51.1433 11.3555C50.9402 11.1602 50.668 11.0625 50.3269 11.0625C50.0378 11.0625 49.7839 11.1406 49.5652 11.2969C49.3464 11.4505 49.1758 11.6719 49.0534 11.9609C48.9336 12.25 48.8737 12.5964 48.8737 13C48.8737 13.4089 48.9336 13.7604 49.0534 14.0547C49.1732 14.3464 49.3412 14.5716 49.5573 14.7305C49.7761 14.8867 50.0326 14.9648 50.3269 14.9648C50.5352 14.9648 50.7214 14.9258 50.8855 14.8477C51.0521 14.7669 51.1915 14.651 51.3034 14.5C51.4154 14.349 51.4922 14.1654 51.5339 13.9492H52.8855C52.8516 14.3737 52.7266 14.75 52.5105 15.0781C52.2943 15.4036 52.0001 15.6589 51.6277 15.8437C51.2553 16.026 50.8178 16.1172 50.3152 16.1172ZM55.2257 14.1172L55.2218 12.4102H55.4483L57.6046 10H59.2569L56.6046 12.9531H56.3116L55.2257 14.1172ZM53.9366 16V8H55.3507V16H53.9366ZM57.7022 16L55.7491 13.2695L56.7022 12.2734L59.3936 16H57.7022ZM62.4985 16.1172C61.8969 16.1172 61.3774 15.9922 60.9399 15.7422C60.505 15.4896 60.1703 15.1328 59.936 14.6719C59.7016 14.2083 59.5844 13.6628 59.5844 13.0352C59.5844 12.418 59.7016 11.8763 59.936 11.4102C60.173 10.9414 60.5037 10.5768 60.9282 10.3164C61.3526 10.0534 61.8513 9.92188 62.4243 9.92188C62.794 9.92188 63.143 9.98177 63.4711 10.1016C63.8019 10.2187 64.0935 10.401 64.3461 10.6484C64.6013 10.8958 64.8019 11.2109 64.9477 11.5937C65.0935 11.974 65.1664 12.4271 65.1664 12.9531V13.3867H60.2485V12.4336H63.811C63.8084 12.1628 63.7498 11.9219 63.6352 11.7109C63.5206 11.4974 63.3605 11.3294 63.1547 11.207C62.9516 11.0846 62.7146 11.0234 62.4438 11.0234C62.1547 11.0234 61.9008 11.0937 61.6821 11.2344C61.4633 11.3724 61.2927 11.5547 61.1703 11.7812C61.0506 12.0052 60.9894 12.2513 60.9868 12.5195V13.3516C60.9868 13.7005 61.0506 14 61.1782 14.25C61.3058 14.4974 61.4842 14.6875 61.7133 14.8203C61.9425 14.9505 62.2107 15.0156 62.518 15.0156C62.7237 15.0156 62.9099 14.987 63.0766 14.9297C63.2433 14.8698 63.3878 14.7826 63.5102 14.668C63.6326 14.5534 63.725 14.4115 63.7875 14.2422L65.1078 14.3906C65.0245 14.7396 64.8657 15.0443 64.6313 15.3047C64.3995 15.5625 64.1026 15.763 63.7407 15.9062C63.3787 16.0469 62.9646 16.1172 62.4985 16.1172ZM69.2488 10V11.0937H65.7996V10H69.2488ZM66.6512 8.5625H68.0652V14.1953C68.0652 14.3854 68.0939 14.5313 68.1512 14.6328C68.2111 14.7318 68.2892 14.7995 68.3855 14.8359C68.4819 14.8724 68.5887 14.8906 68.7059 14.8906C68.7944 14.8906 68.8751 14.8841 68.948 14.8711C69.0236 14.8581 69.0809 14.8464 69.1199 14.8359L69.3582 15.9414C69.2827 15.9674 69.1746 15.9961 69.034 16.0273C68.896 16.0586 68.7267 16.0768 68.5262 16.082C68.172 16.0924 67.853 16.0391 67.5691 15.9219C67.2853 15.8021 67.06 15.6172 66.8934 15.3672C66.7293 15.1172 66.6486 14.8047 66.6512 14.4297V8.5625Z" fill="#FEFEFE" fill-opacity="0.8"/>
</svg>
