<svg width="181" height="28" viewBox="0 0 181 28" fill="none" xmlns="http://www.w3.org/2000/svg">
<path d="M0 5.33333C0 2.38781 2.419 0 5.40299 0H175.597C178.581 0 181 2.38781 181 5.33333V22.6667C181 25.6122 178.581 28 175.597 28H5.40298C2.41899 28 0 25.6122 0 22.6667V5.33333Z" fill="#2D3648"/>
<path d="M16.209 8.76596H23.9175V10.1543H17.837V13.4255H22.5337V14.766H17.837V19.8723H16.209V8.76596Z" fill="white"/>
<path d="M27.6824 9.24468C27.6824 9.54787 27.5793 9.78192 27.3731 9.94681C27.1723 10.1064 26.92 10.1862 26.6161 10.1862C26.3122 10.1862 26.0599 10.1064 25.8591 9.94681C25.6637 9.78192 25.566 9.54787 25.566 9.24468C25.566 8.93617 25.6637 8.70213 25.8591 8.54255C26.0599 8.38298 26.3122 8.30319 26.6161 8.30319C26.92 8.30319 27.1723 8.38298 27.3731 8.54255C27.5793 8.70213 27.6824 8.93617 27.6824 9.24468ZM25.7777 11.6383H27.4057V19.8723H25.7777V11.6383Z" fill="white"/>
<path d="M31.8625 20C31.1841 20 30.4977 19.9521 29.8031 19.8564V18.4441C30.5085 18.609 31.2248 18.6915 31.952 18.6915C33.4064 18.6915 34.1335 18.391 34.1335 17.7899C34.1335 17.5612 34.0765 17.391 33.9626 17.2793C33.7944 17.1037 33.5285 16.9282 33.1649 16.7527L31.9764 16.2181C31.2058 15.8404 30.7066 15.5372 30.4787 15.3085C30.05 14.883 29.8356 14.3777 29.8356 13.7926C29.8356 13.133 30.1476 12.5957 30.7717 12.1809C31.4446 11.734 32.3889 11.5106 33.6044 11.5106C34.2176 11.5106 34.8363 11.5532 35.4603 11.6383V13.0027C34.7766 12.8803 34.1797 12.8191 33.6695 12.8191C33.1649 12.8191 32.7714 12.8511 32.4892 12.9149C32.2125 12.9787 32.0036 13.0585 31.8625 13.1543C31.64 13.3032 31.5287 13.4973 31.5287 13.7367C31.5287 13.9707 31.6047 14.1622 31.7566 14.3112C31.914 14.4548 32.1582 14.6117 32.4892 14.7819L33.6858 15.3484C34.4673 15.7473 34.9692 16.0532 35.1917 16.266C35.615 16.6702 35.8266 17.1782 35.8266 17.7899C35.8266 18.4441 35.4902 18.9707 34.8173 19.3697C34.1118 19.7899 33.1269 20 31.8625 20Z" fill="white"/>
<path d="M41.7486 12.883C40.9455 12.883 40.2292 13.1516 39.5997 13.6888V19.8723H37.9717V8H39.5997V12.5239C40.4788 11.8484 41.3878 11.5106 42.3266 11.5106C43.3305 11.5106 44.0658 11.8032 44.5325 12.3883C45.0209 13.0053 45.2651 14 45.2651 15.3723V19.8723H43.6371V15.3723C43.6371 14.0532 43.2708 13.266 42.5382 13.0106C42.3049 12.9255 42.0417 12.883 41.7486 12.883Z" fill="white"/>
<path d="M58.786 18.9548C58.3193 19.3112 57.7902 19.5745 57.1987 19.7447C56.6126 19.9096 55.9777 19.992 55.2939 19.992C54.6156 19.992 53.8558 19.9521 53.0147 19.8723V8H54.6427V12.4601C55.0009 12.0612 55.4974 11.7766 56.1323 11.6064C56.3711 11.5426 56.6153 11.5106 56.8649 11.5106C57.12 11.5106 57.3777 11.5372 57.6382 11.5904C57.8987 11.6383 58.1565 11.7234 58.4115 11.8457C58.672 11.9681 58.9189 12.1303 59.1523 12.3324C59.3856 12.5346 59.5918 12.7872 59.7709 13.0904C60.167 13.7394 60.3651 14.5106 60.3651 15.4043C60.3651 16.2926 60.2186 17.016 59.9256 17.5745C59.6379 18.133 59.2581 18.5931 58.786 18.9548ZM54.6508 18.6995C54.8028 18.742 55.1012 18.7633 55.5462 18.7633C55.9912 18.7633 56.4091 18.7021 56.7998 18.5798C57.1905 18.4574 57.5243 18.266 57.801 18.0053C58.3817 17.4574 58.672 16.641 58.672 15.5559C58.672 14.2314 58.2786 13.3644 57.4917 12.9548C57.2095 12.8112 56.9219 12.7394 56.6289 12.7394C56.3358 12.7394 56.0808 12.7766 55.8637 12.8511C55.6466 12.9255 55.4567 13.016 55.2939 13.1223C54.9846 13.3298 54.7702 13.5532 54.6508 13.7926V18.6995Z" fill="white"/>
<path d="M67.9232 17.8537V11.6383H69.5512V19.8723H68.086L67.9395 19.0027C67.1364 19.6676 66.2491 20 65.2778 20C64.2467 20 63.5168 19.7207 63.0881 19.1622C62.6431 18.5931 62.4206 17.6117 62.4206 16.2181V11.6383H64.0486V16.1383C64.0486 17.1223 64.1924 17.7926 64.48 18.1489C64.7351 18.4681 65.2208 18.6277 65.9371 18.6277C66.6588 18.6277 67.3209 18.3697 67.9232 17.8537Z" fill="white"/>
<path d="M78.0455 19.8484C77.7199 19.9495 77.1555 20 76.3524 20C75.5492 20 74.8655 19.9043 74.3011 19.7128C73.7421 19.5213 73.2646 19.2394 72.8684 18.867C72.049 18.0957 71.6393 17.0266 71.6393 15.6596C71.6393 14.3351 72.1304 13.2926 73.1126 12.5319C73.9918 11.8511 75.0717 11.5106 76.3524 11.5106C77.1446 11.5106 77.6873 11.5372 77.9804 11.5904V13.0106C77.5245 12.867 77.0036 12.7952 76.4175 12.7952C75.8368 12.7952 75.3539 12.875 74.9686 13.0346C74.5833 13.1888 74.2685 13.3989 74.0243 13.6649C73.5631 14.1702 73.3324 14.8351 73.3324 15.6596C73.3324 17.0532 73.8452 17.9814 74.8709 18.4441C75.2345 18.609 75.5899 18.6915 75.9372 18.6915C76.2845 18.6915 76.5504 18.6835 76.7349 18.6676C76.9249 18.6516 77.104 18.6303 77.2722 18.6037C77.6303 18.5452 77.8881 18.484 78.0455 18.4202V19.8484Z" fill="white"/>
<path d="M80.2882 8.00798H81.9162V15.3245L85.3187 11.6383H87.256L83.6337 15.3723L87.4432 19.8723H85.4571L81.9162 15.6755V19.8723H80.2882V8.00798Z" fill="white"/>
<path d="M92.2582 20C89.1867 20 87.651 18.5293 87.651 15.5878C87.651 14.3218 88.077 13.3085 88.929 12.5479C89.6941 11.8564 90.5678 11.5106 91.55 11.5106C92.6191 11.5106 93.4548 11.8617 94.0571 12.5638C94.6161 13.2181 94.8956 14.0931 94.8956 15.1888V15.8112H89.3441C89.3441 17.3165 89.9709 18.2367 91.2244 18.5718C91.5229 18.6516 91.9815 18.6915 92.6001 18.6915C93.2242 18.6915 93.8347 18.609 94.4316 18.4441V19.7926C93.8347 19.9309 93.1102 20 92.2582 20ZM93.2676 14.6383C93.2676 14.1277 93.1238 13.6968 92.8361 13.3457C92.4997 12.9415 92.0357 12.7394 91.4442 12.7394C90.8201 12.7394 90.3128 12.9335 89.922 13.3218C89.5639 13.6835 89.3848 14.1223 89.3848 14.6383H93.2676Z" fill="white"/>
<path d="M99.5396 18.6117C99.7187 18.6755 99.99 18.7074 100.354 18.7074C100.717 18.7074 101.021 18.6649 101.265 18.5798V19.8564C101.151 19.883 100.986 19.8989 100.769 19.9043L100.256 19.9202C100.142 19.9202 100.055 19.9202 99.9954 19.9202C98.9481 19.9202 98.1748 19.5851 97.6755 18.9149C97.274 18.3723 97.0732 17.6543 97.0732 16.7606V12.859H95.8685V12.109L97.0732 11.6383L97.4639 9.59574H98.7012V11.6383H101.306V12.859H98.7012V16.7527C98.7012 17.7952 98.9806 18.4149 99.5396 18.6117Z" fill="white"/>
</svg>
