<svg width="24" height="24" viewBox="0 0 24 24" fill="none" xmlns="http://www.w3.org/2000/svg">
<path d="M16.5 21C16.3658 20.9975 16.2347 20.9596 16.12 20.89L7 15.5H2.5C2.30189 15.4974 2.11263 15.4176 1.97253 15.2775C1.83244 15.1374 1.75259 14.9481 1.75 14.75V9.25001C1.75259 9.05191 1.83244 8.86264 1.97253 8.72255C2.11263 8.58245 2.30189 8.5026 2.5 8.50001H7L16.16 3.12001C16.274 3.05419 16.4033 3.01953 16.535 3.01953C16.6667 3.01953 16.796 3.05419 16.91 3.12001C17.0243 3.18602 17.1195 3.28067 17.1861 3.39465C17.2528 3.50862 17.2886 3.63799 17.29 3.77001V20.24C17.2886 20.372 17.2528 20.5014 17.1861 20.6154C17.1195 20.7294 17.0243 20.824 16.91 20.89C16.7859 20.9634 16.6441 21.0014 16.5 21V21ZM3.25 14H7.17C7.3033 13.999 7.43447 14.0335 7.55 14.1L15.75 18.92V5.08001L7.55 9.90001C7.43447 9.96652 7.3033 10.001 7.17 10H3.25V14Z" fill="#F0F0F0" stroke="#F0F0F0"/>
<path d="M21.5 21.75C21.4014 21.7505 21.3038 21.7313 21.2128 21.6935C21.1218 21.6557 21.0392 21.6001 20.97 21.53L2.99997 3.53003C2.90858 3.38907 2.86716 3.22151 2.88234 3.05421C2.89753 2.8869 2.96845 2.72954 3.08373 2.60735C3.19901 2.48515 3.35197 2.40519 3.51811 2.38029C3.68425 2.3554 3.85393 2.38699 3.99997 2.47003L22 20.47C22.1404 20.6106 22.2193 20.8013 22.2193 21C22.2193 21.1988 22.1404 21.3894 22 21.53C21.8675 21.6644 21.6886 21.7431 21.5 21.75V21.75Z" fill="#F0F0F0" stroke="#F0F0F0"/>
</svg>
