<svg width="22" height="22" viewBox="0 0 22 22" fill="none" xmlns="http://www.w3.org/2000/svg">
<path fill-rule="evenodd" clip-rule="evenodd" d="M11.1 21.2C9.10154 21.2 7.14802 20.6071 5.48665 19.4964C3.82529 18.3857 2.53076 16.8072 1.7669 14.9605C1.00305 13.1138 0.804208 11.082 1.19554 9.12221C1.58688 7.16246 2.5508 5.36285 3.96531 3.95114C5.37982 2.53943 7.18134 1.57908 9.14186 1.19163C11.1024 0.80418 13.1338 1.00705 14.979 1.77456C16.8241 2.54208 18.4002 3.83973 19.5076 5.50329C20.615 7.16686 21.2039 9.12156 21.2 11.12C21.1921 13.7944 20.1248 16.3567 18.2318 18.2459C16.3388 20.1352 13.7744 21.1974 11.1 21.2ZM11.1 2.49999C9.39992 2.5 7.73799 3.00388 6.32417 3.94798C4.91034 4.89208 3.80805 6.23403 3.15655 7.80431C2.50506 9.37459 2.33358 11.1027 2.6638 12.7704C2.99401 14.4381 3.8111 15.9705 5.01183 17.174C6.21256 18.3776 7.74307 19.1982 9.40998 19.5323C11.0769 19.8664 12.8054 19.6989 14.3772 19.0511C15.949 18.4032 17.2935 17.3041 18.2409 15.8924C19.1883 14.4808 19.696 12.8201 19.7 11.12C19.7013 9.98931 19.4799 8.86944 19.0484 7.82433C18.6169 6.77921 17.9838 5.82931 17.1852 5.02887C16.3867 4.22843 15.4382 3.59312 14.3941 3.15922C13.35 2.72531 12.2307 2.50131 11.1 2.49999Z" fill="#F0F0F0"/>
<path d="M5.48665 19.4964L5.29213 19.7874L5.29213 19.7874L5.48665 19.4964ZM11.1 21.2L11.1 21.55L11.1003 21.55L11.1 21.2ZM1.7669 14.9605L1.44348 15.0942L1.44348 15.0942L1.7669 14.9605ZM3.96531 3.95114L4.21255 4.19887L4.21255 4.19887L3.96531 3.95114ZM9.14186 1.19163L9.20972 1.53499L9.20972 1.53499L9.14186 1.19163ZM14.979 1.77456L15.1134 1.4514L15.1134 1.4514L14.979 1.77456ZM19.5076 5.50329L19.7989 5.30935L19.7989 5.30935L19.5076 5.50329ZM21.2 11.12L21.55 11.121L21.55 11.1207L21.2 11.12ZM18.2318 18.2459L17.9845 17.9982L17.9845 17.9982L18.2318 18.2459ZM6.32417 3.94798L6.1298 3.65691L6.1298 3.65691L6.32417 3.94798ZM11.1 2.49999L11.1004 2.14999L11.1 2.14999L11.1 2.49999ZM3.15655 7.80431L3.47983 7.93844L3.47983 7.93844L3.15655 7.80431ZM5.01183 17.174L4.76406 17.4212L4.76406 17.4212L5.01183 17.174ZM9.40998 19.5323L9.47876 19.1891L9.47876 19.1891L9.40998 19.5323ZM19.7 11.12L20.05 11.1208L20.05 11.1204L19.7 11.12ZM17.1852 5.02887L16.9375 5.27607L16.9375 5.27607L17.1852 5.02887ZM14.3941 3.15922L14.5284 2.83601L14.5284 2.83601L14.3941 3.15922ZM5.29213 19.7874C7.01107 20.9366 9.03229 21.55 11.1 21.55L11.1 20.85C9.1708 20.85 7.28497 20.2777 5.68117 19.2055L5.29213 19.7874ZM1.44348 15.0942C2.2338 17.0049 3.57319 18.6382 5.29213 19.7874L5.68117 19.2055C4.07738 18.1333 2.82771 16.6094 2.09033 14.8267L1.44348 15.0942ZM0.852318 9.05368C0.447423 11.0813 0.653156 13.1835 1.44348 15.0942L2.09033 14.8267C1.35294 13.044 1.16099 11.0826 1.53877 9.19075L0.852318 9.05368ZM3.71807 3.70341C2.25454 5.16404 1.25721 7.02601 0.852318 9.05368L1.53877 9.19075C1.91654 7.29891 2.84706 5.56166 4.21255 4.19887L3.71807 3.70341ZM9.07401 0.84827C7.04554 1.24915 5.1816 2.24278 3.71807 3.70341L4.21255 4.19887C5.57804 2.83608 7.31713 1.90901 9.20972 1.53499L9.07401 0.84827ZM15.1134 1.4514C13.2043 0.657294 11.1025 0.447395 9.07401 0.84827L9.20972 1.53499C11.1023 1.16097 13.0633 1.35681 14.8445 2.09772L15.1134 1.4514ZM19.7989 5.30935C18.6531 3.58814 17.0225 2.24551 15.1134 1.4514L14.8445 2.09772C16.6258 2.83864 18.1472 4.09132 19.2162 5.69724L19.7989 5.30935ZM21.55 11.1207C21.5541 9.053 20.9447 7.03056 19.7989 5.30935L19.2162 5.69724C20.2852 7.30316 20.8538 9.19012 20.85 11.1193L21.55 11.1207ZM18.479 18.4937C20.4375 16.539 21.5418 13.888 21.55 11.121L20.85 11.119C20.8423 13.7008 19.812 16.1744 17.9845 17.9982L18.479 18.4937ZM11.1003 21.55C13.8673 21.5473 16.5205 20.4483 18.479 18.4937L17.9845 17.9982C16.1571 19.822 13.6815 20.8475 11.0996 20.85L11.1003 21.55ZM6.51853 4.23905C7.87482 3.33337 9.46911 2.85 11.1 2.84999L11.1 2.14999C9.33073 2.15 7.60117 2.67439 6.1298 3.65691L6.51853 4.23905ZM3.47983 7.93844C4.10482 6.43207 5.16225 5.14472 6.51853 4.23905L6.1298 3.65691C4.65844 4.63943 3.51128 6.036 2.83327 7.67019L3.47983 7.93844ZM3.00713 12.7024C2.69036 11.1026 2.85485 9.44481 3.47983 7.93844L2.83327 7.67019C2.15526 9.30437 1.97681 11.1029 2.32046 12.8384L3.00713 12.7024ZM5.25961 16.9268C4.10774 15.7723 3.32391 14.3023 3.00713 12.7024L2.32046 12.8384C2.66412 14.574 3.51446 16.1687 4.76406 17.4212L5.25961 16.9268ZM9.47876 19.1891C7.87969 18.8686 6.41147 18.0814 5.25961 16.9268L4.76406 17.4212C6.01366 18.6737 7.60645 19.5278 9.3412 19.8755L9.47876 19.1891ZM14.2439 18.7275C12.736 19.349 11.0778 19.5096 9.47876 19.1891L9.3412 19.8755C11.076 20.2232 12.8748 20.0489 14.5106 19.3747L14.2439 18.7275ZM17.9503 15.6974C17.0415 17.0516 15.7517 18.106 14.2439 18.7275L14.5106 19.3747C16.1464 18.7005 17.5456 17.5566 18.5315 16.0875L17.9503 15.6974ZM19.35 11.1192C19.3462 12.7501 18.8591 14.3432 17.9503 15.6974L18.5315 16.0875C19.5175 14.6184 20.0459 12.8901 20.05 11.1208L19.35 11.1192ZM18.7249 7.95789C19.1388 8.96052 19.3512 10.0349 19.35 11.1196L20.05 11.1204C20.0514 9.94376 19.8209 8.77836 19.3719 7.69076L18.7249 7.95789ZM16.9375 5.27607C17.7036 6.04398 18.311 6.95526 18.7249 7.95789L19.3719 7.69076C18.9229 6.60316 18.2641 5.61465 17.433 4.78167L16.9375 5.27607ZM14.2598 3.48242C15.2615 3.89869 16.1714 4.50817 16.9375 5.27607L17.433 4.78167C16.602 3.94869 15.615 3.28756 14.5284 2.83601L14.2598 3.48242ZM11.0996 2.84999C12.1843 2.85125 13.2581 3.06615 14.2598 3.48242L14.5284 2.83601C13.4419 2.38447 12.277 2.15136 11.1004 2.14999L11.0996 2.84999Z" fill="#F0F0F0"/>
<path d="M8 8V15M14 8V15" stroke="#F0F0F0" stroke-width="2" stroke-linecap="round"/>
</svg>
