<svg width="134" height="90" viewBox="0 0 134 90" fill="none" xmlns="http://www.w3.org/2000/svg">
<path d="M1 4C1 2.34315 2.34315 1 4 1H130C131.657 1 133 2.34315 133 4V31H1V4Z" fill="#2D3648"/>
<path d="M1 4C1 2.34315 2.34315 1 4 1H130C131.657 1 133 2.34315 133 4V31H1V4Z" stroke="black" stroke-width="2"/>
<path d="M133 86C133 87.6569 131.657 89 130 89L4 89C2.34315 89 1 87.6568 1 86L1.00001 31L133 31L133 86Z" fill="#D1D3D9"/>
<path d="M133 86C133 87.6569 131.657 89 130 89L4 89C2.34315 89 1 87.6568 1 86L1.00001 31L133 31L133 86Z" stroke="black" stroke-width="2"/>
<path d="M52.3239 12.7102C52.2784 12.2519 52.0833 11.8958 51.7386 11.642C51.3939 11.3883 50.9261 11.2614 50.3352 11.2614C49.9337 11.2614 49.5947 11.3182 49.3182 11.4318C49.0417 11.5417 48.8295 11.6951 48.6818 11.892C48.5379 12.089 48.4659 12.3125 48.4659 12.5625C48.4583 12.7708 48.5019 12.9527 48.5966 13.108C48.6951 13.2633 48.8295 13.3977 49 13.5114C49.1705 13.6212 49.3674 13.7178 49.5909 13.8011C49.8144 13.8807 50.053 13.9489 50.3068 14.0057L51.3523 14.2557C51.8598 14.3693 52.3258 14.5208 52.75 14.7102C53.1742 14.8996 53.5417 15.1326 53.8523 15.4091C54.1629 15.6856 54.4034 16.0114 54.5739 16.3864C54.7481 16.7614 54.8371 17.1913 54.8409 17.6761C54.8371 18.3883 54.6553 19.0057 54.2955 19.5284C53.9394 20.0473 53.4242 20.4508 52.75 20.7386C52.0795 21.0227 51.2708 21.1648 50.3239 21.1648C49.3845 21.1648 48.5663 21.0208 47.8693 20.733C47.1761 20.4451 46.6345 20.0189 46.2443 19.4545C45.858 18.8864 45.6553 18.1837 45.6364 17.3466H48.017C48.0436 17.7367 48.1553 18.0625 48.3523 18.3239C48.553 18.5814 48.8201 18.7765 49.1534 18.9091C49.4905 19.0379 49.8712 19.1023 50.2955 19.1023C50.7121 19.1023 51.0739 19.0417 51.3807 18.9205C51.6913 18.7992 51.9318 18.6307 52.1023 18.4148C52.2727 18.1989 52.358 17.9508 52.358 17.6705C52.358 17.4091 52.2803 17.1894 52.125 17.0114C51.9735 16.8333 51.75 16.6818 51.4545 16.5568C51.1629 16.4318 50.8049 16.3182 50.3807 16.2159L49.1136 15.8977C48.1326 15.6591 47.358 15.286 46.7898 14.7784C46.2216 14.2708 45.9394 13.5871 45.9432 12.7273C45.9394 12.0227 46.1269 11.4072 46.5057 10.8807C46.8883 10.3542 47.4129 9.94318 48.0795 9.64773C48.7462 9.35227 49.5038 9.20455 50.3523 9.20455C51.2159 9.20455 51.9697 9.35227 52.6136 9.64773C53.2614 9.94318 53.7652 10.3542 54.125 10.8807C54.4848 11.4072 54.6705 12.017 54.6818 12.7102H52.3239ZM60.2335 21.1705C59.3395 21.1705 58.5706 20.9811 57.9266 20.6023C57.2865 20.2197 56.7941 19.6894 56.4494 19.0114C56.1085 18.3333 55.938 17.553 55.938 16.6705C55.938 15.7765 56.1104 14.9924 56.4551 14.3182C56.8035 13.6402 57.2979 13.1117 57.938 12.733C58.5782 12.3504 59.3395 12.1591 60.2221 12.1591C60.9835 12.1591 61.6501 12.2973 62.2221 12.5739C62.7941 12.8504 63.2467 13.2386 63.5801 13.7386C63.9134 14.2386 64.0971 14.8258 64.1312 15.5H61.8471C61.7827 15.0644 61.6123 14.714 61.3357 14.4489C61.063 14.1799 60.7051 14.0455 60.2619 14.0455C59.8869 14.0455 59.5592 14.1477 59.2789 14.3523C59.0024 14.553 58.7865 14.8466 58.6312 15.233C58.4759 15.6193 58.3982 16.0871 58.3982 16.6364C58.3982 17.1932 58.474 17.6667 58.6255 18.0568C58.7808 18.447 58.9986 18.7443 59.2789 18.9489C59.5592 19.1534 59.8869 19.2557 60.2619 19.2557C60.5384 19.2557 60.7865 19.1989 61.0062 19.0852C61.2297 18.9716 61.4134 18.8068 61.5573 18.5909C61.7051 18.3712 61.8016 18.108 61.8471 17.8011H64.1312C64.0933 18.4678 63.9115 19.0549 63.5857 19.5625C63.2638 20.0663 62.8187 20.4602 62.2505 20.7443C61.6823 21.0284 61.01 21.1705 60.2335 21.1705ZM69.4641 21.1705C68.5815 21.1705 67.8183 20.983 67.1743 20.608C66.5342 20.2292 66.0398 19.7027 65.6914 19.0284C65.3429 18.3504 65.1686 17.5644 65.1686 16.6705C65.1686 15.7689 65.3429 14.9811 65.6914 14.3068C66.0398 13.6288 66.5342 13.1023 67.1743 12.7273C67.8183 12.3485 68.5815 12.1591 69.4641 12.1591C70.3467 12.1591 71.108 12.3485 71.7482 12.7273C72.3921 13.1023 72.8883 13.6288 73.2368 14.3068C73.5853 14.9811 73.7595 15.7689 73.7595 16.6705C73.7595 17.5644 73.5853 18.3504 73.2368 19.0284C72.8883 19.7027 72.3921 20.2292 71.7482 20.608C71.108 20.983 70.3467 21.1705 69.4641 21.1705ZM69.4755 19.2955C69.877 19.2955 70.2122 19.1818 70.4811 18.9545C70.7501 18.7235 70.9527 18.4091 71.0891 18.0114C71.2292 17.6136 71.2993 17.161 71.2993 16.6534C71.2993 16.1458 71.2292 15.6932 71.0891 15.2955C70.9527 14.8977 70.7501 14.5833 70.4811 14.3523C70.2122 14.1212 69.877 14.0057 69.4755 14.0057C69.0702 14.0057 68.7292 14.1212 68.4527 14.3523C68.18 14.5833 67.9736 14.8977 67.8334 15.2955C67.697 15.6932 67.6289 16.1458 67.6289 16.6534C67.6289 17.161 67.697 17.6136 67.8334 18.0114C67.9736 18.4091 68.18 18.7235 68.4527 18.9545C68.7292 19.1818 69.0702 19.2955 69.4755 19.2955ZM75.1734 21V12.2727H77.52V13.7955H77.6109C77.77 13.2538 78.037 12.8447 78.412 12.5682C78.787 12.2879 79.2189 12.1477 79.7075 12.1477C79.8287 12.1477 79.9594 12.1553 80.0995 12.1705C80.2397 12.1856 80.3628 12.2064 80.4689 12.233V14.3807C80.3552 14.3466 80.198 14.3163 79.9973 14.2898C79.7965 14.2633 79.6128 14.25 79.4461 14.25C79.0901 14.25 78.7719 14.3277 78.4916 14.483C78.2151 14.6345 77.9954 14.8466 77.8325 15.1193C77.6734 15.392 77.5939 15.7064 77.5939 16.0625V21H75.1734ZM85.1313 21.1705C84.2336 21.1705 83.4609 20.9886 82.8131 20.625C82.1692 20.2576 81.673 19.7386 81.3245 19.0682C80.976 18.3939 80.8018 17.5966 80.8018 16.6761C80.8018 15.7784 80.976 14.9905 81.3245 14.3125C81.673 13.6345 82.1635 13.1061 82.7961 12.7273C83.4324 12.3485 84.1787 12.1591 85.0347 12.1591C85.6105 12.1591 86.1465 12.2519 86.6427 12.4375C87.1427 12.6193 87.5783 12.8939 87.9495 13.2614C88.3245 13.6288 88.6162 14.0909 88.8245 14.6477C89.0328 15.2008 89.137 15.8485 89.137 16.5909V17.2557H81.7677V15.7557H86.8586C86.8586 15.4072 86.7828 15.0985 86.6313 14.8295C86.4798 14.5606 86.2696 14.3504 86.0006 14.1989C85.7355 14.0436 85.4268 13.9659 85.0745 13.9659C84.7071 13.9659 84.3813 14.0511 84.0972 14.2216C83.8169 14.3883 83.5972 14.6136 83.4381 14.8977C83.279 15.178 83.1976 15.4905 83.1938 15.8352V17.2614C83.1938 17.6932 83.2734 18.0663 83.4324 18.3807C83.5953 18.6951 83.8245 18.9375 84.1199 19.108C84.4154 19.2784 84.7658 19.3636 85.1711 19.3636C85.44 19.3636 85.6862 19.3258 85.9097 19.25C86.1332 19.1742 86.3245 19.0606 86.4836 18.9091C86.6427 18.7576 86.7639 18.572 86.8472 18.3523L89.0859 18.5C88.9722 19.0379 88.7393 19.5076 88.387 19.9091C88.0385 20.3068 87.5877 20.6174 87.0347 20.8409C86.4855 21.0606 85.851 21.1705 85.1313 21.1705Z" fill="white"/>
</svg>
