<svg width="451" height="452" viewBox="0 0 451 452" fill="none" xmlns="http://www.w3.org/2000/svg">
<path d="M186.228 153.197L190.375 153.34L191.28 149.29L199.888 110.741C206.669 108.417 214.678 107.2 224 107.2C233.716 107.2 241.649 110.35 248.129 116.599C254.487 122.729 257.8 130.829 257.8 141.4C257.8 151.99 255.095 162.975 249.508 174.404C243.782 186.115 237.442 196.324 230.507 205.063C223.101 214.118 215.89 224.882 208.859 237.319C201.693 249.726 197.163 261.786 195.453 273.476L195.339 274.25L195.468 275.022C197.65 288.113 200.81 299.583 205.004 309.37L206.303 312.4H209.6C216.449 312.4 222.472 311.99 227.622 311.132L231.8 310.436V306.2C231.8 298.243 231.933 291.841 232.193 286.966C232.46 281.963 232.846 278.933 233.231 277.488L233.251 277.415L233.268 277.341C236.985 261.481 249.26 240.902 271.002 215.447L271.007 215.441L271.013 215.435C278.766 206.297 285.772 195.563 292.052 183.276C298.473 170.713 301.8 158.336 301.8 146.2C301.8 122.999 295.854 104.687 283.094 92.2231C270.355 79.7807 251.675 74 228 74C199.486 74 174.389 82.3322 152.927 99.056L150.863 100.664L151.008 103.277C152.084 122.659 154.52 138.019 158.494 149.089L159.639 152.28L163.028 152.397L186.228 153.197ZM240.324 375.472L243.627 374.71L244.142 371.36C244.738 367.483 245 361.416 245 353.4C245 345.068 244.167 337.22 242.472 329.876L241.637 326.258L237.933 326.011C229.848 325.472 222.534 325.2 216 325.2C209.501 325.2 203.129 325.907 196.892 327.324L193.537 328.087L193.05 331.493C192.464 335.594 192.2 341.622 192.2 349.4C192.2 357.227 193.039 365.044 194.711 372.848L195.455 376.321L198.98 376.761C205.584 377.587 212.191 378 218.8 378C225.87 378 233.047 377.151 240.324 375.472Z" fill="#082831" stroke="#082831" stroke-width="10"/>
</svg>
