<svg width="908" height="588" viewBox="0 0 908 588" fill="none" xmlns="http://www.w3.org/2000/svg">
<path d="M0 0H908V584C908 586.209 906.209 588 904 588H3.99998C1.79084 588 0 586.209 0 584V0Z" fill="#8F9CC6"/>
<path d="M1.35819 251.034L422.156 335.799L422.156 359.156L219.336 434.246L0 380.766L1.35819 251.034Z" fill="#BEBEBE"/>
<path d="M0 226.595L421.838 335.285L219.018 410.374L0 356.385V226.595Z" fill="#D9D9D9"/>
<path d="M103.908 90.2812L321.914 0H350.064L126.312 96.8049L103.908 90.2812Z" fill="#BEBEBE"/>
<path d="M251.18 313.473C251.18 309.055 254.761 305.473 259.18 305.473H274.938C279.356 305.473 282.938 309.055 282.938 313.473V327.288C282.938 329.497 281.147 331.288 278.938 331.288H255.18C252.971 331.288 251.18 329.497 251.18 327.288V313.473Z" fill="#F8F8F8"/>
<path d="M256.954 327.735C256.954 324.945 259.216 322.683 262.006 322.683V322.683C264.797 322.683 267.059 324.945 267.059 327.735V337.327C267.059 339.536 265.268 341.327 263.059 341.327H260.954C258.745 341.327 256.954 339.536 256.954 337.327V327.735Z" fill="#F8F8F8"/>
<path d="M242.518 347.893C242.518 343.474 246.1 339.893 250.518 339.893H269.164C273.582 339.893 277.164 343.474 277.164 347.893V370.312C277.164 372.521 275.373 374.312 273.164 374.312H246.518C244.309 374.312 242.518 372.521 242.518 370.312V347.893Z" fill="#F8F8F8"/>
<path d="M254.067 373.707C254.067 369.289 257.648 365.707 262.067 365.707H287.93C292.348 365.707 295.93 369.289 295.93 373.707V386.088C295.93 388.297 294.139 390.088 291.93 390.088H258.067C255.858 390.088 254.067 388.297 254.067 386.088V373.707Z" fill="#F8F8F8"/>
<path d="M282.938 376.506C282.938 372.918 285.846 370.01 289.434 370.01V370.01C293.022 370.01 295.93 372.918 295.93 376.506V413.337C295.93 415.546 294.139 417.337 291.93 417.337H286.938C284.729 417.337 282.938 415.546 282.938 413.337V376.506Z" fill="#F8F8F8"/>
<path d="M265.615 389.483C265.615 385.065 269.197 381.483 273.615 381.483H277.825C282.243 381.483 285.825 385.065 285.825 389.483V426.244C285.825 428.453 284.034 430.244 281.825 430.244H269.615C267.406 430.244 265.615 428.453 265.615 426.244V389.483Z" fill="#F8F8F8"/>
<path d="M268.425 361.924L408.892 258.544L409.432 259.268C410.752 261.039 410.381 263.536 408.601 264.845L274.577 363.483C272.798 364.792 270.285 364.418 268.964 362.647L268.425 361.924Z" fill="#5E5C5C"/>
<path d="M406.362 265.317C409.971 298.303 424.696 374.025 454.722 413.034C484.748 452.043 478.54 447.932 485.036 453.907" stroke="white" stroke-width="2"/>
<path d="M479.312 451.443C478.487 450.081 478.926 448.315 480.292 447.499V447.499C481.658 446.682 483.434 447.123 484.259 448.484L486.483 452.156C487.308 453.517 486.869 455.283 485.503 456.1V456.1C484.137 456.917 482.361 456.475 481.536 455.114L479.312 451.443Z" fill="#D9D9D9"/>
<path d="M479.399 451.608L484.403 448.703V448.703C485.208 450.071 484.73 451.835 483.357 452.632V452.632C481.985 453.428 480.203 452.976 479.399 451.608V451.608Z" fill="#F50000"/>
<path d="M475.653 453.19C475.653 453.19 475.653 455.341 479.984 454.624C484.315 453.907 481.428 453.19 484.315 453.907C487.202 454.624 492.976 448.171 490.089 447.454C487.202 446.737 495.698 447.566 495.698 447.566L497.579 451.475L479.7 459.968L475.653 453.19Z" fill="#8F9CC6"/>
<path d="M104.148 104.968L341.526 155.781L341.526 169.783L227.112 214.797L104.148 183.571L39.698 236.635L5.77436 228.747L104.148 104.968Z" fill="#BEBEBE"/>
<path d="M103.968 90.6574L341.347 155.473L226.933 200.487L103.968 169.23L16.6009 240.22L0 233.049V0H327.688L103.968 90.6574Z" fill="#D9D9D9"/>
</svg>
