<svg width="157" height="57" viewBox="0 0 157 57" fill="none" xmlns="http://www.w3.org/2000/svg">
<path d="M150.417 45.9167C153.371 45.9167 156.75 41.9583 156.75 39.5833V48.6875V52.8437C156.75 55.0208 154.375 57 152 57H5.54173C4.75006 57 0.000145378 56.2083 5.87426e-05 52.25L6.90542e-06 39.5833C6.90542e-06 44.65 5.54173 45.9167 5.54173 45.9167H150.417Z" fill="#C3A860"/>
<rect width="156.75" height="45.9167" rx="4" fill="#F2D997"/>
<path d="M87.2426 35.2308V34.7962V31.512V30.8788L87.8586 31.0257C89.4286 31.4001 91.0225 31.5872 92.6411 31.5872C94.2786 31.5872 95.441 31.4124 96.1763 31.1024C96.5388 30.9495 96.7707 30.7748 96.9107 30.5978C97.0447 30.4283 97.1137 30.233 97.1137 29.9906C97.1137 29.5318 97.0015 29.2876 96.8705 29.1566L96.865 29.1511L96.8596 29.1454C96.5362 28.801 95.9928 28.4255 95.1908 28.03L92.4882 26.7897L92.4806 26.7862L92.4731 26.7825C90.7237 25.9078 89.5124 25.1703 88.9259 24.5704C87.8592 23.4897 87.3168 22.1896 87.3168 20.6947C87.3168 18.973 88.1296 17.5776 89.67 16.5328L89.6702 16.5327C91.3185 15.4161 93.5835 14.888 96.4077 14.888C97.8291 14.888 99.2623 14.9887 100.707 15.1897L101.138 15.2496V15.6849V18.8577V19.4573L100.548 19.3496C99.0095 19.0687 97.6802 18.931 96.5561 18.931C95.4207 18.931 94.568 19.0049 93.9791 19.1406C93.375 19.2828 92.9687 19.4503 92.7216 19.6214L92.7189 19.6232C92.3317 19.8877 92.1762 20.1924 92.1762 20.5648C92.1762 20.989 92.3054 21.3002 92.5433 21.5411C92.8536 21.8281 93.3604 22.1653 94.0907 22.5488L96.8107 23.8626L96.8175 23.8659L96.8242 23.8694C98.5964 24.7924 99.8067 25.5344 100.375 26.0885L87.2426 35.2308ZM87.2426 35.2308L87.673 35.2914C89.2786 35.5171 90.8667 35.6302 92.437 35.6302C95.3655 35.6302 97.7141 35.1354 99.4315 34.092M87.2426 35.2308L99.4315 34.092M99.4315 34.092C101.083 33.0927 101.973 31.7207 101.973 29.9906C101.973 28.4417 101.442 27.1286 100.375 26.0887L99.4315 34.092ZM57.2205 35.1768L57.6311 35.1022V34.6849V31.1224V30.4882L57.0144 30.6362C55.8301 30.9204 54.2836 31.0677 52.3625 31.0677C49.1441 31.0677 46.7503 30.158 45.101 28.405C43.5754 26.7751 42.7874 24.5462 42.7874 21.6595C42.7874 18.7987 43.5866 16.654 45.1232 15.1518L45.1232 15.1518L45.1272 15.1478C45.8962 14.3789 46.8745 13.7786 48.0758 13.3546C49.2691 12.9335 50.7432 12.7152 52.511 12.7152C54.3188 12.7152 55.5975 12.8521 56.3874 13.1004L57.0374 13.3046V12.6234V9.07943V8.66214L56.6268 8.58749C55.6322 8.40666 54.3307 8.31966 52.7336 8.31966C51.141 8.31966 49.7527 8.43237 48.5742 8.66295L48.5742 8.66294L48.5705 8.66367C44.7498 9.44056 41.872 11.2626 39.9942 14.1506L39.9938 14.1511C38.6104 16.2844 37.928 18.794 37.928 21.6595C37.928 26.0338 39.2508 29.5065 41.9473 32.0085L42.2726 31.6579L41.9473 32.0085C43.2019 33.1725 44.6923 34.0482 46.4111 34.6383L46.4122 34.6386C48.1421 35.2281 50.0656 35.5189 52.177 35.5189C54.2681 35.5189 55.9534 35.4072 57.2205 35.1768ZM64.1091 31.6698L64.109 31.6698L64.1145 31.6788C64.5569 32.4074 65.0628 33.0337 65.6347 33.5523L65.6346 33.5524L65.6395 33.5566C66.2017 34.0535 66.7954 34.4569 67.4207 34.7629L67.4244 34.7647C68.0514 35.0652 68.6834 35.283 69.3198 35.4156C69.947 35.5463 70.5811 35.6117 71.2215 35.6117C71.8906 35.6117 72.5415 35.5112 73.1725 35.31C74.3001 34.9524 75.2469 34.454 75.995 33.8048L76.0664 34.8669L76.0978 35.3333H76.5653H79.9051H80.4051V34.8333V15.6849V15.2338L79.9564 15.1875L79.9494 15.1868L79.9424 15.1861L79.9354 15.1854L79.9284 15.1846L79.9214 15.1839L79.9145 15.1832L79.9075 15.1825L79.9006 15.1818L79.8937 15.1811L79.8868 15.1804L79.8799 15.1796L79.873 15.1789L79.8662 15.1782L79.8593 15.1775L79.8525 15.1768L79.8457 15.1761L79.8389 15.1754L79.8321 15.1747L79.8253 15.174L79.8185 15.1733L79.8118 15.1726L79.8051 15.1719L79.7983 15.1712L79.7916 15.1705L79.7849 15.1699L79.7783 15.1692L79.7716 15.1685L79.7649 15.1678L79.7583 15.1671L79.7517 15.1664L79.7451 15.1657L79.7385 15.1651L79.7319 15.1644L79.7253 15.1637L79.7187 15.163L79.7122 15.1624L79.7057 15.1617L79.6992 15.161L79.6927 15.1603L79.6862 15.1597L79.6797 15.159L79.6732 15.1583L79.6668 15.1577L79.6604 15.157L79.6539 15.1564L79.6475 15.1557L79.6411 15.155L79.6348 15.1544L79.6284 15.1537L79.622 15.1531L79.6157 15.1524L79.6094 15.1518L79.6031 15.1511L79.5968 15.1505L79.5905 15.1498L79.5842 15.1492L79.578 15.1485L79.5717 15.1479L79.5655 15.1472L79.5593 15.1466L79.5531 15.146L79.5469 15.1453L79.5407 15.1447L79.5346 15.144L79.5284 15.1434L79.5223 15.1428L79.5162 15.1422L79.5101 15.1415L79.504 15.1409L79.4979 15.1403L79.4918 15.1396L79.4858 15.139L79.4798 15.1384L79.4737 15.1378L79.4677 15.1372L79.4617 15.1365L79.4558 15.1359L79.4498 15.1353L79.4438 15.1347L79.4379 15.1341L79.432 15.1335L79.4261 15.1329L79.4202 15.1323L79.4143 15.1316L79.4084 15.131L79.4026 15.1304L79.3967 15.1298L79.3909 15.1292L79.3851 15.1286L79.3793 15.128L79.3735 15.1274L79.3677 15.1268L79.3619 15.1263L79.3562 15.1257L79.3505 15.1251L79.3448 15.1245L79.339 15.1239L79.3334 15.1233L79.3277 15.1227L79.322 15.1221L79.3164 15.1216L79.3107 15.121L79.3051 15.1204L79.2995 15.1198L79.2939 15.1192L79.2883 15.1187L79.2827 15.1181L79.2772 15.1175L79.2717 15.1169L79.2661 15.1164L79.2606 15.1158L79.2551 15.1152L79.2496 15.1147L79.2442 15.1141L79.2387 15.1135L79.2333 15.113L79.2278 15.1124L79.2224 15.1119L79.217 15.1113L79.2116 15.1108L79.2062 15.1102L79.2009 15.1096L79.1955 15.1091L79.1902 15.1085L79.1849 15.108L79.1796 15.1074L79.1743 15.1069L79.169 15.1064L79.1637 15.1058L79.1585 15.1053L79.1532 15.1047L79.148 15.1042L79.1428 15.1037L79.1376 15.1031L79.1324 15.1026L79.1272 15.1021L79.1221 15.1015L79.1169 15.101L79.1118 15.1005L79.1067 15.0999L79.1016 15.0994L79.0965 15.0989L79.0914 15.0984L79.0864 15.0978L79.0813 15.0973L79.0763 15.0968L79.0713 15.0963L79.0663 15.0958L79.0613 15.0953L79.0563 15.0947L79.0513 15.0942L79.0464 15.0937L79.0415 15.0932L79.0365 15.0927L79.0316 15.0922L79.0267 15.0917L79.0219 15.0912L79.017 15.0907L79.0121 15.0902L79.0073 15.0897L79.0025 15.0892L78.9977 15.0887L78.9929 15.0882L78.9881 15.0877L78.9833 15.0872L78.9785 15.0867L78.9738 15.0862L78.9691 15.0857L78.9643 15.0853L78.9596 15.0848L78.955 15.0843L78.9503 15.0838L78.9456 15.0833L78.941 15.0828L78.9363 15.0824L78.9317 15.0819L78.9271 15.0814L78.9225 15.0809L78.9179 15.0805L78.9134 15.08L78.9088 15.0795L78.9043 15.0791L78.8997 15.0786L78.8952 15.0781L78.8907 15.0777L78.8863 15.0772L78.8818 15.0767L78.8773 15.0763L78.8729 15.0758L78.8685 15.0754L78.864 15.0749L78.8596 15.0745L78.8553 15.074L78.8509 15.0736L78.8465 15.0731L78.8422 15.0727L78.8378 15.0722L78.8335 15.0718L78.8292 15.0713L78.8249 15.0709L78.8207 15.0704L78.8164 15.07L78.8121 15.0696L78.8079 15.0691L78.8037 15.0687L78.7995 15.0683L78.7953 15.0678L78.7911 15.0674L78.7869 15.067L78.7828 15.0665L78.7786 15.0661L78.7745 15.0657L78.7704 15.0653L78.7663 15.0648L78.7622 15.0644L78.7581 15.064L78.7541 15.0636L78.75 15.0632L78.746 15.0628L78.742 15.0623L78.738 15.0619L78.734 15.0615L78.73 15.0611L78.7261 15.0607L78.7221 15.0603L78.7182 15.0599L78.7143 15.0595L78.7104 15.0591L78.7065 15.0587L78.7026 15.0583L78.6987 15.0579L78.6949 15.0575L78.691 15.0571L78.6872 15.0567L78.6834 15.0563L78.6796 15.0559L78.6758 15.0555L78.6721 15.0551L78.6683 15.0547L78.6646 15.0544L78.6608 15.054L78.6571 15.0536L78.6534 15.0532L78.6497 15.0528L78.646 15.0524L78.6424 15.0521L78.6387 15.0517L78.6351 15.0513L78.6315 15.0509L78.6279 15.0506L78.6243 15.0502L78.6207 15.0498L78.6172 15.0495L78.6136 15.0491L78.6101 15.0487L78.6066 15.0484L78.603 15.048L78.5995 15.0477L78.5961 15.0473L78.5926 15.0469L78.5891 15.0466L78.5857 15.0462L78.5823 15.0459L78.5789 15.0455L78.5755 15.0452L78.5721 15.0448L78.5687 15.0445L78.5654 15.0441L78.562 15.0438L78.5587 15.0434L78.5554 15.0431L78.5521 15.0428L78.5488 15.0424L78.5455 15.0421L78.5422 15.0417L78.539 15.0414L78.5358 15.0411L78.5325 15.0407L78.5293 15.0404L78.5261 15.0401L78.523 15.0398L78.5198 15.0394L78.5166 15.0391L78.5135 15.0388L78.5104 15.0385L78.5073 15.0381L78.5042 15.0378L78.5011 15.0375L78.498 15.0372L78.495 15.0369L78.4919 15.0366L78.4889 15.0362L78.4859 15.0359L78.4829 15.0356L78.4799 15.0353L78.4769 15.035L78.474 15.0347L78.471 15.0344L78.4681 15.0341L78.4652 15.0338L78.4623 15.0335L78.4594 15.0332L78.4565 15.0329L78.4536 15.0326L78.4508 15.0323L78.448 15.032L78.4451 15.0317L78.4423 15.0314L78.4395 15.0312L78.4367 15.0309L78.434 15.0306L78.4312 15.0303L78.4285 15.03L78.4258 15.0297L78.423 15.0295L78.4204 15.0292L78.4177 15.0289L78.415 15.0286L78.4123 15.0284L78.4097 15.0281L78.4071 15.0278L78.4044 15.0275L78.4018 15.0273L78.3993 15.027L78.3967 15.0267L78.3941 15.0265L78.3916 15.0262L78.389 15.026L78.3865 15.0257L78.384 15.0254L78.3815 15.0252L78.379 15.0249L78.3766 15.0247L78.3741 15.0244L78.3717 15.0242L78.3693 15.0239L78.3669 15.0237L78.3645 15.0234L78.3621 15.0232L78.3597 15.0229L78.3574 15.0227L78.355 15.0224L78.3527 15.0222L78.3504 15.022L78.3481 15.0217L78.3458 15.0215L78.3435 15.0213L78.3413 15.021L78.339 15.0208L78.3368 15.0206L78.3346 15.0203L78.3324 15.0201L78.3302 15.0199L78.328 15.0197L78.3258 15.0194L78.3237 15.0192L78.3215 15.019L78.3194 15.0188L78.3173 15.0186L78.3152 15.0183L78.3131 15.0181L78.3111 15.0179L78.309 15.0177L78.307 15.0175L78.305 15.0173L78.3029 15.0171L78.3009 15.0169L78.299 15.0167L78.297 15.0165L78.295 15.0163L78.2931 15.0161L78.2912 15.0159L78.2893 15.0157L78.2873 15.0155L78.2855 15.0153L78.2836 15.0151L78.2817 15.0149L78.2799 15.0147L78.278 15.0145L78.2762 15.0143L78.2744 15.0141L78.2726 15.0139L78.2709 15.0138L78.2691 15.0136L78.2673 15.0134L78.2656 15.0132L78.2639 15.013L78.2622 15.0129L78.2605 15.0127L78.2588 15.0125L78.2571 15.0124L78.2555 15.0122L78.2538 15.012L78.2522 15.0118L78.2506 15.0117L78.249 15.0115L78.2474 15.0113L78.2458 15.0112L78.2443 15.011L78.2427 15.0109L78.2412 15.0107L78.2397 15.0106L78.2382 15.0104L78.2367 15.0102L78.2352 15.0101L78.2337 15.0099L78.2323 15.0098L78.2309 15.0096L78.2294 15.0095L78.228 15.0094L78.2266 15.0092L78.2253 15.0091L78.2239 15.0089L78.2225 15.0088L78.2212 15.0086L78.2199 15.0085L78.2186 15.0084L78.2173 15.0082L78.216 15.0081L78.2147 15.008L78.2135 15.0078L78.2122 15.0077L78.211 15.0076L78.2098 15.0075L78.2086 15.0073L78.2074 15.0072L78.2062 15.0071L78.205 15.007L78.2039 15.0069L78.2028 15.0067L78.2016 15.0066L78.2005 15.0065L78.1994 15.0064L78.1984 15.0063L78.1973 15.0062L78.1963 15.0061L78.1952 15.006L78.1942 15.0059L78.1932 15.0058L78.1922 15.0057L78.1912 15.0056L78.1902 15.0055L78.1893 15.0054L78.1883 15.0053L78.1874 15.0052L78.1865 15.0051L78.1856 15.005L78.1847 15.0049L78.1838 15.0048L78.183 15.0047L78.1821 15.0046L78.1813 15.0045L78.1805 15.0045L78.1797 15.0044L78.1789 15.0043L78.1781 15.0042L78.1774 15.0041L78.1766 15.0041L78.1759 15.004L78.1752 15.0039L78.1745 15.0038L78.1738 15.0038L78.1731 15.0037L78.1724 15.0036L78.1718 15.0036L78.1711 15.0035L78.1705 15.0034L78.1699 15.0034L78.1693 15.0033L78.1687 15.0032L78.1681 15.0032L78.1676 15.0031L78.167 15.0031L78.1665 15.003L78.166 15.003L78.1655 15.0029L78.165 15.0029L78.1645 15.0028L78.1641 15.0028L78.1636 15.0027L78.1632 15.0027L78.1628 15.0026L78.1624 15.0026L78.162 15.0025L78.1616 15.0025L78.1612 15.0025L78.1609 15.0024L78.1606 15.0024L78.1602 15.0024L78.1599 15.0023L78.1596 15.0023L78.1593 15.0023L78.1591 15.0022L78.1588 15.0022L78.1586 15.0022L78.1584 15.0022L78.1581 15.0021L78.1579 15.0021L78.1578 15.0021L78.1576 15.0021L78.1574 15.0021L78.1573 15.0021L78.1572 15.002L78.157 15.002L78.1569 15.002L78.1568 15.002L78.1568 15.002L78.1567 15.002L78.1567 15.002L78.1566 15.002L78.1053 15.4994L78.1566 15.002L78.1506 15.0014C77.311 14.9251 76.0867 14.888 74.4872 14.888C71.329 14.888 68.6493 15.7112 66.4813 17.3859L66.4797 17.3871C65.354 18.2642 64.443 19.3864 63.7447 20.7443L63.7438 20.746C63.0502 22.1071 62.7059 23.5957 62.7059 25.2035C62.7059 26.7578 62.8245 28.0456 63.073 29.0527L63.073 29.0527L63.0745 29.0586C63.331 30.0461 63.6742 30.9185 64.1091 31.6698ZM71.4604 19.1689L71.4604 19.169L71.4665 19.167C72.3174 18.8952 73.1006 18.764 73.8192 18.764C74.444 18.764 75.069 18.7957 75.6942 18.859V29.6787C75.6048 29.8323 75.4701 30.0174 75.2808 30.2354C74.3768 31.2499 73.2407 31.7542 71.8338 31.7542C70.7684 31.7542 69.8692 31.3814 69.1092 30.6223C68.1126 29.6024 67.5653 27.9797 67.5653 25.6488C67.5653 23.1934 68.1993 21.4626 69.3752 20.3533C69.9459 19.8162 70.6378 19.4203 71.4604 19.1689ZM115.697 31.4318L115.695 31.4311C114.749 31.0911 114.115 29.9736 114.115 27.5785V19.0238H119.553H120.053V18.5238V15.6849V15.1849H119.553H114.115V10.9349V10.4349H113.615H110.795H110.38L110.304 10.8428L109.464 15.3223L106.973 16.3152L106.658 16.4407V16.7796V18.5238V19.0238H107.158H109.404V27.597C109.404 29.7458 109.878 31.5289 110.873 32.9004L110.874 32.9016C112.128 34.6199 114.061 35.4447 116.565 35.4447H116.566H116.567H116.568H116.569H116.569H116.57H116.571H116.572H116.573H116.574H116.574H116.575H116.576H116.577H116.578H116.578H116.579H116.58H116.581H116.582H116.583H116.583H116.584H116.585H116.586H116.587H116.588H116.588H116.589H116.59H116.591H116.592H116.593H116.593H116.594H116.595H116.596H116.597H116.598H116.599H116.599H116.6H116.601H116.602H116.603H116.604H116.605H116.605H116.606H116.607H116.608H116.609H116.61H116.611H116.611H116.612H116.613H116.614H116.615H116.616H116.617H116.618H116.619H116.619H116.62H116.621H116.622H116.623H116.624H116.625H116.626H116.627H116.627H116.628H116.629H116.63H116.631H116.632H116.633H116.634H116.635H116.636H116.637H116.637H116.638H116.639H116.64H116.641H116.642H116.643H116.644H116.645H116.646H116.647H116.648H116.649H116.649H116.65H116.651H116.652H116.653H116.654H116.655H116.656H116.657H116.658H116.659H116.66H116.661H116.662H116.663H116.664H116.665H116.666H116.667H116.667H116.668H116.669H116.67H116.671H116.672H116.673H116.674H116.675H116.676H116.677H116.678H116.679H116.68H116.681H116.682H116.683H116.684H116.685H116.686H116.687H116.688H116.689H116.69H116.691H116.692H116.693H116.694H116.695H116.696H116.697H116.698H116.699H116.7H116.701H116.702H116.703H116.704H116.705H116.706H116.707H116.708H116.709H116.71H116.711H116.712H116.713H116.714H116.715H116.716H116.717H116.718H116.719H116.72H116.721H116.723H116.724H116.725H116.726H116.727H116.728H116.729H116.73H116.731H116.732H116.733H116.734H116.735H116.736H116.737H116.738H116.739H116.74H116.741H116.743H116.744H116.745H116.746H116.747H116.748H116.749H116.75H116.751H116.752H116.753H116.754H116.755H116.756H116.758H116.759H116.76H116.761H116.762H116.763H116.764H116.765H116.766H116.767H116.769H116.77H116.771H116.772H116.773H116.774H116.775H116.776H116.777H116.778H116.78H116.781H116.782H116.783H116.784H116.785H116.786H116.787H116.789H116.79H116.791H116.792H116.793H116.794H116.795H116.796H116.798H116.799H116.8H116.801H116.802H116.803H116.804H116.806H116.807H116.808H116.809H116.81H116.811H116.812H116.814H116.815H116.816H116.817H116.818H116.819H116.821H116.822H116.823H116.824H116.825H116.826H116.828H116.829H116.83H116.831H116.832H116.834H116.835H116.836H116.837H116.838H116.839H116.841H116.842H116.843H116.844H116.845H116.847H116.848H116.849H116.85H116.851H116.853H116.854H116.855H116.856H116.857H116.859H116.86H116.861H116.862H116.863H116.865H116.866H116.867H116.868H116.87H116.871H116.872H116.873H116.874H116.876H116.877H116.878H116.879H116.881H116.882H116.883H116.884H116.886H116.887H116.888H116.889H116.891H116.892H116.893H116.894H116.896H116.897H116.898H116.899H116.901H116.902H116.903H116.904H116.906H116.907H116.908H116.909H116.911H116.912H116.913H116.915H116.916H116.917H116.918H116.92H116.921H116.922H116.924H116.925H116.926H116.927H116.929H116.93H116.931H116.933H116.934H116.935H116.936H116.938H116.939H116.94H116.942H116.943H116.944H116.946H116.947H116.948H116.949H116.951H116.952H116.953H116.955H116.956H116.957H116.959H116.96H116.961H116.963H116.964H116.965H116.967H116.968H116.969H116.971H116.972H116.973H116.975H116.976H116.977H116.979H116.98H116.981H116.983H116.984H116.985H116.987H116.988H116.989H116.991H116.992H116.994H116.995H116.996H116.998H116.999H117H117.002H117.003H117.004H117.006H117.007H117.009H117.01H117.011H117.013H117.014H117.015H117.017H117.018H117.02H117.021H117.022H117.024H117.025H117.027H117.028H117.029H117.031H117.032H117.034H117.035H117.036H117.038H117.039H117.041H117.042H117.043H117.045H117.046H117.048H117.049H117.05H117.052H117.053H117.055H117.056H117.058H117.059H117.06H117.062H117.063H117.065H117.066H117.068H117.069H117.07H117.072H117.073H117.075H117.076H117.078H117.079H117.081H117.082H117.083H117.085H117.086H117.088H117.089H117.091H117.092H117.094H117.095H117.097H117.098H117.099H117.101H117.102H117.104H117.105H117.107H117.108H117.11H117.111H117.113H117.114H117.116H117.117H117.119H117.12H117.122H117.123H117.125H117.126H117.128H117.129H117.131H117.132H117.134H117.135H117.137H117.138H117.14H117.141H117.143H117.144H117.146H117.147H117.149H117.15H117.152H117.153H117.155H117.156H117.158H117.159H117.167L117.175 35.4444L118.341 35.4074C118.341 35.4074 118.342 35.4074 118.342 35.4074C118.847 35.3947 119.265 35.3566 119.576 35.2826L119.96 35.1912V34.7962V31.8275V31.119L119.293 31.3564C118.807 31.5292 118.175 31.6244 117.382 31.6244C116.568 31.6244 116.021 31.5496 115.697 31.4318Z" fill="#BC7C58" stroke="#BC7C58"/>
</svg>
