<svg width="134" height="71" viewBox="0 0 134 71" fill="none" xmlns="http://www.w3.org/2000/svg">
<path d="M0 4C0 1.79086 1.79086 0 4 0H130C132.209 0 134 1.79086 134 4V63C134 65.2091 132.209 67 130 67H100.5H83.75H76.1574C75.6407 67 75.1289 67.1001 74.6502 67.2948L69.3442 69.4532C68.4758 69.8065 67.5108 69.8435 66.6179 69.5577L59.2197 67.1903C58.8256 67.0642 58.4144 67 58.0006 67H50.25H33.5H4C1.79086 67 0 65.2091 0 63V4Z" fill="#D9D9D9" fill-opacity="0.1"/>
<path d="M1 4C1 2.34315 2.34315 1 4 1H130C131.657 1 133 2.34315 133 4V63C133 64.6569 131.657 66 130 66H100.5H83.75H76.1574C75.5115 66 74.8717 66.1252 74.2735 66.3685L74.6502 67.2948L74.2734 66.3685L68.9674 68.5269C68.3161 68.7919 67.5924 68.8196 66.9227 68.6053L59.5245 66.2379L59.2197 67.1903L59.5245 66.2379C59.0319 66.0803 58.5178 66 58.0006 66H50.25H33.5H4C2.34315 66 1 64.6569 1 63V4Z" stroke="#DEDEDE" stroke-opacity="0.1" stroke-width="2"/>
<ellipse cx="23" cy="19" rx="10" ry="9" fill="#8D8787" fill-opacity="0.3"/>
<ellipse cx="52" cy="19" rx="10" ry="9" fill="#8D8787" fill-opacity="0.3"/>
<ellipse cx="83" cy="19" rx="10" ry="9" fill="#8D8787" fill-opacity="0.3"/>
<ellipse cx="112" cy="19" rx="10" ry="9" fill="#8D8787" fill-opacity="0.3"/>
<ellipse cx="23" cy="46" rx="10" ry="9" fill="#8D8787" fill-opacity="0.3"/>
<ellipse cx="52" cy="46" rx="10" ry="9" fill="#8D8787" fill-opacity="0.3"/>
<ellipse cx="83" cy="46" rx="10" ry="9" fill="#8D8787" fill-opacity="0.3"/>
<ellipse cx="112" cy="46" rx="10" ry="9" fill="#8D8787" fill-opacity="0.3"/>
<path d="M51 66C56.5 66.1667 67.5 67.4 67.5 71" stroke="#D9D9D9" stroke-opacity="0.1" stroke-width="2"/>
<path d="M84 66C78.6667 66.1667 68 67.4 68 71" stroke="#D9D9D9" stroke-opacity="0.1" stroke-width="2"/>
<path d="M59 65H75V68L59.5 67.5L59 65Z" fill="#D9D9D9" fill-opacity="0.1"/>
</svg>
