<svg width="23" height="23" viewBox="0 0 23 23" fill="none" xmlns="http://www.w3.org/2000/svg">
<path fill-rule="evenodd" clip-rule="evenodd" d="M11.5 22C9.42239 22 7.3915 21.3837 5.66434 20.229C3.93718 19.0743 2.59138 17.4332 1.79728 15.5134C1.00317 13.5935 0.796453 11.4813 1.20329 9.4439C1.61012 7.40653 2.61221 5.53565 4.08275 4.06803C5.55328 2.60041 7.42614 1.60202 9.46431 1.19923C11.5025 0.796437 13.6143 1.00734 15.5326 1.80525C17.4508 2.60316 19.0893 3.95221 20.2405 5.68165C21.3918 7.4111 22.0041 9.44321 22 11.5208C21.9917 14.3011 20.8822 16.9649 18.9142 18.9289C16.9463 20.893 14.2803 21.9973 11.5 22ZM11.5 2.55941C9.73259 2.55942 8.00484 3.08325 6.53502 4.06474C5.0652 5.04623 3.91926 6.44133 3.24196 8.0738C2.56466 9.70627 2.3864 11.5029 2.72969 13.2366C3.07298 14.9703 3.92243 16.5634 5.17071 17.8146C6.419 19.0658 8.01012 19.9189 9.74305 20.2663C11.476 20.6136 13.273 20.4395 14.907 19.766C16.5411 19.0925 17.9388 17.9498 18.9237 16.4822C19.9086 15.0147 20.4365 13.2882 20.4406 11.5208C20.4419 10.3453 20.2118 9.18111 19.7632 8.09461C19.3146 7.0081 18.6565 6.02058 17.8262 5.18844C16.996 4.3563 16.01 3.69583 14.9246 3.24474C13.8391 2.79365 12.6754 2.56077 11.5 2.55941Z" fill="#F0F0F0"/>
<path d="M5.66434 20.229L5.46982 20.5199L5.46982 20.5199L5.66434 20.229ZM11.5 22L11.5 22.35L11.5003 22.35L11.5 22ZM1.79728 15.5134L2.1207 15.3796L1.79728 15.5134ZM1.20329 9.4439L1.54651 9.51243L1.54651 9.51243L1.20329 9.4439ZM4.08275 4.06803L4.32999 4.31576L4.32999 4.31576L4.08275 4.06803ZM9.46431 1.19923L9.53217 1.54259L9.46431 1.19923ZM15.5326 1.80525L15.3982 2.12841L15.3982 2.12841L15.5326 1.80525ZM20.2405 5.68165L20.5319 5.48771L20.5319 5.48771L20.2405 5.68165ZM22 11.5208L22.35 11.5218L22.35 11.5215L22 11.5208ZM18.9142 18.9289L19.1615 19.1767L19.1615 19.1767L18.9142 18.9289ZM6.53502 4.06474L6.72939 4.35581L6.72939 4.35581L6.53502 4.06474ZM11.5 2.55941L11.5004 2.20941L11.5 2.20941L11.5 2.55941ZM3.24196 8.0738L3.56524 8.20793L3.56524 8.20793L3.24196 8.0738ZM5.17071 17.8146L5.41849 17.5674L5.41849 17.5674L5.17071 17.8146ZM9.74305 20.2663L9.81183 19.9231L9.81183 19.9231L9.74305 20.2663ZM14.907 19.766L14.7736 19.4424L14.7736 19.4424L14.907 19.766ZM18.9237 16.4822L18.6331 16.2872L18.6331 16.2872L18.9237 16.4822ZM20.4406 11.5208L20.7906 11.5216L20.7906 11.5212L20.4406 11.5208ZM17.8262 5.18844L18.074 4.94124L18.074 4.94124L17.8262 5.18844ZM14.9246 3.24474L14.7903 3.56794L14.7903 3.56794L14.9246 3.24474ZM5.46982 20.5199C7.25455 21.7131 9.35314 22.35 11.5 22.35L11.5 21.65C9.49165 21.65 7.52845 21.0542 5.85886 19.938L5.46982 20.5199ZM1.47385 15.6471C2.29443 17.631 3.68508 19.3268 5.46982 20.5199L5.85886 19.938C4.18927 18.8218 2.88833 17.2354 2.1207 15.3796L1.47385 15.6471ZM0.860062 9.37536C0.439668 11.4806 0.653276 13.6633 1.47385 15.6471L2.1207 15.3796C1.35306 13.5237 1.15324 11.4819 1.54651 9.51243L0.860062 9.37536ZM3.8355 3.8203C2.31595 5.33684 1.28046 7.27008 0.860062 9.37536L1.54651 9.51243C1.93978 7.54298 2.90847 5.73446 4.32999 4.31576L3.8355 3.8203ZM9.39645 0.855871C7.29035 1.27209 5.35505 2.30375 3.8355 3.8203L4.32999 4.31576C5.7515 2.89706 7.56194 1.93196 9.53217 1.54259L9.39645 0.855871ZM15.667 1.48209C13.6848 0.657585 11.5026 0.439651 9.39645 0.855871L9.53217 1.54259C11.5024 1.15322 13.5438 1.3571 15.3982 2.12841L15.667 1.48209ZM20.5319 5.48771C19.3423 3.70061 17.6492 2.3066 15.667 1.48209L15.3982 2.12841C17.2525 2.89972 18.8363 4.2038 19.9492 5.8756L20.5319 5.48771ZM22.35 11.5215C22.3542 9.37465 21.7215 7.27481 20.5319 5.48771L19.9492 5.8756C21.0621 7.5474 21.654 9.51177 21.65 11.5201L22.35 11.5215ZM19.1615 19.1767C21.1949 17.1472 22.3415 14.3947 22.35 11.5218L21.65 11.5198C21.642 14.2075 20.5694 16.7826 18.667 18.6812L19.1615 19.1767ZM11.5003 22.35C14.3732 22.3472 17.128 21.2061 19.1615 19.1767L18.667 18.6812C16.7646 20.5799 14.1874 21.6474 11.4996 21.65L11.5003 22.35ZM6.72939 4.35581C8.14167 3.41274 9.80178 2.90942 11.5 2.90941L11.5 2.20941C9.6634 2.20942 7.86802 2.75376 6.34066 3.77367L6.72939 4.35581ZM3.56524 8.20793C4.21602 6.63937 5.31711 5.29888 6.72939 4.35581L6.34066 3.77367C4.8133 4.79358 3.62249 6.2433 2.91868 7.93967L3.56524 8.20793ZM3.07302 13.1686C2.74317 11.5027 2.91446 9.77649 3.56524 8.20793L2.91868 7.93967C2.21487 9.63605 2.02962 11.503 2.38636 13.3046L3.07302 13.1686ZM5.41849 17.5674C4.21907 16.3652 3.40288 14.8345 3.07302 13.1686L2.38636 13.3046C2.74309 15.1062 3.62579 16.7616 4.92294 18.0618L5.41849 17.5674ZM9.81183 19.9231C8.14674 19.5894 6.61791 18.7696 5.41849 17.5674L4.92294 18.0618C6.22009 19.362 7.8735 20.2485 9.67427 20.6094L9.81183 19.9231ZM14.7736 19.4424C13.2036 20.0895 11.4769 20.2568 9.81183 19.9231L9.67427 20.6094C11.475 20.9704 13.3424 20.7894 15.0404 20.0896L14.7736 19.4424ZM18.6331 16.2872C17.6868 17.6973 16.3437 18.7953 14.7736 19.4424L15.0404 20.0896C16.7384 19.3897 18.1909 18.2023 19.2143 16.6773L18.6331 16.2872ZM20.0906 11.52C20.0866 13.2182 19.5794 14.8771 18.6331 16.2872L19.2143 16.6773C20.2378 15.1523 20.7863 13.3582 20.7906 11.5216L20.0906 11.52ZM19.4397 8.22817C19.8707 9.27219 20.0919 10.3909 20.0906 11.5204L20.7906 11.5212C20.792 10.2998 20.5528 9.09004 20.0867 7.96104L19.4397 8.22817ZM17.5785 5.43564C18.3762 6.23525 19.0087 7.18415 19.4397 8.22817L20.0867 7.96104C19.6206 6.83205 18.9367 5.80592 18.074 4.94124L17.5785 5.43564ZM14.7903 3.56794C15.8333 4.00139 16.7807 4.63604 17.5785 5.43564L18.074 4.94124C17.2113 4.07656 16.1868 3.39027 15.0589 2.92154L14.7903 3.56794ZM11.4996 2.90941C12.6291 2.91072 13.7473 3.13449 14.7903 3.56794L15.0589 2.92154C13.931 2.45281 12.7218 2.21083 11.5004 2.20941L11.4996 2.90941ZM21.4421 11.9158C21.4421 17.177 17.177 21.4421 11.9158 21.4421V22.1421C17.5636 22.1421 22.1421 17.5636 22.1421 11.9158H21.4421ZM11.9158 21.4421C6.65464 21.4421 2.3896 17.177 2.3896 11.9158H1.6896C1.6896 17.5636 6.26805 22.1421 11.9158 22.1421V21.4421ZM2.3896 11.9158C2.3896 6.65464 6.65464 2.3896 11.9158 2.3896V1.6896C6.26805 1.6896 1.6896 6.26805 1.6896 11.9158H2.3896ZM11.9158 2.3896C17.177 2.3896 21.4421 6.65464 21.4421 11.9158H22.1421C22.1421 6.26805 17.5636 1.6896 11.9158 1.6896V2.3896Z" fill="#F0F0F0"/>
<path d="M8.27722 8.27722V15.5544M14.5148 8.27722V15.5544" stroke="#F0F0F0" stroke-width="2" stroke-linecap="round"/>
</svg>
