<svg width="181" height="121" viewBox="0 0 181 121" fill="none" xmlns="http://www.w3.org/2000/svg">
<path d="M4 1H177C178.657 1 180 2.34314 180 4V42.0222H1V4C1 2.34315 2.34315 1 4 1Z" fill="#2D3648"/>
<path d="M4 1H177C178.657 1 180 2.34314 180 4V42.0222H1V4C1 2.34315 2.34315 1 4 1Z" stroke="black" stroke-width="2"/>
<path d="M177 120L4 120C2.34314 120 1 118.657 1 117L1.00001 41.3333L180 41.3334L180 117C180 118.657 178.657 120 177 120Z" fill="#D1D3D9"/>
<path d="M177 120L4 120C2.34314 120 1 118.657 1 117L1.00001 41.3333L180 41.3334L180 117C180 118.657 178.657 120 177 120Z" stroke="black" stroke-width="2"/>
<path d="M70.7768 27.2145C70.2773 27.5646 69.6371 27.8412 68.8562 28.0443C68.0753 28.2403 67.1186 28.3383 65.9859 28.3383C64.8603 28.3383 63.7241 28.2718 62.5774 28.1388V26.1011C63.6045 26.3322 64.6387 26.4477 65.6799 26.4477C66.7211 26.4477 67.502 26.3917 68.0226 26.2797C68.5432 26.1606 68.9618 26.0066 69.2783 25.8175C69.8623 25.4674 70.1542 25.0122 70.1542 24.4521C70.1542 24.0179 70.0417 23.6818 69.8165 23.4437C69.4577 23.0726 68.9407 22.733 68.2653 22.4249L65.5638 21.196C64.6352 20.7618 63.9774 20.3592 63.5904 19.9881C62.7603 19.1898 62.3452 18.2655 62.3452 17.2152C62.3452 16.1368 62.8166 15.265 63.7593 14.5998C64.7934 13.8716 66.2638 13.5074 68.1703 13.5074C69.4015 13.5074 70.5271 13.5565 71.5472 13.6545V15.6607C70.6819 15.4646 69.7145 15.3666 68.6452 15.3666C67.5829 15.3666 66.809 15.4226 66.3236 15.5346C65.8452 15.6397 65.4688 15.7762 65.1944 15.9443C64.695 16.2524 64.4452 16.6585 64.4452 17.1627C64.4452 17.6528 64.6035 18.059 64.9201 18.3811C65.2015 18.6541 65.715 18.9693 66.4608 19.3264L69.2361 20.6393C70.1577 21.0734 70.8014 21.4831 71.1673 21.8682C71.5401 22.2533 71.8145 22.642 71.9904 23.0341C72.1663 23.4192 72.2542 23.8849 72.2542 24.4311C72.2542 24.9702 72.1346 25.4814 71.8954 25.9646C71.6562 26.4407 71.2834 26.8574 70.7768 27.2145Z" fill="white"/>
<path d="M82.6436 28.2018C82.2214 28.3348 81.4898 28.4014 80.4486 28.4014C79.4074 28.4014 78.521 28.2753 77.7893 28.0232C77.0647 27.7712 76.4456 27.4 75.932 26.9099C74.8697 25.8945 74.3386 24.4871 74.3386 22.6875C74.3386 20.9439 74.9753 19.5715 76.2486 18.5701C77.3883 17.6738 78.7883 17.2257 80.4486 17.2257C81.4757 17.2257 82.1792 17.2607 82.5591 17.3307V19.2003C81.9682 19.0113 81.2928 18.9167 80.533 18.9167C79.7803 18.9167 79.1541 19.0218 78.6546 19.2318C78.1551 19.4349 77.7471 19.7115 77.4305 20.0616C76.8325 20.7268 76.5335 21.6021 76.5335 22.6875C76.5335 24.5221 77.1984 25.744 78.528 26.3532C78.9994 26.5703 79.4602 26.6788 79.9104 26.6788C80.3607 26.6788 80.7054 26.6683 80.9446 26.6473C81.1908 26.6263 81.423 26.5983 81.641 26.5633C82.1054 26.4862 82.4395 26.4057 82.6436 26.3217V28.2018Z" fill="white"/>
<path d="M84.6857 22.7925C84.6857 21.091 85.2309 19.7115 86.3214 18.6541C87.3415 17.6668 88.6043 17.1732 90.1098 17.1732C91.5872 17.1732 92.8219 17.6668 93.8138 18.6541C94.8691 19.7045 95.3967 21.084 95.3967 22.7925C95.3967 24.4941 94.8656 25.8665 93.8033 26.9099C92.7972 27.9042 91.5626 28.4014 90.0993 28.4014C88.6148 28.4014 87.3555 27.9042 86.3214 26.9099C85.2309 25.8665 84.6857 24.4941 84.6857 22.7925ZM86.8807 22.7925C86.8807 24.5851 87.4576 25.8035 88.6113 26.4477C89.0194 26.6718 89.5083 26.7838 90.0781 26.7838C90.648 26.7838 91.1299 26.6718 91.5239 26.4477C91.9178 26.2166 92.2415 25.9155 92.4947 25.5444C92.9661 24.8302 93.2017 23.9129 93.2017 22.7925C93.2017 21.0139 92.6354 19.7955 91.5028 19.1373C91.1088 18.9062 90.6374 18.7907 90.0887 18.7907C89.54 18.7907 89.0616 18.9062 88.6535 19.1373C88.2525 19.3614 87.9219 19.659 87.6616 20.0301C87.141 20.7583 86.8807 21.6791 86.8807 22.7925Z" fill="white"/>
<path d="M104.699 19.3159C104.312 19.2038 103.848 19.1478 103.306 19.1478C102.772 19.1478 102.332 19.2038 101.987 19.3159C101.642 19.4209 101.34 19.5504 101.08 19.7045C100.601 19.9846 100.253 20.2997 100.035 20.6498V28.2333H97.9243V17.3937H99.9504L100.035 18.8957C100.562 18.2375 101.333 17.7438 102.346 17.4147C102.712 17.2887 103.13 17.2257 103.602 17.2257C104.073 17.2257 104.439 17.2607 104.699 17.3307V19.3159Z" fill="white"/>
<path d="M111.659 28.4014C107.677 28.4014 105.686 26.4652 105.686 22.5929C105.686 20.9264 106.238 19.5925 107.343 18.5911C108.335 17.6808 109.467 17.2257 110.741 17.2257C112.127 17.2257 113.21 17.6878 113.991 18.6121C114.716 19.4734 115.078 20.6253 115.078 22.0678V22.887H107.881C107.881 24.8687 108.694 26.0801 110.319 26.5212C110.706 26.6263 111.3 26.6788 112.102 26.6788C112.911 26.6788 113.703 26.5703 114.476 26.3532V28.1283C113.703 28.3103 112.763 28.4014 111.659 28.4014ZM112.967 21.343C112.967 20.6708 112.781 20.1036 112.408 19.6415C111.972 19.1093 111.37 18.8432 110.604 18.8432C109.795 18.8432 109.137 19.0988 108.63 19.61C108.166 20.0861 107.934 20.6638 107.934 21.343H112.967Z" fill="white"/>
</svg>
