<svg width="23" height="22" viewBox="0 0 23 22" fill="none" xmlns="http://www.w3.org/2000/svg">
<line x1="19.1085" y1="8.65216" x2="19.1085" y2="14.4384" stroke="#F0F0F0" stroke-width="2" stroke-linecap="round"/>
<line x1="22" y1="4.20288" x2="22" y2="17.7753" stroke="#F0F0F0" stroke-width="2" stroke-linecap="round"/>
<path d="M15.2169 21C15.0876 20.9972 14.9612 20.955 14.8506 20.8776L6.02169 14.8823H1.72289C1.53195 14.8794 1.34952 14.7906 1.21449 14.6347C1.07946 14.4789 1.0025 14.2684 1 14.048V7.93027C1.0025 7.70991 1.07946 7.49939 1.21449 7.34356C1.34952 7.18773 1.53195 7.09891 1.72289 7.09603H6.02169L14.8506 1.11177C14.9605 1.03855 15.0852 1 15.212 1C15.3389 1 15.4636 1.03855 15.5735 1.11177C15.6837 1.18519 15.7754 1.29047 15.8397 1.41725C15.9039 1.54403 15.9384 1.68793 15.9398 1.83477V20.1546C15.9384 20.3015 15.9039 20.4454 15.8397 20.5722C15.7754 20.6989 15.6837 20.8042 15.5735 20.8776C15.4652 20.9518 15.3427 20.9939 15.2169 21ZM2.44578 13.2138H6.2241C6.35258 13.2126 6.47901 13.251 6.59036 13.325L14.494 18.6864V3.29191L6.59036 8.65328C6.47901 8.72726 6.35258 8.76566 6.2241 8.76451H2.44578V13.2138Z" fill="#F0F0F0" stroke="#F0F0F0" stroke-width="0.6"/>
</svg>
