<svg width="141" height="119" viewBox="0 0 141 119" fill="none" xmlns="http://www.w3.org/2000/svg">
<g filter="url(#filter0_f_113_96)">
<rect x="30" y="30.2526" width="81" height="58.6185" rx="29.3093" fill="#F5F5F5"/>
</g>
<path d="M78.7962 63.0536H65.6373H60.9039C59.0116 63.0536 57.4773 64.4812 57.4773 66.2419V67.1858V80.6987H82.2245V67.1858V66.2419C82.2237 64.4812 80.6894 63.0536 78.7962 63.0536Z" fill="#F8DA7F"/>
<path d="M102.762 44.3863C102.762 47.2877 100.234 49.6403 97.1156 49.6403C93.9973 49.6403 91.4688 47.2877 91.4688 44.3863L87.1626 37.8811H94.8795L102.762 44.3863Z" fill="#F8DA7F"/>
<path d="M59.2416 37.8818L54.9353 44.387C54.9353 47.2884 57.4638 49.6411 60.582 49.6411C63.7003 49.6411 66.2288 47.2884 66.2288 44.387V37.8818H59.2416Z" fill="#F8DA7F"/>
<path d="M80.4584 37.8818L84.7647 44.387C84.7647 47.2884 82.2362 49.6411 79.1179 49.6411C75.9997 49.6411 73.4712 47.2884 73.4712 44.387V37.8818H80.4584Z" fill="#F8DA7F"/>
<path d="M36.9377 44.3863C36.9377 47.2877 39.4662 49.6403 42.5845 49.6403C45.7027 49.6403 48.2312 47.2877 48.2312 44.3863L52.5375 37.8811H44.8206L36.9377 44.3863Z" fill="#F8DA7F"/>
<path d="M40.2456 81.4826C39.7805 81.4826 39.4031 81.1322 39.4031 80.6987V53.2464C39.4031 52.8136 39.7805 52.4624 40.2456 52.4624C40.7107 52.4624 41.0882 52.8136 41.0882 53.2464V80.6987C41.0882 81.1322 40.7115 81.4826 40.2456 81.4826Z" fill="black"/>
<path d="M99.4546 81.4826C98.9887 81.4826 98.6121 81.1322 98.6121 80.6986V53.2448C98.6121 52.812 98.9887 52.4608 99.4546 52.4608C99.9205 52.4608 100.297 52.812 100.297 53.2448V80.6986C100.297 81.1322 99.9197 81.4826 99.4546 81.4826Z" fill="black"/>
<path d="M106.922 89H53.2637C52.7986 89 52.4212 88.6495 52.4212 88.216C52.4212 87.7825 52.7986 87.4321 53.2637 87.4321H106.08V83.5892C106.08 82.4281 105.064 81.4827 103.816 81.4827H35.8846C34.6359 81.4827 33.6206 82.4281 33.6206 83.5892V87.4321H41.7453C42.2104 87.4321 42.5878 87.7825 42.5878 88.216C42.5878 88.6495 42.2104 89 41.7453 89H32.7781C32.313 89 31.9355 88.6495 31.9355 88.216V83.5892C31.9355 81.5634 33.7074 79.9148 35.8846 79.9148H103.816C105.994 79.9148 107.765 81.5634 107.765 83.5892V88.216C107.765 88.6495 107.388 89 106.922 89Z" fill="black"/>
<path d="M79.1181 54.195C73.543 54.195 69.0076 49.975 69.0076 44.7876V34.111C69.0076 33.6782 69.385 33.327 69.8501 33.327H81.318C81.6104 33.327 81.8817 33.4681 82.0358 33.7002L89.104 44.3768C89.1848 44.4999 89.2287 44.6425 89.2287 44.7876C89.2287 49.975 84.6932 54.195 79.1181 54.195ZM70.6927 34.8949V44.7876C70.6927 49.1103 74.4723 52.6271 79.1181 52.6271C83.6864 52.6271 87.4163 49.2279 87.5402 45.0047L80.8479 34.8949H70.6927V34.8949Z" fill="black"/>
<path d="M97.6541 54.195C92.1599 54.195 87.6758 50.0973 87.5469 45.0142L80.601 34.5226C80.4418 34.2804 80.4342 33.977 80.5833 33.7293C80.7324 33.4815 81.0138 33.3279 81.3188 33.3279H93.9848C94.1904 33.3279 94.3892 33.3984 94.5434 33.5254L107.481 44.202C107.662 44.3494 107.765 44.5634 107.765 44.7876C107.765 49.975 103.229 54.195 97.6541 54.195ZM82.8262 34.895L89.1031 44.3761C89.1848 44.4999 89.2287 44.6426 89.2287 44.7876C89.2287 49.1103 93.0083 52.6271 97.6541 52.6271C102.175 52.6271 105.877 49.2961 106.071 45.1334L93.6638 34.895H82.8262V34.895Z" fill="black"/>
<path d="M60.5822 54.195C55.0071 54.195 50.4717 49.975 50.4717 44.7876C50.4717 44.6425 50.5147 44.4999 50.5964 44.3768L57.6645 33.7002C57.8178 33.4689 58.0891 33.327 58.3823 33.327H69.8502C70.3153 33.327 70.6928 33.6782 70.6928 34.111V44.7876C70.6928 49.975 66.1573 54.195 60.5822 54.195ZM52.1601 45.0047C52.284 49.2271 56.0148 52.6271 60.5822 52.6271C65.228 52.6271 69.0077 49.1103 69.0077 44.7876V34.8949H58.8533L52.1601 45.0047Z" fill="black"/>
<path d="M42.0461 54.195C36.471 54.195 31.9355 49.975 31.9355 44.7876C31.9355 44.5634 32.0392 44.3493 32.2186 44.2012L45.1568 33.5246C45.311 33.3968 45.5098 33.327 45.7162 33.327H58.3822C58.6872 33.327 58.9686 33.4807 59.1177 33.7284C59.2669 33.9761 59.2593 34.2803 59.1 34.5218L52.1541 45.0133C52.0244 50.0973 47.5403 54.195 42.0461 54.195ZM33.6291 45.1333C33.8237 49.2961 37.525 52.6271 42.0461 52.6271C46.6919 52.6271 50.4715 49.1103 50.4715 44.7876C50.4715 44.6425 50.5145 44.4999 50.5962 44.3768L56.8732 34.8957H46.0355L33.6291 45.1333Z" fill="black"/>
<path d="M106.922 45.5716H32.7781C32.313 45.5716 31.9355 45.2204 31.9355 44.7876C31.9355 44.3549 32.313 44.0037 32.7781 44.0037H106.922C107.388 44.0037 107.765 44.3549 107.765 44.7876C107.765 45.2204 107.388 45.5716 106.922 45.5716Z" fill="black"/>
<path d="M94.1205 34.895H45.7163C45.2512 34.895 44.8738 34.5438 44.8738 34.1111V28.6563C44.8738 26.64 46.6364 25 48.8034 25H91.0335C93.1996 25 94.9631 26.64 94.9631 28.6563V34.1111C94.9631 34.5438 94.5856 34.895 94.1205 34.895ZM46.5589 33.3271H93.278V28.6563C93.278 27.5047 92.2712 26.5679 91.0335 26.5679H48.8034C47.5657 26.5679 46.5589 27.5047 46.5589 28.6563V33.3271V33.3271Z" fill="black"/>
<path d="M86.4365 81.4827C85.9705 81.4827 85.5939 81.1323 85.5939 80.6988V62.3222C85.5939 60.9966 84.4346 59.9179 83.0098 59.9179H70.6927V65.1249C70.6927 65.5584 70.3152 65.9088 69.8501 65.9088C69.385 65.9088 69.0076 65.5584 69.0076 65.1249V59.1339C69.0076 58.7004 69.385 58.35 69.8501 58.35H83.009C85.3631 58.35 87.2782 60.1319 87.2782 62.3222V80.6988C87.279 81.1323 86.9015 81.4827 86.4365 81.4827Z" fill="black"/>
<path d="M69.8501 81.4828C69.385 81.4828 69.0076 81.1324 69.0076 80.6988V71.6489C69.0076 71.2154 69.385 70.865 69.8501 70.865C70.3152 70.865 70.6927 71.2154 70.6927 71.6489V80.6988C70.6927 81.1324 70.3152 81.4828 69.8501 81.4828Z" fill="black"/>
<path d="M74.3889 74.1824C73.923 74.1824 73.5464 73.832 73.5464 73.3985V71.6911C73.5464 71.2575 73.923 70.9071 74.3889 70.9071C74.8549 70.9071 75.2315 71.2575 75.2315 71.6911V73.3985C75.2315 73.832 74.854 74.1824 74.3889 74.1824Z" fill="black"/>
<path d="M53.2639 81.4827C52.7988 81.4827 52.4214 81.1323 52.4214 80.6988V62.3222C52.4214 60.1319 54.3365 58.35 56.6906 58.35H69.8503C70.3154 58.35 70.6928 58.7004 70.6928 59.1339V65.1249C70.6928 65.5584 70.3154 65.9088 69.8503 65.9088C69.3852 65.9088 69.0077 65.5584 69.0077 65.1249V59.9179H56.6906C55.2658 59.9179 54.1065 60.9966 54.1065 62.3222V80.6988C54.1065 81.1323 53.729 81.4827 53.2639 81.4827Z" fill="black"/>
<path d="M69.8501 81.4828C69.385 81.4828 69.0076 81.1324 69.0076 80.6988V71.6489C69.0076 71.2154 69.385 70.865 69.8501 70.865C70.3152 70.865 70.6927 71.2154 70.6927 71.6489V80.6988C70.6927 81.1324 70.3152 81.4828 69.8501 81.4828Z" fill="black"/>
<path d="M65.3123 74.1824C64.8472 74.1824 64.4697 73.832 64.4697 73.3985V71.6911C64.4697 71.2575 64.8472 70.9071 65.3123 70.9071C65.7774 70.9071 66.1548 71.2575 66.1548 71.6911V73.3985C66.1548 73.832 65.7774 74.1824 65.3123 74.1824Z" fill="black"/>
<defs>
<filter id="filter0_f_113_96" x="0" y="0.252563" width="141" height="118.619" filterUnits="userSpaceOnUse" color-interpolation-filters="sRGB">
<feFlood flood-opacity="0" result="BackgroundImageFix"/>
<feBlend mode="normal" in="SourceGraphic" in2="BackgroundImageFix" result="shape"/>
<feGaussianBlur stdDeviation="15" result="effect1_foregroundBlur_113_96"/>
</filter>
</defs>
</svg>
